<svg width="38" height="49" viewBox="0 0 38 49" fill="none" xmlns="http://www.w3.org/2000/svg">
<path d="M36.6747 5.77015C36.4028 4.92836 35.859 4.08657 35.3151 3.24478C34.6353 2.54328 33.9555 1.98209 33.0038 1.56119C32.1881 1.1403 31.2364 1 30.2846 1H7.71536C6.76364 1 5.81192 1.1403 4.99616 1.56119C4.18041 1.98209 3.36465 2.68358 2.68485 3.38507C2.14101 4.08657 1.59718 4.92836 1.32526 5.77015C1.05334 6.75224 0.917378 7.73433 1.05334 8.57612L4.72425 41.9672C4.8602 43.6507 5.67596 45.194 6.8996 46.3164C8.12323 47.4388 9.75475 48 11.3863 48H26.6137C28.2452 48 29.8768 47.4388 31.1004 46.3164C32.324 45.194 33.1398 43.6507 33.2758 41.9672L36.9467 8.57612C37.0826 7.73433 36.9467 6.75224 36.6747 5.77015ZM31.6442 19.8L29.197 41.5463C29.061 42.2478 28.7891 42.809 28.2452 43.2298C27.7014 43.6507 27.2935 43.9313 26.4778 43.9313H11.5222C10.5705 43.9313 10.1626 43.6507 9.75475 43.2298C9.21091 42.809 8.80303 42.2478 8.80303 41.5463L6.35576 19.8V19.3791H31.7802L31.6442 19.8ZM32.8679 8.15522L32.0521 15.0299V15.3104H5.81192V15.0299L5.13212 8.15522C5.13212 8.01493 5.13212 8.01493 5.13212 7.87463C5.13212 7.59403 5.13212 7.31343 5.26808 7.03284C5.26808 6.61194 5.54 6.33134 5.81192 6.05075C6.08384 5.77015 6.35576 5.48955 6.76364 5.34925C7.17152 5.20896 7.44344 5.20896 7.71536 5.20896H30.1487C30.5566 5.20896 30.9644 5.34925 31.2364 5.48955C31.5083 5.62985 31.9162 5.91045 32.1881 6.19104C32.46 6.47164 32.596 6.89254 32.7319 7.17313C32.8679 7.45373 33.0038 7.73433 32.8679 8.15522ZM23.7586 37.8985C24.3024 37.8985 24.8463 37.6179 25.1182 37.3373C25.5261 36.9164 25.662 36.4955 25.662 35.9343V26.394C25.662 25.8328 25.3901 25.2716 25.1182 24.991C24.7103 24.5701 24.3024 24.4298 23.7586 24.4298C23.2147 24.4298 22.6709 24.5701 22.399 24.991C21.9911 25.4119 21.8551 25.8328 21.8551 26.394V35.794C21.8551 36.3552 22.1271 36.9164 22.399 37.197C22.6709 37.6179 23.2147 37.8985 23.7586 37.8985ZM14.2414 37.8985C14.7853 37.8985 15.3291 37.6179 15.737 37.3373C16.1448 36.9164 16.2808 36.4955 16.2808 35.9343V26.394C16.2808 25.8328 16.1448 25.2716 15.737 24.991C15.3291 24.5701 14.7853 24.4298 14.2414 24.4298C13.6976 24.4298 13.1537 24.5701 12.8818 24.991C12.4739 25.4119 12.338 25.8328 12.338 26.394V35.794C12.338 36.3552 12.6099 36.9164 12.8818 37.197C13.2897 37.6179 13.6976 37.8985 14.2414 37.8985Z" fill="#091422" stroke="#FDECD2" stroke-width="0.5"/>
</svg>
