<svg width="47" height="47" viewBox="0 0 47 47" fill="none" xmlns="http://www.w3.org/2000/svg">
<path d="M42.05 42.3V42.55H42.3H44.65C45.207 42.55 45.7411 42.7712 46.1349 43.1651C46.5288 43.5589 46.75 44.093 46.75 44.65C46.75 45.207 46.5288 45.7411 46.1349 46.1349C45.7411 46.5288 45.207 46.75 44.65 46.75H2.35C1.79304 46.75 1.2589 46.5288 0.865076 46.1349C0.471249 45.7411 0.25 45.207 0.25 44.65C0.25 44.093 0.471249 43.5589 0.865076 43.1651C1.2589 42.7712 1.79304 42.55 2.35 42.55H4.7H4.95V42.3V2.35C4.95 1.79305 5.17125 1.2589 5.56508 0.865076C5.9589 0.471249 6.49305 0.25 7.05 0.25H39.95C40.507 0.25 41.0411 0.471249 41.4349 0.865076C41.8288 1.2589 42.05 1.79304 42.05 2.35V42.3ZM25.85 42.55H26.1V42.3V32.9V32.65H25.85H21.15H20.9V32.9V42.3V42.55H21.15H25.85ZM37.6 42.55H37.85V42.3V4.7V4.45H37.6H9.4H9.15V4.7V42.3V42.55H9.4H16.45H16.7V42.3V30.55C16.7 29.993 16.9212 29.4589 17.3151 29.0651C17.7089 28.6712 18.243 28.45 18.8 28.45H28.2C28.757 28.45 29.2911 28.6712 29.6849 29.0651C30.0787 29.4589 30.3 29.993 30.3 30.55V42.3V42.55H30.55H37.6ZM30.55 13.85H28.2C27.643 13.85 27.1089 13.6287 26.7151 13.2349C26.3212 12.8411 26.1 12.307 26.1 11.75C26.1 11.193 26.3212 10.6589 26.7151 10.2651C27.1089 9.87125 27.643 9.65 28.2 9.65H30.55C31.107 9.65 31.6411 9.87125 32.0349 10.2651C32.4287 10.6589 32.65 11.193 32.65 11.75C32.65 12.307 32.4287 12.8411 32.0349 13.2349C31.6411 13.6287 31.107 13.85 30.55 13.85ZM30.55 23.25H28.2C27.643 23.25 27.1089 23.0287 26.7151 22.6349C26.3212 22.2411 26.1 21.707 26.1 21.15C26.1 20.593 26.3212 20.0589 26.7151 19.6651C27.1089 19.2712 27.643 19.05 28.2 19.05H30.55C31.107 19.05 31.6411 19.2712 32.0349 19.6651C32.4287 20.0589 32.65 20.593 32.65 21.15C32.65 21.707 32.4287 22.2411 32.0349 22.6349C31.6411 23.0287 31.107 23.25 30.55 23.25ZM18.8 13.85H16.45C15.893 13.85 15.3589 13.6287 14.9651 13.2349C14.5712 12.8411 14.35 12.307 14.35 11.75C14.35 11.193 14.5712 10.6589 14.9651 10.2651C15.3589 9.87125 15.893 9.65 16.45 9.65H18.8C19.357 9.65 19.8911 9.87125 20.2849 10.2651C20.6787 10.6589 20.9 11.193 20.9 11.75C20.9 12.307 20.6787 12.8411 20.2849 13.2349C19.8911 13.6287 19.357 13.85 18.8 13.85ZM18.8 23.25H16.45C15.893 23.25 15.3589 23.0287 14.9651 22.6349C14.5712 22.2411 14.35 21.707 14.35 21.15C14.35 20.593 14.5712 20.0589 14.9651 19.6651C15.3589 19.2712 15.893 19.05 16.45 19.05H18.8C19.357 19.05 19.8911 19.2712 20.2849 19.6651C20.6787 20.0589 20.9 20.593 20.9 21.15C20.9 21.707 20.6787 22.2411 20.2849 22.6349C19.8911 23.0287 19.357 23.25 18.8 23.25Z" fill="#091422" stroke="#FDECD2" stroke-width="0.5"/>
</svg>
