<svg width="16" height="16" viewBox="0 0 16 16" fill="none" xmlns="http://www.w3.org/2000/svg">
<path d="M8.01126 9.59958C7.85326 9.59958 7.6988 9.64649 7.56743 9.73439C7.43605 9.82229 7.33366 9.94723 7.2732 10.0934C7.21273 10.2396 7.19691 10.4004 7.22774 10.5556C7.25856 10.7108 7.33465 10.8533 7.44637 10.9652C7.55809 11.0771 7.70044 11.1533 7.85541 11.1841C8.01037 11.215 8.171 11.1992 8.31698 11.1386C8.46295 11.0781 8.58772 10.9755 8.6755 10.844C8.76328 10.7124 8.81013 10.5578 8.81013 10.3995C8.81013 10.1874 8.72597 9.9839 8.57615 9.83388C8.42633 9.68386 8.22313 9.59958 8.01126 9.59958ZM8.01126 0C6.96216 0 5.92334 0.206917 4.9541 0.608937C3.98486 1.01096 3.10419 1.60021 2.36237 2.34304C0.864186 3.84327 0.0225174 5.87801 0.0225174 7.99965C0.0155335 9.84687 0.654261 11.6383 1.82797 13.0634L0.230225 14.6634C0.119375 14.7758 0.0442836 14.9187 0.0144264 15.0739C-0.0154309 15.2291 0.00128371 15.3896 0.062461 15.5353C0.128814 15.6792 0.236379 15.8002 0.371503 15.8828C0.506627 15.9654 0.663215 16.006 0.821391 15.9993H8.01126C10.13 15.9993 12.162 15.1565 13.6602 13.6563C15.1583 12.156 16 10.1213 16 7.99965C16 5.87801 15.1583 3.84327 13.6602 2.34304C12.162 0.842817 10.13 0 8.01126 0V0ZM8.01126 14.3994H2.74668L3.48963 13.6554C3.56512 13.5813 3.62517 13.493 3.66631 13.3955C3.70745 13.298 3.72885 13.1933 3.72929 13.0874C3.72629 12.8764 3.64015 12.6751 3.48963 12.5274C2.44357 11.4811 1.79216 10.104 1.64638 8.63065C1.5006 7.15732 1.86947 5.67895 2.69014 4.44742C3.51081 3.21589 4.73251 2.30738 6.1471 1.8767C7.56168 1.44601 9.08164 1.51978 10.448 2.08544C11.8144 2.6511 12.9426 3.67366 13.6405 4.97889C14.3384 6.28413 14.5627 7.79129 14.2753 9.2436C13.9879 10.6959 13.2066 12.0035 12.0644 12.9436C10.9222 13.8837 9.48979 14.3982 8.01126 14.3994V14.3994ZM8.01126 4.79979C7.79938 4.79979 7.59619 4.88407 7.44637 5.03409C7.29655 5.18411 7.21238 5.38759 7.21238 5.59975V7.99965C7.21238 8.21181 7.29655 8.41528 7.44637 8.56531C7.59619 8.71533 7.79938 8.79961 8.01126 8.79961C8.22313 8.79961 8.42633 8.71533 8.57615 8.56531C8.72597 8.41528 8.81013 8.21181 8.81013 7.99965V5.59975C8.81013 5.38759 8.72597 5.18411 8.57615 5.03409C8.42633 4.88407 8.22313 4.79979 8.01126 4.79979Z" fill="#091422"/>
</svg>
