<svg width="48" height="48" viewBox="0 0 48 48" fill="none" xmlns="http://www.w3.org/2000/svg">
<path d="M15.1088 25.9346L15.513 25.7736L15.1703 25.5055C12.8466 23.6873 11.1508 21.1943 10.3184 18.3733C9.48604 15.5523 9.55847 12.5435 10.5256 9.76533C11.4928 6.98716 13.3067 4.57764 15.7153 2.87213C18.1239 1.16661 21.0072 0.25 23.9642 0.25C26.9212 0.25 29.8046 1.16661 32.2132 2.87213C34.6217 4.57764 36.4356 6.98716 37.4028 9.76533C38.37 12.5435 38.4424 15.5523 37.6101 18.3733C36.7777 21.1943 35.0818 23.6873 32.7581 25.5055L32.9122 25.7024L32.8204 25.9349C36.847 27.5242 40.3625 30.1732 42.9904 33.5978C45.618 37.0221 47.259 41.0929 47.7377 45.3738C47.7984 45.9371 47.6328 46.5016 47.2767 46.9443C46.9234 47.3835 46.4109 47.6676 45.8492 47.7355L45.5985 47.7355L45.597 47.7355C45.0622 47.7388 44.5453 47.5448 44.1461 47.1915C43.747 46.8382 43.4938 46.3507 43.4351 45.8231L43.4351 45.8227C42.8985 41.0724 40.621 36.6855 37.038 33.5C33.4551 30.3146 28.8179 28.5539 24.0125 28.5539C19.207 28.5539 14.5698 30.3146 10.9869 33.5C7.40391 36.6855 5.12638 41.0724 4.58983 45.8227L4.58977 45.8233C4.52674 46.3931 4.23865 46.915 3.78837 47.2741C3.33805 47.6332 2.76247 47.7998 2.18828 47.737C1.61411 47.6742 1.08889 47.3871 0.727989 46.9395C0.549297 46.7179 0.41631 46.4635 0.336554 46.1909C0.2568 45.9182 0.231822 45.6327 0.263033 45.3505C0.739339 41.0815 2.37159 37.0208 4.98594 33.6016C7.60035 30.1822 11.0989 27.5323 15.1088 25.9346ZM18.4661 22.5906C20.0936 23.6722 22.007 24.2494 23.9642 24.2494C26.5887 24.2494 29.106 23.2125 30.9623 21.3665C32.8185 19.5204 33.8616 17.0162 33.8616 14.4049C33.8616 12.4575 33.281 10.554 32.1933 8.93506C31.1056 7.31613 29.5597 6.05453 27.7514 5.3096C25.943 4.56467 23.9532 4.36978 22.0336 4.74952C20.114 5.12927 18.3505 6.06664 16.9662 7.44331C15.5819 8.81999 14.639 10.5742 14.2571 12.4841C13.875 14.394 14.0711 16.3736 14.8204 18.1727C15.5697 19.9716 16.8385 21.5091 18.4661 22.5906Z" fill="#091422" stroke="#FDECD2" stroke-width="0.5"/>
</svg>
