<svg width="20" height="20" viewBox="0 0 20 20" fill="none" xmlns="http://www.w3.org/2000/svg">
<path d="M8.73013 17.7177C8.16509 17.5968 7.64041 17.4355 7.07537 17.2339C6.91393 17.1935 6.79285 17.1935 6.63141 17.2339C6.46997 17.2339 6.34889 17.2742 6.22781 17.3548C5.98565 17.4758 5.78385 17.758 5.74349 18C5.66276 18.2822 5.70313 18.6048 5.86457 18.8467C5.90493 18.9274 5.98565 19.008 6.02601 19.0483C6.14709 19.1693 6.30853 19.2903 6.51033 19.3306C7.03501 19.5322 7.60005 19.6935 8.16509 19.8144C8.44761 19.8548 8.73013 19.8548 9.01265 19.6935C9.25481 19.5725 9.45661 19.2903 9.49697 19.0483C9.57769 18.7661 9.53733 18.4435 9.37589 18.2016C9.25481 17.9596 9.01265 17.758 8.73013 17.7177Z" fill="#091422"/>
<path d="M12.4021 17.5163C11.9985 17.6373 11.5545 17.718 11.1106 17.7986C11.1913 17.7986 11.3124 17.7583 11.3931 17.7583C11.272 17.7583 11.1509 17.7986 11.0702 17.7986C10.9088 17.7986 10.7877 17.8389 10.6666 17.8792C10.5455 17.9196 10.4244 18.0002 10.3033 18.1212C10.1015 18.3228 9.98047 18.605 9.98047 18.8873C9.98047 19.1695 10.1015 19.4518 10.3033 19.6534C10.5052 19.855 10.7877 20.0163 11.0702 19.976C11.716 19.8953 12.3617 19.8147 12.9671 19.6131C13.2496 19.5324 13.4918 19.3712 13.6129 19.1292C13.6936 19.0083 13.734 18.8873 13.734 18.726C13.7743 18.5647 13.7743 18.4438 13.734 18.2825C13.6532 18.0002 13.4918 17.7583 13.2496 17.6373C12.9671 17.5163 12.6846 17.4357 12.4021 17.5163Z" fill="#091422"/>
<path d="M15.3862 15.9031C15.2248 16.0644 15.0634 16.1854 14.9019 16.3064C14.9826 16.266 15.0634 16.1854 15.1037 16.1451C14.9423 16.266 14.7808 16.387 14.6194 16.508C14.4983 16.5886 14.3772 16.6693 14.2965 16.7902C14.2158 16.9112 14.1351 17.0321 14.0947 17.1531C14.0544 17.3144 14.0544 17.4354 14.0947 17.5967C14.0947 17.7579 14.1351 17.8789 14.2158 17.9999C14.2562 18.0805 14.3369 18.1612 14.3772 18.2015C14.4983 18.3224 14.6598 18.4434 14.8616 18.4837C14.9423 18.4837 15.0634 18.5241 15.1441 18.5241C15.3459 18.5241 15.5073 18.4837 15.7091 18.3628C16.1127 18.0805 16.5567 17.7579 16.9199 17.4354C17.041 17.3547 17.0814 17.2338 17.1621 17.0725C17.2428 16.9515 17.2428 16.7902 17.2428 16.6693C17.2428 16.508 17.2024 16.387 17.1621 16.266C17.1217 16.1451 17.041 16.0241 16.9199 15.9031C16.8392 15.8628 16.7585 15.7822 16.7181 15.7419C16.5567 15.6612 16.3549 15.5806 16.1531 15.5806C16.0724 15.5806 15.9513 15.6209 15.8706 15.6209C15.7091 15.6612 15.5477 15.7419 15.3862 15.9031Z" fill="#091422"/>
<path d="M16.1951 3.36303L17.9709 1.58887V5.21783H14.0156L16.1951 3.36303Z" fill="#091422"/>
<path d="M16.9614 4.12896C17.5668 3.52414 18.1319 2.95963 18.7373 2.3548C18.1319 2.11287 17.4861 1.83062 16.8807 1.58869C16.8807 2.63706 16.8807 3.68542 16.8807 4.77411C16.8807 4.9354 16.8807 5.05636 16.8807 5.21765C17.244 4.85475 17.6072 4.49186 17.9704 4.12896C16.8 4.12896 15.6699 4.12896 14.4995 4.12896C14.338 4.12896 14.1766 4.12896 14.0151 4.12896C14.2573 4.73379 14.5398 5.37894 14.782 5.98376C15.5085 5.33862 16.2349 4.73379 16.9614 4.12896C17.4054 3.76607 17.365 2.95963 16.9614 2.59673C16.4771 2.15319 15.8717 2.19352 15.4277 2.59673C14.7013 3.20156 13.9748 3.80639 13.2483 4.45154C12.9254 4.73379 12.8851 5.25797 13.0061 5.62087C13.1676 6.02409 13.5712 6.30634 14.0151 6.30634C15.1856 6.30634 16.3157 6.30634 17.4861 6.30634C17.6476 6.30634 17.809 6.30634 17.9704 6.30634C18.5758 6.30634 19.0602 5.82248 19.0602 5.21765C19.0602 4.16928 19.0602 3.12092 19.0602 2.03223C19.0602 1.87094 19.0602 1.74998 19.0602 1.58869C19.0602 1.14515 18.7776 0.741931 18.374 0.580644C17.9704 0.419356 17.4861 0.5 17.2036 0.822574C16.5982 1.4274 16.0331 1.99191 15.4277 2.59673C15.0241 2.99995 14.9838 3.72574 15.4277 4.12896C15.8717 4.49186 16.5578 4.53218 16.9614 4.12896Z" fill="#091422"/>
<path d="M5.21846 16.0646C2.59506 13.8066 1.62641 10.097 2.9583 6.91158C4.12874 4.1697 6.87322 2.23425 9.85987 2.15361C11.9182 2.07296 13.8959 2.75843 15.4296 4.12937C16.4789 5.05678 18.0126 3.52455 16.9632 2.59715C13.6941 -0.306025 8.89123 -0.87053 5.09738 1.38749C1.74749 3.32294 -0.230151 7.23415 0.25417 11.105C0.577051 13.605 1.74749 15.9033 3.68478 17.5565C4.12874 17.9598 4.7745 18.0001 5.21846 17.5565C5.5817 17.1936 5.66242 16.4275 5.21846 16.0646Z" fill="#091422"/>
<path d="M9.13519 4.85529C9.13519 6.26655 9.13519 7.63749 9.13519 9.04876C9.13519 9.77455 9.01411 10.46 9.70023 10.9439C10.2653 11.3471 10.8303 11.6697 11.4357 12.0729C12.0411 12.4358 12.6062 12.839 13.2116 13.2019C13.6959 13.5245 14.4224 13.3229 14.7049 12.7987C15.0278 12.2745 14.826 11.6294 14.3013 11.3068C13.1308 10.5407 11.9604 9.77455 10.79 9.04876C10.9514 9.37133 11.1532 9.69391 11.3146 9.97616C11.3146 8.28264 11.3146 6.54881 11.3146 4.85529C11.3146 4.25046 10.8303 3.7666 10.2249 3.7666C9.61951 3.7666 9.13519 4.29079 9.13519 4.85529Z" fill="#091422"/>
</svg>
