<svg width="20" height="18" viewBox="0 0 20 18" fill="none" xmlns="http://www.w3.org/2000/svg">
<path d="M17.6378 0.6151L17.6381 0.614708C17.7584 0.464667 17.8997 0.347732 18.0529 0.268756C18.2059 0.189875 18.3684 0.15 18.5315 0.15C18.6945 0.15 18.857 0.189875 19.01 0.268756C19.1632 0.347732 19.3046 0.464667 19.4248 0.614708L19.5419 0.520894L19.429 0.619733C19.56 0.769249 19.666 0.952505 19.739 1.15875C19.812 1.36497 19.85 1.58857 19.85 1.81521C19.85 2.04186 19.812 2.26546 19.739 2.47168C19.666 2.67792 19.56 2.86118 19.429 3.01069L19.4289 3.01062L19.4252 3.01525L7.81272 17.3848L7.81234 17.3853C7.69208 17.5353 7.55074 17.6523 7.39754 17.7312C7.24454 17.8101 7.08201 17.85 6.91899 17.85C6.75597 17.85 6.59344 17.8101 6.44043 17.7312C6.28724 17.6523 6.14589 17.5353 6.02563 17.3853L6.02526 17.3848L0.560562 10.6227L0.560579 10.6227L0.558945 10.6207C0.43395 10.4713 0.332657 10.2913 0.262054 10.0903C0.191459 9.88926 0.153286 9.6722 0.150203 9.45167C0.14712 9.23113 0.1792 9.01245 0.244203 8.80835C0.309212 8.60422 0.405551 8.41965 0.526557 8.26464C0.647535 8.10967 0.790317 7.98785 0.945651 7.90431C1.10081 7.82086 1.26609 7.77685 1.43235 7.77329C1.59859 7.76973 1.76475 7.80663 1.92176 7.8832C2.07858 7.95967 2.22401 8.07466 2.34877 8.22352L6.80218 13.7519L6.91888 13.8968L7.03572 13.752L17.6378 0.6151Z" fill="#091422" stroke="#FDECD2" stroke-width="0.3"/>
</svg>
