<svg width="23" height="24" viewBox="0 0 23 24" fill="none" xmlns="http://www.w3.org/2000/svg">
<path d="M10.3529 21.2492C9.65562 21.1038 9.00819 20.91 8.31096 20.6677C8.16155 20.6192 8.01215 20.6192 7.81294 20.6677C7.66353 20.6677 7.51413 20.7162 7.36472 20.8131C7.11571 20.9585 6.8667 21.2492 6.81689 21.4915C6.76709 21.7823 6.76709 22.1215 6.9165 22.3638C6.9663 22.4607 7.06591 22.5092 7.11571 22.6061C7.26511 22.7515 7.46432 22.8484 7.66353 22.8968C8.31096 23.1391 9.00819 23.333 9.70542 23.4784C10.0042 23.5268 10.3529 23.5268 10.6019 23.3814C10.8509 23.2361 11.0999 22.9453 11.1497 22.703C11.1995 22.4122 11.1995 22.073 11.0501 21.8307C10.9007 21.54 10.6517 21.3461 10.3529 21.2492Z" fill="#091422"/>
<path d="M15.9314 21.1035C15.6326 20.9581 15.2839 20.9097 14.9353 20.9581C14.4373 21.1035 13.9891 21.2004 13.4911 21.2489C13.4413 21.2489 13.3417 21.2489 13.2919 21.2489C13.0926 21.2489 12.9432 21.2973 12.7938 21.3458C12.6444 21.3943 12.495 21.4912 12.3954 21.5881C12.1962 21.7819 11.997 22.1696 12.0468 22.4604C12.0468 22.7996 12.1464 23.0903 12.3954 23.3326C12.6444 23.5265 12.9432 23.7203 13.2919 23.6719C14.0887 23.5749 14.8357 23.478 15.6326 23.2842C15.9314 23.1873 16.2302 22.9934 16.3796 22.7027C16.529 22.4604 16.6286 22.0242 16.529 21.7335C16.4294 21.5396 16.2302 21.2973 15.9314 21.1035Z" fill="#091422"/>
<path d="M20.4151 19.0702C20.1661 18.8763 19.8673 18.731 19.5685 18.731C19.4689 18.731 19.3693 18.7794 19.2697 18.7794C19.0705 18.8279 18.8713 18.9248 18.7218 19.0702C18.5724 19.2156 18.3732 19.3609 18.2238 19.4579C18.0744 19.5548 17.925 19.7002 17.7258 19.7971C17.5764 19.894 17.4768 19.9909 17.3772 20.0878C17.2776 20.1848 17.178 20.3301 17.178 20.4755C17.1282 20.6209 17.1282 20.7663 17.178 20.9601C17.178 21.1055 17.2278 21.2509 17.3274 21.3963C17.4768 21.6386 17.7258 21.8808 18.0246 21.9293C18.1242 21.9293 18.2238 21.9778 18.3234 21.9778C18.5226 21.9778 18.7218 21.9293 18.9211 21.8324C19.4191 21.4932 19.9171 21.154 20.3653 20.7178C20.4649 20.6209 20.5645 20.4755 20.6143 20.3301C20.7139 20.1848 20.7139 20.0394 20.7139 19.894C20.7139 19.7486 20.6641 19.6032 20.6143 19.4579C20.6143 19.264 20.5645 19.1671 20.4151 19.0702Z" fill="#091422"/>
<path d="M20.9581 0.944869C20.4601 1.42947 20.0119 1.86561 19.5138 2.35021C15.5795 -0.412008 10.2506 -0.848147 5.96764 1.62331C1.88386 3.94938 -0.506644 8.60153 0.0909828 13.2052C0.489401 16.1613 1.93366 18.9235 4.27437 20.8619C4.77239 21.2496 5.46962 21.3465 5.96764 20.8619C6.41586 20.4257 6.46567 19.6504 5.96764 19.2142C2.7305 16.5005 1.43564 11.9937 3.17872 8.06847C4.62298 4.7732 8.05934 2.39867 11.7945 2.30175C13.936 2.20483 15.9779 2.78634 17.721 3.94938C17.1731 4.38552 16.6253 4.87012 16.0775 5.30626C15.7289 5.59702 15.6791 6.17854 15.8285 6.56622C16.0277 7.00236 16.4261 7.29312 16.9241 7.29312C18.3684 7.29312 19.7629 7.29312 21.2071 7.29312C21.4063 7.29312 21.6055 7.29312 21.8047 7.29312C22.4522 7.29312 23 6.76006 23 6.13008C23 4.87012 23 3.61016 23 2.30175C23 2.10791 23 1.96253 23 1.76869C23 0.75103 21.7051 0.217971 20.9581 0.944869Z" fill="#091422"/>
<path d="M17.628 15.1927C17.9766 14.6112 17.7276 13.9327 17.1798 13.5935C15.9347 12.8182 14.6896 12.0428 13.4446 11.219C13.4446 9.37752 13.4446 7.53604 13.4446 5.69456C13.4446 4.19231 11.0541 4.19231 11.0541 5.69456C11.0541 7.39066 11.0541 9.0383 11.0541 10.7344C11.0541 11.5582 10.9047 12.3336 11.7015 12.8666C12.3987 13.3512 13.096 13.7389 13.843 14.2235C14.59 14.6596 15.2873 15.1442 16.0343 15.5804C16.5323 15.9196 17.2794 15.6773 17.628 15.1927Z" fill="#091422"/>
</svg>
