<svg width="32" height="26" viewBox="0 0 32 26" fill="none" xmlns="http://www.w3.org/2000/svg">
<path d="M28.2201 0.919022L28.2206 0.918385C28.4106 0.704468 28.635 0.536374 28.8802 0.422277C29.1252 0.30823 29.3869 0.25 29.6503 0.25C29.9138 0.25 30.1755 0.30823 30.4205 0.422277C30.6657 0.536374 30.8901 0.704468 31.08 0.918385L31.267 0.752403L31.0876 0.926497C31.2946 1.1399 31.4614 1.40051 31.576 1.69271C31.6905 1.98492 31.75 2.3014 31.75 2.62197C31.75 2.94255 31.6905 3.25903 31.576 3.55124C31.4614 3.84343 31.2946 4.10404 31.0876 4.31745L31.0874 4.31731L31.0807 4.3248L12.5007 25.0809L12.5001 25.0816C12.3101 25.2955 12.0857 25.4636 11.8406 25.5777C11.5955 25.6918 11.3338 25.75 11.0704 25.75C10.8069 25.75 10.5453 25.6918 10.3002 25.5777C10.0551 25.4636 9.83062 25.2955 9.64069 25.0816L9.64001 25.0809L0.896505 15.3133L0.896532 15.3133L0.893605 15.3101C0.696039 15.0969 0.536685 14.8409 0.425836 14.556C0.314981 14.271 0.255152 13.9637 0.250318 13.6516C0.245485 13.3395 0.295759 13.0298 0.397802 12.7406C0.49984 12.4513 0.651317 12.189 0.842414 11.968C1.03347 11.7471 1.26012 11.572 1.50856 11.4514C1.75689 11.3308 2.02284 11.2666 2.29145 11.2614C2.56006 11.2562 2.82765 11.3101 3.07927 11.4209C3.33034 11.5314 3.5614 11.6968 3.75858 11.9091L10.8838 19.8944L11.0702 20.1032L11.2568 19.8945L28.2201 0.919022Z" fill="#091422" stroke="#FDECD2" stroke-width="0.5"/>
</svg>
