<svg width="26" height="26" viewBox="0 0 26 26" fill="none" xmlns="http://www.w3.org/2000/svg">
<path d="M5.63254 20.4391L5.59383 20.5333L5.66703 20.604C7.63422 22.5053 10.2629 23.5701 12.9998 23.5742H13.0002C15.7371 23.5701 18.3658 22.5053 20.333 20.604L20.4062 20.5333L20.3675 20.4391C19.7674 18.9795 18.7465 17.7311 17.4347 16.8526C16.1229 15.974 14.5793 15.5049 13 15.5049C11.4207 15.5049 9.87713 15.974 8.5653 16.8526C7.25346 17.7311 6.23263 18.9795 5.63254 20.4391ZM21.8706 18.2946L21.9998 18.5154L22.1294 18.2948C23.0704 16.6934 23.5675 14.8706 23.5698 13.0136V13.0135C23.5698 10.2125 22.4562 7.52634 20.4739 5.54582C18.4917 3.56531 15.8032 2.45269 13 2.45269C10.1968 2.45269 7.50831 3.56531 5.52608 5.54582C3.54384 7.52634 2.43021 10.2125 2.43021 13.0135L2.43021 13.0136C2.43248 14.8706 2.92964 16.6934 3.87058 18.2948L4.00017 18.5154L4.12937 18.2946C5.27632 16.3345 7.04159 14.8098 9.14872 13.9594L9.34538 13.88L9.20504 13.721C8.56096 12.9913 8.14132 12.0915 7.99643 11.1295C7.85154 10.1674 7.98757 9.18404 8.3882 8.29732C8.78883 7.4106 9.43704 6.65819 10.2551 6.1304C11.0731 5.60262 12.0262 5.32187 13 5.32187C13.9738 5.32187 14.9269 5.60262 15.7449 6.1304C16.563 6.65819 17.2112 7.4106 17.6118 8.29732C18.0124 9.18404 18.1485 10.1674 18.0036 11.1295C17.8587 12.0915 17.439 12.9913 16.795 13.721L16.6546 13.88L16.8513 13.9594C18.9584 14.8098 20.7237 16.3345 21.8706 18.2946ZM5.97221 2.25158C8.06126 0.884971 10.503 0.154796 13 0.15C15.497 0.154796 17.9387 0.884971 20.0278 2.25158C22.1169 3.61825 23.7632 5.56241 24.766 7.84724C25.7689 10.1321 26.0851 12.659 25.6762 15.1201C25.2672 17.5812 24.1508 19.8704 22.4629 21.7089C21.2573 23.0145 19.7941 24.0566 18.1655 24.7693C16.5368 25.482 14.778 25.85 13 25.85C11.222 25.85 9.46319 25.482 7.83453 24.7693C6.20599 24.0566 4.74284 23.0146 3.53728 21.7091C1.84927 19.8706 0.732803 17.5813 0.323847 15.1201C-0.0851108 12.659 0.231098 10.1321 1.23397 7.84724C2.23683 5.56241 3.88308 3.61825 5.97221 2.25158ZM10.7094 8.8814C10.4066 9.33408 10.2451 9.8663 10.2451 10.4108C10.2451 11.1409 10.5353 11.841 11.052 12.3573C11.5687 12.8735 12.2694 13.1635 13 13.1635C13.5448 13.1635 14.0775 13.002 14.5305 12.6996C14.9836 12.3971 15.3367 11.9672 15.5452 11.4642C15.7538 10.9612 15.8083 10.4077 15.702 9.87371C15.5957 9.33972 15.3333 8.84923 14.948 8.46427C14.5627 8.07931 14.0718 7.81716 13.5374 7.71096C13.0031 7.60475 12.4492 7.65926 11.9458 7.86759C11.4424 8.07592 11.0121 8.42872 10.7094 8.8814Z" fill="#FDECD2" stroke="#091422" stroke-width="0.3"/>
</svg>
