<svg width="30" height="22" viewBox="0 0 30 22" fill="none" xmlns="http://www.w3.org/2000/svg">
<path d="M29.6405 10.45C26.6353 4.00125 20.982 0 14.8824 0C8.78271 0 3.12939 4.00125 0.124202 10.45C0.0422831 10.6235 0 10.8107 0 11C0 11.1893 0.0422831 11.3765 0.124202 11.55C3.12939 17.9987 8.78271 22 14.8824 22C20.982 22 26.6353 17.9987 29.6405 11.55C29.7224 11.3765 29.7647 11.1893 29.7647 11C29.7647 10.8107 29.7224 10.6235 29.6405 10.45V10.45ZM14.8824 19.25C10.1663 19.25 5.70314 16.1013 3.12939 11C5.70314 5.89875 10.1663 2.75 14.8824 2.75C19.5984 2.75 24.0616 5.89875 26.6353 11C24.0616 16.1013 19.5984 19.25 14.8824 19.25V19.25ZM14.8824 5.5C13.7054 5.5 12.5548 5.82257 11.5762 6.42692C10.5976 7.03127 9.83488 7.89025 9.38447 8.89524C8.93406 9.90023 8.81621 11.0061 9.04583 12.073C9.27545 13.1399 9.84221 14.1199 10.6745 14.8891C11.5067 15.6583 12.567 16.1821 13.7214 16.3943C14.8758 16.6065 16.0723 16.4976 17.1597 16.0813C18.247 15.6651 19.1764 14.9601 19.8303 14.0556C20.4842 13.1512 20.8332 12.0878 20.8332 11C20.8332 9.54131 20.2063 8.14236 19.0903 7.11091C17.9742 6.07946 16.4606 5.5 14.8824 5.5V5.5ZM14.8824 13.75C14.2939 13.75 13.7186 13.5887 13.2293 13.2865C12.74 12.9844 12.3586 12.5549 12.1334 12.0524C11.9082 11.5499 11.8493 10.9969 11.9641 10.4635C12.0789 9.93005 12.3623 9.44005 12.7784 9.05546C13.1945 8.67086 13.7247 8.40895 14.3019 8.30284C14.8791 8.19673 15.4773 8.25119 16.021 8.45933C16.5647 8.66747 17.0294 9.01995 17.3563 9.47218C17.6833 9.92442 17.8578 10.4561 17.8578 11C17.8578 11.7293 17.5443 12.4288 16.9863 12.9445C16.4283 13.4603 15.6715 13.75 14.8824 13.75Z" fill="#091422"/>
</svg>
