<svg width="30" height="32" viewBox="0 0 30 32" fill="none" xmlns="http://www.w3.org/2000/svg">
<path d="M13.0754 27.9806C12.1862 27.7898 11.3606 27.5354 10.4715 27.2174C10.281 27.1538 10.0904 27.1538 9.8999 27.2174C9.70937 27.2174 9.51885 27.281 9.39183 27.4082C9.07428 27.599 8.82024 27.917 8.75673 28.235C8.69322 28.6166 8.69322 28.9982 8.88375 29.3161C8.94726 29.4433 9.01077 29.5069 9.13779 29.6341C9.32832 29.8249 9.51885 29.9521 9.77288 30.0157C10.5985 30.3337 11.4876 30.5881 12.3768 30.7789C12.7578 30.8425 13.1389 30.8425 13.4564 30.6517C13.774 30.4609 14.028 30.1429 14.0915 29.8249C14.155 29.4433 14.155 29.0618 13.9645 28.7438C13.774 28.2986 13.4564 28.0442 13.0754 27.9806Z" fill="#091422"/>
<path d="M19.0419 27.6623C18.4068 27.8531 17.7082 27.9803 17.0096 28.1075C17.1366 28.1075 17.2636 28.0439 17.3907 28.0439C17.2001 28.0439 17.0096 28.1075 16.8826 28.1075C16.6921 28.1075 16.5015 28.1711 16.311 28.2347C16.1205 28.2983 15.9935 28.3619 15.8664 28.5527C15.6124 28.8071 15.4219 29.1887 15.4219 29.5703C15.4219 29.9519 15.5489 30.3335 15.8664 30.5879C16.1205 30.8422 16.5015 31.033 16.8826 31.033C17.8352 30.9058 18.8514 30.7787 19.804 30.5243C20.1216 30.3971 20.5026 30.2063 20.6297 29.8883C20.8202 29.5703 20.8837 29.1251 20.7567 28.8071C20.6297 28.4891 20.4391 28.1075 20.1216 27.9803C19.804 27.6623 19.3595 27.5987 19.0419 27.6623Z" fill="#091422"/>
<path d="M23.8738 24.9913C23.6197 25.2457 23.3657 25.4365 23.1117 25.6273C23.2387 25.5637 23.3022 25.5001 23.4292 25.3729C23.1752 25.5637 22.9211 25.7545 22.6671 25.9453C22.4766 26.0089 22.3496 26.1361 22.286 26.3269C22.159 26.4541 22.0955 26.6449 22.032 26.8357C21.9685 27.0265 21.9685 27.2173 22.032 27.4081C22.032 27.5989 22.0955 27.7897 22.2225 27.9169C22.4131 28.2349 22.7306 28.4893 23.0482 28.5529C23.1752 28.5529 23.3022 28.6165 23.4292 28.6165C23.6833 28.6165 23.9373 28.5529 24.1278 28.4257C24.7629 27.9805 25.398 27.5353 25.9696 27.0265C26.0966 26.8993 26.2236 26.7721 26.2871 26.5813C26.3506 26.3905 26.4142 26.1997 26.4142 26.0089C26.4142 25.8181 26.3506 25.6273 26.2871 25.4365C26.2236 25.2457 26.1601 25.1185 25.9696 24.9913C25.7156 24.7369 25.3345 24.5461 24.9534 24.5461C24.8264 24.5461 24.6994 24.6097 24.5724 24.6097C24.2548 24.7369 24.0643 24.8641 23.8738 24.9913Z" fill="#091422"/>
<path d="M24.951 5.02199L27.7454 2.22363V7.94755H21.5215L24.951 5.02199Z" fill="#091422"/>
<path d="M25.9685 6.03928C26.9212 5.0853 27.8103 4.19491 28.7629 3.24093C27.9373 2.92293 27.1117 2.54134 26.3496 2.22334C26.3496 3.87692 26.3496 5.53049 26.3496 7.24767C26.3496 7.50206 26.3496 7.69286 26.3496 7.94726C26.8576 7.43846 27.3022 6.99327 27.7468 6.54808C25.905 6.54808 24.1267 6.54808 22.285 6.54808C22.0309 6.54808 21.7769 6.54808 21.5229 6.54808C21.8404 7.37486 22.2215 8.20165 22.539 8.96484C23.6187 8.01086 24.8253 6.99327 25.9685 6.03928C26.5401 5.53049 26.4766 4.51291 25.9685 4.00411C25.3334 3.43172 24.5713 3.49532 23.9362 4.00411C22.793 4.9581 21.6499 5.97568 20.5067 6.92967C20.0621 7.31127 19.9986 8.01086 20.1892 8.51965C20.3797 9.02844 20.9513 9.41003 21.5229 9.41003C23.3646 9.41003 25.1429 9.41003 26.9847 9.41003C27.2387 9.41003 27.4927 9.41003 27.7468 9.41003C28.5089 9.41003 29.144 8.77404 29.144 8.01086C29.144 6.35728 29.144 4.7037 29.144 2.98653C29.144 2.73213 29.144 2.54134 29.144 2.28694C29.144 1.07856 27.5562 0.378967 26.7306 1.26935C25.778 2.22334 24.8889 3.11373 23.9362 4.06771C23.4281 4.57651 23.3646 5.59409 23.9362 6.10288C24.5078 6.54808 25.3969 6.61168 25.9685 6.03928Z" fill="#091422"/>
<path d="M7.41967 25.246C3.22805 21.6208 1.64032 15.7061 3.79964 10.5546C5.70492 6.10268 10.0871 2.98632 14.9138 2.85912C18.2163 2.73193 21.4552 3.87671 23.8686 6.03908C25.2658 7.24746 27.2981 5.21229 25.9009 4.00391C20.8837 -0.448027 13.3896 -1.33841 7.54669 2.09593C2.40243 5.21229 -0.64602 11.2542 0.116092 17.2961C0.624168 21.1757 2.46594 24.7372 5.38737 27.2812C6.78458 28.4895 8.81688 26.4544 7.41967 25.246Z" fill="#091422"/>
<path d="M14.0937 7.43894C14.0937 9.66491 14.0937 11.8273 14.0937 14.0532C14.0937 15.0708 13.9031 16.0884 14.8558 16.788C15.7449 17.424 16.6341 17.9328 17.5867 18.5688C18.5393 19.1412 19.4285 19.7772 20.3811 20.3496C21.0162 20.7947 21.9688 20.4768 22.3499 19.8408C22.731 19.1412 22.4769 18.3144 21.8418 17.8692C20.0001 16.6608 18.1583 15.4524 16.3165 14.3076C16.5705 14.6892 16.7611 15.1344 17.0151 15.516C17.0151 12.8449 17.0151 10.1101 17.0151 7.43894C16.9516 5.59457 14.0937 5.59457 14.0937 7.43894Z" fill="#091422"/>
</svg>
