<svg width="25" height="24" viewBox="0 0 25 24" fill="none" xmlns="http://www.w3.org/2000/svg">
<path d="M22.3 21.6V21.8H22.5H23.75C24.0311 21.8 24.299 21.9073 24.4954 22.0957C24.6914 22.284 24.8 22.5375 24.8 22.8C24.8 23.0625 24.6914 23.316 24.4954 23.5043C24.299 23.6927 24.0311 23.8 23.75 23.8H1.25C0.968948 23.8 0.700968 23.6927 0.504623 23.5043C0.308556 23.316 0.2 23.0625 0.2 22.8C0.2 22.5375 0.308556 22.284 0.504623 22.0957C0.700968 21.9073 0.968948 21.8 1.25 21.8H2.5H2.7V21.6V1.2C2.7 0.937479 2.80856 0.683974 3.00462 0.495749C3.20097 0.307258 3.46895 0.2 3.75 0.2H21.25C21.5311 0.2 21.799 0.307258 21.9954 0.495749C22.1914 0.683974 22.3 0.937479 22.3 1.2V21.6ZM13.75 21.8H13.95V21.6V16.8V16.6H13.75H11.25H11.05V16.8V21.6V21.8H11.25H13.75ZM20 21.8H20.2V21.6V2.4V2.2H20H5H4.8V2.4V21.6V21.8H5H8.75H8.95V21.6V15.6C8.95 15.3375 9.05856 15.084 9.25462 14.8958C9.45097 14.7073 9.71895 14.6 10 14.6H15C15.2811 14.6 15.549 14.7073 15.7454 14.8958C15.9414 15.084 16.05 15.3375 16.05 15.6V21.6V21.8H16.25H20ZM16.25 7H15C14.7189 7 14.451 6.89274 14.2546 6.70425C14.0586 6.51603 13.95 6.26252 13.95 6C13.95 5.73748 14.0586 5.48397 14.2546 5.29575C14.451 5.10726 14.7189 5 15 5H16.25C16.5311 5 16.799 5.10726 16.9954 5.29575C17.1914 5.48397 17.3 5.73748 17.3 6C17.3 6.26252 17.1914 6.51603 16.9954 6.70425C16.799 6.89274 16.5311 7 16.25 7ZM16.25 11.8H15C14.7189 11.8 14.451 11.6927 14.2546 11.5043C14.0586 11.316 13.95 11.0625 13.95 10.8C13.95 10.5375 14.0586 10.284 14.2546 10.0957C14.451 9.90726 14.7189 9.8 15 9.8H16.25C16.5311 9.8 16.799 9.90726 16.9954 10.0957C17.1914 10.284 17.3 10.5375 17.3 10.8C17.3 11.0625 17.1914 11.316 16.9954 11.5043C16.799 11.6927 16.5311 11.8 16.25 11.8ZM10 7H8.75C8.46895 7 8.20097 6.89274 8.00462 6.70425C7.80856 6.51603 7.7 6.26252 7.7 6C7.7 5.73748 7.80856 5.48397 8.00462 5.29575C8.20097 5.10726 8.46895 5 8.75 5H10C10.2811 5 10.549 5.10726 10.7454 5.29575C10.9414 5.48397 11.05 5.73748 11.05 6C11.05 6.26252 10.9414 6.51603 10.7454 6.70425C10.549 6.89274 10.2811 7 10 7ZM10 11.8H8.75C8.46895 11.8 8.20097 11.6927 8.00462 11.5043C7.80856 11.316 7.7 11.0625 7.7 10.8C7.7 10.5375 7.80856 10.284 8.00462 10.0957C8.20097 9.90726 8.46895 9.8 8.75 9.8H10C10.2811 9.8 10.549 9.90726 10.7454 10.0957C10.9414 10.284 11.05 10.5375 11.05 10.8C11.05 11.0625 10.9414 11.316 10.7454 11.5043C10.549 11.6927 10.2811 11.8 10 11.8Z" fill="#091422" stroke="#FDECD2" stroke-width="0.4"/>
</svg>
