<svg width="22" height="22" viewBox="0 0 22 22" fill="none" xmlns="http://www.w3.org/2000/svg">
<path d="M20.1721 8.048L4.77294 0.345795C4.16521 0.0432183 3.47899 -0.0645011 2.80782 0.0373234C2.13666 0.139148 1.51322 0.445561 1.02251 0.914785C0.531793 1.38401 0.197685 1.99321 0.0657364 2.65933C-0.0662125 3.32545 0.0104188 4.01607 0.285182 4.63702L2.92504 10.5457C2.98494 10.6886 3.01579 10.8419 3.01579 10.9968C3.01579 11.1518 2.98494 11.3051 2.92504 11.448L0.285182 17.3567C0.0615647 17.8592 -0.032969 18.4097 0.0101722 18.958C0.0533134 19.5064 0.232762 20.0353 0.532209 20.4966C0.831657 20.958 1.24161 21.3372 1.72481 21.5997C2.20801 21.8623 2.74914 21.9999 3.29902 22C3.81404 21.9949 4.3214 21.8746 4.78394 21.6479L20.1831 13.9457C20.7293 13.6708 21.1885 13.2495 21.5093 12.7288C21.8301 12.2081 22 11.6085 22 10.9968C22 10.3852 21.8301 9.78556 21.5093 9.26487C21.1885 8.74417 20.7293 8.32288 20.1831 8.048H20.1721ZM19.1932 11.9761L3.79399 19.6783C3.59178 19.7755 3.36472 19.8084 3.14325 19.7728C2.92178 19.7372 2.7165 19.6347 2.55492 19.479C2.39335 19.3234 2.2832 19.122 2.23926 18.902C2.19532 18.6819 2.21968 18.4537 2.30907 18.2479L4.93793 12.3392C4.97196 12.2603 5.00134 12.1795 5.02592 12.0972H12.6045C12.8962 12.0972 13.176 11.9812 13.3823 11.7749C13.5886 11.5685 13.7045 11.2887 13.7045 10.9968C13.7045 10.705 13.5886 10.4252 13.3823 10.2188C13.176 10.0125 12.8962 9.89653 12.6045 9.89653H5.02592C5.00134 9.81419 4.97196 9.73336 4.93793 9.65446L2.30907 3.74577C2.21968 3.53997 2.19532 3.31175 2.23926 3.09171C2.2832 2.87167 2.39335 2.67032 2.55492 2.51468C2.7165 2.35903 2.92178 2.25653 3.14325 2.2209C3.36472 2.18527 3.59178 2.21823 3.79399 2.31536L19.1932 10.0176C19.3733 10.1099 19.5245 10.2502 19.6301 10.423C19.7357 10.5958 19.7916 10.7943 19.7916 10.9968C19.7916 11.1994 19.7357 11.3979 19.6301 11.5707C19.5245 11.7435 19.3733 11.8838 19.1932 11.9761V11.9761Z" fill="#091422"/>
</svg>
