<svg width="21" height="20" viewBox="0 0 21 20" fill="none" xmlns="http://www.w3.org/2000/svg">
<path d="M0.129554 9.94733V9.94693C0.129554 7.33711 1.22236 4.83305 3.16943 2.98594C4.13357 2.0713 5.27845 1.3455 6.53883 0.850237C7.79922 0.35497 9.15026 0.1 10.5148 0.1C13.2708 0.1 15.9129 1.13865 17.8601 2.98594C19.8072 4.83305 20.9 7.33711 20.9 9.94693C20.9 12.5567 19.8072 15.0608 17.8601 16.9079C15.9129 18.7552 13.2708 19.7939 10.5148 19.7939H1.07808V19.7938L1.07409 19.7939C0.885143 19.8015 0.698425 19.7556 0.537716 19.6625C0.377592 19.5697 0.250858 19.4346 0.172687 19.2748C0.101329 19.1129 0.0820206 18.935 0.116934 18.7631C0.151947 18.5907 0.240108 18.4312 0.371188 18.3051C0.371284 18.305 0.37138 18.3049 0.371476 18.3048L2.46804 16.3159L2.5375 16.25L2.47468 16.1777C0.949707 14.4236 0.120486 12.2194 0.129554 9.94733ZM3.53619 17.8319L3.3543 18.0045H3.60501H10.5148V17.9051L10.5149 18.0045C12.4772 18.003 14.3789 17.3562 15.896 16.1732C17.4132 14.9902 18.4521 13.3439 18.8343 11.5141C19.2165 9.68429 18.918 7.78555 17.9902 6.14171C17.0625 4.498 15.5635 3.21143 13.7495 2.49998C11.9356 1.78856 9.91808 1.69583 8.04035 2.23744C6.16258 2.77906 4.5397 3.9219 3.44902 5.47248C2.35824 7.0232 1.86752 8.88549 2.06142 10.7419C2.2553 12.5983 3.12155 14.3324 4.51123 15.6494C4.68727 15.8174 4.78504 16.0436 4.78504 16.2781C4.78504 16.5128 4.68722 16.739 4.5111 16.9071L3.53619 17.8319ZM5.27217 7.06285H15.7574C16.0106 7.06285 16.2525 7.15832 16.43 7.32674C16.6073 7.49498 16.7059 7.72201 16.7059 7.95754C16.7059 8.19308 16.6073 8.4201 16.43 8.58835C16.2525 8.75676 16.0106 8.85224 15.7574 8.85224H5.27217C5.01895 8.85224 4.7771 8.75676 4.59957 8.58835C4.42222 8.4201 4.32364 8.19308 4.32364 7.95754C4.32364 7.72201 4.42222 7.49498 4.59957 7.32674C4.7771 7.15832 5.01895 7.06285 5.27217 7.06285ZM5.27217 11.0416H11.5633C11.8165 11.0416 12.0584 11.1371 12.2359 11.3055C12.4132 11.4738 12.5118 11.7008 12.5118 11.9363C12.5118 12.1719 12.4132 12.3989 12.2359 12.5671C12.0584 12.7355 11.8165 12.831 11.5633 12.831H5.27217C5.01895 12.831 4.7771 12.7355 4.59957 12.5671C4.42222 12.3989 4.32364 12.1719 4.32364 11.9363C4.32364 11.7008 4.42222 11.4738 4.59957 11.3055C4.7771 11.1371 5.01895 11.0416 5.27217 11.0416Z" fill="#091422" stroke="#FDECD2" stroke-width="0.2"/>
</svg>
