<svg width="23" height="24" viewBox="0 0 23 24" fill="none" xmlns="http://www.w3.org/2000/svg">
<path d="M15.9323 13.5977L15.9322 13.5981C17.7938 14.3756 19.4118 15.6341 20.6185 17.2428C21.8251 18.8515 22.5763 20.7519 22.7943 22.7464L22.7943 22.7466C22.808 22.8705 22.7969 22.9959 22.7618 23.1156C22.7267 23.2353 22.6681 23.347 22.5895 23.4443C22.5108 23.5416 22.4136 23.6227 22.3032 23.6828C22.1929 23.7428 22.0717 23.7807 21.9465 23.7943C21.9114 23.798 21.8761 23.7999 21.8408 23.8C21.605 23.7994 21.3779 23.7124 21.2029 23.556C21.0278 23.3996 20.9171 23.1846 20.8918 22.9525C20.7253 21.4271 20.1834 19.9661 19.314 18.6984C18.4446 17.4308 17.2745 16.3956 15.9072 15.6844L15.7776 15.6169L15.6739 15.7199L12.1762 19.1962C11.9968 19.3744 11.7533 19.4748 11.4992 19.4748C11.245 19.4748 11.0015 19.3744 10.8221 19.1962L7.32442 15.7199L7.22078 15.6169L7.09114 15.6844C5.72382 16.3956 4.55371 17.4308 3.6843 18.6984C2.81518 19.9657 2.27334 21.4262 2.10673 22.951C2.07576 23.1979 1.9484 23.4232 1.75162 23.578C1.55443 23.7332 1.30348 23.8051 1.05306 23.778C0.802647 23.7508 0.573369 23.6268 0.414662 23.4332C0.256264 23.2399 0.180795 22.9928 0.204175 22.745C0.422241 20.7511 1.17325 18.8514 2.37939 17.243C3.58547 15.6348 5.20271 14.3764 7.06338 13.5988L7.06755 13.5971L7.06758 13.5972L7.07206 13.5952C7.11281 13.5779 7.14408 13.5635 7.1726 13.5503C7.20938 13.5334 7.24157 13.5185 7.28359 13.5022L7.6122 13.3747L7.33412 13.158C6.53151 12.5328 5.8825 11.7344 5.43608 10.8235C4.98983 9.91283 4.75764 8.91341 4.75697 7.90065C4.75974 7.66676 4.77655 7.43324 4.8073 7.20134L4.81417 7.14954L4.79483 7.101C4.78145 7.06745 4.77016 7.03313 4.761 6.99822L4.4386 4.25518L15.9323 13.5977ZM15.9323 13.5977L15.9308 13.5971L15.9263 13.5953L15.9263 13.5952C15.8855 13.5779 15.8543 13.5635 15.8257 13.5503C15.789 13.5334 15.7568 13.5185 15.7147 13.5022L15.3861 13.3747L15.6642 13.158C16.4668 12.5328 17.1158 11.7344 17.5623 10.8235C18.0085 9.91279 18.2407 8.91331 18.2414 7.9005C18.2386 7.66666 18.2218 7.43319 18.191 7.20134L18.1843 7.15035L18.2029 7.10242C18.2161 7.06864 18.2272 7.03408 18.2361 6.99896L18.5597 4.25518C18.6553 3.43488 18.4336 2.60902 17.9394 1.94481C17.4451 1.28064 16.7152 0.827657 15.8972 0.677963C15.8971 0.677945 15.897 0.677928 15.8969 0.67791L14.9834 0.51357L14.9831 0.513516C12.6799 0.0954948 10.3196 0.0954948 8.01635 0.513516L8.016 0.513579L7.1014 0.67791C7.10131 0.677927 7.10121 0.677945 7.10112 0.677962C6.2831 0.827656 5.55319 1.28064 5.05898 1.94481C4.56477 2.60897 4.3431 3.43474 4.43858 4.25497L15.9323 13.5977ZM6.33914 4.03223L6.3392 4.03272L6.54515 5.77375L6.56603 5.95026H6.74376H16.2546H16.4323L16.4532 5.77375L16.6591 4.03272L16.6592 4.03223C16.6987 3.69126 16.6063 3.34825 16.4011 3.07264C16.1959 2.79706 15.8933 2.60951 15.5547 2.54755L15.5541 2.54744L14.6404 2.38306C14.6403 2.38304 14.6402 2.38303 14.6401 2.38301C12.5634 2.00583 10.435 2.00583 8.35819 2.38301C8.35811 2.38303 8.35803 2.38304 8.35795 2.38306L7.44422 2.54744L7.44364 2.54755C7.105 2.60951 6.80239 2.79706 6.59721 3.07264C6.39199 3.34825 6.29966 3.69126 6.33914 4.03223ZM11.3581 17.042L11.4992 17.1823L11.6402 17.042L13.5493 15.1434L13.811 14.8832L13.4501 14.806C12.1642 14.5313 10.8342 14.5313 9.54827 14.806L9.18732 14.8832L9.44903 15.1434L11.3581 17.042ZM11.4989 12.7005L11.4994 12.7005C12.7519 12.699 13.955 12.2143 14.8553 11.3482C15.7556 10.4821 16.2826 9.3021 16.3249 8.05694L16.3319 7.85016H16.125H6.87335H6.66645L6.67347 8.05694C6.71572 9.3021 7.24273 10.4821 8.14303 11.3482C9.04329 12.2143 10.2465 12.699 11.4989 12.7005Z" fill="#091422" stroke="#FDECD2" stroke-width="0.4"/>
</svg>
