<svg width="21" height="26" viewBox="0 0 21 26" fill="none" xmlns="http://www.w3.org/2000/svg">
<path d="M19.8283 3.43582C19.6848 3.00597 19.3978 2.57612 19.1108 2.14627C18.752 1.78806 18.3932 1.50149 17.8909 1.28657C17.4604 1.07164 16.9581 1 16.4558 1H4.54422C4.04192 1 3.53963 1.07164 3.10909 1.28657C2.67855 1.50149 2.24801 1.8597 1.88923 2.21791C1.6022 2.57612 1.31518 3.00597 1.17166 3.43582C1.02815 3.93731 0.956394 4.43881 1.02815 4.86866L2.96557 21.9194C3.03733 22.7791 3.46787 23.5672 4.11368 24.1403C4.75949 24.7134 5.62056 25 6.48164 25H14.5184C15.3794 25 16.2405 24.7134 16.8863 24.1403C17.5321 23.5672 17.9627 22.7791 18.0344 21.9194L19.9719 4.86866C20.0436 4.43881 19.9718 3.93731 19.8283 3.43582ZM17.1733 10.6L15.8817 21.7045C15.81 22.0627 15.6665 22.3493 15.3794 22.5642C15.0924 22.7791 14.8771 22.9224 14.4466 22.9224H6.5534C6.0511 22.9224 5.83583 22.7791 5.62056 22.5642C5.33354 22.3493 5.11827 22.0627 5.11827 21.7045L3.82665 10.6V10.3851H17.2451L17.1733 10.6ZM17.8192 4.65373L17.3886 8.16418V8.30746H3.53963V8.16418L3.18084 4.65373C3.18084 4.58209 3.18084 4.58209 3.18084 4.51045C3.18084 4.36716 3.18084 4.22388 3.2526 4.0806C3.2526 3.86567 3.39611 3.72239 3.53963 3.5791C3.68314 3.43582 3.82665 3.29254 4.04192 3.2209C4.25719 3.14925 4.4007 3.14925 4.54422 3.14925H16.384C16.5993 3.14925 16.8146 3.2209 16.9581 3.29254C17.1016 3.36418 17.3169 3.50746 17.4604 3.65075C17.6039 3.79403 17.6756 4.00896 17.7474 4.15224C17.8192 4.29552 17.8909 4.43881 17.8192 4.65373ZM13.0115 19.8418C13.2985 19.8418 13.5855 19.6985 13.729 19.5552C13.9443 19.3403 14.0161 19.1254 14.0161 18.8388V13.9672C14.0161 13.6806 13.8726 13.394 13.729 13.2507C13.5138 13.0358 13.2985 12.9642 13.0115 12.9642C12.7244 12.9642 12.4374 13.0358 12.2939 13.2507C12.0786 13.4657 12.0069 13.6806 12.0069 13.9672V18.7672C12.0069 19.0537 12.1504 19.3403 12.2939 19.4836C12.4374 19.6985 12.7244 19.8418 13.0115 19.8418ZM7.98852 19.8418C8.27555 19.8418 8.56258 19.6985 8.77785 19.5552C8.99311 19.3403 9.06487 19.1254 9.06487 18.8388V13.9672C9.06487 13.6806 8.99311 13.394 8.77785 13.2507C8.56258 13.0358 8.27555 12.9642 7.98852 12.9642C7.7015 12.9642 7.41447 13.0358 7.27096 13.2507C7.05569 13.4657 6.98393 13.6806 6.98393 13.9672V18.7672C6.98393 19.0537 7.12745 19.3403 7.27096 19.4836C7.48623 19.6985 7.7015 19.8418 7.98852 19.8418Z" fill="#091422" stroke="#FDECD2" stroke-width="0.4"/>
</svg>
