<svg width="21" height="20" viewBox="0 0 21 20" fill="none" xmlns="http://www.w3.org/2000/svg">
<path d="M18.0745 0.362053L20.6257 2.77876C20.6257 2.77878 20.6257 2.7788 20.6257 2.77882C20.8021 2.94691 20.9 3.17308 20.9 3.40763C20.9 3.64217 20.8021 3.86834 20.6257 4.03643C20.6257 4.03645 20.6257 4.03647 20.6257 4.03649L14.7669 9.58642C14.7668 9.58645 14.7668 9.58647 14.7668 9.5865C14.6783 9.66967 14.573 9.73573 14.4569 9.78066C14.3407 9.82561 14.2161 9.84845 14.0904 9.84776H14.0898H11.5487C11.295 9.84776 11.0528 9.75226 10.875 9.58382C10.6973 9.41557 10.5986 9.18855 10.5986 8.95306L10.5986 6.5459L10.5986 6.54529C10.5979 6.42832 10.6216 6.31223 10.6684 6.20362C10.7152 6.09502 10.7844 5.99587 10.8722 5.91202C10.8722 5.91201 10.8722 5.91199 10.8722 5.91198L16.731 0.362053C16.731 0.36204 16.731 0.362028 16.731 0.362015C16.9087 0.194752 17.1501 0.1 17.4027 0.1C17.6554 0.1 17.8968 0.194754 18.0744 0.36202C18.0744 0.362031 18.0745 0.362042 18.0745 0.362053ZM13.6488 8.05837H13.6886L13.7176 8.03097L18.5268 3.47525L18.6034 3.40265L18.5268 3.33006L17.4768 2.33536L17.408 2.27021L17.3392 2.33536L12.53 6.89107L12.4987 6.92065V6.96367V7.95837V8.05837H12.5987H13.6488ZM3.51058 17.8322L3.32491 18.0053H3.57878H9.44858C11.4228 18.0053 13.3173 17.2625 14.7148 15.9386C16.1126 14.6145 16.899 12.8175 16.899 10.9425C16.899 10.707 16.9977 10.48 17.1753 10.3117C17.3531 10.1433 17.5953 10.0478 17.849 10.0478C18.1027 10.0478 18.3449 10.1433 18.5227 10.3117C18.7004 10.48 18.7991 10.707 18.7991 10.9425C18.7991 12.1042 18.5575 13.2547 18.0881 14.3283C17.6186 15.4019 16.9303 16.3778 16.0623 17.2001C15.1943 18.0224 14.1634 18.6749 13.0286 19.1202C11.8937 19.5655 10.6772 19.7947 9.44858 19.7947L1.04862 19.7947C1.04849 19.7947 1.04836 19.7947 1.04823 19.7947C0.859641 19.7938 0.675971 19.74 0.520373 19.6406C0.364718 19.5413 0.244441 19.401 0.173848 19.2382L0.173499 19.2375C0.101459 19.0752 0.0818815 18.8967 0.116956 18.7242C0.151985 18.552 0.240145 18.3926 0.371244 18.2665C0.371451 18.2663 0.371658 18.2661 0.371865 18.2659L2.16611 16.6061L2.23625 16.5412L2.17462 16.4682C1.0771 15.1677 0.389398 13.6011 0.18972 11.9483C-0.00995478 10.2954 0.286372 8.62254 1.04506 7.12149C1.80379 5.62038 2.99439 4.35158 4.4809 3.46133C5.9674 2.57108 7.68924 2.09569 9.44873 2.09018C9.70234 2.09022 9.94454 2.18572 10.1223 2.35412C10.2999 2.52238 10.3986 2.74939 10.3986 2.98488C10.3986 3.22037 10.2999 3.44738 10.1223 3.61564C9.9445 3.78407 9.70224 3.87958 9.44858 3.87958C7.97613 3.87948 6.53631 4.29299 5.31117 5.06838C4.08599 5.84379 3.13022 6.94652 2.56559 8.23775C2.00094 9.52905 1.85311 10.9503 2.14107 12.3215C2.42903 13.6927 3.13961 14.9514 4.18204 15.9388L4.18234 15.9391C4.27115 16.0225 4.34134 16.1215 4.38912 16.2302C4.4369 16.3388 4.46142 16.4551 4.46142 16.5724C4.46142 16.6898 4.4369 16.8061 4.38912 16.9147C4.34136 17.0233 4.27122 17.1223 4.18247 17.2057C4.18243 17.2057 4.18238 17.2058 4.18234 17.2058L3.51058 17.8322ZM0.0189622 18.7043C-0.0202826 18.8972 0.00168733 19.0969 0.0820998 19.278L2.0982 16.5327L0.302611 18.1938C0.156908 18.3337 0.0582071 18.5113 0.0189622 18.7043Z" fill="#091422" stroke="#FDECD2" stroke-width="0.2"/>
</svg>
