<svg width="23" height="25" viewBox="0 0 23 25" fill="none" xmlns="http://www.w3.org/2000/svg">
<path d="M16.0118 13.7906L16.0117 13.7907L16.0143 13.7916C17.9358 14.4995 19.5564 15.8152 20.7733 17.4378C21.9899 19.0598 22.7984 20.9825 22.9 23.0025V23.0036V23.0048V23.006V23.0071V23.0083V23.0095V23.0107V23.0119V23.013V23.0142V23.0154V23.0165V23.0177V23.0189V23.02V23.0212V23.0223V23.0235V23.0246V23.0258V23.0269V23.0281V23.0292V23.0304V23.0315V23.0326V23.0338V23.0349V23.036V23.0372V23.0383V23.0394V23.0405V23.0416V23.0428V23.0439V23.045V23.0461V23.0472V23.0483V23.0494V23.0505V23.0516V23.0527V23.0538V23.0549V23.056V23.0571V23.0582V23.0592V23.0603V23.0614V23.0625V23.0635V23.0646V23.0657V23.0668V23.0678V23.0689V23.07V23.071V23.0721V23.0731V23.0742V23.0752V23.0763V23.0773V23.0784V23.0794V23.0805V23.0815V23.0826V23.0836V23.0846V23.0857V23.0867V23.0877V23.0887V23.0898V23.0908V23.0918V23.0928V23.0938V23.0949V23.0959V23.0969V23.0979V23.0989V23.0999V23.1009V23.1019V23.1029V23.1039V23.1049V23.1059V23.1069V23.1079V23.1089V23.1098V23.1108V23.1118V23.1128V23.1138V23.1147V23.1157V23.1167V23.1177V23.1186V23.1196V23.1206V23.1215V23.1225V23.1234V23.1244V23.1254V23.1263V23.1273V23.1282V23.1292V23.1301V23.1311V23.132V23.1329V23.1339V23.1348V23.1358V23.1367V23.1376V23.1386V23.1395V23.1404V23.1413V23.1423V23.1432V23.1441V23.145V23.146V23.1469V23.1478V23.1487V23.1496V23.1505V23.1514V23.1523V23.1532V23.1541V23.155V23.1559V23.1568V23.1577V23.1586V23.1595V23.1604V23.1613V23.1622V23.1631V23.164V23.1648V23.1657V23.1666V23.1675V23.1684V23.1692V23.1701V23.171V23.1718V23.1727V23.1736V23.1744V23.1753V23.1762V23.177V23.1779V23.1787V23.1796V23.1805V23.1813V23.1822V23.183V23.1839V23.1847V23.1856V23.1864V23.1872V23.1881V23.1889V23.1898V23.1906V23.1914V23.1923V23.1931V23.1939V23.1948V23.1956V23.1964V23.1972V23.1981V23.1989V23.1997V23.2005V23.2013V23.2022V23.203V23.2038V23.2046V23.2054V23.2062V23.207V23.2078V23.2086V23.2094V23.2102V23.211V23.2118V23.2126V23.2134V23.2142V23.215V23.2158V23.2166V23.2174V23.2182V23.219V23.2198V23.2206V23.2213V23.2221V23.2229V23.2237V23.2245V23.2252V23.226V23.2268V23.2276V23.2283V23.2291V23.2299V23.2306V23.2314V23.2322V23.2329V23.2337V23.2345V23.2352V23.236V23.2368V23.2375V23.2383V23.239V23.2398V23.2405V23.2413V23.242V23.2428V23.2435V23.2443V23.245V23.2458V23.2465V23.2472V23.248V23.2487V23.2495V23.2502V23.2509V23.2517V23.2524V23.2531V23.2539V23.2546V23.2553V23.2561V23.2568V23.2575V23.2583V23.259V23.2597V23.2604V23.2611V23.2619V23.2626V23.2633V23.264V23.2647V23.2654V23.2662V23.2669V23.2676V23.2683V23.269V23.2697V23.2704V23.2711V23.2718V23.2725V23.2732V23.274V23.2747V23.2754V23.2761V23.2768V23.2775V23.2782V23.2788V23.2795V23.2802V23.2809V23.2816V23.2823V23.283V23.2837V23.2844V23.2851V23.2858V23.2864V23.2871V23.2878V23.2885V23.2892V23.2899V23.2905V23.2912V23.2919V23.2926V23.2933V23.2939V23.2946V23.2953V23.296V23.2966V23.2973V23.298V23.2987V23.2993V23.3V23.3007V23.3013V23.302V23.3027V23.3033V23.304V23.3047V23.3053V23.306V23.3066V23.3073V23.308V23.3086V23.3093V23.3099V23.3106V23.3113V23.3119V23.3126V23.3132V23.3139V23.3145V23.3152V23.3158V23.3165V23.3171V23.3178V23.3184V23.3191V23.3197V23.3204V23.321V23.3217V23.3223V23.3229V23.3236V23.3242V23.3249V23.3255V23.3262V23.3268V23.3274V23.3281V23.3287V23.3294V23.33V23.3306V23.3313V23.3319V23.3325V23.3332V23.3338V23.3344V23.3351V23.3357V23.3363V23.337V23.3376V23.3382V23.3389V23.3395V23.3401V23.3407V23.3414V23.342V23.3426V23.3432V23.3439V23.3445V23.3451V23.3457V23.3464V23.347V23.3476V23.3482V23.3489V23.3495V23.3501V23.3507V23.3513V23.352V23.3526V23.3532V23.3538V23.3544V23.355V23.3557V23.3563V23.3569V23.3575V23.3581V23.3587V23.3594V23.36V23.3606V23.3612V23.3618V23.3624V23.363V23.3636V23.3643V23.3649V23.3655V23.3661V23.3667V23.3673V23.3679V23.3685V23.3691V23.3697V23.37C22.8561 23.4219 22.8307 23.4727 22.8097 23.5149L22.8083 23.5175C22.7828 23.5686 22.7633 23.6063 22.7248 23.6448L22.7134 23.6563L22.7061 23.6708C22.6267 23.8297 22.4661 23.9222 22.1822 23.9222H22.1739L22.1658 23.9236C21.601 24.0177 21.1578 23.6418 21.1578 23.2044H21.1582L21.1573 23.1948C20.8472 19.9904 18.7812 17.0993 15.9927 15.6534L15.9296 15.6207L15.8779 15.6696L12.0957 19.2474L12.0957 19.2473L12.0937 19.2493C11.7239 19.6191 11.1739 19.6191 10.804 19.2493L10.8021 19.2474L7.01983 15.6696L6.96819 15.6207L6.90508 15.6534C4.11656 17.0993 2.05057 19.9904 1.74047 23.1948L1.74 23.1948V23.2044C1.74 23.373 1.65617 23.5535 1.46262 23.7471C1.29205 23.9176 1.03033 23.9222 0.817778 23.9222C0.652564 23.9222 0.475874 23.8417 0.28669 23.6563C0.190847 23.4599 0.101611 23.1824 0.100022 23.0048C0.506958 18.9564 3.34319 15.3099 7.09073 13.7905C7.09079 13.7905 7.09085 13.7905 7.0909 13.7905L7.60158 13.5862L7.77809 13.5156L7.61992 13.4101L7.31719 13.2083C5.70552 11.897 4.7 9.8819 4.7 7.87111C4.7 7.81432 4.68014 7.57131 4.65171 7.24432C4.62875 6.98036 4.5997 6.65638 4.56942 6.31881C4.56176 6.23333 4.55401 6.14699 4.54627 6.06052C4.4692 5.19997 4.39333 4.33854 4.39333 4.19111H4.39402L4.39265 4.17943C4.19448 2.49501 5.3844 0.907174 7.07071 0.60959L7.07072 0.609655L7.07429 0.608891C8.50025 0.303327 10.0264 0.1 11.5511 0.1C13.0753 0.1 14.4991 0.303196 15.9257 0.608891L15.9257 0.608956L15.9293 0.60959C17.6156 0.907174 18.8055 2.49501 18.6074 4.17943L18.6073 4.17942L18.6071 4.18232L18.7067 4.19111L18.607 4.18236L18.607 4.18248L18.607 4.18296L18.6068 4.18485L18.6062 4.19231L18.6036 4.22142L18.5939 4.3321L18.5591 4.72866C18.5304 5.05772 18.492 5.49861 18.4537 5.9459C18.4154 6.39317 18.377 6.84696 18.3482 7.20178C18.3198 7.55297 18.3 7.81471 18.3 7.87111C18.3 9.98594 17.2928 12.0013 15.5793 13.3117L15.5787 13.311L15.5693 13.3204L15.4671 13.4226L15.3598 13.5299L15.5006 13.5862L16.0118 13.7906ZM16.6622 5.92889L16.7616 5.93991L16.7616 5.93985L16.7616 5.9396L16.7618 5.93859L16.7622 5.93464L16.7639 5.91922L16.7704 5.86063L16.7936 5.65074C16.8127 5.4766 16.8383 5.24334 16.8639 5.00686C16.8894 4.77042 16.915 4.53062 16.9342 4.34347C16.9438 4.24992 16.9518 4.1693 16.9575 4.10873C16.9621 4.05855 16.9656 4.01718 16.9665 3.99506C17.0724 3.23079 16.5292 2.46705 15.7602 2.3549L14.8439 2.15127L14.8439 2.15113L14.8387 2.15025C12.375 1.73963 9.91238 1.84184 7.45173 2.35337C7.01127 2.35686 6.68008 2.57983 6.46195 2.90459C6.32059 3.07626 6.24646 3.29255 6.2132 3.52869C6.17969 3.76662 6.18679 4.031 6.21267 4.30281C6.23858 4.57488 6.28385 4.85914 6.32849 5.13658L6.33243 5.16105C6.37592 5.43124 6.41826 5.69425 6.44272 5.93884L6.45172 6.02889H6.54222H16.6622H16.7517L16.7616 5.93993L16.6622 5.92889ZM6.64444 7.66889H6.54445V7.76889V7.97333C6.54445 11.7349 11.0283 14.1285 14.2608 12.0455C15.7237 11.2084 16.66 9.53938 16.66 7.76889V7.66889H16.56H6.64444ZM11.4804 17.4485L11.5496 17.5177L11.6203 17.45L14.0736 15.0989L14.2044 14.9736L14.0287 14.9297L13.6198 14.8274L13.6198 14.8274L13.618 14.827C12.2744 14.5169 10.9301 14.5169 9.5864 14.827L9.5864 14.827L9.58464 14.8274L9.17575 14.9297L9.0044 14.9725L9.12929 15.0974L9.1311 15.0992L9.13295 15.101L9.13483 15.1029L9.13674 15.1048L9.13868 15.1068L9.14066 15.1087L9.14266 15.1108L9.1447 15.1128L9.14677 15.1149L9.14888 15.117L9.15101 15.1191L9.15317 15.1213L9.15537 15.1235L9.1576 15.1257L9.15986 15.1279L9.16215 15.1302L9.16446 15.1326L9.16682 15.1349L9.1692 15.1373L9.17161 15.1397L9.17405 15.1421L9.17652 15.1446L9.17902 15.1471L9.18155 15.1496L9.18411 15.1522L9.18671 15.1548L9.18933 15.1574L9.19197 15.1601L9.19465 15.1627L9.19736 15.1654L9.2001 15.1682L9.20286 15.1709L9.20566 15.1737L9.20848 15.1766L9.21133 15.1794L9.21421 15.1823L9.21712 15.1852L9.22005 15.1881L9.22301 15.1911L9.226 15.1941L9.22902 15.1971L9.23207 15.2002L9.23514 15.2032L9.23824 15.2063L9.24137 15.2095L9.24453 15.2126L9.24771 15.2158L9.25092 15.219L9.25415 15.2222L9.25741 15.2255L9.2607 15.2288L9.26401 15.2321L9.26735 15.2354L9.27072 15.2388L9.27411 15.2422L9.27753 15.2456L9.28097 15.2491L9.28444 15.2525L9.28794 15.256L9.29146 15.2595L9.295 15.2631L9.29857 15.2667L9.30216 15.2703L9.30578 15.2739L9.30943 15.2775L9.31309 15.2812L9.31679 15.2849L9.3205 15.2886L9.32424 15.2923L9.32801 15.2961L9.3318 15.2999L9.33561 15.3037L9.33944 15.3075L9.3433 15.3114L9.34718 15.3153L9.35109 15.3192L9.35502 15.3231L9.35897 15.3271L9.36294 15.331L9.36694 15.335L9.37096 15.339L9.375 15.3431L9.37906 15.3472L9.38315 15.3512L9.38726 15.3553L9.39139 15.3595L9.39554 15.3636L9.39971 15.3678L9.40391 15.372L9.40812 15.3762L9.41236 15.3804L9.41662 15.3847L9.4209 15.389L9.4252 15.3933L9.42952 15.3976L9.43386 15.4019L9.43822 15.4063L9.44261 15.4107L9.44701 15.4151L9.45143 15.4195L9.45587 15.424L9.46033 15.4284L9.46482 15.4329L9.46932 15.4374L9.47384 15.4419L9.47838 15.4465L9.48294 15.451L9.48752 15.4556L9.49212 15.4602L9.49673 15.4648L9.50137 15.4695L9.50602 15.4741L9.51069 15.4788L9.51538 15.4835L9.52009 15.4882L9.52482 15.4929L9.52956 15.4977L9.53433 15.5024L9.53911 15.5072L9.5439 15.512L9.54872 15.5168L9.55355 15.5216L9.5584 15.5265L9.56327 15.5314L9.56815 15.5362L9.57305 15.5411L9.57797 15.5461L9.5829 15.551L9.58785 15.5559L9.59282 15.5609L9.5978 15.5659L9.6028 15.5709L9.60781 15.5759L9.61284 15.5809L9.61788 15.586L9.62295 15.591L9.62802 15.5961L9.63311 15.6012L9.63822 15.6063L9.64334 15.6114L9.64848 15.6166L9.65363 15.6217L9.65879 15.6269L9.66397 15.6321L9.66917 15.6373L9.67438 15.6425L9.6796 15.6477L9.68483 15.6529L9.69008 15.6582L9.69535 15.6634L9.70063 15.6687L9.70592 15.674L9.71122 15.6793L9.71654 15.6846L9.72187 15.69L9.72721 15.6953L9.73257 15.7007L9.73794 15.706L9.74332 15.7114L9.74871 15.7168L9.75412 15.7222L9.75954 15.7276L9.76497 15.7331L9.77041 15.7385L9.77586 15.744L9.78133 15.7494L9.78681 15.7549L9.79229 15.7604L9.79779 15.7659L9.80331 15.7714L9.80883 15.7769L9.81436 15.7824L9.8199 15.788L9.82546 15.7935L9.83102 15.7991L9.8366 15.8047L9.84218 15.8103L9.84778 15.8159L9.85338 15.8215L9.859 15.8271L9.86462 15.8327L9.87026 15.8383L9.8759 15.844L9.88156 15.8496L9.88722 15.8553L9.89289 15.861L9.89857 15.8667L9.90426 15.8723L9.90996 15.878L9.91566 15.8838L9.92138 15.8895L9.9271 15.8952L9.93283 15.9009L9.93857 15.9067L9.94432 15.9124L9.95008 15.9182L9.95584 15.9239L9.96161 15.9297L9.96739 15.9355L9.97317 15.9413L9.97897 15.9471L9.98477 15.9529L9.99057 15.9587L9.99639 15.9645L10.0022 15.9703L10.008 15.9761L10.0139 15.982L10.0197 15.9878L10.0255 15.9936L10.0314 15.9995L10.0373 16.0053L10.0431 16.0112L10.049 16.0171L10.0549 16.023L10.0607 16.0288L10.0666 16.0347L10.0725 16.0406L10.0784 16.0465L10.0843 16.0524L10.0902 16.0583L10.0961 16.0642L10.102 16.0701L10.1139 16.082L10.1198 16.0879L10.1257 16.0938L10.1376 16.1057L10.1435 16.1116L10.1495 16.1176L10.1614 16.1295L10.1673 16.1354L10.1733 16.1414L10.1852 16.1533L10.1912 16.1593L10.1972 16.1652L10.2031 16.1712L10.2091 16.1772L10.2151 16.1832L10.2211 16.1891L10.227 16.1951L10.233 16.2011L10.239 16.2071L10.245 16.2131L10.251 16.219L10.2569 16.225L10.2629 16.231L10.2689 16.237L10.2809 16.249L10.2869 16.255L10.2929 16.261L10.2989 16.2669L10.3048 16.2729L10.3108 16.2789L10.3168 16.2849L10.3228 16.2909L10.3288 16.2969L10.3348 16.3029L10.3408 16.3089L10.3528 16.3208L10.3587 16.3268L10.3647 16.3328L10.3707 16.3388L10.3767 16.3448L10.3827 16.3508L10.3886 16.3567L10.4006 16.3687L10.4245 16.3926L10.4304 16.3985L10.4364 16.4045L10.4423 16.4104L10.4483 16.4164L10.4543 16.4223L10.4602 16.4283L10.4661 16.4342L10.4721 16.4402L10.484 16.452L10.4958 16.4639L10.5017 16.4698L10.5077 16.4757L10.5136 16.4817L10.5195 16.4876L10.5313 16.4994L10.5372 16.5053L10.5431 16.5112L10.5489 16.517L10.5548 16.5229L10.5666 16.5347L10.5724 16.5405L10.5783 16.5464L10.5841 16.5522L10.59 16.5581L10.5958 16.5639L10.6017 16.5697L10.6075 16.5756L10.6133 16.5814L10.6365 16.6046L10.6596 16.6277L10.6654 16.6335L10.6711 16.6392L10.6769 16.6449L10.6826 16.6507L10.694 16.6621L10.6997 16.6678L10.7054 16.6735L10.7281 16.6962L10.7394 16.7075L10.7451 16.7132L10.7507 16.7188L10.7563 16.7244L10.7619 16.73L10.7731 16.7412L10.7842 16.7523L10.7953 16.7634L10.8174 16.7855L10.8229 16.791L10.8284 16.7964L10.8393 16.8074L10.8447 16.8128L10.8502 16.8182L10.8556 16.8237L10.861 16.8291L10.8664 16.8345L10.8718 16.8398L10.8771 16.8452L10.8825 16.8506L10.8878 16.8559L10.8932 16.8612L10.9038 16.8719L10.9091 16.8772L10.9143 16.8824L10.9196 16.8877L10.9249 16.8929L10.9353 16.9034L10.9405 16.9086L10.9457 16.9138L10.9509 16.919L10.9561 16.9242L10.9612 16.9293L10.9664 16.9344L10.9715 16.9396L10.9766 16.9447L10.9817 16.9498L10.9867 16.9548L11.0069 16.975L11.0169 16.985L11.0218 16.9899L11.0268 16.9949L11.3039 17.272L11.3075 17.2756L11.3111 17.2792L11.3147 17.2828L11.3182 17.2863L11.3218 17.2898L11.3252 17.2933L11.3322 17.3002L11.3356 17.3037L11.339 17.3071L11.3423 17.3104L11.3457 17.3138L11.349 17.3171L11.3523 17.3204L11.3555 17.3236L11.3588 17.3269L11.3714 17.3395L11.3776 17.3457L11.3837 17.3518L11.3955 17.3636L11.4012 17.3693L11.404 17.3721L11.4068 17.3749L11.4281 17.3962L11.4381 17.4062L11.4475 17.4156L11.4565 17.4246L11.4608 17.4289L11.4629 17.431L11.465 17.4331L11.467 17.4351L11.469 17.4371L11.471 17.4391L11.473 17.441L11.4749 17.443L11.4767 17.4448L11.4804 17.4485Z" fill="#091422" stroke="#FDECD2" stroke-width="0.2"/>
</svg>
