<svg width="18" height="26" viewBox="0 0 18 26" fill="none" xmlns="http://www.w3.org/2000/svg">
<path d="M8.6 1C8.8 1 9 1.1 9.1 1.2C9.2 1.3 9.4 1.5 9.4 1.7V1.9V7C9.4 8 9.1 8.9 8.4 9.7C7.8 10.5 7 11 6 11.2V24.1C6 24.3 5.9 24.5 5.8 24.7C5.7 24.9 5.5 25 5.2 25C5 25 4.8 25 4.6 24.8C4.4 24.7 4.3 24.5 4.3 24.3V24.1V11.2C3.4 11 2.6 10.5 2 9.8C1.4 9.1 1 8.2 1 7.3V7V1.9C1 1.7 1.1 1.5 1.2 1.3C1.3 1.1 1.5 1 1.8 1C2 1 2.2 1 2.4 1.2C2.6 1.3 2.7 1.5 2.7 1.7V1.9V7C2.7 7.5 2.9 8.1 3.2 8.5C3.5 8.9 3.8 9.2 4.3 9.4V1.9C4.3 1.7 4.4 1.5 4.5 1.3C4.6 1.1 4.8 1 5.1 1C5.3 1 5.5 1 5.7 1.2C5.8 1.3 5.9 1.5 6 1.7V1.9V9.5C6.9 9.2 7.6 8.3 7.7 7.3V7V1.9C7.7 1.7 7.8 1.5 7.9 1.3C8.1 1.1 8.3 1 8.6 1ZM17 1C17.2 1 17.4 1.1 17.5 1.2C17.7 1.3 17.8 1.5 17.8 1.7V1.9V24.2C17.8 24.4 17.7 24.6 17.6 24.8C17.5 25 17.3 25.1 17 25.1C16.8 25.1 16.6 25.1 16.4 24.9C16.2 24.8 16.1 24.6 16.1 24.4V24.2V14.8H13.5C13.3 14.8 13.1 14.7 13 14.6C12.8 14.5 12.7 14.3 12.7 14.1V13.9V5.3C12.7 4.2 13.1 3.1 13.9 2.3C14.7 1.5 15.9 1 17 1ZM16.2 13V2.9C15.3 3.2 14.6 4.1 14.5 5.1V5.4V13.1H16.2V13Z" fill="#091422" stroke="#FDECD2" stroke-width="0.2"/>
</svg>
