<svg width="21" height="24" viewBox="0 0 21 24" fill="none" xmlns="http://www.w3.org/2000/svg">
<path d="M20.5348 6.14435L20.5829 6.17386H20.6272L20.6814 6.22055C20.6816 6.22073 20.6818 6.22091 20.682 6.22109C20.7071 6.24328 20.729 6.26837 20.7472 6.29568L20.8 6.42369V6.47496C20.7949 6.50844 20.7941 6.5424 20.7976 6.57604C20.7934 6.61158 20.7938 6.64752 20.7987 6.683C20.7976 6.6897 20.7957 6.69993 20.7926 6.71346C20.7902 6.72402 20.7877 6.73359 20.7859 6.74049L20.7838 6.7482L20.7833 6.74988L20.7833 6.74989L20.7833 6.74991L20.7833 6.74993L20.7832 6.74998L20.7832 6.75005L20.7832 6.75011L20.7751 6.77754V6.80637V17.3396V17.34C20.7755 17.5099 20.7312 17.6774 20.6461 17.8268C20.561 17.976 20.4378 18.1025 20.2876 18.1937C20.2874 18.1939 20.2872 18.194 20.287 18.1941L11.0507 23.6987L10.9148 23.7514H10.8527H10.8226L10.7939 23.7603C10.6218 23.8132 10.437 23.8132 10.2649 23.7603L10.2362 23.7514H10.2061H10.144L10.0084 23.6988L0.697226 18.1096C0.697197 18.1096 0.697167 18.1096 0.697138 18.1096C0.546615 18.0183 0.423243 17.8917 0.338105 17.7423C0.252974 17.5929 0.208708 17.4254 0.209059 17.2555V17.2551V6.72192V6.7069L0.206818 6.69206C0.197727 6.63184 0.197727 6.57068 0.206818 6.51046L0.209059 6.49562V6.48061V6.33923L0.256328 6.22458L0.280231 6.19675L0.382571 6.12724L0.3921 6.12077L0.400823 6.11324L0.507802 6.02098L0.606273 5.94667L9.88457 0.342821C9.9876 0.284118 10.0992 0.24051 10.2157 0.2135H10.318H10.3341L10.35 0.210928C10.4399 0.196357 10.5318 0.196357 10.6218 0.210928L10.6377 0.2135H10.6538H10.724C10.8213 0.244253 10.912 0.291532 10.9919 0.352976L11.0011 0.360036L11.011 0.36599L15.6353 3.14005L15.6369 3.14105L20.5348 6.14435ZM10.5452 2.46018L10.4424 2.39852L10.3395 2.46018L3.3757 6.63484L3.08878 6.80684L3.37611 6.97816L5.60204 8.30536L5.70484 8.36665L5.80744 8.30504L12.7588 4.13037L13.0445 3.95878L12.7587 3.78739L10.5452 2.46018ZM9.09684 20.902L9.39881 21.081V20.73V13.0684V12.9551L9.30169 12.8969L2.46222 8.79458L2.15935 8.61292V8.9661V16.676V16.7899L2.25737 16.848L9.09684 20.902ZM10.3415 11.1175L10.4432 11.177L10.5445 11.1168L17.5083 6.9783L17.7959 6.80739L17.5092 6.63498L15.1216 5.19918L15.0185 5.13715L14.9154 5.19925L7.96401 9.38598L7.67519 9.55993L7.96631 9.73L10.3415 11.1175ZM18.6287 16.811L18.7254 16.7527V16.6398V8.9661V8.61292L18.4225 8.79458L11.583 12.8969L11.4859 12.9551V13.0684V20.7662V21.1204L11.7892 20.9374L18.6287 16.811Z" fill="#091422" stroke="#FDECD2" stroke-width="0.4"/>
</svg>
