<svg width="22" height="13" viewBox="0 0 22 13" fill="none" xmlns="http://www.w3.org/2000/svg">
<path d="M21.3827 0.605178C20.9917 0.217565 20.4627 0 19.9114 0C19.36 0 18.8311 0.217565 18.44 0.605178L10.9478 7.9724L3.55995 0.605178C3.16893 0.217565 2.63998 0 2.08864 0C1.53729 0 1.00834 0.217565 0.617322 0.605178C0.421714 0.798647 0.266455 1.02882 0.160502 1.28243C0.0545492 1.53603 0 1.80805 0 2.08278C0 2.35752 0.0545492 2.62954 0.160502 2.88314C0.266455 3.13675 0.421714 3.36692 0.617322 3.56039L9.46608 12.3844C9.66009 12.5795 9.89091 12.7343 10.1452 12.8399C10.3995 12.9456 10.6723 13 10.9478 13C11.2233 13 11.4961 12.9456 11.7504 12.8399C12.0047 12.7343 12.2356 12.5795 12.4296 12.3844L21.3827 3.56039C21.5783 3.36692 21.7335 3.13675 21.8395 2.88314C21.9454 2.62954 22 2.35752 22 2.08278C22 1.80805 21.9454 1.53603 21.8395 1.28243C21.7335 1.02882 21.5783 0.798647 21.3827 0.605178Z" fill="#091422"/>
</svg>
