<svg width="20" height="18" viewBox="0 0 20 18" fill="none" xmlns="http://www.w3.org/2000/svg">
<path d="M18.1899 1.83088C17.1226 0.77454 15.7128 0.134475 14.215 0.0261794C12.7173 -0.0821164 11.2301 0.348489 10.0219 1.2403C8.74828 0.292998 7.16305 -0.136552 5.58543 0.0381467C4.0078 0.212845 2.55496 0.978815 1.51947 2.18181C0.483979 3.3848 -0.0572399 4.93546 0.00480014 6.52152C0.0668402 8.10758 0.72753 9.61122 1.85382 10.7297L7.85975 16.7856C8.42281 17.348 9.18606 17.6639 9.98184 17.6639C10.7776 17.6639 11.5409 17.348 12.1039 16.7856L18.1099 10.7297C18.7014 10.1517 19.1729 9.46261 19.4972 8.70189C19.8215 7.94117 19.9923 7.12385 19.9997 6.29691C20.0072 5.46997 19.8511 4.64972 19.5405 3.88328C19.23 3.11685 18.771 2.41935 18.1899 1.83088V1.83088ZM16.7786 9.29825L10.7726 15.3042C10.6796 15.398 10.5689 15.4725 10.4469 15.5233C10.3249 15.5741 10.1941 15.6003 10.0619 15.6003C9.92978 15.6003 9.79895 15.5741 9.67697 15.5233C9.55499 15.4725 9.44428 15.398 9.35122 15.3042L3.3453 9.29825C2.56028 8.4958 2.1207 7.41786 2.1207 6.29528C2.1207 5.17271 2.56028 4.09477 3.3453 3.29232C4.14524 2.50253 5.22412 2.05967 6.34826 2.05967C7.47239 2.05967 8.55128 2.50253 9.35122 3.29232C9.44428 3.38614 9.55499 3.46061 9.67697 3.51143C9.79895 3.56225 9.92978 3.58841 10.0619 3.58841C10.1941 3.58841 10.3249 3.56225 10.4469 3.51143C10.5689 3.46061 10.6796 3.38614 10.7726 3.29232C11.5942 2.63856 12.6277 2.31007 13.6759 2.3695C14.7242 2.42893 15.7139 2.87212 16.4563 3.61454C17.1988 4.35696 17.6419 5.34668 17.7014 6.39494C17.7608 7.44321 17.4323 8.47667 16.7786 9.29825V9.29825Z" fill="#091422"/>
</svg>
