<svg width="25" height="23" viewBox="0 0 25 23" fill="none" xmlns="http://www.w3.org/2000/svg">
<path d="M22.7374 2.2886C21.4032 0.968175 19.641 0.168094 17.7688 0.0327242C15.8966 -0.102645 14.0376 0.435611 12.5274 1.55037C10.9354 0.366247 8.95382 -0.17069 6.98178 0.0476834C5.00975 0.266056 3.19369 1.22352 1.89933 2.72726C0.604973 4.231 -0.0715499 6.16933 0.00600018 8.1519C0.0835502 10.1345 0.909413 12.014 2.31728 13.4121L9.82469 20.982C10.5285 21.685 11.4826 22.0798 12.4773 22.0798C13.472 22.0798 14.4261 21.685 15.1299 20.982L22.6373 13.4121C23.3767 12.6897 23.9661 11.8283 24.3715 10.8774C24.7769 9.92646 24.9904 8.90482 24.9997 7.87114C25.009 6.83747 24.8139 5.81215 24.4257 4.8541C24.0374 3.89606 23.4637 3.02419 22.7374 2.2886V2.2886ZM20.9732 11.6228L13.4658 19.1302C13.3495 19.2475 13.2111 19.3406 13.0586 19.4041C12.9061 19.4676 12.7426 19.5003 12.5774 19.5003C12.4122 19.5003 12.2487 19.4676 12.0962 19.4041C11.9437 19.3406 11.8053 19.2475 11.689 19.1302L4.18162 11.6228C3.20035 10.6197 2.65087 9.27232 2.65087 7.8691C2.65087 6.46589 3.20035 5.11846 4.18162 4.1154C5.18155 3.12816 6.53015 2.57459 7.93532 2.57459C9.34049 2.57459 10.6891 3.12816 11.689 4.1154C11.8053 4.23268 11.9437 4.32576 12.0962 4.38928C12.2487 4.45281 12.4122 4.48551 12.5774 4.48551C12.7426 4.48551 12.9061 4.45281 13.0586 4.38928C13.2111 4.32576 13.3495 4.23268 13.4658 4.1154C14.4928 3.2982 15.7846 2.88759 17.0949 2.96188C18.4052 3.03616 19.6424 3.59015 20.5704 4.51817C21.4984 5.4462 22.0524 6.68335 22.1267 7.99368C22.201 9.30401 21.7904 10.5958 20.9732 11.6228V11.6228Z" fill="#091422"/>
</svg>
