<svg width="25" height="25" viewBox="0 0 25 25" fill="none" xmlns="http://www.w3.org/2000/svg">
<path d="M23.75 2.5H20V1.25C20 0.918479 19.8683 0.600537 19.6339 0.366116C19.3995 0.131696 19.0815 0 18.75 0H6.25C5.91848 0 5.60054 0.131696 5.36612 0.366116C5.1317 0.600537 5 0.918479 5 1.25V2.5H1.25C0.918479 2.5 0.600537 2.6317 0.366116 2.86612C0.131696 3.10054 0 3.41848 0 3.75V7.5C0 8.82608 0.526784 10.0979 1.46447 11.0355C2.40215 11.9732 3.67392 12.5 5 12.5H6.925C8.05567 13.7614 9.58008 14.6029 11.25 14.8875V17.5H10C9.00544 17.5 8.05161 17.8951 7.34835 18.5983C6.64509 19.3016 6.25 20.2554 6.25 21.25V23.75C6.25 24.0815 6.3817 24.3995 6.61612 24.6339C6.85054 24.8683 7.16848 25 7.5 25H17.5C17.8315 25 18.1495 24.8683 18.3839 24.6339C18.6183 24.3995 18.75 24.0815 18.75 23.75V21.25C18.75 20.2554 18.3549 19.3016 17.6517 18.5983C16.9484 17.8951 15.9946 17.5 15 17.5H13.75V14.8875C15.4199 14.6029 16.9443 13.7614 18.075 12.5H20C21.3261 12.5 22.5979 11.9732 23.5355 11.0355C24.4732 10.0979 25 8.82608 25 7.5V3.75C25 3.41848 24.8683 3.10054 24.6339 2.86612C24.3995 2.6317 24.0815 2.5 23.75 2.5V2.5ZM5 10C4.33696 10 3.70107 9.73661 3.23223 9.26777C2.76339 8.79893 2.5 8.16304 2.5 7.5V5H5V7.5C5.00275 8.35214 5.1507 9.19757 5.4375 10H5ZM15 20C15.3315 20 15.6495 20.1317 15.8839 20.3661C16.1183 20.6005 16.25 20.9185 16.25 21.25V22.5H8.75V21.25C8.75 20.9185 8.8817 20.6005 9.11612 20.3661C9.35054 20.1317 9.66848 20 10 20H15ZM17.5 7.5C17.5 8.82608 16.9732 10.0979 16.0355 11.0355C15.0979 11.9732 13.8261 12.5 12.5 12.5C11.1739 12.5 9.90215 11.9732 8.96447 11.0355C8.02678 10.0979 7.5 8.82608 7.5 7.5V2.5H17.5V7.5ZM22.5 7.5C22.5 8.16304 22.2366 8.79893 21.7678 9.26777C21.2989 9.73661 20.663 10 20 10H19.5625C19.8493 9.19757 19.9972 8.35214 20 7.5V5H22.5V7.5Z" fill="#091422"/>
</svg>
