<svg width="37" height="24" viewBox="0 0 37 24" fill="none" xmlns="http://www.w3.org/2000/svg">
<path d="M8.40909 10.2857C8.07646 10.2857 7.7513 10.3863 7.47472 10.5746C7.19815 10.763 6.98259 11.0307 6.85529 11.344C6.728 11.6572 6.69469 12.0019 6.75959 12.3344C6.82448 12.667 6.98466 12.9724 7.21987 13.2122C7.45507 13.4519 7.75474 13.6152 8.08098 13.6813C8.40723 13.7475 8.74538 13.7135 9.05269 13.5838C9.36001 13.454 9.62267 13.2343 9.80747 12.9524C9.99227 12.6705 10.0909 12.3391 10.0909 12C10.0909 11.5453 9.91372 11.1093 9.59832 10.7878C9.28291 10.4663 8.85514 10.2857 8.40909 10.2857ZM28.5909 10.2857C28.2583 10.2857 27.9331 10.3863 27.6565 10.5746C27.38 10.763 27.1644 11.0307 27.0371 11.344C26.9098 11.6572 26.8765 12.0019 26.9414 12.3344C27.0063 12.667 27.1665 12.9724 27.4017 13.2122C27.6369 13.4519 27.9366 13.6152 28.2628 13.6813C28.589 13.7475 28.9272 13.7135 29.2345 13.5838C29.5418 13.454 29.8045 13.2343 29.9893 12.9524C30.1741 12.6705 30.2727 12.3391 30.2727 12C30.2727 11.5453 30.0955 11.1093 29.7801 10.7878C29.4647 10.4663 29.037 10.2857 28.5909 10.2857ZM31.9545 0H5.04545C3.70732 0 2.42399 0.541835 1.47778 1.50631C0.531573 2.47078 0 3.77889 0 5.14286V18.8571C0 20.2211 0.531573 21.5292 1.47778 22.4937C2.42399 23.4582 3.70732 24 5.04545 24H31.9545C33.2927 24 34.576 23.4582 35.5222 22.4937C36.4684 21.5292 37 20.2211 37 18.8571V5.14286C37 3.77889 36.4684 2.47078 35.5222 1.50631C34.576 0.541835 33.2927 0 31.9545 0ZM33.6364 18.8571C33.6364 19.3118 33.4592 19.7478 33.1438 20.0693C32.8284 20.3908 32.4006 20.5714 31.9545 20.5714H5.04545C4.59941 20.5714 4.17163 20.3908 3.85623 20.0693C3.54083 19.7478 3.36364 19.3118 3.36364 18.8571V5.14286C3.36364 4.6882 3.54083 4.25217 3.85623 3.93067C4.17163 3.60918 4.59941 3.42857 5.04545 3.42857H31.9545C32.4006 3.42857 32.8284 3.60918 33.1438 3.93067C33.4592 4.25217 33.6364 4.6882 33.6364 5.14286V18.8571ZM18.5 6.85714C17.5021 6.85714 16.5266 7.15877 15.6969 7.72387C14.8672 8.28898 14.2205 9.09218 13.8386 10.0319C13.4567 10.9716 13.3568 12.0057 13.5515 13.0033C13.7462 14.0009 14.2267 14.9173 14.9323 15.6365C15.6379 16.3558 16.537 16.8456 17.5157 17.044C18.4944 17.2425 19.5089 17.1406 20.4308 16.7514C21.3527 16.3621 22.1407 15.703 22.6951 14.8572C23.2495 14.0115 23.5455 13.0172 23.5455 12C23.5455 10.636 23.0139 9.32792 22.0677 8.36345C21.1215 7.39898 19.8381 6.85714 18.5 6.85714ZM18.5 13.7143C18.1674 13.7143 17.8422 13.6137 17.5656 13.4254C17.2891 13.237 17.0735 12.9693 16.9462 12.656C16.8189 12.3428 16.7856 11.9981 16.8505 11.6656C16.9154 11.333 17.0756 11.0276 17.3108 10.7878C17.546 10.5481 17.8457 10.3848 18.1719 10.3187C18.4981 10.2525 18.8363 10.2865 19.1436 10.4162C19.4509 10.546 19.7136 10.7657 19.8984 11.0476C20.0832 11.3295 20.1818 11.6609 20.1818 12C20.1818 12.4547 20.0046 12.8907 19.6892 13.2122C19.3738 13.5337 18.946 13.7143 18.5 13.7143Z" fill="#FDECD2"/>
</svg>
