<svg width="20" height="13" viewBox="0 0 20 13" fill="none" xmlns="http://www.w3.org/2000/svg">
<path d="M4.54545 5.41353C4.36565 5.41353 4.18989 5.46645 4.04039 5.56559C3.89089 5.66473 3.77437 5.80565 3.70556 5.97051C3.63676 6.13538 3.61875 6.31679 3.65383 6.49181C3.68891 6.66683 3.77549 6.8276 3.90263 6.95378C4.02977 7.07996 4.19175 7.16589 4.3681 7.20071C4.54445 7.23552 4.72723 7.21765 4.89335 7.14937C5.05946 7.08108 5.20144 6.96543 5.30134 6.81706C5.40123 6.66868 5.45455 6.49424 5.45455 6.31579C5.45455 6.0765 5.35877 5.847 5.18828 5.6778C5.01779 5.50859 4.78656 5.41353 4.54545 5.41353ZM15.4545 5.41353C15.2747 5.41353 15.099 5.46645 14.9495 5.56559C14.8 5.66473 14.6835 5.80565 14.6147 5.97051C14.5458 6.13538 14.5278 6.31679 14.5629 6.49181C14.598 6.66683 14.6846 6.8276 14.8117 6.95378C14.9389 7.07996 15.1008 7.16589 15.2772 7.20071C15.4535 7.23552 15.6363 7.21765 15.8024 7.14937C15.9686 7.08108 16.1105 6.96543 16.2104 6.81706C16.3103 6.66868 16.3636 6.49424 16.3636 6.31579C16.3636 6.0765 16.2679 5.847 16.0974 5.6778C15.9269 5.50859 15.6957 5.41353 15.4545 5.41353ZM17.2727 0H2.72727C2.00396 0 1.31026 0.285177 0.7988 0.792794C0.287337 1.30041 0 1.98889 0 2.70677V9.92481C0 10.6427 0.287337 11.3312 0.7988 11.8388C1.31026 12.3464 2.00396 12.6316 2.72727 12.6316H17.2727C17.996 12.6316 18.6897 12.3464 19.2012 11.8388C19.7127 11.3312 20 10.6427 20 9.92481V2.70677C20 1.98889 19.7127 1.30041 19.2012 0.792794C18.6897 0.285177 17.996 0 17.2727 0ZM18.1818 9.92481C18.1818 10.1641 18.086 10.3936 17.9156 10.5628C17.7451 10.732 17.5138 10.8271 17.2727 10.8271H2.72727C2.48617 10.8271 2.25494 10.732 2.08445 10.5628C1.91396 10.3936 1.81818 10.1641 1.81818 9.92481V2.70677C1.81818 2.46747 1.91396 2.23798 2.08445 2.06878C2.25494 1.89957 2.48617 1.80451 2.72727 1.80451H17.2727C17.5138 1.80451 17.7451 1.89957 17.9156 2.06878C18.086 2.23798 18.1818 2.46747 18.1818 2.70677V9.92481ZM10 3.60902C9.4606 3.60902 8.93331 3.76777 8.48481 4.0652C8.03631 4.36262 7.68675 4.78536 7.48033 5.27995C7.27391 5.77455 7.2199 6.31879 7.32513 6.84385C7.43036 7.36891 7.69011 7.85122 8.07153 8.22976C8.45294 8.60831 8.9389 8.86611 9.46794 8.97055C9.99697 9.07499 10.5453 9.02139 11.0437 8.81652C11.542 8.61165 11.968 8.26471 12.2676 7.81959C12.5673 7.37446 12.7273 6.85114 12.7273 6.31579C12.7273 5.59791 12.4399 4.90943 11.9285 4.40182C11.417 3.8942 10.7233 3.60902 10 3.60902ZM10 7.21805C9.8202 7.21805 9.64444 7.16513 9.49494 7.06599C9.34544 6.96685 9.22892 6.82593 9.16011 6.66107C9.0913 6.4962 9.0733 6.31479 9.10838 6.13977C9.14345 5.96475 9.23004 5.80398 9.35718 5.6778C9.48431 5.55162 9.6463 5.46568 9.82265 5.43087C9.99899 5.39606 10.1818 5.41392 10.3479 5.48221C10.514 5.5505 10.656 5.66615 10.7559 5.81452C10.8558 5.9629 10.9091 6.13734 10.9091 6.31579C10.9091 6.55508 10.8133 6.78457 10.6428 6.95378C10.4723 7.12299 10.2411 7.21805 10 7.21805Z" fill="#FDECD2"/>
</svg>
