<svg width="21" height="25" viewBox="0 0 21 25" fill="none" xmlns="http://www.w3.org/2000/svg">
<path d="M10.4 13.75C10.0042 13.7456 9.61651 13.8578 9.28907 14.0716C8.96164 14.2855 8.71019 14.5906 8.56858 14.946C8.42696 15.3014 8.40198 15.69 8.49699 16.0594C8.592 16.4289 8.80245 16.7615 9.1 17.0125V18.75C9.1 19.0815 9.23696 19.3995 9.48076 19.6339C9.72456 19.8683 10.0552 20 10.4 20C10.7448 20 11.0754 19.8683 11.3192 19.6339C11.563 19.3995 11.7 19.0815 11.7 18.75V17.0125C11.9976 16.7615 12.208 16.4289 12.303 16.0594C12.398 15.69 12.373 15.3014 12.2314 14.946C12.0898 14.5906 11.8384 14.2855 11.5109 14.0716C11.1835 13.8578 10.7958 13.7456 10.4 13.75V13.75ZM16.9 8.75V6.25C16.9 4.5924 16.2152 3.00269 14.9962 1.83058C13.7772 0.65848 12.1239 0 10.4 0C8.67609 0 7.02279 0.65848 5.80381 1.83058C4.58482 3.00269 3.9 4.5924 3.9 6.25V8.75C2.86566 8.75 1.87368 9.14509 1.14228 9.84835C0.410892 10.5516 0 11.5054 0 12.5V21.25C0 22.2446 0.410892 23.1984 1.14228 23.9017C1.87368 24.6049 2.86566 25 3.9 25H16.9C17.9343 25 18.9263 24.6049 19.6577 23.9017C20.3891 23.1984 20.8 22.2446 20.8 21.25V12.5C20.8 11.5054 20.3891 10.5516 19.6577 9.84835C18.9263 9.14509 17.9343 8.75 16.9 8.75ZM6.5 6.25C6.5 5.25544 6.91089 4.30161 7.64228 3.59835C8.37367 2.89509 9.36566 2.5 10.4 2.5C11.4343 2.5 12.4263 2.89509 13.1577 3.59835C13.8891 4.30161 14.3 5.25544 14.3 6.25V8.75H6.5V6.25ZM18.2 21.25C18.2 21.5815 18.063 21.8995 17.8192 22.1339C17.5754 22.3683 17.2448 22.5 16.9 22.5H3.9C3.55522 22.5 3.22456 22.3683 2.98076 22.1339C2.73696 21.8995 2.6 21.5815 2.6 21.25V12.5C2.6 12.1685 2.73696 11.8505 2.98076 11.6161C3.22456 11.3817 3.55522 11.25 3.9 11.25H16.9C17.2448 11.25 17.5754 11.3817 17.8192 11.6161C18.063 11.8505 18.2 12.1685 18.2 12.5V21.25Z" fill="#FDECD2"/>
</svg>
