<svg width="28" height="18" viewBox="0 0 28 18" fill="none" xmlns="http://www.w3.org/2000/svg">
<path d="M6.36364 7.71429C6.11191 7.71429 5.86585 7.78969 5.65655 7.93097C5.44725 8.07224 5.28412 8.27304 5.18779 8.50798C5.09146 8.74291 5.06626 9.00143 5.11536 9.25083C5.16447 9.50023 5.28569 9.72933 5.46368 9.90914C5.64168 10.0889 5.86845 10.2114 6.11534 10.261C6.36222 10.3106 6.61813 10.2852 6.85069 10.1878C7.08325 10.0905 7.28202 9.92574 7.42187 9.7143C7.56172 9.50287 7.63636 9.25429 7.63636 9C7.63636 8.65901 7.50227 8.33198 7.26359 8.09086C7.02491 7.84974 6.70118 7.71429 6.36364 7.71429ZM21.6364 7.71429C21.3846 7.71429 21.1386 7.78969 20.9293 7.93097C20.72 8.07224 20.5568 8.27304 20.4605 8.50798C20.3642 8.74291 20.339 9.00143 20.3881 9.25083C20.4372 9.50023 20.5584 9.72933 20.7364 9.90914C20.9144 10.0889 21.1412 10.2114 21.3881 10.261C21.635 10.3106 21.8909 10.2852 22.1234 10.1878C22.356 10.0905 22.5547 9.92574 22.6946 9.7143C22.8344 9.50287 22.9091 9.25429 22.9091 9C22.9091 8.65901 22.775 8.33198 22.5363 8.09086C22.2976 7.84974 21.9739 7.71429 21.6364 7.71429ZM24.1818 0H3.81818C2.80554 0 1.83437 0.406377 1.11832 1.12973C0.402272 1.85309 0 2.83416 0 3.85714V14.1429C0 15.1658 0.402272 16.1469 1.11832 16.8703C1.83437 17.5936 2.80554 18 3.81818 18H24.1818C25.1945 18 26.1656 17.5936 26.8817 16.8703C27.5977 16.1469 28 15.1658 28 14.1429V3.85714C28 2.83416 27.5977 1.85309 26.8817 1.12973C26.1656 0.406377 25.1945 0 24.1818 0ZM25.4545 14.1429C25.4545 14.4838 25.3205 14.8109 25.0818 15.052C24.8431 15.2931 24.5194 15.4286 24.1818 15.4286H3.81818C3.48063 15.4286 3.15691 15.2931 2.91823 15.052C2.67954 14.8109 2.54545 14.4838 2.54545 14.1429V3.85714C2.54545 3.51615 2.67954 3.18912 2.91823 2.94801C3.15691 2.70689 3.48063 2.57143 3.81818 2.57143H24.1818C24.5194 2.57143 24.8431 2.70689 25.0818 2.94801C25.3205 3.18912 25.4545 3.51615 25.4545 3.85714V14.1429ZM14 5.14286C13.2448 5.14286 12.5066 5.36907 11.8787 5.7929C11.2508 6.21673 10.7614 6.81913 10.4725 7.52394C10.1835 8.22874 10.1079 9.00428 10.2552 9.75249C10.4025 10.5007 10.7662 11.188 11.3001 11.7274C11.8341 12.2668 12.5145 12.6342 13.2551 12.783C13.9958 12.9319 14.7635 12.8555 15.4612 12.5635C16.1588 12.2716 16.7552 11.7772 17.1747 11.1429C17.5942 10.5086 17.8182 9.76287 17.8182 9C17.8182 7.97702 17.4159 6.99594 16.6999 6.27259C15.9838 5.54923 15.0126 5.14286 14 5.14286ZM14 10.2857C13.7483 10.2857 13.5022 10.2103 13.2929 10.069C13.0836 9.92776 12.9205 9.72696 12.8242 9.49202C12.7278 9.25709 12.7026 8.99857 12.7517 8.74917C12.8008 8.49977 12.9221 8.27067 13.1 8.09086C13.278 7.91105 13.5048 7.7886 13.7517 7.73899C13.9986 7.68938 14.2545 7.71484 14.4871 7.81215C14.7196 7.90947 14.9184 8.07426 15.0582 8.28569C15.1981 8.49713 15.2727 8.74571 15.2727 9C15.2727 9.34099 15.1386 9.66802 14.9 9.90914C14.6613 10.1503 14.3375 10.2857 14 10.2857Z" fill="#FDECD2"/>
</svg>
