<svg width="25" height="25" viewBox="0 0 25 25" fill="none" xmlns="http://www.w3.org/2000/svg">
<path d="M12.5 5C12.1685 5 11.8505 5.13169 11.6161 5.36612C11.3817 5.60054 11.25 5.91848 11.25 6.25V11.73L8.2125 13.2587C8.0607 13.3293 7.92462 13.4296 7.81232 13.5538C7.70003 13.6779 7.61381 13.8233 7.55879 13.9814C7.50377 14.1395 7.48106 14.3071 7.49201 14.4741C7.50296 14.6411 7.54736 14.8043 7.62255 14.9538C7.69775 15.1034 7.80222 15.2363 7.92976 15.3447C8.0573 15.4531 8.20532 15.5348 8.36504 15.5849C8.52475 15.6351 8.69291 15.6526 8.85953 15.6365C9.02615 15.6204 9.18784 15.571 9.335 15.4912L13.0613 13.6162C13.2683 13.5124 13.4424 13.353 13.564 13.1558C13.6856 12.9587 13.75 12.7316 13.75 12.5V6.25C13.75 5.91848 13.6183 5.60054 13.3839 5.36612C13.1495 5.13169 12.8315 5 12.5 5ZM12.5 0C10.0277 0 7.61099 0.733112 5.55538 2.10663C3.49976 3.48015 1.89761 5.43238 0.951511 7.71645C0.00541605 10.0005 -0.242126 12.5139 0.24019 14.9386C0.722505 17.3634 1.91301 19.5907 3.66117 21.3388C5.40933 23.087 7.63661 24.2775 10.0614 24.7598C12.4861 25.2421 14.9995 24.9946 17.2835 24.0485C19.5676 23.1024 21.5199 21.5002 22.8934 19.4446C24.2669 17.389 25 14.9723 25 12.5C24.9964 9.18591 23.6782 6.0086 21.3348 3.66518C18.9914 1.32177 15.8141 0.00363949 12.5 0V0ZM12.5 22.5C10.5222 22.5 8.58879 21.9135 6.9443 20.8147C5.29981 19.7159 4.01809 18.1541 3.26121 16.3268C2.50433 14.4996 2.3063 12.4889 2.69215 10.5491C3.078 8.60928 4.03041 6.82746 5.42894 5.42893C6.82746 4.03041 8.60929 3.078 10.5491 2.69215C12.4889 2.30629 14.4996 2.50433 16.3268 3.2612C18.1541 4.01808 19.7159 5.2998 20.8147 6.9443C21.9135 8.58879 22.5 10.5222 22.5 12.5C22.4967 15.1511 21.4421 17.6928 19.5674 19.5674C17.6928 21.4421 15.1512 22.4967 12.5 22.5Z" fill="#FDECD2"/>
</svg>
