<svg width="24" height="23" viewBox="0 0 24 23" fill="none" xmlns="http://www.w3.org/2000/svg">
<path d="M16 15.1873C16 14.0823 12.866 13.1873 9 13.1873M16 15.1873C16 16.2923 12.866 17.1873 9 17.1873C5.134 17.1873 2 16.2923 2 15.1873M16 15.1873V20.1243C16 21.2633 12.866 22.1873 9 22.1873C5.134 22.1873 2 21.2643 2 20.1243V15.1873M16 15.1873C19.824 15.1873 23 14.2003 23 13.1873V3.18726M9 13.1873C5.134 13.1873 2 14.0823 2 15.1873M9 13.1873C4.582 13.1873 1 12.2003 1 11.1873V6.18726M1 6.18726C1 5.08226 4.582 4.18726 9 4.18726V8.18726M1 6.18726C1 7.29226 4.582 8.18726 9 8.18726M9 8.18726C9 9.20025 12.253 10.1873 16.077 10.1873C19.9 10.1873 23 9.20025 23 8.18726M23 3.18726C23 2.08226 19.9 1.18726 16.077 1.18726C12.253 1.18726 9.154 2.08226 9.154 3.18726M23 3.18726C23 4.29226 19.9 5.18726 16.077 5.18726C12.254 5.18726 9.154 4.29226 9.154 3.18726M9.154 3.18726V13.3533" stroke="#FDECD2" stroke-width="1.5"/>
</svg>
