<svg width="22" height="25" viewBox="0 0 22 25" fill="none" xmlns="http://www.w3.org/2000/svg">
<path d="M1 6.375H21M19.75 6.375L18.6662 21.5525C18.6214 22.1832 18.3391 22.7735 17.8764 23.2045C17.4137 23.6354 16.8048 23.875 16.1725 23.875H5.8275C5.19517 23.875 4.58633 23.6354 4.12361 23.2045C3.66088 22.7735 3.37865 22.1832 3.33375 21.5525L2.25 6.375H19.75ZM8.5 11.375V18.875V11.375ZM13.5 11.375V18.875V11.375ZM14.75 6.375V2.625C14.75 2.29348 14.6183 1.97554 14.3839 1.74112C14.1495 1.5067 13.8315 1.375 13.5 1.375H8.5C8.16848 1.375 7.85054 1.5067 7.61612 1.74112C7.3817 1.97554 7.25 2.29348 7.25 2.625V6.375H14.75Z" stroke="#091422" stroke-width="1.5" stroke-linecap="round" stroke-linejoin="round"/>
</svg>
