<svg width="23" height="25" viewBox="0 0 23 25" fill="none" xmlns="http://www.w3.org/2000/svg">
<path d="M1 6.0625H22M20.6875 6.0625L19.5496 21.9989C19.5024 22.6611 19.2061 23.2809 18.7202 23.7334C18.2343 24.1859 17.5951 24.4375 16.9311 24.4375H6.06887C5.40493 24.4375 4.76565 24.1859 4.27979 23.7334C3.79392 23.2809 3.49758 22.6611 3.45044 21.9989L2.3125 6.0625H20.6875ZM8.875 11.3125V19.1875V11.3125ZM14.125 11.3125V19.1875V11.3125ZM15.4375 6.0625V2.125C15.4375 1.7769 15.2992 1.44306 15.0531 1.19692C14.8069 0.950781 14.4731 0.8125 14.125 0.8125H8.875C8.5269 0.8125 8.19306 0.950781 7.94692 1.19692C7.70078 1.44306 7.5625 1.7769 7.5625 2.125V6.0625H15.4375Z" stroke="#091422" stroke-linecap="round" stroke-linejoin="round"/>
</svg>
