<svg width="19" height="24" viewBox="0 0 19 24" fill="none" xmlns="http://www.w3.org/2000/svg">
<path d="M2.85344 9.35001H3.1332H15.8699H16.15L16.1183 9.62829L14.874 20.5599C14.874 20.5599 14.874 20.56 14.874 20.56L14.8739 20.5602L14.6255 20.532C14.5924 20.8268 14.4493 21.0991 14.224 21.2964C13.9987 21.4936 13.7071 21.6017 13.4055 21.5999L2.85344 9.35001ZM2.85344 9.35001L2.88477 9.62802L4.11696 20.5599L2.85344 9.35001ZM16.3618 7.45003H16.1383H2.8648H2.64137L2.61637 7.22799L2.22602 3.76039C2.22601 3.76038 2.22601 3.76036 2.22601 3.76034C2.20274 3.55633 2.22365 3.34982 2.28731 3.15447C2.35097 2.95911 2.45586 2.77952 2.59484 2.62742L2.5952 2.62703C2.73288 2.47698 2.90072 2.35719 3.08778 2.27514C3.27483 2.1931 3.4771 2.15053 3.68162 2.15005L3.6822 2.15005L15.3209 2.15005H15.3215C15.526 2.15053 15.7283 2.1931 15.9154 2.27514C16.1024 2.35719 16.2703 2.47698 16.4079 2.62703L16.4083 2.62741C16.5473 2.77952 16.6522 2.95911 16.7158 3.15447C16.7794 3.34972 16.8004 3.55611 16.7772 3.76001L16.3618 7.45003ZM16.3618 7.45003L16.3868 7.22799L16.7771 3.76039L16.3618 7.45003ZM17.8565 1.36826L17.8584 1.37024C18.1824 1.71897 18.4277 2.13089 18.5782 2.57888C18.7286 3.02652 18.7811 3.50025 18.7324 3.96909C18.7323 3.96944 18.7323 3.96978 18.7323 3.97013L16.8293 20.7678L16.8293 20.768C16.7368 21.59 16.338 22.3501 15.7085 22.9011C15.079 23.4522 14.2634 23.755 13.4192 23.7499H13.4177L5.58539 23.7499L5.5839 23.7499C4.73969 23.755 3.92416 23.4522 3.2946 22.9011C2.66515 22.3501 2.26631 21.59 2.17384 20.768L2.17382 20.7678L0.27065 3.96809C0.270646 3.96805 0.270642 3.96802 0.270638 3.96798C0.217849 3.49875 0.266603 3.02381 0.413768 2.5743C0.560948 2.12474 0.803289 1.71062 1.12511 1.35925C1.44695 1.00786 1.841 0.727192 2.28152 0.535923C2.72204 0.34465 3.1989 0.247185 3.6807 0.250062L3.6807 0.250066H3.6822H15.3207C15.7998 0.251055 16.2733 0.35123 16.7102 0.543951C17.1472 0.736701 17.5377 1.01764 17.8566 1.36825L17.8565 1.36826ZM5.58586 21.8499H13.4051H5.58586ZM12.6289 18.6703C12.4473 18.8489 12.2001 18.95 11.9416 18.95C11.683 18.95 11.4358 18.8489 11.2542 18.6703C11.0727 18.4918 10.9716 18.2506 10.9716 18V13.2C10.9716 12.9494 11.0727 12.7082 11.2542 12.5297C11.4358 12.3511 11.683 12.25 11.9416 12.25C12.2001 12.25 12.4473 12.3511 12.6289 12.5297C12.8104 12.7082 12.9115 12.9494 12.9115 13.2V18C12.9115 18.2506 12.8104 18.4918 12.6289 18.6703ZM7.74893 18.6703C7.56733 18.8489 7.32016 18.95 7.06158 18.95C6.803 18.95 6.55583 18.8489 6.37422 18.6703C6.19276 18.4918 6.09159 18.2506 6.09159 18V13.2C6.09159 12.9494 6.19276 12.7082 6.37422 12.5297C6.55583 12.3511 6.803 12.25 7.06158 12.25C7.32016 12.25 7.56733 12.3511 7.74893 12.5297C7.9304 12.7082 8.03157 12.9494 8.03157 13.2V18C8.03157 18.2506 7.9304 18.4918 7.74893 18.6703Z" fill="#091422" stroke="#FDECD2" stroke-width="0.5"/>
</svg>
