<svg width="18" height="24" viewBox="0 0 18 24" fill="none" xmlns="http://www.w3.org/2000/svg">
<path d="M17.472 3.23284C17.3465 2.83881 17.0954 2.44478 16.8443 2.05075C16.5304 1.72239 16.2165 1.4597 15.7771 1.26269C15.4004 1.06567 14.961 1 14.5216 1H4.10067C3.66124 1 3.2218 1.06567 2.84514 1.26269C2.46848 1.4597 2.09183 1.78806 1.77794 2.11642C1.52684 2.44478 1.27573 2.83881 1.15018 3.23284C1.02463 3.69254 0.961851 4.15224 1.02463 4.54627L2.71959 20.1761C2.78237 20.9642 3.15902 21.6866 3.72401 22.2119C4.289 22.7373 5.04232 23 5.79563 23H12.8266C13.5799 23 14.3332 22.7373 14.8982 22.2119C15.4632 21.6866 15.8399 20.9642 15.9026 20.1761L17.5976 4.54627C17.6604 4.15224 17.5976 3.69254 17.472 3.23284ZM15.1493 9.8L14.0193 19.9791C13.9566 20.3075 13.831 20.5701 13.5799 20.7672C13.3288 20.9642 13.1405 21.0955 12.7638 21.0955H5.85841C5.41898 21.0955 5.23065 20.9642 5.04232 20.7672C4.79121 20.5701 4.60288 20.3075 4.60288 19.9791L3.47291 9.8V9.60299H15.2121L15.1493 9.8ZM15.7143 4.34925L15.3376 7.56716V7.69851H3.2218V7.56716L2.90792 4.34925C2.90792 4.28358 2.90792 4.28358 2.90792 4.21791C2.90792 4.08657 2.90792 3.95522 2.9707 3.82388C2.9707 3.62687 3.09625 3.49552 3.2218 3.36418C3.34735 3.23284 3.47291 3.10149 3.66124 3.03582C3.84957 2.97015 3.97512 2.97015 4.10067 2.97015H14.4588C14.6471 2.97015 14.8354 3.03582 14.961 3.10149C15.0865 3.16716 15.2749 3.29851 15.4004 3.42985C15.526 3.56119 15.5888 3.75821 15.6515 3.88955C15.7143 4.0209 15.7771 4.15224 15.7143 4.34925ZM11.5083 18.2716C11.7594 18.2716 12.0105 18.1403 12.136 18.009C12.3244 17.8119 12.3872 17.6149 12.3872 17.3522V12.8866C12.3872 12.6239 12.2616 12.3612 12.136 12.2298C11.9477 12.0328 11.7594 11.9672 11.5083 11.9672C11.2572 11.9672 11.0061 12.0328 10.8805 12.2298C10.6922 12.4269 10.6294 12.6239 10.6294 12.8866V17.2866C10.6294 17.5493 10.755 17.8119 10.8805 17.9433C11.0061 18.1403 11.2572 18.2716 11.5083 18.2716ZM7.11394 18.2716C7.36504 18.2716 7.61615 18.1403 7.80448 18.009C7.99281 17.8119 8.05558 17.6149 8.05558 17.3522V12.8866C8.05558 12.6239 7.99281 12.3612 7.80448 12.2298C7.61615 12.0328 7.36504 11.9672 7.11394 11.9672C6.86283 11.9672 6.61173 12.0328 6.48617 12.2298C6.29784 12.4269 6.23507 12.6239 6.23507 12.8866V17.2866C6.23507 17.5493 6.36062 17.8119 6.48617 17.9433C6.6745 18.1403 6.86283 18.2716 7.11394 18.2716Z" fill="#091422" stroke="#FDECD2" stroke-width="0.5"/>
</svg>
