<svg width="19" height="25" viewBox="0 0 19 25" fill="none" xmlns="http://www.w3.org/2000/svg">
<path d="M17.8464 3.33433C17.718 2.92239 17.4612 2.51045 17.2044 2.09851C16.8834 1.75522 16.5623 1.4806 16.1129 1.27463C15.7277 1.06866 15.2783 1 14.8289 1H4.17114C3.72172 1 3.2723 1.06866 2.88708 1.27463C2.50186 1.4806 2.11664 1.82388 1.79562 2.16716C1.53881 2.51045 1.282 2.92239 1.15359 3.33433C1.02519 3.81493 0.960984 4.29552 1.02519 4.70746L2.75867 21.0478C2.82287 21.8716 3.20809 22.6269 3.78592 23.1761C4.36375 23.7254 5.13419 24 5.90462 24H13.0954C13.8658 24 14.6362 23.7254 15.2141 23.1761C15.7919 22.6269 16.1771 21.8716 16.2413 21.0478L17.9748 4.70746C18.039 4.29552 17.9748 3.81493 17.8464 3.33433ZM15.4709 10.2L14.3152 20.8418C14.251 21.1851 14.1226 21.4597 13.8658 21.6657C13.609 21.8716 13.4164 22.009 13.0312 22.009H5.96883C5.51941 22.009 5.3268 21.8716 5.13419 21.6657C4.87737 21.4597 4.68477 21.1851 4.68477 20.8418L3.52911 10.2V9.99403H15.5351L15.4709 10.2ZM16.0487 4.50149L15.6635 7.86567V8.00299H3.2723V7.86567L2.95128 4.50149C2.95128 4.43284 2.95128 4.43284 2.95128 4.36418C2.95128 4.22687 2.95128 4.08955 3.01548 3.95224C3.01548 3.74627 3.14389 3.60896 3.2723 3.47164C3.4007 3.33433 3.52911 3.19701 3.72172 3.12836C3.91433 3.0597 4.04273 3.0597 4.17114 3.0597H14.7647C14.9573 3.0597 15.1499 3.12836 15.2783 3.19702C15.4067 3.26567 15.5993 3.40299 15.7277 3.5403C15.8561 3.67761 15.9203 3.88358 15.9845 4.0209C16.0487 4.15821 16.1129 4.29552 16.0487 4.50149ZM11.7471 19.0567C12.0039 19.0567 12.2607 18.9194 12.3891 18.7821C12.5818 18.5761 12.646 18.3701 12.646 18.0955V13.4269C12.646 13.1522 12.5175 12.8776 12.3891 12.7403C12.1965 12.5343 12.0039 12.4657 11.7471 12.4657C11.4903 12.4657 11.2335 12.5343 11.1051 12.7403C10.9125 12.9463 10.8483 13.1522 10.8483 13.4269V18.0269C10.8483 18.3015 10.9767 18.5761 11.1051 18.7134C11.2335 18.9194 11.4903 19.0567 11.7471 19.0567ZM7.25289 19.0567C7.5097 19.0567 7.76652 18.9194 7.95912 18.7821C8.15173 18.5761 8.21594 18.3701 8.21594 18.0955V13.4269C8.21594 13.1522 8.15173 12.8776 7.95912 12.7403C7.76652 12.5343 7.5097 12.4657 7.25289 12.4657C6.99608 12.4657 6.73927 12.5343 6.61086 12.7403C6.41825 12.9463 6.35405 13.1522 6.35405 13.4269V18.0269C6.35405 18.3015 6.48245 18.5761 6.61086 18.7134C6.80347 18.9194 6.99608 19.0567 7.25289 19.0567Z" fill="#091422" stroke="#FDECD2" stroke-width="0.5"/>
</svg>
