<svg width="38" height="47" viewBox="0 0 38 47" fill="none" xmlns="http://www.w3.org/2000/svg">
<path d="M5.98597 18.55H6.2664H31.7399H32.0206L31.9882 18.8289L29.4994 40.2369L5.98597 18.55ZM5.98597 18.55L6.01804 18.8286M5.98597 18.55L6.01804 18.8286M6.01804 18.8286L8.48242 40.2369C8.55613 40.8785 8.87375 41.4689 9.3711 41.8952C9.86804 42.3212 10.5095 42.5536 11.1716 42.5499C11.1718 42.5499 11.172 42.5499 11.1722 42.5499H26.8096C26.8098 42.5499 26.8101 42.5499 26.8103 42.5499C27.4724 42.5536 28.1138 42.3212 28.6108 41.8952C29.108 41.469 29.4256 40.8787 29.4994 40.2373L6.01804 18.8286ZM32.4996 14.3501H32.2767H5.7296H5.5067L5.48124 14.1286L4.70049 7.33753C4.70049 7.3375 4.70048 7.33747 4.70048 7.33744L4.70044 7.33714L4.94881 7.30859L32.4996 14.3501ZM32.4996 14.3501L32.525 14.1286M32.4996 14.3501L32.525 14.1286M32.525 14.1286L33.3058 7.33753M32.525 14.1286L33.3058 7.33753M33.3058 7.33753L33.3058 7.33714L33.3058 7.33753ZM35.8998 2.52025L35.9017 2.52221C36.5736 3.23014 37.0819 4.06627 37.3938 4.97551C37.7057 5.88437 37.8145 6.84615 37.7134 7.79799C37.7133 7.79836 37.7133 7.79874 37.7132 7.79912L33.9071 40.6967L33.9071 40.6969C33.7154 42.3651 32.8887 43.9079 31.5837 45.0265C30.2784 46.1454 28.5875 46.7601 26.8369 46.7499H26.8355L11.1708 46.7499L11.1693 46.7499C9.41881 46.7601 7.72784 46.1454 6.42256 45.0265C5.11752 43.9079 4.29084 42.3651 4.09918 40.6969L4.09916 40.6967L0.292801 7.79704C0.292798 7.79701 0.292794 7.79698 0.292791 7.79695C0.183352 6.84461 0.284396 5.88065 0.589452 4.96828C0.894527 4.05585 1.39688 3.21524 2.06409 2.50196C2.73132 1.78865 3.54832 1.21883 4.46171 0.830507C5.37512 0.442172 6.36389 0.244285 7.36293 0.250126V0.25013H7.3644H30.6416C31.6352 0.2521 32.617 0.455491 33.5231 0.846802C34.4292 1.23814 35.2389 1.80849 35.8998 2.52025ZM25.435 36.7316C25.025 37.1265 24.4669 37.3499 23.8831 37.3499C23.2993 37.3499 22.7412 37.1265 22.3312 36.7316C21.9215 36.337 21.6931 35.8038 21.6931 35.2499V25.85C21.6931 25.2961 21.9215 24.763 22.3312 24.3684C22.7412 23.9734 23.2993 23.75 23.8831 23.75C24.4669 23.75 25.025 23.9734 25.435 24.3684C25.8447 24.763 26.0731 25.2961 26.0731 25.85V35.2499C26.0731 35.8038 25.8447 36.337 25.435 36.7316ZM15.6751 36.7316C15.265 37.1265 14.7069 37.3499 14.1232 37.3499C13.5394 37.3499 12.9813 37.1265 12.5713 36.7316C12.1615 36.337 11.9332 35.8038 11.9332 35.2499V25.85C11.9332 25.2961 12.1615 24.763 12.5713 24.3684C12.9813 23.9734 13.5394 23.75 14.1232 23.75C14.7069 23.75 15.265 23.9734 15.6751 24.3684C16.0848 24.763 16.3131 25.2961 16.3131 25.85V35.2499C16.3131 35.8038 16.0848 36.337 15.6751 36.7316Z" fill="#091422" stroke="#FDECD2" stroke-width="0.5"/>
</svg>
