<svg width="24" height="24" viewBox="0 0 24 24" fill="none" xmlns="http://www.w3.org/2000/svg">
<path d="M22.1573 8.1372L22.0994 8.10396C21.7138 7.88234 21.2878 7.73956 20.8463 7.68397C20.4048 7.62837 19.9567 7.66107 19.528 7.78015L19.5257 7.78079C19.0806 7.89983 18.6662 8.11247 18.3102 8.40445L18.1764 8.51416L18.0266 8.42761L4.092 0.377312L22.1573 8.1372ZM22.1573 8.1372H22.1661M22.1573 8.1372H22.1661M22.1661 8.1372C22.8839 8.58256 23.4077 9.28271 23.6311 10.0982C23.8603 10.9347 23.7556 11.8274 23.3391 12.5884C21.4193 15.9691 18.6381 18.7824 15.2778 20.7427C11.917 22.7033 8.09649 23.7409 4.20428 23.75H3.51155C2.63874 23.7259 1.80975 23.3628 1.20077 22.738C0.59106 22.1123 0.250089 21.2737 0.250429 20.4008L0.250371 20.3969C0.239919 19.7028 0.450442 19.0233 0.851631 18.4563C1.25282 17.8894 1.82397 17.4642 2.48276 17.2423L2.65295 17.185V17.0054V1.20471C2.65329 1.03656 2.69833 0.871502 2.78349 0.726403C2.8687 0.581229 2.99103 0.461234 3.13798 0.378734L3.13799 0.378749L3.14048 0.377312C3.28511 0.293917 3.4492 0.25 3.61624 0.25C3.78322 0.25 3.94723 0.29388 4.09182 0.377209L22.1661 8.1372ZM2.58845 19.3582L2.58994 19.3568C2.86237 19.0945 3.2265 18.9489 3.60471 18.951M2.58845 19.3582L3.60423 19.201M2.58845 19.3582C2.44956 19.4942 2.33943 19.6567 2.26461 19.836C2.18989 20.0151 2.15191 20.2074 2.15295 20.4014C2.15315 20.7858 2.3061 21.1543 2.57813 21.426C2.84948 21.697 3.21715 21.8495 3.60066 21.8505M2.58845 19.3582L4.21688 18.951C7.25717 18.9497 10.2426 18.1422 12.8679 16.6109C15.493 15.0798 17.6639 12.8801 19.1588 10.2366C19.2486 10.0749 19.3711 9.9337 19.5185 9.822C19.6651 9.71096 19.8331 9.63148 20.0119 9.58855C20.376 9.48993 20.7642 9.5368 21.0944 9.71932C21.4266 9.89815 21.6761 10.1993 21.7898 10.5589C21.9037 10.9191 21.8724 11.3094 21.7025 11.6469L21.6333 11.7845H21.6121C19.8085 14.9054 17.1992 17.4867 14.0555 19.2582C10.8703 21.0531 7.25644 21.9491 3.60066 21.8505M3.60471 18.951C3.60505 18.951 3.60539 18.951 3.60573 18.951L3.60423 19.201M3.60471 18.951H3.60423V19.201M3.60471 18.951H4.21678L4.21688 19.201H3.60423M3.60066 21.8505C3.59959 21.8504 3.59852 21.8504 3.59744 21.8504L3.60423 21.6005V21.8505C3.60304 21.8505 3.60185 21.8505 3.60066 21.8505ZM4.93039 3.06354L4.5555 2.84738V3.28012V16.8014V17.0626L4.81647 17.0512C7.22085 16.9456 9.5667 16.2769 11.6646 15.099C13.7626 13.921 15.5538 12.2669 16.8937 10.2701L17.0428 10.0479L16.811 9.91418L4.93039 3.06354ZM7.29208 12.9884C7.44853 12.884 7.63249 12.8283 7.82071 12.8283C8.0731 12.8283 8.3151 12.9284 8.49347 13.1066C8.67183 13.2847 8.77198 13.5262 8.77198 13.778C8.77198 13.9658 8.71623 14.1494 8.61174 14.3056C8.50725 14.4618 8.3587 14.5835 8.18484 14.6555C8.01098 14.7274 7.81965 14.7462 7.63506 14.7095C7.45047 14.6729 7.28096 14.5824 7.14794 14.4495C7.01493 14.3167 6.92438 14.1474 6.8877 13.9633C6.85102 13.7791 6.86984 13.5882 6.9418 13.4147C7.01376 13.2412 7.13564 13.0928 7.29208 12.9884ZM7.29208 7.61348C7.44853 7.50908 7.63249 7.45334 7.82071 7.45334C8.0731 7.45334 8.3151 7.55348 8.49347 7.73163C8.67183 7.90977 8.77198 8.15131 8.77198 8.4031C8.77198 8.59087 8.71623 8.77446 8.61174 8.93064C8.50725 9.08682 8.3587 9.2086 8.18484 9.28052C8.01098 9.35245 7.81965 9.37127 7.63506 9.3346C7.45047 9.29793 7.28096 9.20742 7.14794 9.07457C7.01493 8.94172 6.92438 8.7725 6.8877 8.58833C6.85102 8.40416 6.86984 8.21325 6.9418 8.03974C7.01376 7.86623 7.13564 7.71788 7.29208 7.61348ZM11.3404 10.1312C11.5188 9.953 11.7608 9.85286 12.0132 9.85286C12.2656 9.85286 12.5075 9.953 12.6859 10.1312C12.8643 10.3093 12.9644 10.5508 12.9644 10.8026V12.0024C12.9644 12.2542 12.8643 12.4957 12.6859 12.6739C12.5075 12.852 12.2656 12.9521 12.0132 12.9521C11.7608 12.9521 11.5188 12.852 11.3404 12.6739C11.162 12.4957 11.0619 12.2542 11.0619 12.0024V10.8026C11.0619 10.5508 11.162 10.3093 11.3404 10.1312Z" fill="#091422" stroke="#FDECD2" stroke-width="0.5"/>
</svg>
