<svg width="24" height="24" viewBox="0 0 24 24" fill="none" xmlns="http://www.w3.org/2000/svg">
<path d="M21.35 21.6V21.85H21.6H22.8C23.052 21.85 23.2936 21.9501 23.4718 22.1282C23.6499 22.3064 23.75 22.548 23.75 22.8C23.75 23.052 23.6499 23.2936 23.4718 23.4718C23.2936 23.6499 23.052 23.75 22.8 23.75H1.2C0.948044 23.75 0.706408 23.6499 0.528248 23.4718C0.350089 23.2936 0.25 23.052 0.25 22.8C0.25 22.548 0.350089 22.3064 0.528248 22.1282C0.706408 21.9501 0.948044 21.85 1.2 21.85H2.4H2.65V21.6V1.2C2.65 0.948044 2.75009 0.706408 2.92825 0.528248C3.10641 0.350089 3.34804 0.25 3.6 0.25H20.4C20.652 0.25 20.8936 0.350089 21.0718 0.528248C21.2499 0.706408 21.35 0.948044 21.35 1.2V21.6ZM13.2 21.85H13.45V21.6V16.8V16.55H13.2H10.8H10.55V16.8V21.6V21.85H10.8H13.2ZM19.2 21.85H19.45V21.6V2.4V2.15H19.2H4.8H4.55V2.4V21.6V21.85H4.8H8.4H8.65V21.6V15.6C8.65 15.348 8.75009 15.1064 8.92825 14.9282C9.10641 14.7501 9.34804 14.65 9.6 14.65H14.4C14.652 14.65 14.8936 14.7501 15.0718 14.9282C15.2499 15.1064 15.35 15.348 15.35 15.6V21.6V21.85H15.6H19.2ZM15.6 6.95H14.4C14.148 6.95 13.9064 6.84991 13.7282 6.67175C13.5501 6.49359 13.45 6.25196 13.45 6C13.45 5.74804 13.5501 5.50641 13.7282 5.32825C13.9064 5.15009 14.148 5.05 14.4 5.05H15.6C15.852 5.05 16.0936 5.15009 16.2718 5.32825C16.4499 5.50641 16.55 5.74804 16.55 6C16.55 6.25196 16.4499 6.49359 16.2718 6.67175C16.0936 6.84991 15.852 6.95 15.6 6.95ZM15.6 11.75H14.4C14.148 11.75 13.9064 11.6499 13.7282 11.4718C13.5501 11.2936 13.45 11.052 13.45 10.8C13.45 10.548 13.5501 10.3064 13.7282 10.1282C13.9064 9.95009 14.148 9.85 14.4 9.85H15.6C15.852 9.85 16.0936 9.95009 16.2718 10.1282C16.4499 10.3064 16.55 10.548 16.55 10.8C16.55 11.052 16.4499 11.2936 16.2718 11.4718C16.0936 11.6499 15.852 11.75 15.6 11.75ZM9.6 6.95H8.4C8.14804 6.95 7.90641 6.84991 7.72825 6.67175C7.55009 6.49359 7.45 6.25196 7.45 6C7.45 5.74804 7.55009 5.50641 7.72825 5.32825C7.90641 5.15009 8.14804 5.05 8.4 5.05H9.6C9.85196 5.05 10.0936 5.15009 10.2718 5.32825C10.4499 5.50641 10.55 5.74804 10.55 6C10.55 6.25196 10.4499 6.49359 10.2718 6.67175C10.0936 6.84991 9.85196 6.95 9.6 6.95ZM9.6 11.75H8.4C8.14804 11.75 7.90641 11.6499 7.72825 11.4718C7.55009 11.2936 7.45 11.052 7.45 10.8C7.45 10.548 7.55009 10.3064 7.72825 10.1282C7.90641 9.95009 8.14804 9.85 8.4 9.85H9.6C9.85196 9.85 10.0936 9.95009 10.2718 10.1282C10.4499 10.3064 10.55 10.548 10.55 10.8C10.55 11.052 10.4499 11.2936 10.2718 11.4718C10.0936 11.6499 9.85196 11.75 9.6 11.75Z" fill="#091422" stroke="#FDECD2" stroke-width="0.5"/>
</svg>
