<svg width="40" height="47" viewBox="0 0 40 47" fill="none" xmlns="http://www.w3.org/2000/svg">
<path d="M39.1798 11.9103L39.2409 11.9488H39.3131H39.3367L39.477 12.0732C39.4773 12.0735 39.4775 12.0737 39.4778 12.074C39.5381 12.1286 39.5905 12.1913 39.6336 12.2601L39.75 12.5504V12.6919C39.7398 12.7538 39.7386 12.8169 39.7465 12.879C39.737 12.9478 39.7378 13.0177 39.7489 13.0863C39.7467 13.1077 39.7411 13.1409 39.7323 13.1803C39.7272 13.2032 39.722 13.2238 39.7182 13.2386L39.7136 13.2555L39.7125 13.2596L39.7123 13.2603L39.7123 13.2603L39.7123 13.2604L39.7123 13.2604L39.7122 13.2605L39.7026 13.2941V13.3291V33.9566V33.9571C39.7033 34.3161 39.6124 34.6693 39.4382 34.9835C39.2642 35.2974 39.0129 35.562 38.708 35.7523C38.7077 35.7525 38.7074 35.7527 38.7071 35.7529L21.1042 46.5388L20.8133 46.6549H20.6718H20.6332L20.5964 46.6666C20.2448 46.7778 19.8672 46.7778 19.5156 46.6666L19.4788 46.6549H19.4402H19.2987L19.0082 46.539L1.26278 35.5875C1.26255 35.5873 1.26231 35.5872 1.26207 35.587C0.957054 35.3967 0.705712 35.1321 0.531686 34.8181C0.357528 34.5039 0.266535 34.1507 0.267255 33.7917V33.7912V13.1638V13.1455L0.264603 13.1274C0.245132 12.9948 0.245132 12.8601 0.264603 12.7275L0.267255 12.7094V12.6912V12.385L0.376657 12.1122L0.448283 12.0264L0.6578 11.8801L0.669686 11.8718L0.680533 11.8622L0.887579 11.6786L1.08398 11.5263L18.7641 0.547608C18.9758 0.423385 19.2052 0.331962 19.4444 0.276438H19.6533H19.674L19.6944 0.273043C19.8789 0.242319 20.0673 0.242319 20.2518 0.273043L20.2722 0.276438H20.2929H20.4455C20.6518 0.34094 20.8446 0.44277 21.0141 0.57691L21.0256 0.585976L21.038 0.593646L29.8473 6.02684L29.8494 6.02815L39.1798 11.9103ZM20.0214 4.94096L19.8902 4.86009L19.759 4.94095L6.49461 13.1163L6.14837 13.3297L6.49512 13.5423L10.735 16.1414L10.8661 16.2218L10.997 16.141L24.2377 7.9656L24.5825 7.75271L24.2376 7.54007L20.0214 4.94096ZM17.3915 40.8096L17.7715 41.0413V40.5962V25.5922V25.4527L17.6528 25.3794L4.62522 17.3458L4.244 17.1107V17.5586V32.6571V32.7975L4.3639 32.8706L17.3915 40.8096ZM19.7615 21.648L19.8913 21.7259L20.0205 21.647L33.285 13.5425L33.632 13.3304L33.2861 13.1165L28.7383 10.3047L28.6067 10.2234L28.4752 10.3048L15.2345 18.5038L14.886 18.7196L15.2374 18.9307L19.7615 21.648ZM35.4182 32.7986L35.5364 32.7253V32.5862V17.5586V17.1107L35.1552 17.3458L22.1276 25.3794L22.0088 25.4527V25.5922V40.667V41.1163L22.3906 40.8795L35.4182 32.7986Z" fill="#091422" stroke="#FDECD2" stroke-width="0.5"/>
</svg>
