<svg width="20" height="24" viewBox="0 0 20 24" fill="none" xmlns="http://www.w3.org/2000/svg">
<path d="M19.5212 6.18406L19.583 6.22386H19.6194L19.6527 6.25403C19.653 6.25426 19.6532 6.25449 19.6535 6.25472C19.6727 6.27258 19.6898 6.29283 19.7043 6.31507L19.75 6.4314V6.47212C19.7453 6.50649 19.7444 6.54126 19.7475 6.57577C19.7439 6.61118 19.7441 6.64689 19.7483 6.68226C19.7474 6.68759 19.746 6.6951 19.7439 6.70483C19.7417 6.71479 19.7395 6.72386 19.7378 6.73041L19.7359 6.73761L19.7356 6.73886L19.7356 6.7389L19.7356 6.73893L19.7356 6.73899L19.7355 6.73909L19.7355 6.73919L19.7263 6.77198V6.80637V17.3396V17.34C19.7266 17.5035 19.6861 17.664 19.6087 17.8066C19.5315 17.9488 19.4204 18.0681 19.2862 18.1537C19.2859 18.1539 19.2857 18.1541 19.2854 18.1542L10.494 23.6557L10.3817 23.7014H10.3359H10.2965L10.2591 23.7136C10.1087 23.7621 9.94733 23.7621 9.79694 23.7136L9.75946 23.7014H9.72008H9.67431L9.56239 23.6558L0.699533 18.0698C0.699371 18.0697 0.699209 18.0696 0.699046 18.0695C0.564724 17.9838 0.453485 17.8644 0.376238 17.7221C0.298884 17.5796 0.258306 17.419 0.258628 17.2556V17.2551V6.72192V6.70404L0.256083 6.68634C0.247972 6.62992 0.247972 6.5726 0.256083 6.51618L0.258628 6.49849V6.48061V6.34694L0.298047 6.24655L0.311259 6.23039L0.40249 6.16533L0.414349 6.15688L0.425146 6.1471L0.525637 6.0561L0.615486 5.9849L9.44861 0.383178C9.53892 0.32924 9.63624 0.28897 9.73753 0.2635H9.82666H9.84777L9.86857 0.259962C9.94669 0.246679 10.0264 0.246679 10.1045 0.259962L10.1253 0.2635H10.1464H10.2021C10.2834 0.29178 10.3597 0.334127 10.4275 0.388927L10.4389 0.398175L10.4514 0.406017L14.855 3.17975L14.8571 3.18108L19.5212 6.18406ZM10.0783 2.42015L9.94511 2.3363L9.81192 2.42014L3.17971 6.5948L2.84268 6.80695L3.18023 7.01827L5.30017 8.34548L5.4333 8.42883L5.56617 8.34505L12.1865 4.17038L12.5222 3.95875L12.1864 3.74735L10.0783 2.42015ZM8.62868 20.9422L9.01077 21.18V20.73V13.0684V12.9304L8.894 12.8568L2.38022 8.75455L1.997 8.5132V8.9661V16.676V16.8148L2.1149 16.8882L8.62868 20.9422ZM9.81438 11.1579L9.94622 11.2388L10.0774 11.1569L16.7097 7.01847L17.0475 6.80763L16.7108 6.59499L14.4369 5.15919L14.3033 5.07485L14.1698 5.15929L7.54942 9.34601L7.21019 9.56054L7.55232 9.77041L9.81438 11.1579ZM17.777 16.8509L17.8932 16.7773V16.6398V8.9661V8.5132L17.51 8.75455L10.9962 12.8568L10.8794 12.9304V13.0684V20.7662V21.2205L11.2632 20.9773L17.777 16.8509Z" fill="#091422" stroke="#FDECD2" stroke-width="0.5"/>
</svg>
