<svg width="40" height="59" viewBox="0 0 40 59" fill="none" xmlns="http://www.w3.org/2000/svg">
<path d="M10.5488 45.5062L7.82529 23.7285C7.61431 22.1153 6.15666 20.9822 4.54557 21.1743L0 21.7504L3.49069 49.5775L7.82529 49.0398C9.55145 48.8286 10.7789 47.2346 10.5488 45.5062ZM6.73205 46.6009L6.15666 46.6777L3.2989 23.9013L3.97018 23.8245C4.46885 23.7669 4.90998 24.1125 4.96752 24.6119L7.57595 45.5062C7.65267 46.0439 7.26908 46.5432 6.73205 46.6009Z" fill="#FF383A"/>
<path d="M16.299 16.1679V53.1828V54.7805V55.6935C16.2424 56.093 15.8835 56.3973 15.5058 56.3783C15.1281 56.3593 14.807 56.074 14.7503 55.6935C14.7503 55.3892 14.7503 55.0849 14.7503 54.7805V53.1828V0H11.8984V54.7805V55.0088V55.5984C11.8984 57.3864 13.3338 58.832 15.1092 58.832H15.9591C17.7344 58.832 19.1698 57.3864 19.1698 55.5984V55.0088V54.7805V16.1679H16.299Z" fill="#FF383A"/>
<path d="M7.79524 7.93237H3.30469V20.492H7.79524C8.96278 20.492 9.91477 19.4679 9.91477 18.212V10.2124C9.93274 8.95647 8.98074 7.93237 7.79524 7.93237ZM8.13652 17.5936C8.13652 18.4632 7.48988 19.1588 6.68158 19.1588H5.15479V9.26563H6.69954C7.50784 9.26563 8.15448 9.96124 8.15448 10.8308V17.5936H8.13652Z" fill="#4FC8B1"/>
<path d="M36.3556 10.5925V7.93237H33.0861H30.4062V10.5925V13.0406V15.7007V35.0348H33.0861V15.7007H35.7303V13.0406H33.0861V10.5925H36.3556Z" fill="#FF383A"/>
<path d="M37.5235 38.4503L37.6794 37.0675L33.0027 36.549L31.4048 36.3569L31.2294 37.7589L30.8592 41.0046L30.7033 42.4066L29.0859 56.6569L30.6838 56.849L32.3207 42.5795L35.6333 42.9636L35.7892 41.5616L32.4765 41.1967L32.8468 37.951L37.5235 38.4503Z" fill="#4FC8B1"/>
<path d="M27.1923 27.3809C28.481 27.0541 28.4233 25.6701 28.4233 25.6701V24.4207C28.4233 22.6139 27.4038 21.1531 25.5957 21.1531H21.1523V27.4577V48.2362H24.0377V28.8609H24.884C25.2302 28.8609 25.5188 29.1492 25.5188 29.5145V28.8609V29.7451V48.2555H28.4041V29.7451V29.3415C28.4233 28.4765 27.9232 27.7461 27.1923 27.3809ZM25.7304 25.747C25.7304 26.2083 25.3649 26.5736 24.9032 26.5736H23.9607V23.4597H24.9032C25.3649 23.4597 25.7304 23.8249 25.7304 24.2862V25.747Z" fill="#FF383A"/>
<path d="M27.7627 11.4266V9.91241C27.7627 8.82533 26.8889 7.93237 25.8252 7.93237H23.0139H21.1523V20.492H23.0139V14.5325H24.7994C25.3123 14.5325 25.7302 14.9596 25.7302 15.4837V15.4255V18.7061V20.4726H27.7627V18.7061V15.736V15.4449H27.7437C27.6107 14.4743 26.8129 13.7172 25.8252 13.6784H25.5782C26.7749 13.6784 27.7627 12.6689 27.7627 11.4266ZM25.9581 11.6595C25.9581 12.6883 25.1413 13.5037 24.1536 13.5037H22.9949V9.07769H24.4765C25.2933 9.07769 25.9391 9.75711 25.9391 10.5724V11.6595H25.9581Z" fill="#4FC8B1"/>
<path d="M36.6131 30.0711C36.5176 30.0138 36.4411 29.9756 36.3838 29.9374C36.3265 29.8991 36.25 29.88 36.1927 29.8609C36.1353 29.8418 36.0589 29.8418 35.9824 29.8418C35.906 29.8418 35.8295 29.8418 35.7148 29.8418C35.5619 29.8418 35.4282 29.8609 35.3135 29.8991C35.1797 29.9374 35.065 29.9947 34.9694 30.0903C34.8739 30.1858 34.7974 30.2814 34.7401 30.4152C34.6828 30.549 34.6445 30.7019 34.6445 30.893C34.6445 31.0459 34.6636 31.1797 34.721 31.3135C34.7783 31.4473 34.8357 31.5428 34.9312 31.6384C35.0077 31.734 35.1223 31.8104 35.2179 31.8677C35.3326 31.9251 35.4473 31.9442 35.5811 31.9442H35.9251V31.237H35.5811C35.4855 31.237 35.409 31.1988 35.3517 31.1415C35.2944 31.0841 35.2753 30.9886 35.2753 30.893C35.2753 30.7974 35.2944 30.7401 35.3135 30.7019C35.3517 30.6636 35.3899 30.6254 35.4282 30.6063C35.4664 30.5872 35.5237 30.5681 35.5811 30.5681C35.6384 30.5681 35.6957 30.5681 35.7531 30.5681C35.8677 30.5681 35.9633 30.5681 36.0398 30.5872C36.1162 30.5872 36.2118 30.6254 36.3073 30.7019L38.4097 31.9633H38.9831V29.88H38.3715H37.7408V30.4725H38.3715V31.1415L36.6131 30.0711Z" fill="#FFEB3D"/>
<path d="M34.893 27.5866C34.8165 27.6822 34.7592 27.7969 34.7019 27.9116C34.6636 28.0453 34.6445 28.16 34.6445 28.3129C34.6445 28.4467 34.6636 28.5805 34.7019 28.7143C34.7401 28.8481 34.7974 28.9436 34.893 29.0392C34.9694 29.1348 35.065 29.2112 35.1797 29.2686C35.2944 29.3259 35.4282 29.3641 35.5619 29.3641H38.0848C38.2377 29.3641 38.3524 29.3259 38.4671 29.2686C38.5818 29.2112 38.6773 29.1348 38.7538 29.0392C38.8302 28.9436 38.8876 28.829 38.9449 28.7143C38.9831 28.5805 39.0022 28.4658 39.0022 28.3129C39.0022 28.1791 38.9831 28.0453 38.9449 27.9116C38.9067 27.7778 38.8493 27.6822 38.7538 27.5866C38.6582 27.4911 38.5818 27.4146 38.4671 27.3573C38.3524 27.2999 38.2186 27.2617 38.0848 27.2617H35.5619C35.409 27.2617 35.2944 27.2999 35.1797 27.3573C35.065 27.4146 34.9694 27.4911 34.893 27.5866ZM38.0848 27.9689C38.1804 27.9689 38.2377 28.0071 38.3142 28.0645C38.3715 28.1218 38.4097 28.2174 38.4097 28.3129C38.4097 28.4085 38.3715 28.504 38.3142 28.5614C38.2568 28.6187 38.1804 28.6569 38.0848 28.6569H35.5619C35.4664 28.6569 35.409 28.6187 35.3326 28.5614C35.2753 28.504 35.237 28.4085 35.237 28.3129C35.237 28.2174 35.2753 28.1218 35.3326 28.0645C35.3899 28.0071 35.4664 27.9689 35.5619 27.9689H38.0848Z" fill="#FFEB3D"/>
<path d="M36.4407 24.777C36.3834 24.7578 36.3069 24.7387 36.2114 24.7196C36.1158 24.7196 36.0011 24.7005 35.8482 24.7005C35.5806 24.7005 35.3895 24.7196 35.2557 24.7578C35.1793 24.777 35.1219 24.8152 35.0837 24.8534C35.0264 24.8916 34.9881 24.9299 34.9308 24.9681C34.8544 25.0254 34.797 25.121 34.7206 25.2548C34.6632 25.3886 34.625 25.5415 34.625 25.7326C34.625 25.8855 34.6441 26.0193 34.7015 26.1531C34.7588 26.2869 34.8161 26.4015 34.8926 26.4971C34.969 26.5927 35.0646 26.6691 35.1793 26.7265C35.2939 26.7838 35.4086 26.8029 35.5424 26.8029H35.9056V26.0957H35.5615C35.5042 26.0957 35.4277 26.0766 35.3704 26.0193C35.2939 25.9619 35.2748 25.8855 35.2748 25.7517C35.2748 25.637 35.2939 25.5606 35.3513 25.5032C35.4086 25.4459 35.4851 25.4077 35.5615 25.4077H36.1158C36.2687 25.4077 36.3834 25.4459 36.4216 25.5224C36.4598 25.5988 36.4789 25.7517 36.4789 25.9619H37.0141C37.0141 25.8473 37.0141 25.7517 37.0332 25.6753C37.0332 25.5988 37.0523 25.5415 37.0905 25.5032C37.1479 25.4268 37.2626 25.3886 37.4155 25.3886H38.0271C38.1226 25.3886 38.2182 25.4268 38.2755 25.4841C38.3329 25.5415 38.3711 25.637 38.3711 25.7326C38.3711 25.8473 38.3329 25.9237 38.2755 25.9811C38.2182 26.0384 38.1417 26.0766 38.0462 26.0766H37.7213V26.7838H38.0653C38.2373 26.7838 38.3711 26.7456 38.4858 26.6882C38.6004 26.6309 38.696 26.5353 38.7725 26.4398C38.8489 26.3442 38.9062 26.2295 38.9254 26.0957C38.9636 25.9811 38.9827 25.8473 38.9827 25.7517C38.9827 25.5224 38.9445 25.3503 38.868 25.2166C38.7916 25.0828 38.696 24.9681 38.5813 24.8916C38.524 24.8534 38.4858 24.8343 38.4475 24.7961C38.4093 24.777 38.352 24.7578 38.2755 24.7387C38.2182 24.7196 38.1417 24.7196 38.0462 24.7005C37.9506 24.7005 37.8359 24.6814 37.7021 24.6814C37.5492 24.6814 37.4155 24.6814 37.3199 24.6814C37.2243 24.6814 37.1288 24.7005 37.0714 24.7387C36.995 24.7578 36.9376 24.8152 36.8994 24.8725C36.8421 24.9299 36.7847 25.0063 36.7274 25.121C36.6701 25.0254 36.6318 24.949 36.5745 24.8916C36.5554 24.8534 36.5172 24.7961 36.4407 24.777Z" fill="#FFEB3D"/>
<path d="M35.1797 22.235C35.065 22.2923 34.9694 22.3688 34.893 22.4643C34.8165 22.5599 34.7592 22.6746 34.7019 22.7892C34.6636 22.923 34.6445 23.0377 34.6445 23.1906C34.6445 23.3244 34.6636 23.4582 34.7019 23.592C34.7401 23.7258 34.7974 23.8213 34.893 23.9169C34.9694 24.0125 35.065 24.0889 35.1797 24.1462C35.2944 24.2036 35.4282 24.2418 35.5619 24.2418H38.0848C38.2377 24.2418 38.3524 24.2036 38.4671 24.1462C38.5818 24.0889 38.6773 24.0125 38.7538 23.9169C38.8302 23.8213 38.8876 23.7066 38.9449 23.592C38.9831 23.4582 39.0022 23.3435 39.0022 23.1906C39.0022 23.0568 38.9831 22.923 38.9449 22.7892C38.9067 22.6554 38.8493 22.5599 38.7538 22.4643C38.6582 22.3688 38.5818 22.2923 38.4671 22.235C38.3524 22.1776 38.2186 22.1394 38.0848 22.1394H35.5619C35.4282 22.1585 35.2944 22.1776 35.1797 22.235ZM38.0848 22.8466C38.1804 22.8466 38.2377 22.8848 38.3142 22.9421C38.3715 22.9995 38.4097 23.095 38.4097 23.1906C38.4097 23.2862 38.3715 23.3817 38.3142 23.4391C38.2568 23.4964 38.1804 23.5346 38.0848 23.5346H35.5619C35.4664 23.5346 35.409 23.4964 35.3326 23.4391C35.2753 23.3817 35.237 23.2862 35.237 23.1906C35.237 23.095 35.2753 22.9995 35.3326 22.9421C35.3899 22.8848 35.4664 22.8466 35.5619 22.8466H38.0848Z" fill="#FFEB3D"/>
</svg>
