<svg width="16" height="15" viewBox="0 0 16 15" fill="none" xmlns="http://www.w3.org/2000/svg">
<path d="M0 7.19938L3.99923 10.3988V7.99923H11.1978V6.39954H3.99923V4L0 7.19938Z" fill="#FDECD2"/>
<path d="M8.79725 2.74836e-05C7.85145 -0.00259497 6.91454 0.182481 6.04078 0.544533C5.16702 0.906585 4.37379 1.43842 3.70703 2.10922L4.83801 3.2402C5.89541 2.1828 7.30154 1.59972 8.79725 1.59972C10.293 1.59972 11.6991 2.1828 12.7565 3.2402C13.8139 4.2976 14.397 5.70372 14.397 7.19943C14.397 8.69514 13.8139 10.1013 12.7565 11.1587C11.6991 12.2161 10.293 12.7991 8.79725 12.7991C7.30154 12.7991 5.89541 12.2161 4.83801 11.1587L3.70703 12.2896C5.06597 13.6494 6.87362 14.3988 8.79725 14.3988C10.7209 14.3988 12.5285 13.6494 13.8875 12.2896C15.2472 10.9307 15.9967 9.12306 15.9967 7.19943C15.9967 5.27581 15.2472 3.46816 13.8875 2.10922C13.2207 1.43842 12.4275 0.906585 11.5537 0.544533C10.68 0.182481 9.74304 -0.00259497 8.79725 2.74836e-05V2.74836e-05Z" fill="#FDECD2"/>
</svg>
