<svg width="16" height="15" viewBox="0 0 16 15" fill="none" xmlns="http://www.w3.org/2000/svg">
<path d="M0 7.19938L3.99923 10.3988V7.99923H11.1978V6.39954H3.99923V4L0 7.19938Z" fill="#FDECD2"/>
<path d="M8.7992 2.74836e-05C7.8534 -0.00259497 6.91649 0.182481 6.04273 0.544533C5.16897 0.906585 4.37574 1.43842 3.70898 2.10922L4.83997 3.2402C5.89736 2.18281 7.30349 1.59972 8.7992 1.59972C10.2949 1.59972 11.701 2.18281 12.7584 3.2402C13.8158 4.2976 14.3989 5.70372 14.3989 7.19943C14.3989 8.69514 13.8158 10.1013 12.7584 11.1587C11.701 12.2161 10.2949 12.7991 8.7992 12.7991C7.30349 12.7991 5.89736 12.2161 4.83997 11.1587L3.70898 12.2896C5.06792 13.6494 6.87557 14.3988 8.7992 14.3988C10.7228 14.3988 12.5305 13.6494 13.8894 12.2896C15.2492 10.9307 15.9986 9.12306 15.9986 7.19943C15.9986 5.27581 15.2492 3.46816 13.8894 2.10922C13.2227 1.43842 12.4294 0.906585 11.5557 0.544533C10.6819 0.182481 9.74499 -0.00259497 8.7992 2.74836e-05Z" fill="#FDECD2"/>
</svg>
