<svg width="30" height="30" viewBox="0 0 30 30" fill="none" xmlns="http://www.w3.org/2000/svg">
<path d="M18.8061 3.80568C19.2337 3.35076 19.9575 3.32461 20.4212 3.75524L20.5752 3.89964C20.6561 3.97555 20.7834 3.97102 20.8588 3.88955L22.299 2.3326C22.3739 2.25156 22.5004 2.24658 22.5815 2.32147L24.0167 3.6467C24.0978 3.72162 24.1029 3.84813 24.028 3.92928L24.0162 3.94208C23.5886 4.39701 23.6244 5.11629 24.0881 5.54692C24.5518 5.97756 25.2756 5.95141 25.7031 5.49649L25.7149 5.48376C25.7898 5.40257 25.9164 5.39752 25.9975 5.47246L27.4324 6.79739C27.5136 6.87237 27.5186 6.999 27.4435 7.08014L26.0018 8.63879C25.9271 8.7195 25.9316 8.84532 26.0118 8.92051L26.1678 9.06674C26.6315 9.49738 26.6673 10.2167 26.2397 10.6716C25.8122 11.1265 25.0884 11.1527 24.6247 10.722L24.4707 10.5776C24.3897 10.5017 24.2624 10.5062 24.1871 10.5877L22.7469 12.1447C22.6719 12.2257 22.5455 12.2307 22.4644 12.1558L21.0292 10.8306C20.9481 10.7557 20.8215 10.7607 20.7466 10.8419L20.7348 10.8547C20.3073 11.3096 19.5835 11.3357 19.1198 10.9051C18.6561 10.4745 18.6203 9.75517 19.0479 9.30025L19.0597 9.28745C19.1346 9.20629 19.1295 9.07979 19.0484 9.00486L17.6134 7.67987C17.5322 7.60489 17.5272 7.47826 17.6023 7.39713L19.0441 5.83847C19.1187 5.75777 19.1142 5.63194 19.034 5.55675L18.8781 5.41052C18.4144 4.97988 18.3786 4.2606 18.8061 3.80568Z" fill="#091422" stroke="#FDECD2" stroke-miterlimit="10"/>
<path d="M1.74117 11.9749C1.73352 11.3506 2.2367 10.8297 2.8694 10.8182L3.0805 10.8153C3.19148 10.8138 3.28001 10.7223 3.27777 10.6113L3.23499 8.49083C3.23276 8.38046 3.32038 8.28916 3.43074 8.28684L5.38377 8.24571C5.49419 8.24339 5.58559 8.331 5.58794 8.44141L5.58831 8.45882C5.59595 9.08308 6.12073 9.57629 6.75343 9.5648C7.38613 9.5533 7.88931 9.03235 7.88167 8.4081L7.8813 8.39078C7.87895 8.28033 7.96659 8.18889 8.07704 8.18657L10.0296 8.14545C10.1401 8.14312 10.2316 8.23087 10.2338 8.34137L10.2766 10.4642C10.2788 10.5741 10.3694 10.6616 10.4793 10.6601L10.6931 10.6572C11.3258 10.6457 11.8505 11.139 11.8582 11.7632C11.8658 12.3875 11.3626 12.9084 10.7299 12.9199L10.5188 12.9228C10.4079 12.9243 10.3193 13.0158 10.3216 13.1268L10.3644 15.2473C10.3666 15.3576 10.279 15.4489 10.1686 15.4512L8.21567 15.4924C8.10522 15.4947 8.01758 15.5861 8.01993 15.6966L8.0203 15.7139C8.02794 16.3382 7.52476 16.8591 6.89206 16.8706C6.25935 16.8821 5.73458 16.3889 5.72694 15.7646L5.72657 15.7472C5.72422 15.6368 5.63282 15.5492 5.5224 15.5515L3.56972 15.5926C3.45922 15.595 3.36778 15.5072 3.36555 15.3967L3.32272 13.2739C3.32051 13.164 3.22999 13.0765 3.12007 13.078L2.90629 13.0808C2.27358 13.0923 1.74881 12.5991 1.74117 11.9749Z" fill="#091422" stroke="#FDECD2" stroke-miterlimit="10"/>
<path d="M15.3142 26.8742C14.7763 26.5574 14.5913 25.8572 14.9091 25.31L15.016 25.1279C15.0722 25.0322 15.0398 24.9091 14.9437 24.8535L13.1076 23.7918C13.0121 23.7366 12.9794 23.6143 13.0345 23.5187L14.0109 21.8268C14.0661 21.7311 14.1884 21.6983 14.284 21.7535L14.2991 21.7622C14.8371 22.079 15.5308 21.8855 15.8487 21.3383C16.1665 20.7912 15.9815 20.0909 15.4436 19.7741L15.4286 19.7655C15.3329 19.7103 15.3 19.5879 15.3552 19.4923L16.3314 17.8007C16.3866 17.705 16.5091 17.6722 16.6047 17.7275L18.4428 18.7904C18.538 18.8454 18.6597 18.8133 18.7154 18.7185L18.8236 18.5341C19.1415 17.9869 19.8352 17.7935 20.3732 18.1103C20.9111 18.4271 21.0962 19.1273 20.7783 19.6745L20.6714 19.8565C20.6152 19.9522 20.6477 20.0754 20.7437 20.131L22.5798 21.1926C22.6753 21.2479 22.7081 21.3701 22.6529 21.4657L21.6766 23.1576C21.6213 23.2533 21.6542 23.3756 21.7499 23.4308L21.7649 23.4395C22.3028 23.7563 22.4879 24.4565 22.17 25.0037C21.8521 25.5509 21.1584 25.7443 20.6205 25.4275L20.6054 25.4188C20.5097 25.3637 20.3874 25.3965 20.3322 25.4921L19.356 27.1838C19.3008 27.2795 19.1784 27.3123 19.0827 27.257L17.2446 26.1941C17.1494 26.1391 17.0277 26.1712 16.972 26.266L16.8638 26.4503C16.5459 26.9975 15.8522 27.191 15.3142 26.8742Z" fill="#091422" stroke="#FDECD2" stroke-miterlimit="10"/>
<path d="M19.9277 18.3228L20.7506 10.917" stroke="#FDECD2" stroke-miterlimit="10"/>
<path d="M18.3048 7.625L10.0762 10.0936" stroke="#FDECD2" stroke-miterlimit="10"/>
<path d="M10.0762 15.031L15.8362 19.1453" stroke="#FDECD2" stroke-miterlimit="10"/>
</svg>
