<svg width="24" height="24" viewBox="0 0 24 24" fill="none" xmlns="http://www.w3.org/2000/svg">
<path d="M4.12543 0.849121L2.91857 2.05426L4.71429 3.84912L5.91943 2.64398L4.12457 0.849121H4.12543ZM19.8754 0.849121L18.0797 2.64398L19.2857 3.84912L21.0806 2.05512L19.8746 0.849121H19.8754ZM12 1.38398C11.7171 1.38741 11.4309 1.40369 11.1429 1.43884C11.1343 1.43884 11.1257 1.43712 11.1171 1.43884C7.64057 1.83741 4.87371 4.64626 4.39286 8.10741C4.00886 10.8931 5.15743 13.4191 7.07143 15.046C7.85435 15.7142 8.38391 16.6311 8.57143 17.6431V22.786H10.5257C10.824 23.2977 11.3683 23.6431 12 23.6431C12.6317 23.6431 13.176 23.2977 13.4743 22.786H15.4286V19.3574H15.5091V18.3391C15.5091 17.0826 16.1623 15.8157 17.2234 14.8308C18.6429 13.4097 19.7143 11.3911 19.7143 9.07255C19.7143 4.83826 16.2291 1.34455 12 1.38398V1.38398ZM12 3.09826C15.3129 3.05198 18 5.76398 18 9.07255C18 10.8674 17.1686 12.448 16.0174 13.5983L16.0449 13.6257C14.9009 14.6806 14.1612 16.1018 13.9534 17.644H10.2043C10.0157 16.1748 9.38571 14.7528 8.19514 13.7328C6.68057 12.4471 5.778 10.51 6.07971 8.32255C6.45429 5.62255 8.64514 3.45141 11.3297 3.15398C11.5514 3.12308 11.7746 3.10476 11.9983 3.09912L12 3.09826ZM0 9.07255V10.7868H2.57143V9.07255H0ZM21.4286 9.07255V10.7868H24V9.07255H21.4286ZM4.71429 16.0103L2.91943 17.8043L4.12543 19.0103L5.91857 17.2154L4.71429 16.0103ZM19.2857 16.0103L18.0806 17.2154L19.8746 19.0103L21.0806 17.8043L19.2857 16.0103ZM10.2857 19.3583H13.7143V21.0725H10.2857V19.3583Z" fill="#FDECD2"/>
</svg>
