<svg width="33" height="32" viewBox="0 0 33 32" fill="none" xmlns="http://www.w3.org/2000/svg">
<path d="M20.6556 3.98251C21.1101 3.49891 21.8795 3.47111 22.3724 3.92889L22.5454 4.09108C22.6264 4.16698 22.7536 4.16245 22.829 4.08098L24.3772 2.40731C24.4521 2.32628 24.5786 2.3213 24.6597 2.39618L26.2039 3.82206C26.285 3.89698 26.2901 4.02349 26.2152 4.10464L26.1941 4.12751C25.7395 4.61111 25.7776 5.37574 26.2705 5.83353C26.7634 6.29131 27.5329 6.26351 27.9874 5.77991L28.0084 5.75711C28.0834 5.67593 28.2099 5.67087 28.2911 5.74582L29.8349 7.17139C29.9161 7.24637 29.9211 7.373 29.8461 7.45414L28.2963 9.12952C28.2217 9.21022 28.2262 9.33604 28.3064 9.41123L28.4813 9.57525C28.9742 10.033 29.0123 10.7977 28.5578 11.2813C28.1033 11.7649 27.3339 11.7927 26.8409 11.3349L26.668 11.1727C26.587 11.0968 26.4597 11.1013 26.3843 11.1828L24.8362 12.8565C24.7612 12.9375 24.6348 12.9425 24.5537 12.8676L23.0096 11.4418C22.9284 11.3668 22.8018 11.3719 22.7269 11.4531L22.7059 11.4759C22.2514 11.9595 21.4819 11.9873 20.989 11.5295C20.4961 11.0717 20.458 10.3071 20.9125 9.82348L20.9336 9.8006C21.0085 9.71945 21.0035 9.59294 20.9223 9.51802L19.3784 8.09238C19.2972 8.0174 19.2922 7.89077 19.3673 7.80964L20.917 6.13426C20.9917 6.05356 20.9872 5.92773 20.907 5.85254L20.732 5.68853C20.2391 5.23074 20.2011 4.46611 20.6556 3.98251Z" fill="#091422" stroke="#FDECD2" stroke-width="1.4" stroke-miterlimit="10"/>
<path d="M2.50465 12.6669C2.49653 12.0033 3.03143 11.4495 3.70402 11.4373L3.94112 11.4341C4.05209 11.4326 4.14063 11.3411 4.13839 11.2301L4.0924 8.95066C4.09018 8.84029 4.17779 8.74899 4.28815 8.74667L6.38951 8.70242C6.49992 8.7001 6.59132 8.78771 6.59367 8.89812L6.59434 8.92923C6.60246 9.59285 7.16032 10.1172 7.83291 10.1049C8.5055 10.0927 9.0404 9.53892 9.03228 8.87531L9.03162 8.84429C9.02926 8.73384 9.11691 8.6424 9.22736 8.64008L11.3283 8.59584C11.4388 8.59351 11.5302 8.68125 11.5324 8.79176L11.5785 11.0735C11.5807 11.1834 11.6712 11.271 11.7811 11.2695L12.0209 11.2662C12.6935 11.254 13.2514 11.7783 13.2595 12.4419C13.2676 13.1056 12.7327 13.6594 12.0601 13.6716L11.823 13.6748C11.712 13.6763 11.6235 13.7678 11.6258 13.8788L11.6717 16.1582C11.674 16.2686 11.5864 16.3599 11.476 16.3622L9.37473 16.4065C9.26428 16.4088 9.17663 16.5002 9.17898 16.6107L9.17964 16.6417C9.18777 17.3053 8.65287 17.8591 7.98028 17.8713C7.30768 17.8835 6.74983 17.3592 6.7417 16.6956L6.74104 16.6645C6.73869 16.5541 6.64729 16.4665 6.53688 16.4688L4.43587 16.513C4.32537 16.5154 4.23393 16.4276 4.2317 16.3171L4.18567 14.0354C4.18345 13.9254 4.09294 13.8379 3.98301 13.8394L3.74323 13.8426C3.07064 13.8549 2.51278 13.3305 2.50465 12.6669Z" fill="#091422" stroke="#FDECD2" stroke-width="1.4" stroke-miterlimit="10"/>
<path d="M16.9443 28.5056C16.3725 28.1688 16.1758 27.4244 16.5137 26.8428L16.6338 26.6383C16.69 26.5426 16.6575 26.4194 16.5614 26.3639L14.5877 25.2226C14.4922 25.1673 14.4594 25.0451 14.5146 24.9495L15.5651 23.129C15.6203 23.0334 15.7426 23.0006 15.8383 23.0558L15.8652 23.0713C16.4371 23.4081 17.1746 23.2024 17.5125 22.6207C17.8504 22.0391 17.6537 21.2947 17.0818 20.9579L17.0549 20.9424C16.9592 20.8872 16.9264 20.7649 16.9816 20.6692L18.0319 18.8491C18.0872 18.7534 18.2096 18.7206 18.3053 18.776L20.281 19.9184C20.3762 19.9734 20.4979 19.9413 20.5536 19.8465L20.675 19.6397C21.0129 19.0581 21.7503 18.8524 22.3222 19.1892C22.8941 19.5259 23.0908 20.2703 22.7529 20.852L22.6328 21.0565C22.5766 21.1522 22.6091 21.2753 22.7051 21.3309L24.6788 22.4722C24.7744 22.5274 24.8071 22.6496 24.7519 22.7453L23.7015 24.5656C23.6463 24.6613 23.6791 24.7837 23.7748 24.8388L23.8016 24.8544C24.3735 25.1911 24.5702 25.9355 24.2323 26.5172C23.8944 27.0989 23.157 27.3045 22.5851 26.9677L22.5581 26.9522C22.4625 26.897 22.3402 26.9298 22.285 27.0255L21.2346 28.8456C21.1794 28.9414 21.057 28.9741 20.9613 28.9188L18.9856 27.7764C18.8904 27.7213 18.7687 27.7534 18.713 27.8482L18.5916 28.055C18.2537 28.6367 17.5162 28.8423 16.9443 28.5056Z" fill="#091422" stroke="#FDECD2" stroke-width="1.4" stroke-miterlimit="10"/>
<path d="M21.8359 19.4147L22.7107 11.542" stroke="#FDECD2" stroke-width="1.4" stroke-miterlimit="10"/>
<path d="M20.1185 8.04297L11.3711 10.6672" stroke="#FDECD2" stroke-width="1.4" stroke-miterlimit="10"/>
<path d="M11.3711 15.915L17.4943 20.2888" stroke="#FDECD2" stroke-width="1.4" stroke-miterlimit="10"/>
</svg>
