<svg width="30" height="27" viewBox="0 0 30 27" fill="none" xmlns="http://www.w3.org/2000/svg">
<path d="M10.5265 11.5003C10.5265 12.3426 11.2308 13.0126 12.0719 13.0126H12.4196C12.5301 13.0126 12.6196 13.1022 12.6196 13.2126V16.2009C12.6196 16.3113 12.5301 16.4009 12.4196 16.4009H9.63108C9.52062 16.4009 9.43108 16.3113 9.43108 16.2009V16.1137C9.43108 15.2715 8.72686 14.6015 7.88571 14.6015C7.02499 14.6015 6.34033 15.2906 6.34033 16.1137V16.2009C6.34033 16.3113 6.25079 16.4009 6.14033 16.4009H3.31266C3.2022 16.4009 3.11266 16.3113 3.11266 16.2009V13.2126C3.11266 13.1022 3.02312 13.0126 2.91266 13.0126H2.54537C1.70422 13.0126 1 12.3426 1 11.5003C1 10.6581 1.70422 9.98807 2.54537 9.98807H2.91266C3.02312 9.98807 3.11266 9.89853 3.11266 9.78807V6.78067C3.11266 6.67021 3.2022 6.58067 3.31266 6.58067H6.12077C6.23123 6.58067 6.32077 6.49112 6.32077 6.38067V6.29352C6.32077 5.45125 7.02499 4.78125 7.86614 4.78125C8.72686 4.78125 9.41152 5.47039 9.41152 6.29352V6.38067C9.41152 6.49112 9.50106 6.58067 9.61152 6.58067H12.4196C12.5301 6.58067 12.6196 6.67021 12.6196 6.78067V9.76893C12.6196 9.87938 12.5301 9.96893 12.4196 9.96893H12.0719C11.2112 9.98807 10.5265 10.6581 10.5265 11.5003Z" fill="#091422" stroke="#FDECD2" stroke-width="1.5" stroke-miterlimit="10"/>
<path d="M9.5859 16.0782V16.4007H6.55469V16.0782C6.55469 15.1323 7.241 14.3799 8.06076 14.3799C8.89958 14.3799 9.5859 15.1323 9.5859 16.0782Z" fill="#091422" stroke="#FDECD2" stroke-width="1.5" stroke-miterlimit="10"/>
<path d="M14.6404 21.0995C14.6404 21.9417 13.9604 22.6117 13.1054 22.6117H12.7419C12.6315 22.6117 12.5419 22.7013 12.5419 22.8117V25.8C12.5419 25.9105 12.4524 26 12.3419 26H3.29853C3.18807 26 3.09853 25.9105 3.09853 25.8V22.8117C3.09853 22.7013 3.00899 22.6117 2.89853 22.6117H2.53503C1.68008 22.6117 1 21.9226 1 21.0995C1 20.2572 1.69951 19.5872 2.53503 19.5872H2.89853C3.00899 19.5872 3.09853 19.4976 3.09853 19.3872V16.3798C3.09853 16.2693 3.18807 16.1798 3.29853 16.1798H6.08518C6.19564 16.1798 6.28518 16.0902 6.28518 15.9798V15.8926C6.28518 15.0504 6.98469 14.3804 7.82022 14.3804C8.67517 14.3804 9.35525 15.0695 9.35525 15.8926V15.9798C9.35525 16.0902 9.4448 16.1798 9.55525 16.1798H12.3419C12.4524 16.1798 12.5419 16.2693 12.5419 16.3798V19.368C12.5419 19.4785 12.6314 19.568 12.7419 19.568H13.1054C13.9604 19.5872 14.6404 20.2572 14.6404 21.0995Z" fill="#091422" stroke="#FDECD2" stroke-width="1.5" stroke-miterlimit="10"/>
<path d="M28.2137 9.69689C27.988 10.4883 27.1561 10.9567 26.3526 10.7327L26.0232 10.6392C25.9165 10.6089 25.8054 10.6714 25.7759 10.7783L24.9966 13.5959C24.9672 13.7023 24.8572 13.7647 24.7507 13.7354L22.1457 13.0174C22.0392 12.9881 21.9767 12.878 22.006 12.7715L22.029 12.6881C22.2546 11.8967 21.7777 11.0759 20.9741 10.8519C20.1706 10.628 19.3387 11.0963 19.113 11.8877L19.0901 11.9711C19.0608 12.0776 18.9506 12.1402 18.8441 12.1108L16.2395 11.393C16.1329 11.3636 16.0704 11.2534 16.0999 11.1469L16.8797 8.32704C16.909 8.22108 16.8473 8.11134 16.7416 8.08133L16.4096 7.98713C15.6061 7.76317 15.1291 6.94238 15.3548 6.15099C15.5804 5.35959 16.4123 4.89122 17.2159 5.11517L17.5452 5.20864C17.652 5.23894 17.763 5.17651 17.7926 5.06954L18.5718 2.25197C18.6012 2.14557 18.7113 2.08314 18.8177 2.11247L21.4227 2.83041C21.5292 2.85977 21.6393 2.79721 21.6686 2.6907L21.6916 2.60732C21.9172 1.81592 22.7492 1.34755 23.5527 1.5715C24.3562 1.79545 24.8332 2.61624 24.6075 3.40764L24.5845 3.49111C24.5552 3.59758 24.6178 3.70767 24.7242 3.73701L27.3289 4.45489C27.4355 4.48426 27.498 4.59449 27.4686 4.70101L26.6887 7.52084C26.6594 7.6268 26.7211 7.73654 26.8269 7.76655L27.1588 7.86075C27.9623 8.0847 28.4393 8.90549 28.2137 9.69689Z" fill="#091422" stroke="#FDECD2" stroke-width="1.5" stroke-miterlimit="10"/>
<path d="M18.6796 16.0782V16.4007H15.6484V16.0782C15.6484 15.1323 16.3347 14.3799 17.1545 14.3799C17.9933 14.3799 18.6796 15.1323 18.6796 16.0782Z" fill="#091422" stroke="#FDECD2" stroke-width="1.5" stroke-miterlimit="10"/>
<path d="M23.7329 21.099C23.7329 21.9413 23.0593 22.6113 22.2547 22.6113H21.9121C21.8016 22.6113 21.7121 22.7008 21.7121 22.8113V25.7995C21.7121 25.91 21.6225 25.9995 21.5121 25.9995H12.8185C12.708 25.9995 12.6185 25.91 12.6185 25.7995V22.8113C12.6185 22.7008 12.5289 22.6113 12.4185 22.6113H12.0758C11.2525 22.6113 10.5977 21.9221 10.5977 21.099C10.5977 20.2567 11.2713 19.5867 12.0758 19.5867H12.4185C12.5289 19.5867 12.6185 19.4972 12.6185 19.3867V16.3793C12.6185 16.2688 12.708 16.1793 12.8185 16.1793H15.4871C15.5975 16.1793 15.6871 16.0898 15.6871 15.9793V15.8922C15.6871 15.0499 16.3607 14.3799 17.1653 14.3799C17.9886 14.3799 18.6435 15.069 18.6435 15.8922V15.9793C18.6435 16.0898 18.733 16.1793 18.8435 16.1793H21.5121C21.6225 16.1793 21.7121 16.2688 21.7121 16.3793V19.3676C21.7121 19.478 21.8016 19.5676 21.9121 19.5676H22.2547C23.078 19.5867 23.7329 20.2567 23.7329 21.099Z" fill="#091422" stroke="#FDECD2" stroke-width="1.5" stroke-miterlimit="10"/>
</svg>
