<svg width="27" height="29" viewBox="0 0 27 29" fill="none" xmlns="http://www.w3.org/2000/svg">
<path d="M20.8827 12.0081L18.5099 12.4482C18.3705 12.4741 18.2364 12.3826 18.2098 12.2434V12.2434C18.0653 11.4885 17.4192 10.8662 16.6196 10.8315C15.5389 10.8106 14.6245 11.8525 14.928 12.7756C14.9327 12.7899 14.9366 12.8047 14.9392 12.8195V12.8195C14.9647 12.9668 14.8673 13.1072 14.7204 13.1349L13.3255 13.3976C12.3956 13.5727 11.4997 12.961 11.3244 12.0311L11.0507 10.5796C11.0028 10.3258 10.7579 10.1591 10.5042 10.2077V10.2077C10.4753 10.2132 10.4456 10.2161 10.4161 10.2158C9.33926 10.2064 8.70007 9.85223 8.48105 9.00387C8.25559 8.07149 8.86422 7.13593 9.76383 6.98457V6.98457C10.0813 6.92955 10.2934 6.62686 10.2368 6.30969L9.99467 4.95215C9.83026 4.03052 10.439 3.14848 11.359 2.97522L12.8391 2.69647C12.9506 2.67547 13.0239 2.56785 13.0025 2.45638V2.45638C12.9963 2.4238 12.9985 2.3903 13.006 2.35799C13.0775 2.04962 12.967 1.70241 13.0899 1.38662" stroke="#FDECD2" stroke-width="1.7" stroke-miterlimit="10"/>
<path d="M10.9506 20.8543C16.4332 20.8543 20.8777 16.4097 20.8777 10.9271C20.8777 5.44453 16.4332 1 10.9506 1C5.46796 1 1.02344 5.44453 1.02344 10.9271C1.02344 16.4097 5.46796 20.8543 10.9506 20.8543Z" stroke="#FDECD2" stroke-width="1.7" stroke-miterlimit="10"/>
<path d="M18.6328 17.3037L20.4443 19.3688" stroke="#FDECD2" stroke-width="1.7" stroke-miterlimit="10"/>
<path d="M16.5312 19.1875L18.3428 21.2889" stroke="#FDECD2" stroke-width="1.7" stroke-miterlimit="10"/>
<path d="M25.5513 26.2886L24.7542 27.0132C24.1383 27.5929 23.16 27.5566 22.5804 26.9045L19.1141 23.1254C18.3672 22.3112 18.4221 21.0457 19.2365 20.2992L19.3312 20.2124C20.1453 19.4661 21.4101 19.5209 22.1566 20.3348L25.6237 24.1147C26.2396 24.7307 26.1672 25.7089 25.5513 26.2886Z" stroke="#FDECD2" stroke-width="1.7" stroke-miterlimit="10"/>
</svg>
