<svg width="30" height="27" viewBox="0 0 30 27" fill="none" xmlns="http://www.w3.org/2000/svg">
<path d="M10.6014 11.5832C10.6014 12.4321 11.3112 13.1074 12.159 13.1074H12.511C12.6215 13.1074 12.711 13.1969 12.711 13.3074V16.3223C12.711 16.4327 12.6215 16.5223 12.511 16.5223H9.69737C9.58692 16.5223 9.49737 16.4327 9.49737 16.3223V16.2329C9.49737 15.384 8.78762 14.7087 7.93985 14.7087C7.07237 14.7087 6.38233 15.4033 6.38233 16.2329V16.3223C6.38233 16.4327 6.29278 16.5223 6.18233 16.5223H3.32927C3.21882 16.5223 3.12927 16.4327 3.12927 16.3223V13.3074C3.12927 13.1969 3.03973 13.1074 2.92927 13.1074H2.55752C1.70976 13.1074 1 12.4321 1 11.5832C1 10.7343 1.70976 10.059 2.55752 10.059H2.92927C3.03973 10.059 3.12927 9.9695 3.12927 9.85904V6.82484C3.12927 6.71439 3.21882 6.62484 3.32927 6.62484H6.16261C6.27307 6.62484 6.36261 6.5353 6.36261 6.42484V6.33545C6.36261 5.48654 7.07237 4.81128 7.92013 4.81128C8.78762 4.81128 9.47766 5.50584 9.47766 6.33545V6.42484C9.47766 6.5353 9.5672 6.62484 9.67766 6.62484H12.511C12.6215 6.62484 12.711 6.71439 12.711 6.82484V9.83975C12.711 9.9502 12.6215 10.0397 12.511 10.0397H12.159C11.2915 10.059 10.6014 10.7343 10.6014 11.5832Z" fill="#091422" stroke="#FDECD2" stroke-miterlimit="10"/>
<path d="M9.65465 16.197V16.322C9.65465 16.4325 9.56511 16.522 9.45465 16.522H6.79961C6.68915 16.522 6.59961 16.4325 6.59961 16.322V16.197C6.59961 15.2437 7.29132 14.4854 8.11752 14.4854C8.96294 14.4854 9.65465 15.2437 9.65465 16.197Z" fill="#091422" stroke="#FDECD2" stroke-miterlimit="10"/>
<path d="M14.7477 21.2573C14.7477 22.1062 14.0623 22.7814 13.2006 22.7814H12.8327C12.7222 22.7814 12.6327 22.871 12.6327 22.9814V25.9963C12.6327 26.1068 12.5431 26.1963 12.4327 26.1963H3.31503C3.20457 26.1963 3.11503 26.1068 3.11503 25.9963V22.9814C3.11503 22.871 3.02549 22.7814 2.91503 22.7814H2.5471C1.68543 22.7814 1 22.0869 1 21.2573C1 20.4084 1.70501 19.7331 2.5471 19.7331H2.91503C3.02549 19.7331 3.11503 19.6436 3.11503 19.5331V16.4989C3.11503 16.3885 3.20457 16.2989 3.31503 16.2989H6.12674C6.2372 16.2989 6.32674 16.2094 6.32674 16.0989V16.0095C6.32674 15.1606 7.03175 14.4854 7.87385 14.4854C8.73552 14.4854 9.42095 15.1799 9.42095 16.0095V16.0989C9.42095 16.2094 9.51049 16.2989 9.62095 16.2989H12.4327C12.5431 16.2989 12.6327 16.3885 12.6327 16.4989V19.5138C12.6327 19.6243 12.7222 19.7138 12.8327 19.7138H13.2006C14.0623 19.7331 14.7477 20.4084 14.7477 21.2573Z" fill="#091422" stroke="#FDECD2" stroke-miterlimit="10"/>
<path d="M28.4294 9.76528C28.202 10.5629 27.3636 11.035 26.5537 10.8092L26.2203 10.7146C26.1135 10.6843 26.0025 10.7467 25.9729 10.8537L25.1867 13.6965C25.1573 13.8029 25.0472 13.8653 24.9408 13.836L22.3122 13.1115C22.2058 13.0822 22.1432 12.9721 22.1725 12.8656L22.1961 12.78C22.4235 11.9824 21.9428 11.1551 21.133 10.9294C20.3231 10.7037 19.4847 11.1757 19.2573 11.9734L19.2337 12.0589C19.2044 12.1654 19.0942 12.228 18.9877 12.1986L16.3596 11.4743C16.253 11.4449 16.1905 11.3347 16.22 11.2282L17.0068 8.38315C17.0361 8.27719 16.9744 8.16745 16.8686 8.13743L16.5326 8.04207C15.7227 7.81635 15.242 6.98911 15.4694 6.19149C15.6969 5.39387 16.5353 4.92182 17.3452 5.14753L17.6786 5.24216C17.7854 5.27246 17.8964 5.21004 17.926 5.10307L18.7122 2.2603C18.7416 2.1539 18.8517 2.09147 18.9581 2.1208L21.5866 2.84523C21.6931 2.87458 21.8032 2.81202 21.8325 2.70551L21.8561 2.61996C22.0835 1.82234 22.922 1.35028 23.7318 1.57599C24.5416 1.80171 25.0224 2.62895 24.7949 3.42657L24.7714 3.51221C24.742 3.61869 24.8046 3.72878 24.911 3.75812L27.5393 4.48248C27.6458 4.51185 27.7084 4.62207 27.6789 4.7286L26.8921 7.57362C26.8628 7.67958 26.9245 7.78932 27.0303 7.81933L27.3663 7.9147C28.1761 8.14042 28.6568 8.96766 28.4294 9.76528Z" fill="#091422" stroke="#FDECD2" stroke-miterlimit="10"/>
<path d="M18.8207 16.197V16.322C18.8207 16.4325 18.7311 16.522 18.6207 16.522H15.9656C15.8552 16.522 15.7656 16.4325 15.7656 16.322V16.197C15.7656 15.2437 16.4573 14.4854 17.2835 14.4854C18.129 14.4854 18.8207 15.2437 18.8207 16.197Z" fill="#091422" stroke="#FDECD2" stroke-miterlimit="10"/>
<path d="M23.9104 21.2573C23.9104 22.1062 23.2315 22.7814 22.4206 22.7814H22.0737C21.9632 22.7814 21.8737 22.871 21.8737 22.9814V25.9963C21.8737 26.1068 21.7842 26.1963 21.6737 26.1963H12.9086C12.7981 26.1963 12.7086 26.1068 12.7086 25.9963V22.9814C12.7086 22.871 12.619 22.7814 12.5086 22.7814H12.1617C11.3319 22.7814 10.6719 22.0869 10.6719 21.2573C10.6719 20.4084 11.3508 19.7331 12.1617 19.7331H12.5086C12.619 19.7331 12.7086 19.6436 12.7086 19.5331V16.4989C12.7086 16.3885 12.7981 16.2989 12.9086 16.2989H15.6013C15.7118 16.2989 15.8013 16.2094 15.8013 16.0989V16.0095C15.8013 15.1606 16.4802 14.4854 17.2911 14.4854C18.1209 14.4854 18.7809 15.1799 18.7809 16.0095V16.0989C18.7809 16.2094 18.8705 16.2989 18.9809 16.2989H21.6737C21.7842 16.2989 21.8737 16.3885 21.8737 16.4989V19.5138C21.8737 19.6243 21.9632 19.7138 22.0737 19.7138H22.4206C23.2504 19.7331 23.9104 20.4084 23.9104 21.2573Z" fill="#091422" stroke="#FDECD2" stroke-miterlimit="10"/>
</svg>
