<svg width="28" height="30" viewBox="0 0 28 30" fill="none" xmlns="http://www.w3.org/2000/svg">
<path d="M21.4658 12.5999L19.118 12.5555L19.0809 12.2955C18.9695 11.5157 18.3382 10.8472 17.5212 10.773C16.4071 10.6987 15.553 11.6642 15.7016 12.704L15.7387 13.0011L12.3222 13.521L11.8024 9.80744L11.2825 9.88171C10.3912 9.99312 9.49996 9.43609 9.31429 8.54484C9.12861 7.57932 9.79705 6.65094 10.7254 6.53953L11.3196 6.46526L10.7997 2.75173L14.2533 2.26897L14.2161 2.00903C14.179 1.63767 14.2161 1.30346 14.3647 0.969238" stroke="#FDECD2" stroke-miterlimit="10"/>
<path d="M21.166 19.3908L21.4091 19.6068L21.7051 19.4723C21.7917 19.4329 21.8434 19.4152 21.8742 19.4075C21.8973 19.424 21.9331 19.4541 21.9895 19.51L23.4283 21.1148L24.874 22.7273C25.2484 23.1577 25.6314 23.5781 26.0099 23.9935L26.0119 23.9958C26.3932 24.4142 26.7699 24.8277 27.1368 25.2497L27.144 25.258L27.1516 25.266C27.6456 25.786 27.6242 26.6214 27.0207 27.1962L27.0206 27.196L27.012 27.2047C26.8059 27.4108 26.5968 27.5915 26.3684 27.7889C26.238 27.9015 26.1014 28.0196 25.9554 28.1509C25.4369 28.6112 24.7922 28.6741 24.2588 28.3273L24.2468 28.3195L24.2343 28.3124C24.1665 28.2737 24.0943 28.2121 23.9991 28.1128C23.9588 28.0707 23.9193 28.0273 23.8745 27.978C23.8664 27.969 23.858 27.9599 23.8495 27.9505C23.798 27.8939 23.74 27.8307 23.6777 27.7681C23.4229 27.4949 23.1676 27.2122 22.909 26.926L22.9075 26.9243C22.6494 26.6385 22.388 26.3492 22.1262 26.0686C21.7848 25.6919 21.4418 25.3095 21.0965 24.9248C20.3619 24.106 19.6175 23.2764 18.8587 22.4669C18.7927 22.3933 18.7588 22.3463 18.7418 22.3173C18.7418 22.3171 18.7419 22.3169 18.742 22.3168C18.7581 22.2812 18.7911 22.2247 18.8575 22.1335L19.0865 21.8185L18.8372 21.5193C18.7297 21.3903 18.614 21.2746 18.5159 21.1765L18.5096 21.1702C18.4048 21.0654 18.319 20.9791 18.243 20.888L18.2285 20.8706L18.2125 20.8545L18.2058 20.8479C18.024 20.666 17.788 20.4301 17.5477 20.2298L17.2965 20.0205L17.004 20.1667C16.7568 20.2903 16.4985 20.4359 16.243 20.5799C16.1095 20.6551 15.9767 20.7299 15.8467 20.801C14.1143 21.6474 12.3129 21.9656 10.3945 21.8235L10.3945 21.8235L10.3895 21.8232C8.72954 21.7172 7.20872 21.224 5.74877 20.37C4.57769 19.6597 3.58317 18.7722 2.72792 17.7035C1.80954 16.5374 1.17158 15.1922 0.816451 13.7724C0.425471 12.1722 0.391176 10.5793 0.744903 8.98763L0.745697 8.98393C1.06521 7.49284 1.66794 6.14469 2.55756 4.89922C3.08223 4.16469 3.7536 3.491 4.50774 2.88051L4.50843 2.87995C6.21268 1.49525 8.15945 0.716723 10.3242 0.539287L10.3249 0.539231C12.4551 0.361708 14.4353 0.786564 16.2785 1.81451L16.2785 1.8146L16.2875 1.81939C17.4119 2.41671 18.3689 3.22886 19.2296 4.197C20.7902 5.97066 21.639 8.02109 21.8166 10.3652C21.9941 12.7085 21.4639 14.9022 20.1871 16.9258C20.1417 16.9946 20.0987 17.0698 20.0651 17.1286L20.0614 17.1351C20.0221 17.2038 19.9939 17.2529 19.9681 17.2915L19.964 17.2976L19.9601 17.3038C19.9523 17.3164 19.9439 17.3297 19.9352 17.3434C19.9029 17.3947 19.8667 17.452 19.8412 17.4986C19.8082 17.5587 19.7449 17.6821 19.7449 17.8427C19.7449 18.0116 19.8141 18.137 19.8539 18.2016C19.8775 18.24 19.9095 18.2853 19.9384 18.3254C19.9466 18.3421 19.9557 18.3586 19.9659 18.3748C19.9509 18.3596 19.9358 18.3444 19.9207 18.3293L19.5822 17.9908L19.2293 18.3143L18.5609 18.927L17.8924 19.5398L17.5075 19.8926L17.8767 20.2619C18.0574 20.4425 18.2388 20.633 18.4252 20.8288L18.4274 20.831C18.6116 21.0245 18.8008 21.2231 18.9908 21.4131L19.3293 21.7516L19.6822 21.4281C19.9001 21.2284 20.1186 21.0372 20.342 20.8417L20.3443 20.8397C20.5657 20.6459 20.7921 20.4479 21.0191 20.2398L21.404 19.8869L21.0348 19.5177C20.8403 19.3232 20.6623 19.1275 20.4806 18.9272L20.4645 18.9094C20.3526 18.7861 20.2386 18.6603 20.1209 18.5357C20.1245 18.5382 20.1275 18.5402 20.13 18.5419C20.1302 18.542 20.1304 18.5421 20.1306 18.5423L20.1484 18.5601L20.2012 18.5917C20.4501 18.7411 20.6747 18.9454 20.9364 19.1836C21.0096 19.2502 21.0857 19.3194 21.166 19.3908ZM21.8125 11.1849V11.1816C21.8125 5.29918 17.0965 0.580747 11.2488 0.580747C5.40185 0.580747 0.646212 5.3364 0.685189 11.222L0.68519 11.2221C0.724157 16.9502 5.39902 21.7471 11.3264 21.6709C17.1001 21.6692 21.7736 16.9503 21.8125 11.1849ZM22.2695 20.0168L21.9415 19.5794L21.5351 19.9452C21.164 20.2791 20.8022 20.6038 20.4401 20.9288C20.0781 21.2537 19.7157 21.5789 19.3441 21.9134L18.9524 22.2659L19.2528 22.5664V22.5924L19.386 22.7361C19.8463 23.2333 20.2981 23.7404 20.7535 24.2516L20.7552 24.2534C21.2082 24.7619 21.6649 25.2746 22.1315 25.7786C22.7985 26.5197 23.4707 27.2665 24.1808 28.014L24.1807 28.0141L24.1897 28.0232C24.5796 28.413 25.2275 28.5891 25.7717 28.181L25.7819 28.1733L25.7918 28.1651C26.2495 27.7837 26.7062 27.365 27.125 26.9463C27.3473 26.7239 27.4612 26.4439 27.4522 26.1459C27.4436 25.8621 27.3257 25.6072 27.1714 25.4015L27.1616 25.3884L27.151 25.3761C27.0386 25.2449 26.917 25.1045 26.7965 24.9655C26.6756 24.826 26.5558 24.6878 26.4455 24.5591L26.4455 24.559L26.4408 24.5537C25.6842 23.6963 24.908 22.853 24.1304 22.0083C23.7595 21.6054 23.3884 21.2022 23.0189 20.7969L22.9999 20.7761L22.9786 20.7575C22.6966 20.5107 22.4642 20.2763 22.2695 20.0168Z" fill="#FDECD2" stroke="#FDECD2"/>
</svg>
