<svg width="29" height="29" viewBox="0 0 29 29" fill="none" xmlns="http://www.w3.org/2000/svg">
<path d="M28.2508 14.7103C28.2508 22.188 22.1889 28.2498 14.7113 28.2498C7.23369 28.2498 1.17188 22.188 1.17188 14.7103C1.17188 7.23271 7.23369 1.1709 14.7113 1.1709C22.1889 1.1709 28.2508 7.23271 28.2508 14.7103Z" stroke="#091422" stroke-width="1.5"/>
<path d="M13.7343 21.3522C13.2867 21.2546 12.8711 21.1245 12.4235 20.9619C12.3276 20.9294 12.2317 20.9294 12.1038 20.9619C12.0079 20.9619 11.912 20.9944 11.8161 21.0595C11.6562 21.157 11.4964 21.3522 11.4644 21.5148C11.4325 21.7099 11.4325 21.9375 11.5284 22.1001C11.5603 22.1652 11.6243 22.1977 11.6562 22.2628C11.7522 22.3603 11.88 22.4254 12.0079 22.4579C12.4235 22.6205 12.8711 22.7506 13.3187 22.8481C13.5105 22.8807 13.7343 22.8807 13.8941 22.7831C14.0539 22.6855 14.2138 22.4904 14.2458 22.3278C14.2777 22.1327 14.2777 21.905 14.1818 21.7424C14.0859 21.5473 13.9261 21.4172 13.7343 21.3522Z" fill="#091422"/>
<path d="M17.3189 21.2543C17.1271 21.1567 16.9033 21.1242 16.6795 21.1567C16.3598 21.2543 16.0721 21.3193 15.7524 21.3519C15.7204 21.3519 15.6565 21.3519 15.6245 21.3519C15.4966 21.3519 15.4007 21.3844 15.3048 21.4169C15.2089 21.4494 15.113 21.5145 15.0491 21.5795C14.9212 21.7096 14.7933 21.9698 14.8253 22.1649C14.8253 22.3925 14.8892 22.5877 15.0491 22.7503C15.2089 22.8804 15.4007 23.0105 15.6245 22.9779C16.136 22.9129 16.6156 22.8478 17.1271 22.7178C17.3189 22.6527 17.5107 22.5226 17.6066 22.3275C17.7025 22.1649 17.7665 21.8722 17.7025 21.6771C17.6386 21.547 17.5107 21.3844 17.3189 21.2543Z" fill="#091422"/>
<path d="M20.1918 19.8898C20.032 19.7597 19.8402 19.6621 19.6483 19.6621C19.5844 19.6621 19.5205 19.6946 19.4565 19.6946C19.3287 19.7272 19.2008 19.7922 19.1049 19.8898C19.009 19.9873 18.8811 20.0849 18.7852 20.1499C18.6893 20.215 18.5934 20.3125 18.4655 20.3776C18.3696 20.4426 18.3056 20.5077 18.2417 20.5727C18.1778 20.6378 18.1138 20.7353 18.1138 20.8329C18.0819 20.9305 18.0819 21.028 18.1138 21.1581C18.1138 21.2557 18.1458 21.3532 18.2097 21.4508C18.3056 21.6134 18.4655 21.776 18.6573 21.8085C18.7212 21.8085 18.7852 21.8411 18.8491 21.8411C18.977 21.8411 19.1049 21.8085 19.2327 21.7435C19.5524 21.5158 19.8721 21.2882 20.1599 20.9955C20.2238 20.9305 20.2877 20.8329 20.3197 20.7353C20.3836 20.6378 20.3836 20.5402 20.3836 20.4426C20.3836 20.3451 20.3517 20.2475 20.3197 20.1499C20.3197 20.0198 20.2877 19.9548 20.1918 19.8898Z" fill="#091422"/>
<path d="M20.5434 7.7259C20.2237 8.05112 19.936 8.34381 19.6163 8.66903C17.0907 6.8153 13.67 6.5226 10.9206 8.1812C8.29914 9.74224 6.76462 12.8643 7.14825 15.9539C7.404 17.9377 8.33111 19.7914 9.83367 21.0923C10.1534 21.3525 10.6009 21.4175 10.9206 21.0923C11.2083 20.7996 11.2403 20.2792 10.9206 19.9865C8.84262 18.1653 8.01142 15.1408 9.13034 12.5066C10.0575 10.2951 12.2633 8.70155 14.661 8.63651C16.0357 8.57146 17.3465 8.96172 18.4654 9.74224C18.1137 10.0349 17.7621 10.3602 17.4104 10.6528C17.1866 10.848 17.1546 11.2382 17.2505 11.4984C17.3784 11.7911 17.6342 11.9862 17.9539 11.9862C18.881 11.9862 19.7761 11.9862 20.7032 11.9862C20.8311 11.9862 20.959 11.9862 21.0869 11.9862C21.5025 11.9862 21.8541 11.6285 21.8541 11.2057C21.8541 10.3602 21.8541 9.51459 21.8541 8.63651C21.8541 8.50642 21.8541 8.40886 21.8541 8.27877C21.8541 7.59582 21.0229 7.23808 20.5434 7.7259Z" fill="#091422"/>
<path d="M18.4029 17.2876C18.6266 16.8973 18.4668 16.442 18.1151 16.2144C17.3159 15.694 16.5167 15.1737 15.7174 14.6208C15.7174 13.385 15.7174 12.1492 15.7174 10.9134C15.7174 9.90518 14.1829 9.90518 14.1829 10.9134C14.1829 12.0516 14.1829 13.1573 14.1829 14.2956C14.1829 14.8485 14.087 15.3688 14.5985 15.7266C15.0461 16.0518 15.4937 16.3119 15.9732 16.6372C16.4527 16.9299 16.9003 17.2551 17.3798 17.5478C17.6995 17.7754 18.1791 17.6128 18.4029 17.2876Z" fill="#091422"/>
</svg>
