<svg width="46" height="47" viewBox="0 0 46 47" fill="none" xmlns="http://www.w3.org/2000/svg">
<path d="M41.2029 18.26V18.4367L41.3696 18.4957C42.6718 18.9563 43.7928 19.8001 44.5774 20.9084C45.3618 22.0166 45.7711 23.3343 45.7492 24.6782C45.7272 26.0221 45.2752 27.3267 44.4549 28.4102C43.6345 29.4938 42.4864 30.3026 41.1697 30.7229L41.017 30.7716L40.9976 30.9307C40.4821 35.1459 38.4481 39.0484 35.2548 41.9449C32.0627 44.8403 27.9187 46.543 23.5576 46.7497L23.034 46.7497L23.0327 46.7497C18.5214 46.7734 14.1634 45.1641 10.8057 42.2362C7.44819 39.3084 5.33097 35.2719 4.86359 30.912L4.84661 30.7537L4.69596 30.7021C3.39462 30.2567 2.26866 29.4297 1.47274 28.3364C0.676891 27.2432 0.25 25.9374 0.25 24.5993C0.25 23.2612 0.676891 21.9554 1.47274 20.8622C2.26866 19.7689 3.39462 18.9419 4.69596 18.4965L4.86395 18.439L4.86501 18.2615C4.89257 13.6427 6.73068 9.20701 10.0062 5.85995C13.281 2.5137 17.7459 0.507865 22.4905 0.253485C24.4824 0.215762 26.4679 0.4845 28.3735 1.04971L28.4083 1.06003H28.4445H28.5456C32.2209 2.17963 35.4312 4.4128 37.7081 7.43251C39.9921 10.4617 41.2167 14.123 41.2029 17.8782V17.8792V18.26ZM23.4554 42.7696L23.4554 42.7696L23.4609 42.7693C26.6742 42.6084 29.7381 41.3952 32.1547 39.3254C34.5715 37.2556 36.1992 34.4504 36.7717 31.365L36.8265 31.0694H36.5259H9.42697H9.12992L9.18064 31.3621C9.74558 34.6223 11.5032 37.5721 14.1271 39.6681C16.7509 41.7639 20.0641 42.865 23.4554 42.7696ZM8.97 17.8681L8.95842 18.1292H9.21975H11.5221C12.0686 18.1292 12.5914 18.3404 12.9758 18.7144C13.36 19.0882 13.5745 19.5937 13.5745 20.1192C13.5745 20.6448 13.36 21.1502 12.9758 21.524C12.5914 21.898 12.0686 22.1093 11.5221 22.1093H6.91738C6.24263 22.1093 5.59418 22.37 5.11502 22.8362C4.63564 23.3026 4.36501 23.9366 4.36501 24.5993C4.36501 25.2619 4.63564 25.896 5.11502 26.3624C5.59418 26.8286 6.24263 27.0893 6.91738 27.0893H39.1506C39.8253 27.0893 40.4738 26.8286 40.9529 26.3624C41.4323 25.896 41.7029 25.2619 41.7029 24.5993C41.7029 23.9366 41.4323 23.3026 40.9529 22.8362C40.4738 22.37 39.8253 22.1093 39.1506 22.1093H34.5458C33.9993 22.1093 33.4765 21.898 33.0921 21.524C32.708 21.1502 32.4935 20.6448 32.4935 20.1192C32.4935 19.5937 32.708 19.0882 33.0921 18.7144C33.4765 18.3404 33.9993 18.1292 34.5458 18.1292H36.8482H37.098L37.0982 17.8794C37.1 16.0446 36.7229 14.2284 35.9894 12.5386C35.256 10.8488 34.1813 9.32003 32.8296 8.04285L32.8296 8.0428L32.825 8.03863C31.9823 7.2813 31.0563 6.61705 30.0638 6.05792L29.6911 5.84795V6.27574V13.3991C29.6911 13.9246 29.4766 14.4301 29.0924 14.8038C28.708 15.1778 28.1852 15.3891 27.6387 15.3891C27.0922 15.3891 26.5694 15.1778 26.185 14.8038C25.8009 14.4301 25.5863 13.9246 25.5863 13.3991V4.6405V4.42784L25.3764 4.39374C24.6032 4.26813 23.8213 4.19966 23.0374 4.18892V4.1889H23.034H22.6196V4.18857L22.6066 4.18923C21.9648 4.22242 21.3254 4.2907 20.6915 4.39374L20.4816 4.42786V4.6405V13.3991C20.4816 13.9246 20.2671 14.4301 19.8829 14.8038C19.4985 15.1778 18.9757 15.3891 18.4292 15.3891C17.8827 15.3891 17.3599 15.1778 16.9755 14.8038C16.5914 14.4301 16.3769 13.9246 16.3769 13.3991V6.34294V5.89813L15.9969 6.12938C13.9359 7.3837 12.2188 9.10751 10.9943 11.1526C9.76983 13.1978 9.07491 15.5026 8.97 17.8681Z" fill="#091422" stroke="#FDECD2" stroke-width="0.5"/>
</svg>
