<svg width="24" height="24" viewBox="0 0 24 24" fill="none" xmlns="http://www.w3.org/2000/svg">
<path d="M21.3776 9.32424V9.50225L21.5458 9.56048C22.2032 9.78805 22.7675 10.2044 23.1616 10.7494C23.5557 11.2942 23.7606 11.9409 23.7496 12.5996C23.7386 13.2582 23.5123 13.8986 23.1001 14.4314C22.6878 14.9644 22.1097 15.3636 21.445 15.5713L21.2914 15.6192L21.2714 15.7789C21.0064 17.9003 19.9603 19.8661 18.3155 21.3263C16.6718 22.7855 14.5367 23.6449 12.2882 23.7499L12.0177 23.7499L12.0164 23.7499C9.68996 23.7618 7.44378 22.9494 5.71433 21.4735C3.9852 19.9978 2.89662 17.9649 2.65635 15.7712L2.63893 15.6122L2.48724 15.5614C1.83034 15.3413 1.26347 14.9332 0.863527 14.3956C0.463723 13.8581 0.25 13.2172 0.25 12.5613C0.25 11.9055 0.463723 11.2646 0.863527 10.7271C1.26348 10.1894 1.83034 9.78134 2.48724 9.56129L2.65674 9.50452L2.65783 9.32576C2.672 7.00118 3.61716 4.76699 5.30421 3.0798C6.99066 1.3932 9.29146 0.380597 11.7383 0.251723C12.7652 0.232887 13.7887 0.368588 14.7709 0.653719L14.8051 0.663631H14.8406H14.8762C16.7641 1.23012 18.4114 2.3543 19.5799 3.87104C20.7553 5.39679 21.3847 7.23967 21.3776 9.12885V9.12979V9.32424ZM12.2408 21.9621L12.2408 21.9621L12.2462 21.9619C13.9474 21.8785 15.5708 21.2498 16.8521 20.1757C18.1337 19.1014 18.9984 17.6442 19.3026 16.0395L19.3588 15.7429H19.057H4.91842H4.62027L4.67225 16.0365C4.97255 17.7326 5.90649 19.2653 7.29809 20.3532C8.68941 21.441 10.445 22.0115 12.2408 21.9621ZM4.56056 9.11847L4.54872 9.37979H4.81031H6.01154C6.26767 9.37979 6.51099 9.47678 6.68855 9.64586C6.86569 9.81454 6.96278 10.0406 6.96278 10.2736C6.96278 10.5066 6.86569 10.7327 6.68855 10.9014C6.51099 11.0705 6.26767 11.1675 6.01154 11.1675H3.60907C3.22802 11.1675 2.86026 11.3115 2.58727 11.5715C2.31386 11.8318 2.15783 12.1876 2.15783 12.5613C2.15783 12.9351 2.31386 13.2909 2.58727 13.5512C2.86026 13.8112 3.22802 13.9552 3.60907 13.9552H20.4264C20.8074 13.9552 21.1752 13.8112 21.4482 13.5512C21.7216 13.2909 21.8776 12.9351 21.8776 12.5613C21.8776 12.1876 21.7216 11.8318 21.4482 11.5715C21.1752 11.3115 20.8074 11.1675 20.4264 11.1675H18.0239C17.7678 11.1675 17.5245 11.0705 17.3469 10.9014C17.1698 10.7327 17.0727 10.5066 17.0727 10.2736C17.0727 10.0406 17.1698 9.81454 17.3469 9.64586C17.5245 9.47679 17.7678 9.37979 18.0239 9.37979H19.2251H19.4749L19.4751 9.13003C19.4761 8.17547 19.2756 7.23078 18.886 6.35217C18.4964 5.47359 17.9257 4.67935 17.2086 4.01623L17.2087 4.01617L17.204 4.01207C16.7577 3.61951 16.2674 3.27533 15.7422 2.9857L15.3714 2.7813V3.20463V6.84208C15.3714 7.07509 15.2743 7.30118 15.0972 7.46986C14.9196 7.63893 14.6763 7.73593 14.4202 7.73593C14.1641 7.73593 13.9208 7.63893 13.7432 7.46986C13.5661 7.30118 13.469 7.07509 13.469 6.84208V2.36962V2.15623L13.2582 2.12272C12.8492 2.05769 12.4357 2.02225 12.0211 2.01669V2.01667H12.0177H11.8015V2.01635L11.7889 2.01699C11.4499 2.03415 11.1121 2.06945 10.7772 2.12272L10.5665 2.15625V2.36962V6.84208C10.5665 7.07509 10.4694 7.30118 10.2923 7.46986C10.1147 7.63893 9.87138 7.73593 9.61525 7.73593C9.35913 7.73593 9.11581 7.63893 8.93825 7.46986C8.76111 7.30118 8.66402 7.07509 8.66402 6.84208V3.23895V2.79905L8.28608 3.02416C7.19459 3.6743 6.28433 4.56834 5.63482 5.63007C4.98526 6.69188 4.61627 7.88913 4.56056 9.11847Z" fill="#091422" stroke="#FDECD2" stroke-width="0.5"/>
</svg>
