<svg width="22" height="21" viewBox="0 0 22 21" fill="none" xmlns="http://www.w3.org/2000/svg">
<path d="M3.78164 0L2.67536 1.10471L4.32143 2.75L5.42614 1.64529L3.78086 0H3.78164ZM18.2191 0L16.5731 1.64529L17.6786 2.75L19.3239 1.1055L18.2184 0H18.2191ZM11 0.490286C10.7407 0.493429 10.4783 0.508357 10.2143 0.540572C10.2064 0.540572 10.1986 0.539 10.1907 0.540572C7.00386 0.905929 4.46757 3.48071 4.02679 6.65343C3.67479 9.207 4.72764 11.5225 6.48214 13.0138C7.19982 13.6263 7.68525 14.4668 7.85714 15.3945V20.1088H9.64857C9.922 20.5779 10.4209 20.8945 11 20.8945C11.5791 20.8945 12.078 20.5779 12.3514 20.1088H14.1429V16.9659H14.2167V16.0325C14.2167 14.8806 14.8154 13.7194 15.7881 12.8166C17.0893 11.5139 18.0714 9.6635 18.0714 7.53814C18.0714 3.65671 14.8767 0.454143 11 0.490286ZM11 2.06171C14.0368 2.01929 16.5 4.50529 16.5 7.53814C16.5 9.18343 15.7379 10.6323 14.6826 11.6867L14.7078 11.7119C13.6592 12.6788 12.9811 13.9816 12.7906 15.3953H9.35393C9.18107 14.0486 8.60357 12.7451 7.51221 11.8101C6.12386 10.6315 5.2965 8.85579 5.57307 6.85064C5.91643 4.37564 7.92471 2.38543 10.3856 2.11279C10.5887 2.08446 10.7934 2.06767 10.9984 2.0625L11 2.06171ZM0 7.53814V9.10957H2.35714V7.53814H0ZM19.6429 7.53814V9.10957H22V7.53814H19.6429ZM4.32143 13.8977L2.67614 15.5422L3.78164 16.6477L5.42536 15.0024L4.32143 13.8977ZM17.6786 13.8977L16.5739 15.0024L18.2184 16.6477L19.3239 15.5422L17.6786 13.8977ZM9.42857 16.9667H12.5714V18.5381H9.42857V16.9667Z" fill="#FDECD2"/>
</svg>
