<svg width="18" height="19" viewBox="0 0 18 19" fill="none" xmlns="http://www.w3.org/2000/svg">
<path fill-rule="evenodd" clip-rule="evenodd" d="M16.5 18.7692C16.5 18.7692 18 18.7692 18 17.2692C18 15.7692 16.5 11.2692 9 11.2692C1.5 11.2692 0 15.7692 0 17.2692C0 18.7692 1.5 18.7692 1.5 18.7692H16.5ZM1.5075 17.3532V17.3502V17.3532ZM1.533 17.2692H16.467C16.474 17.2684 16.481 17.2674 16.488 17.2662L16.5 17.2632C16.4985 16.8942 16.269 15.7842 15.252 14.7672C14.274 13.7892 12.4335 12.7692 9 12.7692C5.565 12.7692 3.726 13.7892 2.748 14.7672C1.731 15.7842 1.503 16.8942 1.5 17.2632C1.51098 17.2653 1.52198 17.2673 1.533 17.2692V17.2692ZM16.494 17.3532V17.3502V17.3532ZM9 8.26923C9.79565 8.26923 10.5587 7.95316 11.1213 7.39055C11.6839 6.82794 12 6.06488 12 5.26923C12 4.47358 11.6839 3.71051 11.1213 3.14791C10.5587 2.5853 9.79565 2.26923 9 2.26923C8.20435 2.26923 7.44129 2.5853 6.87868 3.14791C6.31607 3.71051 6 4.47358 6 5.26923C6 6.06488 6.31607 6.82794 6.87868 7.39055C7.44129 7.95316 8.20435 8.26923 9 8.26923V8.26923ZM13.5 5.26923C13.5 6.4627 13.0259 7.60729 12.182 8.45121C11.3381 9.29512 10.1935 9.76923 9 9.76923C7.80653 9.76923 6.66193 9.29512 5.81802 8.45121C4.97411 7.60729 4.5 6.4627 4.5 5.26923C4.5 4.07575 4.97411 2.93116 5.81802 2.08725C6.66193 1.24333 7.80653 0.769226 9 0.769226C10.1935 0.769226 11.3381 1.24333 12.182 2.08725C13.0259 2.93116 13.5 4.07575 13.5 5.26923V5.26923Z" fill="#091422"/>
</svg>
