<svg width="20" height="19" viewBox="0 0 20 19" fill="none" xmlns="http://www.w3.org/2000/svg">
<path d="M13.2727 12.3333C13.2727 11.4388 10.7085 10.7143 7.54545 10.7143M13.2727 12.3333C13.2727 13.2279 10.7085 13.9524 7.54545 13.9524C4.38236 13.9524 1.81818 13.2279 1.81818 12.3333M13.2727 12.3333V16.33C13.2727 17.252 10.7085 18 7.54545 18C4.38236 18 1.81818 17.2528 1.81818 16.33V12.3333M13.2727 12.3333C16.4015 12.3333 19 11.5343 19 10.7143V2.61905M7.54545 10.7143C4.38236 10.7143 1.81818 11.4388 1.81818 12.3333M7.54545 10.7143C3.93073 10.7143 1 9.91529 1 9.09524V5.04762M1 5.04762C1 4.1531 3.93073 3.42857 7.54545 3.42857V6.66667M1 5.04762C1 5.94214 3.93073 6.66667 7.54545 6.66667M7.54545 6.66667C7.54545 7.48671 10.207 8.28571 13.3357 8.28571C16.4636 8.28571 19 7.48671 19 6.66667M19 2.61905C19 1.72452 16.4636 1 13.3357 1C10.207 1 7.67145 1.72452 7.67145 2.61905M19 2.61905C19 3.51357 16.4636 4.2381 13.3357 4.2381C10.2078 4.2381 7.67145 3.51357 7.67145 2.61905M7.67145 2.61905V10.8487" stroke="#091422" stroke-width="0.7"/>
</svg>
