<svg width="18" height="21" viewBox="0 0 18 21" fill="none" xmlns="http://www.w3.org/2000/svg">
<path d="M8.41673 18.345L8.41701 18.3452L8.96901 18.7812L9 18.8057L9.03099 18.7812L9.58299 18.3452L9.58327 18.345C13.9147 14.8739 16.05 11.7348 16.05 9C16.05 7.13022 15.3072 5.33703 13.9851 4.0149C12.663 2.69277 10.8698 1.95 9 1.95C7.13022 1.95 5.33703 2.69277 4.0149 4.0149C2.69277 5.33703 1.95 7.13022 1.95 9C1.95 11.7348 4.0853 14.8739 8.41673 18.345ZM9 0.05C11.3737 0.05 13.6502 0.992944 15.3286 2.67139C17.0071 4.34984 17.95 6.62631 17.95 9C17.95 12.7004 15.1282 16.5913 9.57 20.76C9.40556 20.8833 9.20555 20.95 9 20.95C8.79445 20.95 8.59444 20.8833 8.43 20.76C2.87176 16.5913 0.05 12.7004 0.05 9C0.05 6.62631 0.992944 4.34984 2.67139 2.67139C4.34984 0.992944 6.62631 0.05 9 0.05ZM9 7.05C9.51717 7.05 10.0132 7.25545 10.3789 7.62114C10.7446 7.98684 10.95 8.48283 10.95 9C10.95 9.51717 10.7446 10.0132 10.3789 10.3789C10.0132 10.7446 9.51717 10.95 9 10.95C8.48283 10.95 7.98684 10.7446 7.62114 10.3789C7.25545 10.0132 7.05 9.51717 7.05 9C7.05 8.48283 7.25545 7.98684 7.62114 7.62114C7.98684 7.25545 8.48283 7.05 9 7.05Z" fill="#091422" stroke="#FDECD2" stroke-width="0.1"/>
</svg>
