<svg width="20" height="21" viewBox="0 0 20 21" fill="none" xmlns="http://www.w3.org/2000/svg">
<path d="M14.8091 13.4553C15.0724 13.3342 15.1682 13.3584 15.3597 13.5522C15.982 14.2548 16.6044 14.9574 17.2267 15.66C17.7054 16.2173 18.2081 16.7503 18.6868 17.3075C19.1416 17.792 19.0937 18.5431 18.5911 19.0276C18.3756 19.2457 18.1363 19.4395 17.8969 19.6575C17.4661 20.0452 16.8916 20.1179 16.4129 19.8029C16.2453 19.706 16.1256 19.5364 15.982 19.391C15.6469 19.0276 15.3118 18.64 14.9767 18.2766C14.2826 17.5013 13.5884 16.7018 12.8703 15.9265C12.6549 15.6843 12.6549 15.5631 12.8464 15.2966C12.7267 15.1513 12.5831 15.0301 12.4634 14.8848C12.3437 14.7636 12.2001 14.6183 12.0565 14.4971C11.8171 14.6183 11.5778 14.7636 11.3145 14.909C10.1416 15.4904 8.92085 15.7085 7.62829 15.6116C6.50329 15.5389 5.47404 15.1997 4.49265 14.6183C3.70276 14.1337 3.03254 13.528 2.45808 12.8012C1.88361 11.9532 1.45276 11.0326 1.21339 10.0635C0.950096 8.97328 0.92616 7.88306 1.16552 6.79283C1.38095 5.77528 1.78786 4.85464 2.38627 4.00668C2.74531 3.49791 3.2001 3.03759 3.70276 2.62572C4.8517 1.68086 6.16819 1.14786 7.62829 1.02672C9.06446 0.905585 10.4049 1.19631 11.6496 1.89891C12.4155 2.31077 13.0618 2.868 13.6363 3.52214C14.6895 4.7335 15.2639 6.13869 15.3836 7.73769C15.5033 9.33669 15.1443 10.8388 14.2826 12.2197C14.2347 12.2924 14.1868 12.3893 14.1389 12.462C14.0193 12.6558 14.0193 12.6316 14.1389 12.8012C14.1389 12.8254 14.1629 12.8254 14.1868 12.8497C14.4022 13.0192 14.5937 13.2373 14.8091 13.4553ZM14.6895 8.31915C14.6895 4.68505 11.7932 1.72931 8.20276 1.75354C4.63627 1.75354 1.69212 4.68505 1.73999 8.34337C1.76393 11.9048 4.63627 14.8848 8.27457 14.8363C11.7932 14.8363 14.6895 11.929 14.6895 8.31915ZM15.0485 14.2791C14.5698 14.7152 14.115 15.127 13.6363 15.5631C13.6602 15.5873 13.6841 15.6116 13.6841 15.6358C14.2826 16.2899 14.857 16.9683 15.4554 17.6224C15.8863 18.107 16.3171 18.5915 16.7719 19.0761C16.9395 19.2457 17.1788 19.2941 17.3703 19.1488C17.6576 18.9065 17.9448 18.64 18.2081 18.3735C18.3756 18.2039 18.3517 17.9859 18.2081 17.792C18.0645 17.6224 17.8969 17.4286 17.7533 17.259C17.0352 16.4353 16.2932 15.6358 15.5512 14.8121C15.3597 14.6425 15.2161 14.4729 15.0485 14.2791ZM14.3065 13.9883C14.0432 13.7218 13.8278 13.4553 13.5884 13.2131C13.3012 13.4796 13.0139 13.7461 12.7267 14.0126C12.9661 14.2548 13.2054 14.5213 13.4448 14.7636C13.732 14.4971 13.9953 14.2548 14.3065 13.9883Z" fill="#091422" stroke="#091422" stroke-width="0.7" stroke-miterlimit="10"/>
</svg>
