<svg width="33" height="34" viewBox="0 0 33 34" fill="none" xmlns="http://www.w3.org/2000/svg">
<path d="M24.7824 21.9774C25.2359 21.7734 25.4008 21.8142 25.7306 22.1406C26.8024 23.3239 27.8742 24.5073 28.946 25.6906C29.7705 26.6291 30.6362 27.5267 31.4606 28.4652C32.2439 29.2813 32.1614 30.5462 31.2957 31.3623C30.9247 31.7296 30.5125 32.056 30.1002 32.4232C29.3582 33.0761 28.3689 33.1985 27.5444 32.668C27.2558 32.5048 27.0497 32.2192 26.8024 31.9744C26.2252 31.3623 25.6481 30.7095 25.071 30.0974C23.8755 28.7917 22.68 27.4451 21.4433 26.1394C21.0723 25.7314 21.0723 25.5274 21.4021 25.0785C21.196 24.8337 20.9486 24.6297 20.7425 24.3848C20.5364 24.1808 20.2891 23.936 20.0417 23.732C19.6295 23.936 19.2173 24.1808 18.7638 24.4256C16.7439 25.4049 14.6415 25.7722 12.4154 25.609C10.4779 25.4866 8.70528 24.9153 7.01512 23.936C5.65475 23.1199 4.50049 22.0998 3.51113 20.8757C2.52177 19.4476 1.77975 17.897 1.36751 16.2649C0.914055 14.4287 0.872831 12.5925 1.28507 10.7563C1.65608 9.04257 2.35688 7.49202 3.38746 6.06389C4.00581 5.207 4.78906 4.43173 5.65475 3.73806C7.63347 2.14671 9.90076 1.24902 12.4154 1.045C14.8888 0.840985 17.1973 1.33063 19.3409 2.51395C20.6601 3.20761 21.7731 4.1461 22.7625 5.24781C24.5763 7.288 25.5657 9.65463 25.7718 12.3477C25.9779 15.0407 25.3596 17.5706 23.8755 19.8964C23.7931 20.0188 23.7106 20.182 23.6282 20.3045C23.4221 20.6309 23.4221 20.5901 23.6282 20.8757C23.6282 20.9165 23.6694 20.9165 23.7106 20.9573C24.0816 21.2429 24.4114 21.6102 24.7824 21.9774ZM24.5763 13.327C24.5763 7.2064 19.5883 2.22832 13.4048 2.26912C7.26246 2.26912 2.19198 7.2064 2.27443 13.3678C2.31565 19.366 7.26246 24.3848 13.5284 24.3032C19.5883 24.3032 24.5763 19.4068 24.5763 13.327ZM25.1947 23.3647C24.3702 24.0992 23.5869 24.7929 22.7625 25.5274C22.8037 25.5682 22.8449 25.609 22.8449 25.6498C23.8755 26.7515 24.8649 27.894 25.8955 28.9957C26.6375 29.8118 27.3795 30.6278 28.1627 31.4439C28.4513 31.7296 28.8635 31.8112 29.1933 31.5663C29.688 31.1583 30.1827 30.7095 30.6362 30.2606C30.9247 29.975 30.8835 29.6077 30.6362 29.2813C30.3888 28.9957 30.1002 28.6693 29.8529 28.3836C28.6162 26.9963 27.3383 25.6498 26.0604 24.2624C25.7306 23.9768 25.4832 23.6912 25.1947 23.3647ZM23.9167 22.8751C23.4633 22.4263 23.0923 21.9774 22.68 21.5694C22.1853 22.0182 21.6907 22.4671 21.196 22.9159C21.6082 23.3239 22.0205 23.7728 22.4327 24.1808C22.9274 23.732 23.3808 23.3239 23.9167 22.8751Z" fill="#091422" stroke="#091422" stroke-width="0.7" stroke-miterlimit="10"/>
</svg>
