<svg width="16" height="13" viewBox="0 0 16 13" fill="none" xmlns="http://www.w3.org/2000/svg">
<path d="M15.5587 0.442594L15.5586 0.442659L15.5617 0.445839C15.6677 0.555021 15.7528 0.688174 15.8113 0.837229C15.8697 0.98629 15.9 1.14763 15.9 1.31099C15.9 1.47434 15.8697 1.63568 15.8113 1.78475C15.7528 1.9338 15.6677 2.06695 15.5617 2.17614L15.5617 2.17608L15.559 2.17908L6.269 12.5571L6.26873 12.5574C6.17159 12.6668 6.05664 12.753 5.93083 12.8115C5.80506 12.8701 5.67064 12.9 5.53519 12.9C5.39975 12.9 5.26532 12.8701 5.13955 12.8115C5.01375 12.753 4.89879 12.6668 4.80165 12.5574L4.80138 12.5571L0.429625 7.67333L0.429636 7.67332L0.428465 7.67205C0.327461 7.56306 0.246139 7.43232 0.189619 7.28705C0.133097 7.14177 0.102624 6.98514 0.100162 6.82617C0.0977002 6.6672 0.123304 6.50944 0.175325 6.36198C0.227344 6.21452 0.304628 6.08061 0.402297 5.96766C0.499948 5.85473 0.615959 5.76507 0.743359 5.70321C0.870717 5.64138 1.00725 5.60838 1.14524 5.60571C1.28324 5.60305 1.42063 5.63075 1.54971 5.68757C1.67856 5.7443 1.79693 5.82909 1.89777 5.93774L5.46058 9.93054L5.53512 10.0141L5.60974 9.9306L14.0914 0.442849L14.0916 0.442594C14.1888 0.333186 14.3037 0.247026 14.4295 0.188473C14.5553 0.12994 14.6897 0.1 14.8252 0.1C14.9606 0.1 15.095 0.12994 15.2208 0.188473C15.3466 0.247026 15.4616 0.333186 15.5587 0.442594Z" fill="#091422" stroke="#FDECD2" stroke-width="0.2"/>
</svg>
