<svg width="22" height="22" viewBox="0 0 22 22" fill="none" xmlns="http://www.w3.org/2000/svg">
<path d="M3.53549 19.8991L3.70592 19.7285L4.72727 18.7057L3.53549 19.8991ZM3.53549 19.8991H3.77668M3.53549 19.8991H3.77668M3.77668 19.8991H11.0155V19.7991M3.77668 19.8991L11.0155 19.7991M11.0155 19.7991L11.0156 19.8991C13.0717 19.8975 15.0637 19.1821 16.6521 17.8747C18.2405 16.5673 19.327 14.7489 19.7267 12.7294C20.1263 10.7098 19.8143 8.61391 18.8438 6.79883C17.8733 4.98374 16.3044 3.56173 14.4042 2.77508C12.5041 1.98844 10.3904 1.88585 8.42313 2.48479C6.45592 3.08374 4.75697 4.34715 3.61573 6.05975C2.47448 7.77235 1.96154 9.82818 2.16426 11.877C2.36698 13.9258 3.27279 15.8408 4.7274 17.2958C4.9133 17.4831 5.01766 17.7365 5.01766 18.0007C5.01766 18.2648 4.91333 18.5182 4.72748 18.7055L11.0155 19.7991ZM0.130961 10.9999V10.9995C0.130961 8.10874 1.27775 5.33639 3.31901 3.29235C4.32974 2.28024 5.52964 1.4774 6.8502 0.929658C8.17076 0.381917 9.58612 0.1 11.0155 0.1C13.9022 0.1 16.6707 1.2483 18.7119 3.29235C20.7532 5.33639 21.9 8.10874 21.9 10.9995C21.9 13.8903 20.7532 16.6626 18.7119 18.7067C16.6707 20.7507 13.9022 21.899 11.0155 21.899H1.12941V21.8989L1.1252 21.8991C0.927539 21.9074 0.731851 21.8568 0.562977 21.7535C0.394586 21.6506 0.260419 21.5 0.177416 21.3207C0.101484 21.139 0.0808177 20.9389 0.118035 20.7455C0.155336 20.5516 0.249108 20.3731 0.387508 20.2326C0.387601 20.2325 0.387695 20.2324 0.387788 20.2323L2.58422 18.0329L2.64833 17.9687L2.59065 17.8986C0.991637 15.9571 0.121446 13.5165 0.130961 10.9999ZM5.52322 9.99956H16.5077C16.7725 9.99956 17.0264 10.1049 17.2137 10.2924C17.401 10.4799 17.5062 10.7343 17.5062 10.9995C17.5062 11.2648 17.401 11.5191 17.2137 11.7066C17.0264 11.8941 16.7725 11.9995 16.5077 11.9995H5.52322C5.25846 11.9995 5.00451 11.8941 4.81726 11.7066C4.63 11.5191 4.52477 11.2648 4.52477 10.9995C4.52477 10.7343 4.63 10.4799 4.81726 10.2924C5.00451 10.1049 5.25846 9.99956 5.52322 9.99956ZM7.01416 14.6922C7.20142 14.5047 7.45536 14.3994 7.72012 14.3994H14.3108C14.5756 14.3994 14.8295 14.5047 15.0168 14.6922C15.2041 14.8797 15.3093 15.1341 15.3093 15.3993C15.3093 15.6646 15.2041 15.9189 15.0168 16.1064C14.8295 16.294 14.5756 16.3993 14.3108 16.3993H7.72012C7.45536 16.3993 7.20142 16.294 7.01416 16.1064C6.8269 15.9189 6.72167 15.6646 6.72167 15.3993C6.72167 15.1341 6.8269 14.8797 7.01416 14.6922ZM14.3108 7.59966H7.72012C7.45536 7.59966 7.20142 7.49434 7.01416 7.30683C6.8269 7.11931 6.72167 6.86495 6.72167 6.59971C6.72167 6.33446 6.8269 6.0801 7.01416 5.89259C7.20142 5.70507 7.45536 5.59976 7.72012 5.59976H14.3108C14.5756 5.59976 14.8295 5.70507 15.0168 5.89259C15.2041 6.0801 15.3093 6.33446 15.3093 6.59971C15.3093 6.86495 15.2041 7.11931 15.0168 7.30683C14.8295 7.49434 14.5756 7.59966 14.3108 7.59966Z" fill="black" stroke="#FDECD2" stroke-width="0.2"/>
</svg>
