<svg width="22" height="22" viewBox="0 0 22 22" fill="none" xmlns="http://www.w3.org/2000/svg">
<path d="M3.53549 19.8991L3.70592 19.7285L4.72727 18.7057L3.53549 19.8991ZM3.53549 19.8991H3.77668M3.53549 19.8991H3.77668M3.77668 19.8991H11.0155V19.7991M3.77668 19.8991L11.0155 19.7991M11.0155 19.7991L11.0156 19.8991C13.0717 19.8975 15.0637 19.1821 16.6521 17.8747C18.2405 16.5673 19.327 14.7489 19.7267 12.7294C20.1263 10.7098 19.8143 8.61391 18.8438 6.79883C17.8733 4.98374 16.3044 3.56173 14.4042 2.77508C12.5041 1.98844 10.3904 1.88585 8.42313 2.48479C6.45592 3.08374 4.75697 4.34715 3.61573 6.05975C2.47448 7.77235 1.96154 9.82818 2.16426 11.877C2.36698 13.9258 3.27279 15.8408 4.7274 17.2958C4.9133 17.4831 5.01766 17.7365 5.01766 18.0007C5.01766 18.2648 4.91333 18.5182 4.72748 18.7055L11.0155 19.7991ZM0.130961 10.9999V10.9995C0.130961 8.10874 1.27775 5.33639 3.31901 3.29235C4.32974 2.28024 5.52964 1.4774 6.8502 0.929658C8.17076 0.381917 9.58612 0.1 11.0155 0.1C13.9022 0.1 16.6707 1.2483 18.7119 3.29235C20.7532 5.33639 21.9 8.10874 21.9 10.9995C21.9 13.8903 20.7532 16.6626 18.7119 18.7067C16.6707 20.7507 13.9022 21.899 11.0155 21.899H1.12941V21.8989L1.1252 21.8991C0.927539 21.9074 0.731851 21.8568 0.562977 21.7535C0.394586 21.6506 0.260419 21.5 0.177416 21.3207C0.101484 21.139 0.0808177 20.9389 0.118035 20.7455C0.155336 20.5516 0.249108 20.3731 0.387508 20.2326C0.387601 20.2325 0.387695 20.2324 0.387788 20.2323L2.58422 18.0329L2.64833 17.9687L2.59065 17.8986C0.991637 15.9571 0.121446 13.5165 0.130961 10.9999ZM12.0139 9.89956V9.99956H12.1139H13.2124C13.4771 9.99956 13.7311 10.1049 13.9183 10.2924C14.1056 10.4799 14.2108 10.7343 14.2108 10.9995C14.2108 11.2648 14.1056 11.5191 13.9183 11.7066C13.7311 11.8941 13.4771 11.9995 13.2124 11.9995H12.1139H12.0139V12.0995V13.1994C12.0139 13.4647 11.9087 13.719 11.7214 13.9065C11.5342 14.094 11.2802 14.1994 11.0155 14.1994C10.7507 14.1994 10.4968 14.094 10.3095 13.9065C10.1223 13.719 10.017 13.4647 10.017 13.1994V12.0995V11.9995H9.91703H8.81858C8.55381 11.9995 8.29987 11.8941 8.11261 11.7066C7.92535 11.5191 7.82012 11.2648 7.82012 10.9995C7.82012 10.7343 7.92535 10.4799 8.11261 10.2924C8.29987 10.1049 8.55381 9.99956 8.81858 9.99956H9.91703H10.017V9.89956V8.79961C10.017 8.53436 10.1223 8.28001 10.3095 8.09249C10.4968 7.90498 10.7507 7.79966 11.0155 7.79966C11.2802 7.79966 11.5342 7.90498 11.7214 8.09249C11.9087 8.28001 12.0139 8.53436 12.0139 8.79961V9.89956Z" fill="black" stroke="#FDECD2" stroke-width="0.2"/>
</svg>
