<svg width="22" height="22" viewBox="0 0 22 22" fill="none" xmlns="http://www.w3.org/2000/svg">
<path d="M21.6092 3.06326L18.9365 0.390783L21.6092 3.06326ZM21.6092 3.06326C21.6092 3.06331 21.6093 3.06336 21.6094 3.06341C21.7955 3.25075 21.9 3.50413 21.9 3.76822C21.9 4.03232 21.7955 4.28569 21.6094 4.47303C21.6093 4.47308 21.6092 4.47314 21.6092 4.47319L15.4714 10.6104C15.4713 10.6105 15.4713 10.6105 15.4713 10.6106C15.3778 10.7032 15.2671 10.7765 15.1453 10.8262C15.0234 10.876 14.893 10.9012 14.7613 10.9004H14.7608H12.0986C11.8334 10.9004 11.579 10.7951 11.3915 10.6076C11.2039 10.42 11.0986 10.1657 11.0986 9.90048L11.0986 7.23858L11.0986 7.23801C11.0978 7.10641 11.123 6.97595 11.1728 6.85412C11.2225 6.73236 11.2958 6.62161 11.3884 6.52821C11.3885 6.52816 11.3885 6.5281 11.3886 6.52804L17.5264 0.390783C17.7138 0.204539 17.9672 0.1 18.2314 0.1C18.4955 0.1 18.7489 0.204461 18.9363 0.390573L21.6092 3.06326ZM14.2987 8.90052H14.3402L14.3694 8.87124L19.4077 3.83344L19.4784 3.76272L19.4077 3.69201L18.3076 2.59205L18.2369 2.52135L18.1662 2.59205L13.128 7.62985L13.0987 7.65914V7.70057V8.80052V8.90052H13.1987H14.2987ZM3.67905 19.7288L3.50504 19.9001H3.7492H9.89851C11.9673 19.9001 13.9514 19.0783 15.4142 17.6156C16.8771 16.1529 17.6989 14.169 17.6989 12.1004C17.6989 11.8352 17.8043 11.5808 17.9918 11.3933C18.1794 11.2058 18.4337 11.1004 18.699 11.1004C18.9642 11.1004 19.2186 11.2058 19.4061 11.3933C19.5937 11.5808 19.699 11.8352 19.699 12.1004C19.699 13.3873 19.4455 14.6616 18.953 15.8505C18.4605 17.0395 17.7386 18.1198 16.8285 19.0298C15.9185 19.9397 14.8381 20.6616 13.649 21.154C12.46 21.6465 11.1855 21.9 9.89851 21.9H1.09856C0.901122 21.899 0.708394 21.8396 0.544664 21.7293C0.380934 21.619 0.253531 21.4626 0.17851 21.28L0.17819 21.2793C0.101607 21.0972 0.0806836 20.8965 0.118059 20.7025C0.155376 20.5088 0.249138 20.3305 0.387542 20.19C0.387761 20.1898 0.38798 20.1895 0.388199 20.1893L2.26798 18.3537L2.33277 18.2904L2.27622 18.2197C1.12531 16.7803 0.403653 15.0455 0.1941 13.2145C-0.015452 11.3836 0.295591 9.53061 1.09152 7.8684C1.88746 6.20618 3.13602 4.80208 4.69388 3.81726C6.25168 2.83249 8.05562 2.30688 9.89862 2.30078C10.1638 2.30081 10.4181 2.40617 10.6057 2.59367C10.7932 2.7812 10.8986 3.03554 10.8986 3.30074C10.8986 3.56594 10.7932 3.82028 10.6057 4.00781C10.4181 4.19534 10.1637 4.3007 9.89852 4.3007C8.35567 4.30059 6.84743 4.75797 5.56456 5.615C4.28169 6.47203 3.2818 7.69022 2.69136 9.1155C2.10092 10.5408 1.94645 12.1091 2.24748 13.6222C2.5485 15.1353 3.29151 16.5251 4.38253 17.6159L4.38282 17.6162C4.47655 17.7091 4.55095 17.8197 4.60172 17.9416C4.65249 18.0634 4.67863 18.1941 4.67863 18.3261C4.67863 18.4582 4.65249 18.5889 4.60172 18.7107C4.55097 18.8325 4.47661 18.9431 4.38293 19.036C4.38289 19.036 4.38285 19.0361 4.38282 19.0361L3.67905 19.7288Z" fill="black" stroke="#FDECD2" stroke-width="0.2"/>
</svg>
