<svg width="21" height="21" viewBox="0 0 21 21" fill="none" xmlns="http://www.w3.org/2000/svg">
<path d="M19.95 12.6C19.6715 12.6 19.4044 12.7106 19.2075 12.9075C19.0106 13.1045 18.9 13.3715 18.9 13.65V17.85C18.9 18.1285 18.7894 18.3955 18.5925 18.5925C18.3955 18.7894 18.1285 18.9 17.85 18.9H3.15C2.87152 18.9 2.60445 18.7894 2.40754 18.5925C2.21062 18.3955 2.1 18.1285 2.1 17.85V13.65C2.1 13.3715 1.98938 13.1045 1.79246 12.9075C1.59555 12.7106 1.32848 12.6 1.05 12.6C0.771523 12.6 0.504451 12.7106 0.307538 12.9075C0.110625 13.1045 0 13.3715 0 13.65V17.85C0 18.6854 0.331874 19.4866 0.922614 20.0774C1.51335 20.6681 2.31457 21 3.15 21H17.85C18.6854 21 19.4866 20.6681 20.0774 20.0774C20.6681 19.4866 21 18.6854 21 17.85V13.65C21 13.3715 20.8894 13.1045 20.6925 12.9075C20.4955 12.7106 20.2285 12.6 19.95 12.6ZM9.7545 14.3955C9.85436 14.4911 9.97211 14.566 10.101 14.616C10.2267 14.6715 10.3626 14.7002 10.5 14.7002C10.6374 14.7002 10.7733 14.6715 10.899 14.616C11.0279 14.566 11.1456 14.4911 11.2455 14.3955L15.4455 10.1955C15.6432 9.99778 15.7543 9.72962 15.7543 9.45C15.7543 9.17038 15.6432 8.90222 15.4455 8.7045C15.2478 8.50678 14.9796 8.3957 14.7 8.3957C14.4204 8.3957 14.1522 8.50678 13.9545 8.7045L11.55 11.1195V1.05C11.55 0.771523 11.4394 0.504451 11.2425 0.307538C11.0455 0.110625 10.7785 0 10.5 0C10.2215 0 9.95445 0.110625 9.75754 0.307538C9.56062 0.504451 9.45 0.771523 9.45 1.05V11.1195L7.0455 8.7045C6.9476 8.6066 6.83137 8.52894 6.70346 8.47596C6.57555 8.42297 6.43845 8.3957 6.3 8.3957C6.16155 8.3957 6.02445 8.42297 5.89654 8.47596C5.76863 8.52894 5.6524 8.6066 5.5545 8.7045C5.4566 8.8024 5.37894 8.91862 5.32596 9.04654C5.27297 9.17445 5.2457 9.31155 5.2457 9.45C5.2457 9.58845 5.27297 9.72555 5.32596 9.85346C5.37894 9.98137 5.4566 10.0976 5.5545 10.1955L9.7545 14.3955Z" fill="black"/>
</svg>
