<svg width="22" height="23" viewBox="0 0 22 23" fill="none" xmlns="http://www.w3.org/2000/svg">
<path d="M11 22.2188C4.9247 22.2188 0 17.2941 0 11.2188C0 5.14345 4.9247 0.21875 11 0.21875C17.0753 0.21875 22 5.14345 22 11.2188C22 17.2941 17.0753 22.2188 11 22.2188ZM11 20.0188C13.3339 20.0188 15.5722 19.0916 17.2225 17.4413C18.8729 15.791 19.8 13.5527 19.8 11.2188C19.8 8.88484 18.8729 6.64653 17.2225 4.99621C15.5722 3.34589 13.3339 2.41875 11 2.41875C8.66609 2.41875 6.42778 3.34589 4.77746 4.99621C3.12714 6.64653 2.2 8.88484 2.2 11.2188C2.2 13.5527 3.12714 15.791 4.77746 17.4413C6.42778 19.0916 8.66609 20.0188 11 20.0188ZM5.5 10.6687L15.4 6.81875L11.55 16.721L9.9 12.3188L5.5 10.6687Z" fill="#FDECD2"/>
</svg>
