<svg width="21" height="24" viewBox="0 0 21 24" fill="none" xmlns="http://www.w3.org/2000/svg">
<path d="M21 6.67365C20.9929 6.64184 20.9929 6.60894 21 6.57713C20.994 6.54928 20.994 6.52052 21 6.49267V6.38408L20.9254 6.2031C20.8951 6.15372 20.8574 6.10899 20.8135 6.07038L20.7016 5.97386H20.6394L15.7398 2.96955L11.1139 0.194483C11.0068 0.112112 10.8844 0.0506503 10.7532 0.0135003H10.6538C10.5426 -0.00450009 10.4291 -0.00450009 10.318 0.0135003H10.1936C10.0492 0.0444992 9.9107 0.0974351 9.78328 0.170352L0.494039 5.78081L0.382121 5.86527L0.270202 5.96179L0.145848 6.04625L0.0836716 6.11864L0.00905897 6.29962V6.48061C-0.00301966 6.56062 -0.00301966 6.64191 0.00905897 6.72192V17.2551C0.00863607 17.4601 0.0620787 17.6619 0.164341 17.8414C0.266604 18.0208 0.414312 18.172 0.593522 18.2807L9.92007 23.8791L10.1066 23.9514H10.2061C10.4165 24.0162 10.6423 24.0162 10.8527 23.9514H10.9522L11.1387 23.8791L20.3907 18.3651C20.5699 18.2564 20.7176 18.1052 20.8198 17.9258C20.9221 17.7464 20.9756 17.5446 20.9751 17.3396V6.80637C20.9751 6.80637 21 6.72192 21 6.67365ZM10.4424 2.63171L12.6559 3.95892L5.70447 8.13358L3.47853 6.80637L10.4424 2.63171ZM9.19881 20.73L2.35935 16.676V8.9661L9.19881 13.0684V20.73ZM10.4424 10.9448L8.06719 9.55731L15.0186 5.37058L17.4062 6.80637L10.4424 10.9448ZM18.5254 16.6398L11.6859 20.7662V13.0684L18.5254 8.9661V16.6398Z" fill="#091422"/>
</svg>
