<svg width="19" height="24" viewBox="0 0 19 24" fill="none" xmlns="http://www.w3.org/2000/svg">
<path d="M18.8283 2.43582C18.6848 2.00597 18.3978 1.57612 18.1108 1.14627C17.752 0.78806 17.3932 0.501493 16.8909 0.286567C16.4604 0.0716418 15.9581 0 15.4558 0H3.54422C3.04192 0 2.53963 0.0716418 2.10909 0.286567C1.67855 0.501493 1.24801 0.859701 0.889228 1.21791C0.602202 1.57612 0.315176 2.00597 0.171663 2.43582C0.0281504 2.93731 -0.043606 3.43881 0.0281504 3.86866L1.96557 20.9194C2.03733 21.7791 2.46787 22.5672 3.11368 23.1403C3.75949 23.7134 4.62056 24 5.48164 24H13.5184C14.3794 24 15.2405 23.7134 15.8863 23.1403C16.5321 22.5672 16.9627 21.7791 17.0344 20.9194L18.9719 3.86866C19.0436 3.43881 18.9718 2.93731 18.8283 2.43582ZM16.1733 9.6L14.8817 20.7045C14.81 21.0627 14.6665 21.3493 14.3794 21.5642C14.0924 21.7791 13.8771 21.9224 13.4466 21.9224H5.5534C5.0511 21.9224 4.83583 21.7791 4.62056 21.5642C4.33354 21.3493 4.11827 21.0627 4.11827 20.7045L2.82665 9.6V9.38507H16.2451L16.1733 9.6ZM16.8192 3.65373L16.3886 7.16418V7.30746H2.53963V7.16418L2.18084 3.65373C2.18084 3.58209 2.18084 3.58209 2.18084 3.51045C2.18084 3.36716 2.18084 3.22388 2.2526 3.0806C2.2526 2.86567 2.39611 2.72239 2.53963 2.5791C2.68314 2.43582 2.82665 2.29254 3.04192 2.2209C3.25719 2.14925 3.4007 2.14925 3.54422 2.14925H15.384C15.5993 2.14925 15.8146 2.2209 15.9581 2.29254C16.1016 2.36418 16.3169 2.50746 16.4604 2.65075C16.6039 2.79403 16.6756 3.00896 16.7474 3.15224C16.8192 3.29552 16.8909 3.43881 16.8192 3.65373ZM12.0115 18.8418C12.2985 18.8418 12.5855 18.6985 12.729 18.5552C12.9443 18.3403 13.0161 18.1254 13.0161 17.8388V12.9672C13.0161 12.6806 12.8726 12.394 12.729 12.2507C12.5138 12.0358 12.2985 11.9642 12.0115 11.9642C11.7244 11.9642 11.4374 12.0358 11.2939 12.2507C11.0786 12.4657 11.0069 12.6806 11.0069 12.9672V17.7672C11.0069 18.0537 11.1504 18.3403 11.2939 18.4836C11.4374 18.6985 11.7244 18.8418 12.0115 18.8418ZM6.98852 18.8418C7.27555 18.8418 7.56258 18.6985 7.77785 18.5552C7.99311 18.3403 8.06487 18.1254 8.06487 17.8388V12.9672C8.06487 12.6806 7.99311 12.394 7.77785 12.2507C7.56258 12.0358 7.27555 11.9642 6.98852 11.9642C6.7015 11.9642 6.41447 12.0358 6.27096 12.2507C6.05569 12.4657 5.98393 12.6806 5.98393 12.9672V17.7672C5.98393 18.0537 6.12745 18.3403 6.27096 18.4836C6.48623 18.6985 6.7015 18.8418 6.98852 18.8418Z" fill="#091422"/>
</svg>
