<svg width="26" height="24" viewBox="0 0 26 24" fill="none" xmlns="http://www.w3.org/2000/svg">
<path d="M17.3636 15.6667C17.3636 14.509 13.9447 13.5714 9.72727 13.5714M17.3636 15.6667C17.3636 16.8243 13.9447 17.7619 9.72727 17.7619C5.50982 17.7619 2.09091 16.8243 2.09091 15.6667M17.3636 15.6667V20.8388C17.3636 22.032 13.9447 23 9.72727 23C5.50982 23 2.09091 22.033 2.09091 20.8388V15.6667M17.3636 15.6667C21.5353 15.6667 25 14.6327 25 13.5714V3.09524M9.72727 13.5714C5.50982 13.5714 2.09091 14.509 2.09091 15.6667M9.72727 13.5714C4.90764 13.5714 1 12.5374 1 11.4762V6.2381M1 6.2381C1 5.08048 4.90764 4.14286 9.72727 4.14286V8.33333M1 6.2381C1 7.39571 4.90764 8.33333 9.72727 8.33333M9.72727 8.33333C9.72727 9.39457 13.276 10.4286 17.4476 10.4286C21.6182 10.4286 25 9.39457 25 8.33333M25 3.09524C25 1.93762 21.6182 1 17.4476 1C13.276 1 9.89527 1.93762 9.89527 3.09524M25 3.09524C25 4.25286 21.6182 5.19048 17.4476 5.19048C13.2771 5.19048 9.89527 4.25286 9.89527 3.09524M9.89527 3.09524V13.7453" stroke="#091422" stroke-width="1.8"/>
</svg>
