<svg width="23" height="24" viewBox="0 0 23 24" fill="none" xmlns="http://www.w3.org/2000/svg">
<path d="M16.0104 13.4135L16.0047 13.4112C15.9318 13.3802 15.8612 13.3445 15.7871 13.3158C16.6136 12.6719 17.282 11.8498 17.7419 10.9115C18.2017 9.97314 18.4409 8.94321 18.4414 7.89952C18.4385 7.65721 18.4212 7.41529 18.3893 7.17505C18.4071 7.12932 18.4218 7.08245 18.4333 7.03475L18.7584 4.27832C18.8598 3.40726 18.6244 2.53044 18.0998 1.82542C17.5752 1.1204 16.8006 0.639881 15.9329 0.481174L15.0189 0.31673C12.692 -0.105577 10.3075 -0.105577 7.98063 0.31673L7.06542 0.481174C6.19772 0.639881 5.42313 1.1204 4.89852 1.82542C4.37391 2.53044 4.1385 3.40726 4.23995 4.27832L4.56391 7.03475C4.57575 7.08248 4.59083 7.12935 4.60904 7.17505C4.57718 7.41529 4.55979 7.65721 4.55697 7.89952C4.55746 8.94321 4.79666 9.97314 5.25648 10.9115C5.7163 11.8498 6.38472 12.6719 7.2112 13.3158C7.13715 13.3445 7.06658 13.3802 6.99368 13.4112L6.9879 13.4135C5.09376 14.2049 3.44727 15.4857 2.21938 17.123C0.991498 18.7604 0.22698 20.6945 0.00520692 22.7247C-0.0236008 23.0256 0.0679235 23.3256 0.259982 23.5599C0.45204 23.7943 0.729192 23.944 1.03149 23.9768C1.33378 24.0096 1.63691 23.9228 1.87531 23.7352C2.11371 23.5476 2.26821 23.2742 2.30539 22.9742C2.46821 21.4817 2.99845 20.052 3.84923 18.8116C4.70002 17.5711 5.84515 16.558 7.18344 15.8618L10.6811 19.3381C10.8981 19.5537 11.1924 19.6748 11.4992 19.6748C11.806 19.6748 12.1002 19.5537 12.3172 19.3381L15.8149 15.8618C17.1532 16.558 18.2983 17.5711 19.1491 18.8116C19.9999 20.052 20.5301 21.4817 20.6929 22.9742C20.7237 23.2556 20.8578 23.5159 21.0696 23.7051C21.2814 23.8944 21.5559 23.9994 21.8407 24C21.8832 23.9999 21.9257 23.9976 21.968 23.9931C22.1191 23.9768 22.2655 23.931 22.3989 23.8584C22.5322 23.7858 22.6498 23.6878 22.745 23.57C22.8402 23.4522 22.9111 23.317 22.9537 23.1719C22.9963 23.0269 23.0097 22.8749 22.9931 22.7247C22.7712 20.6944 22.0066 18.7602 20.7785 17.1228C19.5504 15.4855 17.9036 14.2047 16.0093 13.4135H16.0104ZM6.53781 4.00923C6.5042 3.719 6.58277 3.42692 6.75762 3.19208C6.93248 2.95724 7.19055 2.79718 7.47964 2.74428L8.39369 2.57984C10.447 2.20689 12.5513 2.20689 14.6046 2.57984L15.5187 2.74428C15.8078 2.79718 16.0659 2.95724 16.2407 3.19208C16.4156 3.42692 16.4941 3.719 16.4605 4.00923L16.2546 5.75026H6.74376L6.53781 4.00923ZM11.4992 16.9002L9.59006 15.0016C10.8484 14.7327 12.1499 14.7327 13.4083 15.0016L11.4992 16.9002ZM11.4992 12.5005C10.2982 12.4991 9.14463 12.0343 8.28169 11.2041C7.41876 10.3739 6.91383 9.24313 6.87335 8.05016H16.125C16.0845 9.24313 15.5796 10.3739 14.7166 11.2041C13.8537 12.0343 12.7002 12.4991 11.4992 12.5005Z" fill="#091422"/>
</svg>
