<svg width="17" height="24" viewBox="0 0 17 24" fill="none" xmlns="http://www.w3.org/2000/svg">
<path d="M7.65 0.00157969C7.84894 0.00151282 8.04161 0.0718071 8.19444 0.200221C8.34727 0.328635 8.45059 0.507032 8.4864 0.704345L8.5 0.85861V6.00079C8.5002 6.98865 8.16188 7.94624 7.54231 8.71149C6.92274 9.47675 6.05996 10.0027 5.1 10.2002V23.1414C5.10039 23.3556 5.02124 23.5621 4.87814 23.7204C4.73503 23.8786 4.53834 23.9771 4.3268 23.9965C4.11526 24.0158 3.9042 23.9546 3.73519 23.8249C3.56617 23.6952 3.45144 23.5064 3.4136 23.2957L3.4 23.1414V10.2002C2.48908 10.0124 1.66434 9.52866 1.0521 8.82313C0.439862 8.1176 0.0738768 7.22916 0.0102015 6.29389L1.44192e-06 6.00079V0.85861C-0.00038958 0.644445 0.0787608 0.437893 0.221866 0.279629C0.364971 0.121365 0.561658 0.0228582 0.773198 0.00350736C0.984738 -0.0158435 1.1958 0.0453639 1.36482 0.175076C1.53383 0.304789 1.64856 0.493606 1.6864 0.704345L1.7 0.85861V6.00079C1.69972 6.53271 1.86308 7.05162 2.16755 7.48601C2.47202 7.9204 2.90262 8.24888 3.4 8.42619V0.85861C3.39961 0.644445 3.47876 0.437893 3.62187 0.279629C3.76497 0.121365 3.96166 0.0228582 4.1732 0.00350736C4.38474 -0.0158435 4.5958 0.0453639 4.76481 0.175076C4.93383 0.304789 5.04856 0.493606 5.0864 0.704345L5.1 0.85861V8.42447C6.0146 8.0988 6.6895 7.26234 6.7881 6.25619L6.8 6.00079V0.85861C6.8 0.631311 6.88955 0.413322 7.04896 0.252598C7.20836 0.0918738 7.42457 0.00157969 7.65 0.00157969ZM16.15 0.00157969C16.3489 0.00151282 16.5416 0.0718071 16.6944 0.200221C16.8473 0.328635 16.9506 0.507032 16.9864 0.704345L17 0.85861V23.1414C17.0004 23.3556 16.9212 23.5621 16.7781 23.7204C16.635 23.8786 16.4383 23.9771 16.2268 23.9965C16.0153 24.0158 15.8042 23.9546 15.6352 23.8249C15.4662 23.6952 15.3514 23.5064 15.3136 23.2957L15.3 23.1414V13.7141H12.75C12.5511 13.7141 12.3584 13.6438 12.2056 13.5154C12.0527 13.387 11.9494 13.2086 11.9136 13.0113L11.9 12.857V4.28673C11.9 3.15024 12.3478 2.06029 13.1448 1.25667C13.9418 0.45305 15.0228 0.00157969 16.15 0.00157969ZM15.3 12V1.86134C14.3854 2.18701 13.7105 3.02347 13.6119 4.03134L13.6 4.28673V12H15.3Z" fill="#091422"/>
</svg>
