<svg width="25" height="24" viewBox="0 0 25 24" fill="none" xmlns="http://www.w3.org/2000/svg">
<path d="M15 7.2H16.25C16.5815 7.2 16.8995 7.07357 17.1339 6.84853C17.3683 6.62348 17.5 6.31826 17.5 6C17.5 5.68174 17.3683 5.37652 17.1339 5.15147C16.8995 4.92643 16.5815 4.8 16.25 4.8H15C14.6685 4.8 14.3505 4.92643 14.1161 5.15147C13.8817 5.37652 13.75 5.68174 13.75 6C13.75 6.31826 13.8817 6.62348 14.1161 6.84853C14.3505 7.07357 14.6685 7.2 15 7.2V7.2ZM15 12H16.25C16.5815 12 16.8995 11.8736 17.1339 11.6485C17.3683 11.4235 17.5 11.1183 17.5 10.8C17.5 10.4817 17.3683 10.1765 17.1339 9.95147C16.8995 9.72643 16.5815 9.6 16.25 9.6H15C14.6685 9.6 14.3505 9.72643 14.1161 9.95147C13.8817 10.1765 13.75 10.4817 13.75 10.8C13.75 11.1183 13.8817 11.4235 14.1161 11.6485C14.3505 11.8736 14.6685 12 15 12V12ZM8.75 7.2H10C10.3315 7.2 10.6495 7.07357 10.8839 6.84853C11.1183 6.62348 11.25 6.31826 11.25 6C11.25 5.68174 11.1183 5.37652 10.8839 5.15147C10.6495 4.92643 10.3315 4.8 10 4.8H8.75C8.41848 4.8 8.10054 4.92643 7.86612 5.15147C7.6317 5.37652 7.5 5.68174 7.5 6C7.5 6.31826 7.6317 6.62348 7.86612 6.84853C8.10054 7.07357 8.41848 7.2 8.75 7.2V7.2ZM8.75 12H10C10.3315 12 10.6495 11.8736 10.8839 11.6485C11.1183 11.4235 11.25 11.1183 11.25 10.8C11.25 10.4817 11.1183 10.1765 10.8839 9.95147C10.6495 9.72643 10.3315 9.6 10 9.6H8.75C8.41848 9.6 8.10054 9.72643 7.86612 9.95147C7.6317 10.1765 7.5 10.4817 7.5 10.8C7.5 11.1183 7.6317 11.4235 7.86612 11.6485C8.10054 11.8736 8.41848 12 8.75 12V12ZM23.75 21.6H22.5V1.2C22.5 0.88174 22.3683 0.576515 22.1339 0.351472C21.8995 0.126428 21.5815 0 21.25 0H3.75C3.41848 0 3.10054 0.126428 2.86612 0.351472C2.6317 0.576515 2.5 0.88174 2.5 1.2V21.6H1.25C0.918479 21.6 0.600537 21.7264 0.366116 21.9515C0.131696 22.1765 0 22.4817 0 22.8C0 23.1183 0.131696 23.4235 0.366116 23.6485C0.600537 23.8736 0.918479 24 1.25 24H23.75C24.0815 24 24.3995 23.8736 24.6339 23.6485C24.8683 23.4235 25 23.1183 25 22.8C25 22.4817 24.8683 22.1765 24.6339 21.9515C24.3995 21.7264 24.0815 21.6 23.75 21.6ZM13.75 21.6H11.25V16.8H13.75V21.6ZM20 21.6H16.25V15.6C16.25 15.2817 16.1183 14.9765 15.8839 14.7515C15.6495 14.5264 15.3315 14.4 15 14.4H10C9.66848 14.4 9.35054 14.5264 9.11612 14.7515C8.8817 14.9765 8.75 15.2817 8.75 15.6V21.6H5V2.4H20V21.6Z" fill="#091422"/>
</svg>
