<svg width="22" height="24" viewBox="0 0 22 24" fill="none" xmlns="http://www.w3.org/2000/svg">
<path d="M10.2211 21.1943L10.2231 21.1958L10.8539 21.6941L11.0709 21.8654L11.2878 21.6941L11.9187 21.1958L11.9206 21.1943C16.8792 17.2205 19.4209 13.5563 19.4209 10.2857C19.4209 8.07116 18.5411 5.9473 16.9752 4.38137C15.4093 2.81544 13.2854 1.93571 11.0709 1.93571C8.85631 1.93571 6.73246 2.81544 5.16653 4.38137C3.6006 5.9473 2.72087 8.07116 2.72087 10.2857C2.72087 13.5563 5.26251 17.2205 10.2211 21.1943ZM11.0709 0.35C13.706 0.35 16.2332 1.3968 18.0965 3.2601C19.9598 5.12341 21.0066 7.6506 21.0066 10.2857C21.0066 14.3649 17.8886 18.7349 11.5466 23.4914C11.4093 23.5944 11.2424 23.65 11.0709 23.65C10.8993 23.65 10.7324 23.5944 10.5952 23.4914C4.25317 18.7349 1.13516 14.3649 1.13516 10.2857C1.13516 7.6506 2.18195 5.12341 4.04526 3.2601C5.90857 1.3968 8.43575 0.35 11.0709 0.35ZM11.0709 8.35C11.5843 8.35 12.0766 8.55394 12.4396 8.91696C12.8026 9.27998 13.0066 9.77233 13.0066 10.2857C13.0066 10.7991 12.8026 11.2915 12.4396 11.6545C12.0766 12.0175 11.5843 12.2214 11.0709 12.2214C10.5575 12.2214 10.0651 12.0175 9.70211 11.6545C9.3391 11.2915 9.13516 10.7991 9.13516 10.2857C9.13516 9.77233 9.3391 9.27998 9.70211 8.91696C10.0651 8.55394 10.5575 8.35 11.0709 8.35Z" fill="#091422" stroke="#091422" stroke-width="0.7"/>
</svg>
