<svg width="121" height="121" viewBox="0 0 121 121" fill="none" xmlns="http://www.w3.org/2000/svg">
<path d="M18.2862 50.429L18.7948 46.9641L6.25562 50.4501L5.77421 53.73L16.7852 60.6554L17.2839 57.2578L15.1322 55.9969L15.8629 51.0183L18.2862 50.429ZM12.8197 54.661L9.27425 52.5942L13.2641 51.6334L12.8197 54.661Z" fill="black"/>
<path d="M21.7244 41.6639C22.6318 39.6674 22.6359 37.7273 21.7986 36.077L19.148 37.2252C19.6588 38.279 19.7278 39.3187 19.2566 40.3556C18.4477 42.1355 16.6469 42.8109 14.7897 41.9669C12.9325 41.1228 12.2571 39.322 13.0659 37.5422C13.5372 36.5053 14.3658 35.8735 15.4955 35.5653L14.6174 32.8134C12.8236 33.268 11.3647 34.547 10.4574 36.5435C8.89594 39.9793 10.0865 43.5641 13.383 45.0622C16.6795 46.5604 20.163 45.0997 21.7244 41.6639Z" fill="black"/>
<path d="M27.9856 32.0741C29.3891 30.3855 29.9054 28.5127 29.5326 26.6978L26.6694 27.1068C26.8845 28.2594 26.6766 29.2818 25.9476 30.1589C24.6964 31.6642 22.7788 31.841 21.208 30.5354C19.6372 29.2298 19.4604 27.3122 20.7116 25.8069C21.4406 24.9298 22.4077 24.5385 23.5802 24.5392L23.4588 21.6495C21.6063 21.6148 19.8596 22.4648 18.456 24.1534C16.0407 27.0594 16.2438 30.836 19.032 33.1534C21.8202 35.4708 25.5702 34.9801 27.9856 32.0741Z" fill="black"/>
<path d="M36.5806 24.4729C39.7413 22.3405 40.6033 18.5967 38.6041 15.6336C36.6049 12.6705 32.8107 12.0684 29.6501 14.2009C26.4894 16.3333 25.6274 20.0771 27.6266 23.0402C29.6258 26.0033 33.42 26.6054 36.5806 24.4729ZM35.0194 22.1589C33.5237 23.168 31.6005 22.8435 30.4486 21.1362C29.2966 19.4289 29.7157 17.524 31.2114 16.5149C32.707 15.5058 34.6302 15.8303 35.7821 17.5376C36.9341 19.2449 36.515 21.1498 35.0194 22.1589Z" fill="black"/>
<path d="M48.3009 19.0679C51.6792 18.0826 53.1133 15.5925 52.1185 12.1816L50.2716 5.84942L47.0892 6.77762L48.9075 13.0119C49.4787 14.9703 48.8912 15.9916 47.5529 16.3819C46.1984 16.777 45.1539 16.2317 44.5827 14.2733L42.7644 8.03902L39.533 8.9815L41.3799 15.3137C42.3747 18.7245 44.9227 20.0533 48.3009 19.0679Z" fill="black"/>
<path d="M63.3816 5.28088L63.2548 11.6219L58.1286 5.17582L55.3576 5.1204L55.1196 17.0204L58.4176 17.0864L58.5444 10.7454L63.6706 17.1914L66.4416 17.2468L66.6796 5.34684L63.3816 5.28088Z" fill="black"/>
<path d="M70.5016 18.2889L73.7391 19.2099L76.2649 10.3312L79.7641 11.3266L80.4944 8.75947L70.2422 5.84292L69.5119 8.41006L73.0274 9.41016L70.5016 18.2889Z" fill="black"/>
<path d="M102.66 51.7848L103.603 55.1573L113.643 46.876L112.75 43.6836L99.8751 41.831L100.8 45.138L103.279 45.4155L104.634 50.2614L102.66 51.7848ZM105.935 45.6964L110.014 46.1438L106.759 48.6432L105.935 45.6964Z" fill="black"/>
<path d="M103.195 64.7782L103.09 68.2802L115.148 63.3672L115.247 60.0522L103.505 54.4422L103.402 57.8762L105.686 58.8805L105.535 63.9125L103.195 64.7782ZM108.138 59.941L111.9 61.5852L108.047 63.001L108.138 59.941Z" fill="black"/>
<path d="M111.666 79.8846L105.642 77.8555L113.347 74.8942L114.234 72.2618L102.929 68.4538L101.873 71.5869L107.897 73.616L100.192 76.5772L99.3055 79.2097L110.611 83.0177L111.666 79.8846Z" fill="black"/>
<path d="M90.3316 91.6665L99.8121 98.859L101.493 96.6562L98.5088 89.2461L106.506 90.0884L108.187 87.8856L98.7269 80.6661L96.8395 83.1391L101.718 86.8624L95.9258 86.2698L95.0182 87.459L97.243 93.0063L92.2087 89.207L90.3316 91.6665Z" fill="black"/>
<path d="M81.6496 97.5825L78.7429 99.5436L89.781 106.469L92.5325 104.613L90.2285 91.7943L87.3783 93.7174L87.8969 96.1599L83.7204 98.9779L81.6496 97.5825ZM88.4685 98.7722L89.3311 102.79L85.9287 100.486L88.4685 98.7722Z" fill="black"/>
<path d="M70.8298 101.908L67.1072 103.104L74.0068 107.851L70.9897 114.355L74.5181 113.222L77.3913 107.103L78.9044 111.813L82.0767 110.794L78.4369 99.4638L75.2646 100.483L76.1745 103.315L75.3876 104.979L70.8298 101.908Z" fill="black"/>
<path d="M63.679 105.638L63.7878 107.814L58.5008 108.079L58.6266 110.595L63.9136 110.33L64.0139 112.336L58.0129 112.636L58.143 115.237L67.476 114.771L66.881 102.871L57.327 103.348L57.457 105.949L63.679 105.638Z" fill="black"/>
<path d="M45.7847 112.977L47.1797 106.826L50.8801 114.133L53.5679 114.742L56.1859 103.199L52.9869 102.474L51.5919 108.625L47.8915 101.318L45.2036 100.708L42.5856 112.251L45.7847 112.977Z" fill="black"/>
</svg>
