<svg width="121" height="121" viewBox="0 0 121 121" fill="none" xmlns="http://www.w3.org/2000/svg">
<path d="M12.1543 49.3298C11.7776 48.2453 10.9511 47.5427 9.82361 47.3808C8.00625 47.1199 6.52676 48.4532 6.08224 51.5495L5.21735 57.5737L16.9966 59.2648L17.9098 52.904C18.364 49.7405 17.4108 47.8862 15.3747 47.5939C13.9443 47.3885 12.8163 48.0681 12.1543 49.3298ZM8.42575 52.3325C8.5852 51.2218 9.05437 50.7053 9.79478 50.8116C10.552 50.9203 10.8569 51.548 10.6975 52.6586L10.3689 54.9471L8.09719 54.621L8.42575 52.3325ZM15.4648 52.8278L15.0638 55.6212L12.6743 55.2781L13.0753 52.4847C13.2396 51.3405 13.7136 50.7903 14.5213 50.9062C15.329 51.0222 15.6291 51.6835 15.4648 52.8278Z" fill="black"/>
<path d="M18.033 43.0077L16.0387 42.1372L18.1536 37.2917L15.8477 36.2852L13.7328 41.1307L11.8943 40.3283L14.2948 34.8284L11.911 33.7879L8.17754 42.3416L19.0839 47.1019L22.9058 38.3457L20.522 37.3052L18.033 43.0077Z" fill="black"/>
<path d="M19.5798 23.2893L23.5816 30.668L15.5324 28.3812L13.2769 31.2188L25.7103 34.6321L27.7656 32.0464L21.6456 20.6904L19.5798 23.2893Z" fill="black"/>
<path d="M32.3412 24.2556L31.0574 22.5148L35.287 19.3955L33.8025 17.3827L29.5729 20.502L28.3894 18.8972L33.1902 15.3566L31.6556 13.2758L24.1892 18.7823L31.2102 28.3023L38.8534 22.6654L37.3188 20.5846L32.3412 24.2556Z" fill="black"/>
<path d="M43.9145 20.6358C47.1837 19.2884 48.1131 16.993 47.3227 15.0755C45.6514 11.0204 39.9299 14.8496 39.2367 13.1679C39.01 12.6178 39.3001 11.9834 40.6046 11.4457C41.5634 11.0505 42.7173 10.9058 44.0036 11.0376L44.0101 8.33202C42.6664 8.15032 41.053 8.42921 39.6227 9.01873C36.3535 10.3662 35.4111 12.6301 36.2209 14.5948C37.9052 18.6813 43.636 14.8299 44.355 16.5745C44.5753 17.1089 44.2214 17.6777 42.9325 18.2089C41.6594 18.7336 40.0949 18.8636 38.8548 18.6209L38.779 21.3367C40.1144 21.6321 42.107 21.3808 43.9145 20.6358Z" fill="black"/>
<path d="M51.9755 17.9189L55.3013 17.3999L53.8779 8.2793L57.4724 7.71835L57.0609 5.08127L46.5294 6.72481L46.9409 9.36189L50.5522 8.79832L51.9755 17.9189Z" fill="black"/>
<path d="M59.6567 17.1132L63.0227 17.1805L63.2607 5.28049L59.8947 5.21317L59.6567 17.1132Z" fill="black"/>
<path d="M73.3392 16C72.6979 16.1297 72.0915 16.1104 71.4789 15.9676C69.5253 15.5119 68.5176 13.8454 68.9732 11.8918C69.4405 9.8886 71.07 8.88964 73.0567 9.35305C74.1659 9.61179 74.9799 10.2381 75.5699 11.3009L78.0962 9.90013C77.2744 8.25956 75.6933 7.10521 73.5245 6.59932C69.7664 5.72271 66.4847 7.59313 65.6621 11.1195C64.8396 14.6458 66.955 17.7752 70.6469 18.6363C72.3356 19.0302 74.293 18.9457 75.8579 18.2982L76.9778 13.4971L74.0806 12.8213L73.3392 16Z" fill="black"/>
<path d="M100.35 45.058C101.343 47.8805 103.317 48.8803 106.235 47.8536L113.324 45.3602L110.853 38.3361L108.399 39.1992L109.764 43.0801L104.937 44.7781C103.863 45.156 103.127 44.8563 102.805 43.9422C102.551 43.2206 102.732 42.4541 103.293 41.59L100.631 40.5801C99.8614 41.824 99.7748 43.4223 100.35 45.058Z" fill="black"/>
<path d="M102.943 56.8209C103.235 60.6177 106.06 63.2136 109.62 62.9397C113.179 62.6658 115.574 59.6682 115.282 55.8714C114.99 52.0747 112.165 49.4788 108.605 49.7527C105.046 50.0265 102.65 53.0241 102.943 56.8209ZM105.722 56.607C105.584 54.8103 106.815 53.3004 108.866 53.1426C110.917 52.9848 112.364 54.2886 112.502 56.0853C112.641 57.882 111.41 59.3919 109.359 59.5497C107.308 59.7075 105.861 58.4037 105.722 56.607Z" fill="black"/>
<path d="M101.927 69.6309C101.153 73.0444 102.626 75.4937 106.073 76.2754L112.471 77.7265L113.2 74.511L106.901 73.0823C104.922 72.6335 104.318 71.6295 104.624 70.2773C104.935 68.9086 105.913 68.2636 107.892 68.7124L114.191 70.1411L114.932 66.8761L108.534 65.425C105.087 64.6433 102.702 66.2175 101.927 69.6309Z" fill="black"/>
<path d="M102.252 96.1635L97.2786 89.8157L104.98 92.0983L106.705 89.5294L101.797 83.2053L109.443 85.4501L111.376 82.5706L99.3443 79.1427L97.3358 82.1351L102.022 88.1473L94.7398 86.0027L92.7313 88.9951L100.461 98.8313L102.252 96.1635Z" fill="black"/>
<path d="M84.7705 109.36L82.6125 105.444L86.6324 103.228L88.7904 107.144L91.7384 105.519L85.9946 95.0974L83.0466 96.722L85.2867 100.787L81.2668 103.002L79.0267 98.9375L76.0787 100.562L81.8225 110.984L84.7705 109.36Z" fill="black"/>
<path d="M69.1301 101.989C65.6858 102.711 64.0636 105.083 64.792 108.56L66.1443 115.016L69.3889 114.337L68.0575 107.981C67.6393 105.984 68.304 105.011 69.6684 104.725C71.0494 104.436 72.0486 105.06 72.4669 107.057L73.7982 113.413L77.0927 112.723L75.7405 106.267C75.0121 102.79 72.5743 101.268 69.1301 101.989Z" fill="black"/>
<path d="M62.0896 103.283L53.0572 102.825L52.9221 105.491L58.5929 105.778L58.1258 114.997L61.4875 115.168L62.0896 103.283Z" fill="black"/>
<path d="M43.6412 112.456L48.8357 114.072L52.3704 102.709L49.1564 101.709L48.2323 104.68L46.2519 104.064C43.1514 103.099 40.7036 104.1 39.9007 106.681C39.0927 109.279 40.5407 111.492 43.6412 112.456ZM45.6589 106.657L47.4445 107.212L46.4093 110.54L44.6237 109.985C43.2927 109.57 42.819 108.747 43.1472 107.691C43.4704 106.653 44.3278 106.243 45.6589 106.657Z" fill="black"/>
</svg>
