<svg width="121" height="121" viewBox="0 0 121 121" fill="none" xmlns="http://www.w3.org/2000/svg">
<path d="M16.9867 59.2285L17.8307 53.6577C18.4223 49.7532 16.5557 46.7329 12.9373 46.1847C9.31881 45.6364 6.64131 47.9682 6.04971 51.8727L5.20566 57.4435L16.9867 59.2285ZM14.8324 55.4932L8.3697 54.514L8.68845 52.4103C8.9919 50.4075 10.3908 49.2421 12.4273 49.5507C14.4637 49.8592 15.4546 51.3867 15.1512 53.3895L14.8324 55.4932Z" fill="black"/>
<path d="M21.9361 41.3284C23.4845 38.1613 22.607 35.4196 19.4093 33.8562L13.4729 30.954L12.0143 33.9375L17.8589 36.7949C19.6949 37.6925 20.0553 38.8165 19.4419 40.0711C18.8211 41.341 17.7127 41.747 15.8767 40.8494L10.0321 37.992L8.55102 41.0214L14.4874 43.9236C17.6851 45.487 20.3878 44.4955 21.9361 41.3284Z" fill="black"/>
<path d="M30.0663 29.5276L32.4881 26.8585L27.9934 26.2464C28.4585 24.6713 28.0728 23.1736 26.7761 21.997C24.7617 20.1692 22.1445 20.549 19.9626 22.9536L16.307 26.9823L25.1198 34.9789L27.3817 32.4861L25.04 30.3613L26.2738 29.0016L30.0663 29.5276ZM24.4914 24.5149C25.2971 25.246 25.3071 26.1963 24.3704 27.2286L23.1138 28.6135L20.5329 26.2717L21.7895 24.8868C22.7262 23.8544 23.673 23.7724 24.4914 24.5149Z" fill="black"/>
<path d="M36.0372 13.3835L34.6067 11.1986L26.767 16.3318L33.312 26.3278L36.1394 24.4765L33.8954 21.0493L38.3079 18.1601L36.8774 15.9753L32.4649 18.8644L31.025 16.6653L36.0372 13.3835Z" fill="black"/>
<path d="M48.8438 18.6239L52.1196 17.8502L49.9976 8.86638L53.5382 8.03007L52.9246 5.43255L42.5511 7.88284L43.1646 10.4804L46.7217 9.64015L48.8438 18.6239Z" fill="black"/>
<path d="M59.6735 14.486L59.7171 12.31L65.0041 12.4158L65.0544 9.89978L59.7674 9.79404L59.8075 7.78804L65.8085 7.90806L65.8605 5.30706L56.5275 5.1204L56.2895 17.0204L65.8435 17.2115L65.8955 14.6105L59.6735 14.486Z" fill="black"/>
<path d="M103.481 54.8099L103.39 60.4362C103.326 64.3797 105.576 67.1195 109.231 67.1789C112.885 67.2382 115.224 64.5728 115.288 60.6293L115.379 55.0031L103.481 54.8099ZM106.112 58.2191L112.639 58.325L112.605 60.4497C112.572 62.4725 111.343 63.8127 109.286 63.7793C107.229 63.7459 106.045 62.3665 106.077 60.3438L106.112 58.2191Z" fill="black"/>
<path d="M100.951 73.6728C99.7411 77.2836 101.333 80.7749 104.718 81.9088C108.103 83.0428 111.476 81.2146 112.686 77.6038C113.895 73.993 112.304 70.5017 108.919 69.3678C105.534 68.2338 102.16 70.062 100.951 73.6728ZM103.594 74.5584C104.167 72.8497 105.888 71.9383 107.839 72.5917C109.789 73.2451 110.615 75.0096 110.042 76.7183C109.47 78.427 107.748 79.3383 105.798 78.6849C103.847 78.0315 103.022 76.267 103.594 74.5584Z" fill="black"/>
<path d="M103.411 94.3953L98.2746 90.6541L106.51 90.1403L108.145 87.8958L98.5059 80.8748L96.5601 83.5462L101.696 87.2874L93.4609 87.8011L91.826 90.0456L101.465 97.0666L103.411 94.3953Z" fill="black"/>
<path d="M89.5384 95.1822L90.8855 96.891L86.7335 100.164L88.2912 102.14L92.4432 98.8669L93.6851 100.442L88.9724 104.157L90.5826 106.2L97.912 100.422L90.5448 91.0768L83.0419 96.9916L84.6521 99.0342L89.5384 95.1822Z" fill="black"/>
<path d="M75.2308 100.517L71.9179 101.936L75.7503 104.363C74.6719 105.602 74.3994 107.124 75.0889 108.734C76.16 111.234 78.6979 111.978 81.6825 110.699L86.683 108.557L81.997 97.6185L78.903 98.944L80.1481 101.85L78.4605 102.573L75.2308 100.517ZM78.2142 107.395C77.7858 106.395 78.1721 105.527 79.4534 104.978L81.1723 104.241L82.5447 107.445L80.8258 108.181C79.5444 108.73 78.6493 108.411 78.2142 107.395Z" fill="black"/>
<path d="M68.049 105.062L68.3556 107.216L63.1213 107.961L63.4758 110.452L68.7101 109.707L68.9927 111.693L63.0516 112.539L63.4181 115.114L72.658 113.799L70.9812 102.017L61.5226 103.364L61.889 105.939L68.049 105.062Z" fill="black"/>
<path d="M50.8573 114.211L51.6817 107.924L56.0657 114.894L58.8132 115.254L60.3603 103.455L57.0903 103.027L56.2659 109.314L51.8819 102.344L49.1344 101.983L47.5873 113.782L50.8573 114.211Z" fill="black"/>
</svg>
