<svg width="121" height="121" viewBox="0 0 121 121" fill="none" xmlns="http://www.w3.org/2000/svg">
<path d="M16.9867 59.7734L17.8307 54.2026C18.4223 50.2981 16.5557 47.2779 12.9373 46.7296C9.31881 46.1814 6.64131 48.5131 6.04971 52.4176L5.20566 57.9884L16.9867 59.7734ZM14.8324 56.0381L8.3697 55.0589L8.68845 52.9552C8.9919 50.9524 10.3908 49.7871 12.4273 50.0956C14.4637 50.4042 15.4546 51.9316 15.1512 53.9344L14.8324 56.0381Z" fill="black"/>
<path d="M21.9361 41.8733C23.4845 38.7062 22.607 35.9645 19.4093 34.4012L13.4729 31.4989L12.0143 34.4824L17.8589 37.3398C19.6949 38.2374 20.0553 39.3614 19.4419 40.616C18.8211 41.8859 17.7127 42.2919 15.8767 41.3943L10.0321 38.5369L8.55102 41.5663L14.4874 44.4686C17.6851 46.0319 20.3878 45.0404 21.9361 41.8733Z" fill="black"/>
<path d="M30.0663 30.072L32.4881 27.403L27.9934 26.7908C28.4585 25.2157 28.0728 23.718 26.7761 22.5414C24.7617 20.7136 22.1445 21.0934 19.9626 23.4981L16.307 27.5268L25.1198 35.5233L27.3817 33.0306L25.04 30.9058L26.2738 29.5461L30.0663 30.072ZM24.4914 25.0593C25.2971 25.7905 25.3071 26.7407 24.3704 27.7731L23.1138 29.1579L20.5329 26.8161L21.7895 25.4312C22.7262 24.3989 23.673 24.3168 24.4914 25.0593Z" fill="black"/>
<path d="M36.0372 13.9284L34.6067 11.7436L26.767 16.8767L33.312 26.8727L36.1394 25.0214L33.8954 21.5942L38.3079 18.7051L36.8774 16.5202L32.4649 19.4094L31.025 17.2102L36.0372 13.9284Z" fill="black"/>
<path d="M59.7846 17.0863L57.7092 5.36861L54.9793 5.84407L52.1383 13.3103L46.8398 7.26171L44.1099 7.73717L46.1518 19.4607L49.2167 18.9269L48.1636 12.8809L52.0133 17.2491L53.4871 16.9925L55.6208 11.4095L56.7365 17.6172L59.7846 17.0863Z" fill="black"/>
<path d="M65.0508 15.3032L65.3337 13.149L70.5678 13.8363L70.8949 11.3455L65.6608 10.6582L65.9215 8.67221L71.8625 9.45234L72.2007 6.87735L62.961 5.66406L61.414 17.4451L70.8725 18.6871L71.2106 16.1121L65.0508 15.3032Z" fill="black"/>
<path d="M76.1016 17.7957L76.9044 15.7732L81.8185 17.7238L82.7467 15.3853L77.8327 13.4347L78.5728 11.5702L84.1504 13.7842L85.11 11.3667L76.4354 7.92339L72.0451 18.9839L80.9251 22.5087L81.8847 20.0912L76.1016 17.7957Z" fill="black"/>
<path d="M103.088 55.2445L103.375 58.5983L112.573 57.8114L112.883 61.4361L115.542 61.2086L114.633 50.5884L111.974 50.8159L112.286 54.4576L103.088 55.2445Z" fill="black"/>
<path d="M105.633 66.5436L107.783 66.8791L106.967 72.1029L109.453 72.4908L110.268 67.2671L112.25 67.5764L111.325 73.5056L113.895 73.9067L115.334 64.6853L103.576 62.8504L102.103 72.2901L104.673 72.6912L105.633 66.5436Z" fill="black"/>
<path d="M100.244 77.8236L97.3368 82.6413C95.299 86.0181 95.8674 89.5181 98.9967 91.4066C102.126 93.2951 105.488 92.1666 107.525 88.7899L110.433 83.9721L100.244 77.8236ZM100.805 82.0933L106.394 85.4662L105.296 87.2856C104.251 89.0177 102.515 89.5584 100.753 88.4956C98.9923 87.4328 98.6615 85.6447 99.7068 83.9127L100.805 82.0933Z" fill="black"/>
<path d="M92.3511 93.1091L93.8307 94.6976L89.9712 98.2928L91.6821 100.129L95.5416 96.5343L96.9057 97.9987L92.525 102.079L94.2937 103.978L101.107 97.6316L93.0147 88.9446L86.0403 95.4414L87.809 97.3401L92.3511 93.1091Z" fill="black"/>
<path d="M83.4808 110.507L80.5685 104.874L88.147 108.095L90.6085 106.822L85.1432 96.2511L82.2135 97.7658L85.1258 103.399L77.5473 100.178L75.0859 101.451L80.5512 112.022L83.4808 110.507Z" fill="black"/>
<path d="M65.6593 103.405L61.8169 104.129L68.073 109.697L64.2708 115.776L67.9127 115.09L71.5241 109.375L72.44 114.237L75.7144 113.62L73.5111 101.925L70.2367 102.542L70.7876 105.466L69.8 107.019L65.6593 103.405Z" fill="black"/>
<path d="M58.0455 106.228L57.8714 108.404L52.5844 107.981L52.3832 110.497L57.6702 110.92L57.5097 112.926L51.5087 112.446L51.3006 115.047L60.6336 115.794L61.5856 103.894L52.0316 103.13L51.8235 105.731L58.0455 106.228Z" fill="black"/>
<path d="M39.3349 111.422L41.4909 105.461L44.2727 113.208L46.8775 114.15L50.9235 102.964L47.8234 101.843L45.6674 107.803L42.8855 100.057L40.2808 99.1145L36.2348 110.301L39.3349 111.422Z" fill="black"/>
<path d="M36.463 101.538L34.2811 100.178L29.7225 106.265L32.9882 108.302L36.463 101.538ZM37.7435 97.0385C36.7753 96.4349 35.6872 96.6996 35.1646 97.5377C34.633 98.3902 34.9012 99.4405 35.8694 100.044C36.8375 100.648 37.9131 100.435 38.4447 99.5829C38.9673 98.7448 38.7116 97.6422 37.7435 97.0385Z" fill="black"/>
</svg>
