<svg width="121" height="121" viewBox="0 0 121 121" fill="none" xmlns="http://www.w3.org/2000/svg">
<path d="M16.9867 59.7734L17.8307 54.2026C18.4223 50.2981 16.5557 47.2779 12.9373 46.7296C9.31881 46.1814 6.64131 48.5131 6.04971 52.4176L5.20566 57.9884L16.9867 59.7734ZM14.8324 56.0381L8.3697 55.0589L8.68845 52.9552C8.9919 50.9524 10.3908 49.7871 12.4273 50.0956C14.4637 50.4042 15.4546 51.9316 15.1512 53.9344L14.8324 56.0381Z" fill="black"/>
<path d="M21.9361 41.8733C23.4845 38.7062 22.607 35.9645 19.4093 34.4012L13.4729 31.4989L12.0143 34.4824L17.8589 37.3398C19.6949 38.2374 20.0553 39.3614 19.4419 40.616C18.8211 41.8859 17.7127 42.2919 15.8767 41.3943L10.0321 38.5369L8.55102 41.5663L14.4874 44.4686C17.6851 46.0319 20.3878 45.0404 21.9361 41.8733Z" fill="black"/>
<path d="M30.0663 30.072L32.4881 27.403L27.9934 26.7908C28.4585 25.2157 28.0728 23.718 26.7761 22.5414C24.7617 20.7136 22.1445 21.0934 19.9626 23.4981L16.307 27.5268L25.1198 35.5233L27.3817 33.0306L25.04 30.9058L26.2738 29.5461L30.0663 30.072ZM24.4914 25.0593C25.2971 25.7905 25.3071 26.7407 24.3704 27.7731L23.1138 29.1579L20.5329 26.8161L21.7895 25.4312C22.7262 24.3989 23.673 24.3168 24.4914 25.0593Z" fill="black"/>
<path d="M36.0372 13.9284L34.6067 11.7436L26.767 16.8767L33.312 26.8727L36.1394 25.0214L33.8954 21.5942L38.3079 18.7051L36.8774 16.5202L32.4649 19.4094L31.025 17.2102L36.0372 13.9284Z" fill="black"/>
<path d="M59.7846 17.0863L57.7092 5.36861L54.9793 5.84407L52.1383 13.3103L46.8398 7.26171L44.1099 7.73717L46.1518 19.4607L49.2167 18.9269L48.1636 12.8809L52.0133 17.2491L53.4871 16.9925L55.6208 11.4095L56.7365 17.6172L59.7846 17.0863Z" fill="black"/>
<path d="M65.0508 15.3032L65.3337 13.149L70.5678 13.8363L70.8949 11.3455L65.6608 10.6582L65.9215 8.67221L71.8625 9.45234L72.2007 6.87735L62.961 5.66406L61.414 17.4451L70.8725 18.6871L71.2106 16.1121L65.0508 15.3032Z" fill="black"/>
<path d="M76.1016 17.7957L76.9044 15.7732L81.8185 17.7238L82.7467 15.3853L77.8327 13.4347L78.5728 11.5702L84.1504 13.7842L85.11 11.3667L76.4354 7.92339L72.0451 18.9839L80.9251 22.5087L81.8847 20.0912L76.1016 17.7957Z" fill="black"/>
<path d="M103.088 55.2445L103.375 58.5983L112.573 57.8114L112.883 61.4361L115.542 61.2086L114.633 50.5884L111.974 50.8159L112.286 54.4576L103.088 55.2445Z" fill="black"/>
<path d="M105.633 66.5436L107.783 66.8791L106.967 72.1029L109.453 72.4908L110.268 67.2671L112.25 67.5764L111.325 73.5056L113.895 73.9067L115.334 64.6853L103.576 62.8504L102.103 72.2901L104.673 72.6912L105.633 66.5436Z" fill="black"/>
<path d="M106.408 90.7379L102.563 88.4577L104.904 84.5103L108.749 86.7905L110.466 83.8957L100.232 77.8267L98.5152 80.7215L102.506 83.0884L100.166 87.0358L96.1743 84.6689L94.4576 87.5636L104.692 93.6326L106.408 90.7379Z" fill="black"/>
<path d="M92.6161 92.9133L94.1129 94.4927L90.2753 98.1294L92.0059 99.9556L95.8435 96.319L97.2233 97.775L92.8674 101.903L94.6565 103.791L101.431 97.3711L93.2456 88.7334L86.3107 95.3051L88.0998 97.1931L92.6161 92.9133Z" fill="black"/>
<path d="M85.2536 96.0105L77.3854 100.533L78.7199 102.855L83.6597 100.016L88.2752 108.047L91.2036 106.364L85.2536 96.0105Z" fill="black"/>
<path d="M74.7553 113.574L79.9777 112.105L76.7647 100.681L73.5333 101.59L74.3733 104.576L72.3823 105.136C69.2651 106.013 67.7611 108.179 68.491 110.774C69.2254 113.385 71.6382 114.45 74.7553 113.574ZM73.2941 107.627L75.0893 107.122L76.0303 110.468L74.2351 110.973C72.8969 111.349 72.0533 110.917 71.755 109.856C71.4612 108.812 71.9559 108.003 73.2941 107.627Z" fill="black"/>
<path d="M62.1804 106.209L62.2158 108.385L56.9294 108.471L56.9703 110.986L62.2566 110.9L62.2891 112.906L56.2889 113.004L56.3312 115.604L65.6629 115.453L65.4698 103.554L55.917 103.709L55.9593 106.31L62.1804 106.209Z" fill="black"/>
<path d="M43.8307 113.162L45.4794 107.011L48.9261 114.528L51.614 115.248L54.708 103.705L51.5089 102.848L49.8603 108.999L46.4135 101.482L43.7256 100.762L40.6316 112.305L43.8307 113.162Z" fill="black"/>
</svg>
