<svg width="121" height="121" viewBox="0 0 121 121" fill="none" xmlns="http://www.w3.org/2000/svg">
<path d="M19.3781 45.9262L7.65767 43.8667L7.1703 46.5945L13.2136 51.8189L5.71717 54.7277L5.2298 57.4555L16.9443 59.5485L17.4915 56.486L11.4501 55.4066L16.872 53.2842L17.1351 51.8115L12.6193 47.8962L18.834 48.972L19.3781 45.9262Z" fill="black"/>
<path d="M24.3998 36.7152L26.0832 33.6443L13.1149 32.5454L11.5215 35.4523L19.4315 45.7787L21.0821 42.7675L19.5042 40.8363L21.923 36.4237L24.3998 36.7152ZM17.8017 38.7786L15.1979 35.6065L19.2726 36.0953L17.8017 38.7786Z" fill="black"/>
<path d="M33.1006 27.0279L35.6205 24.5961L23.5649 19.6926L21.1795 21.9945L25.663 34.2053L28.134 31.8207L27.2013 29.5078L30.8223 26.0135L33.1006 27.0279ZM26.1873 27.0371L24.644 23.2345L28.3893 24.9122L26.1873 27.0371Z" fill="black"/>
<path d="M43.0365 20.9414L46.5003 19.1275L38.8915 15.6279L40.7538 8.70378L37.4707 10.423L35.6845 16.9428L33.3895 12.5603L30.4377 14.1061L35.9583 24.648L38.9101 23.1023L37.5299 20.4668L38.0213 18.6934L43.0365 20.9414Z" fill="black"/>
<path d="M53.9756 18.0762C56.9426 17.6899 58.3296 15.9663 57.93 12.8982L56.9597 5.44712L49.576 6.40871L49.9119 8.98793L53.9915 8.45664L54.6523 13.5308C54.7994 14.6603 54.3536 15.3183 53.3928 15.4435C52.6342 15.5423 51.9218 15.2064 51.1927 14.4785L49.6531 16.8734C50.7105 17.8843 52.2562 18.3002 53.9756 18.0762Z" fill="black"/>
<path d="M63.7546 14.7668L63.9722 12.5908L69.2592 13.1195L69.5108 10.6035L64.2238 10.0748L64.4244 8.06883L70.4254 8.66893L70.6855 6.06793L61.3525 5.13463L60.1625 17.0346L69.7165 17.99L69.9766 15.389L63.7546 14.7668Z" fill="black"/>
<path d="M101.939 72.2667L101.239 75.6987L113.955 72.9141L114.618 69.6654L104.006 62.1375L103.319 65.5028L105.398 66.8815L104.392 71.8128L101.939 72.2667ZM107.633 68.3442L111.059 70.6052L107.021 71.343L107.633 68.3442Z" fill="black"/>
<path d="M98.0279 80.8547C97.0132 82.7989 96.9035 84.7359 97.6497 86.4293L100.359 85.4271C99.9062 84.3471 99.8939 83.3051 100.421 82.2954C101.325 80.5622 103.16 79.9858 104.969 80.9296C106.777 81.8735 107.354 83.7084 106.449 85.4416C105.922 86.4513 105.06 87.0371 103.916 87.2833L104.643 90.0789C106.459 89.7227 107.985 88.525 109 86.5808C110.746 83.2351 109.752 79.5908 106.542 77.9155C103.332 76.2401 99.774 77.509 98.0279 80.8547Z" fill="black"/>
<path d="M91.244 90.0679C89.7518 91.6749 89.1342 93.5141 89.4065 95.3445L92.2841 95.0936C92.1329 93.9324 92.3963 92.9242 93.1713 92.0896C94.5017 90.657 96.4237 90.5858 97.9185 91.974C99.4134 93.3621 99.4846 95.2841 98.1543 96.7167C97.3792 97.5514 96.3933 97.8886 95.2241 97.8236L95.1866 100.712C97.0321 100.848 98.8207 100.096 100.313 98.4893C102.881 95.7238 102.886 91.9465 100.232 89.4825C97.5787 87.0186 93.8121 87.3023 91.244 90.0679Z" fill="black"/>
<path d="M82.2465 97.1699C78.9701 99.1106 77.891 102.793 79.7104 105.864C81.5299 108.936 85.2775 109.759 88.5538 107.818C91.8302 105.877 92.9093 102.195 91.0899 99.1237C89.2705 96.0521 85.5229 95.2292 82.2465 97.1699ZM83.6674 99.5687C85.2178 98.6503 87.1163 99.0867 88.1646 100.857C89.2129 102.626 88.6834 104.501 87.1329 105.419C85.5825 106.338 83.6841 105.901 82.6357 104.131C81.5874 102.362 82.117 100.487 83.6674 99.5687Z" fill="black"/>
<path d="M70.3058 101.976C66.8801 102.781 65.3159 105.192 66.1285 108.65L67.6369 115.072L70.8641 114.313L69.3789 107.992C68.9124 106.006 69.5533 105.017 70.9103 104.698C72.2839 104.375 73.298 104.975 73.7645 106.961L75.2497 113.283L78.5265 112.513L77.018 106.092C76.2055 102.633 73.7316 101.171 70.3058 101.976Z" fill="black"/>
<path d="M54.6157 114.983L55.0171 108.654L59.8581 115.315L62.6236 115.491L63.377 103.615L60.0856 103.406L59.6841 109.734L54.8431 103.073L52.0777 102.898L51.3243 114.774L54.6157 114.983Z" fill="black"/>
<path d="M48.0644 101.557L44.882 100.461L41.8751 109.188L38.4355 108.003L37.5661 110.527L47.6438 113.999L48.5132 111.475L45.0575 110.285L48.0644 101.557Z" fill="black"/>
</svg>
