<svg width="121" height="121" viewBox="0 0 121 121" fill="none" xmlns="http://www.w3.org/2000/svg">
<path d="M6.41319 49.4308L12.6837 50.3735L5.63221 54.6254L5.22024 57.3656L16.988 59.1348L17.4783 55.8735L11.2078 54.9308L18.2593 50.6789L18.6713 47.9387L6.90351 46.1695L6.41319 49.4308Z" fill="black"/>
<path d="M23.0244 38.3545L24.5376 35.1963L11.5287 34.8071L10.0963 37.7967L18.5584 47.6758L20.0422 44.5789L18.3611 42.7367L20.5354 38.1987L23.0244 38.3545ZM16.5488 40.7751L13.7757 37.7499L17.871 38.0155L16.5488 40.7751Z" fill="black"/>
<path d="M31.1965 28.267L33.5779 25.7105L21.3073 21.4656L19.0531 23.8856L24.1681 35.8123L26.5032 33.3055L25.4512 31.0507L28.873 27.3774L31.1965 28.267ZM24.3098 28.6432L22.5704 24.9369L26.3906 26.4094L24.3098 28.6432Z" fill="black"/>
<path d="M40.2361 21.9624L43.3355 20.1243L39.2205 18.2171C40.1283 16.8488 40.2004 15.3041 39.3074 13.7983C37.9202 11.4591 35.3075 11.0521 32.515 12.7081L27.8366 15.4825L33.9056 25.7165L36.8004 23.9998L35.1878 21.2805L36.7667 20.3441L40.2361 21.9624ZM36.3834 15.5323C36.9383 16.468 36.6683 17.379 35.4695 18.0899L33.8613 19.0436L32.0839 16.0465L33.6921 15.0928C34.891 14.3819 35.8198 14.582 36.3834 15.5323Z" fill="black"/>
<path d="M105.895 52.9856C105.503 52.4597 105.262 51.9016 105.13 51.2851C104.708 49.3193 105.789 47.6937 107.755 47.2725C109.771 46.8405 111.372 47.8913 111.801 49.8905C112.04 51.0067 111.82 52.0122 111.108 53.0011L113.457 54.6933C114.594 53.2474 114.965 51.3208 114.497 49.1384C113.687 45.3566 110.589 43.18 107.041 43.9405C103.492 44.7009 101.558 47.9555 102.354 51.6707C102.719 53.37 103.631 55.1086 104.887 56.251L109.718 55.2157L109.093 52.3002L105.895 52.9856Z" fill="black"/>
<path d="M105.941 61.4341L108.114 61.5579L107.813 66.8363L110.325 66.9794L110.626 61.701L112.629 61.815L112.287 67.8063L114.884 67.9542L115.415 58.6363L103.534 57.9596L102.991 67.4982L105.588 67.6461L105.941 61.4341Z" fill="black"/>
<path d="M103.055 77.1338C102.987 76.4831 103.064 75.8813 103.265 75.2852C103.905 73.3841 105.66 72.54 107.561 73.1802C109.51 73.8366 110.349 75.5541 109.698 77.4874C109.335 78.5669 108.634 79.3174 107.519 79.8032L108.672 82.4516C110.384 81.7903 111.684 80.3266 112.395 78.2161C113.626 74.5588 112.078 71.1135 108.646 69.958C105.214 68.8024 101.897 70.6093 100.688 74.2021C100.134 75.8455 100.031 77.802 100.526 79.4216L105.199 80.9949L106.148 78.1755L103.055 77.1338Z" fill="black"/>
<path d="M98.8387 84.4749L100.643 85.6917L97.6862 90.0748L99.7721 91.4818L102.729 87.0987L104.392 88.2204L101.036 93.1955L103.192 94.6499L108.411 86.9125L98.5456 80.2581L93.2031 88.1787L95.3594 89.6332L98.8387 84.4749Z" fill="black"/>
<path d="M93.8492 103.657L91.2064 95.6661L98.7452 99.3483L101.474 96.9472L89.8075 91.377L87.3212 93.5649L91.3502 105.856L93.8492 103.657Z" fill="black"/>
<path d="M81.4088 100.499L82.3663 102.458L77.608 104.784L78.715 107.049L83.4733 104.722L84.356 106.528L78.9551 109.168L80.0995 111.509L88.4992 107.402L83.2632 96.6925L74.6646 100.896L75.809 103.237L81.4088 100.499Z" fill="black"/>
<path d="M67.8047 114.438L66.6796 108.197L72.9743 113.505L75.7013 113.014L73.5899 101.303L70.3443 101.888L71.4693 108.128L65.1746 102.82L62.4476 103.311L64.559 115.023L67.8047 114.438Z" fill="black"/>
<path d="M56.6116 102.585C53.0897 102.269 51.2049 103.875 51.0198 105.941C50.6284 110.31 57.4718 109.557 57.3095 111.369C57.2564 111.962 56.7059 112.39 55.3006 112.264C54.2677 112.172 53.1775 111.767 52.0976 111.056L50.8418 113.452C51.9494 114.234 53.5092 114.732 55.05 114.87C58.5719 115.186 60.4537 113.614 60.6433 111.497C61.0378 107.095 54.1759 107.862 54.3443 105.983C54.3959 105.407 54.9726 105.066 56.361 105.191C57.7326 105.314 59.1801 105.921 60.1677 106.71L61.4898 104.336C60.4421 103.457 58.5588 102.759 56.6116 102.585Z" fill="black"/>
</svg>
