<svg width="121" height="121" viewBox="0 0 121 121" fill="none" xmlns="http://www.w3.org/2000/svg">
<path d="M6.41319 49.4308L12.6837 50.3735L5.63221 54.6254L5.22024 57.3656L16.988 59.1348L17.4783 55.8735L11.2078 54.9308L18.2593 50.6789L18.6713 47.9387L6.90351 46.1695L6.41319 49.4308Z" fill="black"/>
<path d="M23.0426 38.3919L24.5485 35.2401L11.5724 34.8661L10.1469 37.8496L18.5982 47.6943L20.0748 44.6037L18.396 42.768L20.5598 38.2392L23.0426 38.3919ZM16.5862 40.8134L13.8169 37.7989L17.902 38.0594L16.5862 40.8134Z" fill="black"/>
<path d="M31.176 28.2253L33.5604 25.6603L21.2564 21.4181L18.9994 23.8461L24.1388 35.7956L26.4768 33.2805L25.42 31.0215L28.8461 27.336L31.176 28.2253ZM24.2735 28.6095L22.5261 24.8962L26.3569 26.3683L24.2735 28.6095Z" fill="black"/>
<path d="M40.2361 21.9624L43.3355 20.1243L39.2205 18.2171C40.1283 16.8488 40.2004 15.3041 39.3074 13.7983C37.9202 11.4591 35.3075 11.0521 32.515 12.7081L27.8366 15.4825L33.9056 25.7165L36.8004 23.9998L35.1878 21.2805L36.7667 20.3441L40.2361 21.9624ZM36.3834 15.5323C36.9383 16.468 36.6683 17.379 35.4695 18.0899L33.8613 19.0436L32.0839 16.0465L33.6921 15.0928C34.891 14.3819 35.8198 14.582 36.3834 15.5323Z" fill="black"/>
<path d="M87.1449 18.5425C88.2927 18.5662 89.2388 18.0355 89.7824 17.0346C90.6588 15.4212 89.9229 13.5705 87.1742 12.0775L81.8262 9.17259L76.1462 19.6295L81.793 22.6967C84.6014 24.2222 86.6714 23.973 87.6532 22.1655C88.3429 20.8957 88.0978 19.6018 87.1449 18.5425ZM85.6255 14.0027C86.6114 14.5383 86.9327 15.1578 86.5757 15.8151C86.2105 16.4873 85.516 16.555 84.53 16.0194L82.4984 14.9159L83.5938 12.8992L85.6255 14.0027ZM82.7143 20.4307L80.2345 19.0837L81.3867 16.9625L83.8665 18.3094C84.8824 18.8612 85.2335 19.4969 84.844 20.214C84.4545 20.931 83.7301 20.9825 82.7143 20.4307Z" fill="black"/>
<path d="M90.9991 26.2825L92.5005 24.7158L96.3072 28.3638L98.0432 26.5523L94.2366 22.9042L95.6207 21.4599L99.9414 25.6006L101.736 23.7279L95.0163 17.2881L86.8053 25.8561L93.6842 32.4484L95.4789 30.5757L90.9991 26.2825Z" fill="black"/>
<path d="M108.852 34.1279L103.399 37.3618L106.173 29.6103L104.76 27.2273L94.5257 33.2963L96.2077 36.1325L101.661 32.8986L98.8867 40.6501L100.3 43.0332L110.534 36.9642L108.852 34.1279Z" fill="black"/>
<path d="M101.923 50.4094C102.76 54.1031 105.917 56.248 109.38 55.4626C112.843 54.6772 114.765 51.3804 113.927 47.6867C113.09 43.9929 109.933 41.848 106.47 42.6334C103.007 43.4188 101.085 46.7156 101.923 50.4094ZM104.627 49.796C104.231 48.0481 105.223 46.384 107.218 45.9314C109.213 45.4789 110.827 46.5521 111.223 48.3C111.619 50.048 110.627 51.7121 108.632 52.1646C106.637 52.6172 105.023 51.544 104.627 49.796Z" fill="black"/>
<path d="M103.681 57.8273L103.21 63.4345C102.88 67.3647 104.941 70.2503 108.583 70.5561C112.225 70.8619 114.738 68.3605 115.068 64.4303L115.539 58.823L103.681 57.8273ZM106.076 61.4062L112.581 61.9525L112.403 64.07C112.234 66.0859 110.917 67.3402 108.867 67.168C106.818 66.9959 105.729 65.5397 105.898 63.5238L106.076 61.4062Z" fill="black"/>
<path d="M101.918 71.1279L100.921 74.3429L112.287 77.8677L113.284 74.6528L101.918 71.1279Z" fill="black"/>
<path d="M99.248 84.5689C99.2995 83.9167 99.4847 83.3388 99.7904 82.7891C100.765 81.036 102.645 80.525 104.398 81.4999C106.195 82.4997 106.708 84.341 105.717 86.1239C105.163 87.1193 104.337 87.7298 103.153 88.0051L103.806 90.819C105.609 90.4796 107.153 89.2766 108.236 87.3303C110.111 83.9578 109.215 80.2885 106.05 78.5285C102.886 76.7686 99.2956 77.9427 97.453 81.2558C96.6102 82.7712 96.1537 84.6765 96.3461 86.3591L100.655 88.7553L102.101 86.1553L99.248 84.5689Z" fill="black"/>
<path d="M94.4148 86.8581L90.3684 90.7684C87.5323 93.5091 87.1834 97.0378 89.7233 99.6661C92.2632 102.294 95.8017 102.066 98.6379 99.3257L102.684 95.4154L94.4148 86.8581ZM93.8608 91.1287L98.3972 95.823L96.8691 97.2997C95.4144 98.7055 93.5977 98.7826 92.1682 97.3034C90.7388 95.8242 90.878 94.0112 92.3328 92.6054L93.8608 91.1287Z" fill="black"/>
<path d="M82.9226 110.091L80.9151 106.096L85.0164 104.035L87.0239 108.03L90.0315 106.519L84.6883 95.8858L81.6807 97.3972L83.7646 101.544L79.6633 103.605L77.5794 99.4581L74.5718 100.97L79.915 111.602L82.9226 110.091Z" fill="black"/>
<path d="M70.1829 104.54L70.594 106.677L65.4022 107.675L65.8775 110.146L71.0693 109.147L71.4483 111.117L65.5553 112.251L66.0467 114.805L75.2117 113.042L72.9635 101.356L63.5815 103.161L64.0729 105.715L70.1829 104.54Z" fill="black"/>
<path d="M62.4053 103.329L56.7992 102.844C52.8698 102.505 49.9792 104.558 49.6645 108.2C49.3498 111.841 51.8451 114.36 55.7744 114.7L61.3805 115.185L62.4053 103.329ZM58.8205 105.715L58.2583 112.219L56.1412 112.036C54.1258 111.862 52.8747 110.542 53.0519 108.493C53.229 106.443 54.6879 105.358 56.7034 105.532L58.8205 105.715Z" fill="black"/>
<path d="M45.1578 103.014L44.3797 105.046L39.4422 103.155L38.5426 105.505L43.4801 107.395L42.7629 109.269L37.1586 107.123L36.2286 109.552L44.9446 112.889L49.1995 101.776L40.2771 98.3599L39.3471 100.789L45.1578 103.014Z" fill="black"/>
<path d="M25.6946 102.636L29.4806 97.5493L29.9086 105.772L32.1314 107.427L39.2365 97.8807L36.5909 95.9116L32.8049 100.998L32.377 92.7752L30.1541 91.1208L23.049 100.667L25.6946 102.636Z" fill="black"/>
</svg>
