<svg width="121" height="121" viewBox="0 0 121 121" fill="none" xmlns="http://www.w3.org/2000/svg">
<path d="M6.41319 49.4308L12.6837 50.3735L5.63221 54.6254L5.22024 57.3656L16.988 59.1348L17.4783 55.8735L11.2078 54.9308L18.2593 50.6789L18.6713 47.9387L6.90351 46.1695L6.41319 49.4308Z" fill="black"/>
<path d="M23.0426 38.3919L24.5485 35.2401L11.5724 34.8661L10.1469 37.8496L18.5982 47.6943L20.0748 44.6037L18.396 42.768L20.5598 38.2392L23.0426 38.3919ZM16.5862 40.8134L13.8169 37.7989L17.902 38.0594L16.5862 40.8134Z" fill="black"/>
<path d="M31.176 28.2253L33.5604 25.6603L21.2564 21.4181L18.9994 23.8461L24.1388 35.7956L26.4768 33.2805L25.42 31.0215L28.8461 27.336L31.176 28.2253ZM24.2735 28.6095L22.5261 24.8962L26.3569 26.3683L24.2735 28.6095Z" fill="black"/>
<path d="M40.2361 21.9624L43.3355 20.1243L39.2205 18.2171C40.1283 16.8488 40.2004 15.3041 39.3074 13.7983C37.9202 11.4591 35.3075 11.0521 32.515 12.7081L27.8366 15.4825L33.9056 25.7165L36.8004 23.9998L35.1878 21.2805L36.7667 20.3441L40.2361 21.9624ZM36.3834 15.5323C36.9383 16.468 36.6683 17.379 35.4695 18.0899L33.8613 19.0436L32.0839 16.0465L33.6921 15.0928C34.891 14.3819 35.8198 14.582 36.3834 15.5323Z" fill="black"/>
<path d="M98.927 29.2211C100.008 29.6079 101.074 29.4047 101.907 28.628C103.25 27.3761 103.139 25.3876 101.006 23.0995L96.8563 18.6478L88.1518 26.7621L92.5335 31.4625C94.7127 33.8003 96.7548 34.2208 98.2594 32.8182C99.3164 31.8329 99.4945 30.528 98.927 29.2211ZM98.9266 24.4339C99.6916 25.2546 99.7997 25.944 99.2526 26.454C98.693 26.9756 98.0129 26.8195 97.2478 25.9988L95.6714 24.3076L97.3501 22.7427L98.9266 24.4339ZM94.1262 29.6059L92.202 27.5417L93.9678 25.8957L95.892 27.9599C96.6802 28.8055 96.8115 29.5197 96.2147 30.0761C95.6178 30.6325 94.9145 30.4515 94.1262 29.6059Z" fill="black"/>
<path d="M100.195 37.7767L102.122 36.7655L104.579 41.447L106.807 40.2779L104.35 35.5964L106.126 34.6642L108.915 39.978L111.218 38.7693L106.881 30.5052L96.3437 36.0349L100.783 44.4948L103.086 43.2861L100.195 37.7767Z" fill="black"/>
<path d="M101.88 49.7889C102.711 53.226 104.836 54.4964 106.852 54.0094C111.116 52.9796 108.209 46.7386 109.977 46.3115C110.556 46.1718 111.138 46.5558 111.469 47.9273C111.713 48.9353 111.679 50.0978 111.351 51.3487L114.024 51.7699C114.409 50.47 114.381 48.8329 114.018 47.3291C113.188 43.892 111.095 42.6136 109.03 43.1126C104.733 44.1504 107.66 50.4039 105.826 50.847C105.264 50.9827 104.756 50.5457 104.429 49.1907C104.106 47.8522 104.217 46.2862 104.647 45.0981L101.975 44.6067C101.478 45.881 101.421 47.8885 101.88 49.7889Z" fill="black"/>
<path d="M103.077 61.6688C103.035 63.8614 103.8 65.6443 105.223 66.8276L107.202 64.7228C106.315 63.9578 105.839 63.0306 105.861 61.8918C105.898 59.9372 107.284 58.6033 109.324 58.6421C111.363 58.6809 112.697 60.0665 112.66 62.0212C112.638 63.1599 112.128 64.0684 111.213 64.7991L113.11 66.9776C114.576 65.8493 115.409 64.0968 115.451 61.9042C115.522 58.1309 113.009 55.3116 109.388 55.2427C105.768 55.1738 103.149 57.8955 103.077 61.6688Z" fill="black"/>
<path d="M112.021 78.7023L107.756 77.3578L109.137 72.9803L113.401 74.3247L114.413 71.1145L103.064 67.5361L102.052 70.7463L106.478 72.1419L105.098 76.5195L100.671 75.1239L99.6591 78.3341L111.008 81.9125L112.021 78.7023Z" fill="black"/>
<path d="M94.7497 85.8807L92.7344 88.8685L97.2704 88.8318C97.0353 90.4572 97.6311 91.8843 99.0828 92.8635C101.338 94.3845 103.874 93.6344 105.689 90.9425L108.731 86.4325L98.8659 79.7781L96.9837 82.5687L99.6051 84.3368L98.5784 85.8589L94.7497 85.8807ZM100.984 90.0448C100.082 89.4364 99.9362 88.4973 100.716 87.3416L101.761 85.7913L104.651 87.7401L103.605 89.2904C102.825 90.4461 101.9 90.6627 100.984 90.0448Z" fill="black"/>
<path d="M91.7239 89.4363L89.326 91.7985L97.6772 100.276L100.075 97.9138L91.7239 89.4363Z" fill="black"/>
<path d="M85.6444 94.4282C83.191 96.1337 82.7527 98.2991 84.5163 100.836L88.7993 106.998L94.905 102.753L93.4224 100.621L90.0489 102.966L87.1322 98.7697C86.483 97.8357 86.576 97.0474 87.3706 96.4951C87.9979 96.0591 88.7838 96.0296 89.7647 96.3402L90.0299 93.5094C88.6279 93.0987 87.0663 93.4399 85.6444 94.4282Z" fill="black"/>
<path d="M76.8141 112.478L77.1165 104.059L82.9089 110.139L86.3055 108.836L77.2972 99.5467L74.2021 100.734L73.7032 113.671L76.8141 112.478Z" fill="black"/>
<path d="M69.1506 102.16L65.8183 102.698L67.7223 114.479L71.0546 113.941L69.1506 102.16Z" fill="black"/>
<path d="M55.479 114.723L55.7655 108.388L60.7266 114.96L63.4948 115.085L64.0325 103.197L60.7379 103.048L60.4514 109.383L55.4903 102.811L52.7221 102.686L52.1844 114.574L55.479 114.723Z" fill="black"/>
<path d="M42.6111 102.462C43.2627 102.403 43.8634 102.488 44.4567 102.697C46.3488 103.363 47.1685 105.13 46.5022 107.022C45.819 108.962 44.0901 109.777 42.1659 109.1C41.0916 108.721 40.3508 108.01 39.8805 106.889L37.2163 108.006C37.8541 109.726 39.2996 111.046 41.4002 111.786C45.0401 113.068 48.5064 111.567 49.7092 108.152C50.9119 104.736 49.1509 101.394 45.5752 100.135C43.9396 99.5592 41.9847 99.4295 40.3584 99.9022L38.7208 104.552L41.5269 105.54L42.6111 102.462Z" fill="black"/>
</svg>
