<svg width="121" height="121" viewBox="0 0 121 121" fill="none" xmlns="http://www.w3.org/2000/svg">
<path d="M5.95568 52.3952L5.21457 57.7844L17.0036 59.4056L17.4622 56.071L14.3802 55.6472L14.6627 53.5925C15.1051 50.3758 13.7157 48.1255 11.0379 47.7573C8.34326 47.3867 6.39804 49.1784 5.95568 52.3952ZM12.0077 53.4333L11.7529 55.2859L8.30041 54.8111L8.55517 52.9586C8.74508 51.5776 9.48001 50.9751 10.5747 51.1256C11.6526 51.2738 12.1976 52.0523 12.0077 53.4333Z" fill="black"/>
<path d="M21.709 41.1473L23.1409 37.84L18.6888 38.7098C18.6212 37.0688 17.7733 35.7755 16.1664 35.0798C13.6703 33.9991 11.3153 35.2025 10.0253 38.1823L7.86393 43.1745L18.7844 47.9024L20.1217 44.8135L17.22 43.5572L17.9495 41.8723L21.709 41.1473ZM14.8156 38.1999C15.814 38.6322 16.1299 39.5285 15.5761 40.8077L14.8331 42.5238L11.635 41.1392L12.3779 39.4231C12.9318 38.1439 13.8015 37.7609 14.8156 38.1999Z" fill="black"/>
<path d="M27.6398 32.6707C30.1007 29.7647 29.9156 25.9322 27.1913 23.6251C24.467 21.318 20.6564 21.7666 18.1954 24.6726C15.7345 27.5785 15.9196 31.411 18.6439 33.7181C21.3682 36.0253 25.1788 35.5766 27.6398 32.6707ZM25.5122 30.8689C24.3477 32.244 22.4109 32.4529 20.8412 31.1235C19.2714 29.7942 19.1584 27.8495 20.323 26.4743C21.4875 25.0992 23.4243 24.8904 24.994 26.2197C26.5638 27.5491 26.6768 29.4937 25.5122 30.8689Z" fill="black"/>
<path d="M34.8957 25.8733C37.3406 24.1487 37.7644 21.9773 35.9809 19.449L31.6496 13.309L25.5652 17.6011L27.0645 19.7265L30.4262 17.3551L33.3758 21.5364C34.0324 22.4671 33.9447 23.2571 33.1529 23.8157C32.5278 24.2567 31.741 24.2915 30.7567 23.9873L30.5107 26.8238C31.9174 27.2253 33.4787 26.8729 34.8957 25.8733Z" fill="black"/>
<path d="M42.0425 18.4735L41.2242 16.4572L46.1231 14.469L45.1769 12.1377L40.278 14.1259L39.5236 12.2672L45.0841 10.0104L44.106 7.60035L35.4581 11.1101L39.9332 22.1366L48.7859 18.5437L47.8078 16.1336L42.0425 18.4735Z" fill="black"/>
<path d="M55.8076 17.8218C57.9787 17.5586 59.6331 16.5555 60.6042 14.9862L58.251 13.3246C57.6186 14.3064 56.769 14.9046 55.6413 15.0413C53.7059 15.2759 52.1963 14.0927 51.9515 12.0731C51.7067 10.0535 52.8899 8.54387 54.8253 8.30927C55.953 8.17259 56.9209 8.5505 57.7696 9.35273L59.6576 7.17707C58.3398 5.88524 56.4936 5.30639 54.3225 5.56955C50.5862 6.02243 48.151 8.89628 48.5855 12.4811C49.02 16.0659 52.0713 18.2747 55.8076 17.8218Z" fill="black"/>
<path d="M64.1248 17.4736L67.4571 17.9111L68.6572 8.77246L72.2588 9.2454L72.6058 6.60309L62.0533 5.21742L61.7064 7.85973L65.3248 8.33488L64.1248 17.4736Z" fill="black"/>
<path d="M103.035 54.8198L103.735 58.2517L114.343 50.7071L113.68 47.4584L100.968 44.6905L101.654 48.0558L104.107 48.5097L105.114 53.4411L103.035 54.8198ZM106.737 48.9796L110.775 49.7174L107.349 51.9784L106.737 48.9796Z" fill="black"/>
<path d="M102.764 67.8168L102.432 71.3031L114.778 67.185L115.092 63.8849L103.744 57.5274L103.418 60.9459L105.631 62.0959L105.154 67.1052L102.764 67.8168ZM108.008 63.3128L111.654 65.1969L107.718 66.359L108.008 63.3128Z" fill="black"/>
<path d="M110.144 83.4231L104.283 81.0026L112.149 78.5678L113.207 76.0067L102.208 71.4642L100.949 74.5125L106.81 76.933L98.944 79.3678L97.8862 81.9289L108.885 86.4714L110.144 83.4231Z" fill="black"/>
<path d="M88.1208 93.7885L97.1024 101.595L98.9261 99.5088L96.4407 91.9168L104.364 93.2886L106.188 91.2024L97.2285 83.3702L95.1809 85.7124L99.8013 89.7516L94.0612 88.7754L93.0766 89.9017L94.9279 95.5845L90.1571 91.4591L88.1208 93.7885Z" fill="black"/>
<path d="M79.0731 99.1271L76.0532 100.9L86.6231 108.494L89.4817 106.815L87.9862 93.8936L85.025 95.6323L85.3893 98.0995L81.05 100.647L79.0731 99.1271ZM85.7958 100.739L86.4045 104.798L83.157 102.288L85.7958 100.739Z" fill="black"/>
<path d="M68.0045 102.665L64.2118 103.604L70.7665 108.807L67.3152 115.085L70.91 114.196L74.1915 108.292L75.3788 113.09L78.6108 112.291L75.7548 100.748L72.5228 101.547L73.2368 104.433L72.3388 106.038L68.0045 102.665Z" fill="black"/>
<path d="M60.5906 105.909L60.5492 108.084L55.2632 107.984L55.2153 110.499L60.5014 110.6L60.4632 112.605L54.4633 112.491L54.4138 115.092L63.7451 115.269L63.9715 103.372L54.4192 103.19L54.3697 105.79L60.5906 105.909Z" fill="black"/>
<path d="M42.1059 112.154L43.9428 106.085L47.1336 113.676L49.7858 114.479L53.2332 103.089L50.0766 102.134L48.2396 108.203L45.0489 100.612L42.3967 99.8094L38.9493 111.199L42.1059 112.154Z" fill="black"/>
</svg>
