<svg width="121" height="121" viewBox="0 0 121 121" fill="none" xmlns="http://www.w3.org/2000/svg">
<path d="M5.95568 52.3952L5.21457 57.7844L17.0036 59.4056L17.4622 56.071L14.3802 55.6472L14.6627 53.5925C15.1051 50.3758 13.7157 48.1255 11.0379 47.7573C8.34326 47.3867 6.39804 49.1784 5.95568 52.3952ZM12.0077 53.4333L11.7529 55.2859L8.30041 54.8111L8.55517 52.9586C8.74508 51.5776 9.48001 50.9751 10.5747 51.1256C11.6526 51.2738 12.1976 52.0523 12.0077 53.4333Z" fill="black"/>
<path d="M21.709 41.1473L23.1409 37.84L18.6888 38.7098C18.6212 37.0688 17.7733 35.7755 16.1664 35.0798C13.6703 33.9991 11.3153 35.2025 10.0253 38.1823L7.86393 43.1745L18.7844 47.9024L20.1217 44.8135L17.22 43.5572L17.9495 41.8723L21.709 41.1473ZM14.8156 38.1999C15.814 38.6322 16.1299 39.5285 15.5761 40.8077L14.8331 42.5238L11.635 41.1392L12.3779 39.4231C12.9318 38.1439 13.8015 37.7609 14.8156 38.1999Z" fill="black"/>
<path d="M27.6398 32.6707C30.1007 29.7647 29.9156 25.9322 27.1913 23.6251C24.467 21.318 20.6564 21.7666 18.1954 24.6726C15.7345 27.5785 15.9196 31.411 18.6439 33.7181C21.3682 36.0253 25.1788 35.5766 27.6398 32.6707ZM25.5122 30.8689C24.3477 32.244 22.4109 32.4529 20.8412 31.1235C19.2714 29.7942 19.1584 27.8495 20.323 26.4743C21.4875 25.0992 23.4243 24.8904 24.994 26.2197C26.5638 27.5491 26.6768 29.4937 25.5122 30.8689Z" fill="black"/>
<path d="M34.8957 25.8733C37.3406 24.1487 37.7644 21.9773 35.9809 19.449L31.6496 13.309L25.5652 17.6011L27.0645 19.7265L30.4262 17.3551L33.3758 21.5364C34.0324 22.4671 33.9447 23.2571 33.1529 23.8157C32.5278 24.2567 31.741 24.2915 30.7567 23.9873L30.5107 26.8238C31.9174 27.2253 33.4787 26.8729 34.8957 25.8733Z" fill="black"/>
<path d="M42.0425 18.4735L41.2242 16.4572L46.1231 14.469L45.1769 12.1377L40.278 14.1259L39.5236 12.2672L45.0841 10.0104L44.106 7.60035L35.4581 11.1101L39.9332 22.1366L48.7859 18.5437L47.8078 16.1336L42.0425 18.4735Z" fill="black"/>
<path d="M55.8076 17.8218C57.9787 17.5586 59.6331 16.5555 60.6042 14.9862L58.251 13.3246C57.6186 14.3064 56.769 14.9046 55.6413 15.0413C53.7059 15.2759 52.1963 14.0927 51.9515 12.0731C51.7067 10.0535 52.8899 8.54387 54.8253 8.30927C55.953 8.17259 56.9209 8.5505 57.7696 9.35273L59.6576 7.17707C58.3398 5.88524 56.4936 5.30639 54.3225 5.56955C50.5862 6.02243 48.151 8.89628 48.5855 12.4811C49.02 16.0659 52.0713 18.2747 55.8076 17.8218Z" fill="black"/>
<path d="M64.1248 17.4736L67.4571 17.9111L68.6572 8.77246L72.2588 9.2454L72.6058 6.60309L62.0533 5.21742L61.7064 7.85973L65.3248 8.33488L64.1248 17.4736Z" fill="black"/>
<path d="M102.238 50.2164L103.322 53.5465L113.006 44.852L111.98 41.6998L99.0385 40.388L100.101 43.6534L102.589 43.8268L104.147 48.6117L102.238 50.2164ZM105.255 43.9962L109.349 44.2724L106.202 46.9059L105.255 43.9962Z" fill="black"/>
<path d="M112.766 62.7487L115.363 62.6212L114.906 53.2994L103.02 53.8828L103.185 57.2448L107.26 57.0448L107.518 62.2914L110.116 62.1639L109.858 56.9172L112.473 56.7889L112.766 62.7487Z" fill="black"/>
<path d="M101.914 71.3351L101.178 74.863L105.363 73.1144C105.76 74.708 106.851 75.8041 108.565 76.1619C111.228 76.7176 113.292 75.0646 113.956 71.8861L115.067 66.5608L103.418 64.1294L102.73 67.4243L105.826 68.0704L105.451 69.8677L101.914 71.3351ZM109.26 72.8336C108.195 72.6113 107.705 71.797 107.99 70.4324L108.372 68.6019L111.783 69.3139L111.401 71.1445C111.116 72.5091 110.342 73.0594 109.26 72.8336Z" fill="black"/>
<path d="M97.8365 80.8878C96.0087 84.2388 96.9661 87.9639 100.108 89.6775C103.249 91.3911 106.9 90.1793 108.727 86.8283C110.555 83.4772 109.598 79.7522 106.456 78.0386C103.315 76.325 99.6644 77.5368 97.8365 80.8878ZM100.29 82.226C101.155 80.6403 103.014 80.0432 104.824 81.0306C106.634 82.018 107.139 83.9043 106.274 85.49C105.409 87.0758 103.55 87.6728 101.74 86.6855C99.9296 85.6981 99.425 83.8118 100.29 82.226Z" fill="black"/>
<path d="M96.5172 101.603L92.1347 97.0203L100.314 97.9726L102.316 96.0574L94.0918 87.457L91.7083 89.7364L96.0908 94.3192L87.9118 93.3669L85.9091 95.282L94.1336 103.882L96.5172 101.603Z" fill="black"/>
<path d="M84.6163 96.224L79.577 98.7277C76.0449 100.483 74.6454 103.741 76.2716 107.014C77.8979 110.287 81.3398 111.14 84.8719 109.385L89.9111 106.881L84.6163 96.224ZM82.797 100.127L85.7016 105.973L83.7985 106.919C81.9868 107.819 80.2318 107.343 79.3165 105.501C78.4013 103.659 79.0822 101.973 80.8939 101.073L82.797 100.127Z" fill="black"/>
<path d="M69.737 104.857L70.1287 106.989L64.9474 107.941L65.4003 110.407L70.5816 109.455L70.9427 111.421L65.0617 112.501L65.5299 115.05L74.6762 113.37L72.5342 101.708L63.1713 103.428L63.6395 105.977L69.737 104.857Z" fill="black"/>
<path d="M52.8599 114.874L53.4306 108.533L58.1129 115.346L60.8839 115.596L61.9549 103.696L58.6569 103.399L58.0862 109.74L53.4039 102.926L50.6329 102.677L49.5619 114.577L52.8599 114.874Z" fill="black"/>
</svg>
