<svg width="121" height="121" viewBox="0 0 121 121" fill="none" xmlns="http://www.w3.org/2000/svg">
<path d="M5.95568 52.3952L5.21457 57.7844L17.0036 59.4056L17.4622 56.071L14.3802 55.6472L14.6627 53.5925C15.1051 50.3758 13.7157 48.1255 11.0379 47.7573C8.34326 47.3867 6.39804 49.1784 5.95568 52.3952ZM12.0077 53.4333L11.7529 55.2859L8.30041 54.8111L8.55517 52.9586C8.74508 51.5776 9.48001 50.9751 10.5747 51.1256C11.6526 51.2738 12.1976 52.0523 12.0077 53.4333Z" fill="black"/>
<path d="M21.709 41.1473L23.1409 37.84L18.6888 38.7098C18.6212 37.0688 17.7733 35.7755 16.1664 35.0798C13.6703 33.9991 11.3153 35.2025 10.0253 38.1823L7.86393 43.1745L18.7844 47.9024L20.1217 44.8135L17.22 43.5572L17.9495 41.8723L21.709 41.1473ZM14.8156 38.1999C15.814 38.6322 16.1299 39.5285 15.5761 40.8077L14.8331 42.5238L11.635 41.1392L12.3779 39.4231C12.9318 38.1439 13.8015 37.7609 14.8156 38.1999Z" fill="black"/>
<path d="M27.6398 32.6707C30.1007 29.7647 29.9156 25.9322 27.1913 23.6251C24.467 21.318 20.6564 21.7666 18.1954 24.6726C15.7345 27.5785 15.9196 31.411 18.6439 33.7181C21.3682 36.0253 25.1788 35.5766 27.6398 32.6707ZM25.5122 30.8689C24.3477 32.244 22.4109 32.4529 20.8412 31.1235C19.2714 29.7942 19.1584 27.8495 20.323 26.4743C21.4875 25.0992 23.4243 24.8904 24.994 26.2197C26.5638 27.5491 26.6768 29.4937 25.5122 30.8689Z" fill="black"/>
<path d="M34.8957 25.8733C37.3406 24.1487 37.7644 21.9773 35.9809 19.449L31.6496 13.309L25.5652 17.6011L27.0645 19.7265L30.4262 17.3551L33.3758 21.5364C34.0324 22.4671 33.9447 23.2571 33.1529 23.8157C32.5278 24.2567 31.741 24.2915 30.7567 23.9873L30.5107 26.8238C31.9174 27.2253 33.4787 26.8729 34.8957 25.8733Z" fill="black"/>
<path d="M42.0425 18.4735L41.2242 16.4572L46.1231 14.469L45.1769 12.1377L40.278 14.1259L39.5236 12.2672L45.0841 10.0104L44.106 7.60035L35.4581 11.1101L39.9332 22.1366L48.7859 18.5437L47.8078 16.1336L42.0425 18.4735Z" fill="black"/>
<path d="M55.8076 17.8218C57.9787 17.5586 59.6331 16.5555 60.6042 14.9862L58.251 13.3246C57.6186 14.3064 56.769 14.9046 55.6413 15.0413C53.7059 15.2759 52.1963 14.0927 51.9515 12.0731C51.7067 10.0535 52.8899 8.54387 54.8253 8.30927C55.953 8.17259 56.9209 8.5505 57.7696 9.35273L59.6576 7.17707C58.3398 5.88524 56.4936 5.30639 54.3225 5.56955C50.5862 6.02243 48.151 8.89628 48.5855 12.4811C49.02 16.0659 52.0713 18.2747 55.8076 17.8218Z" fill="black"/>
<path d="M64.1248 17.4736L67.4571 17.9111L68.6572 8.77246L72.2588 9.2454L72.6058 6.60309L62.0533 5.21742L61.7064 7.85973L65.3248 8.33488L64.1248 17.4736Z" fill="black"/>
<path d="M109.621 59.0867C110.248 60.0488 111.219 60.5319 112.352 60.4178C114.179 60.2338 115.294 58.5838 114.981 55.4715L114.371 49.4162L102.531 50.6084L103.175 57.0021C103.495 60.182 104.866 61.7525 106.913 61.5464C108.351 61.4017 109.282 60.4706 109.621 59.0867ZM112.518 55.2753C112.63 56.3917 112.299 57.0059 111.555 57.0809C110.794 57.1575 110.347 56.6216 110.234 55.5053L110.003 53.2049L112.286 52.975L112.518 55.2753ZM105.566 56.4879L105.284 53.6801L107.685 53.4382L107.968 56.246C108.084 57.3962 107.756 58.0443 106.944 58.1261C106.132 58.2078 105.682 57.6381 105.566 56.4879Z" fill="black"/>
<path d="M105.458 66.6206L107.604 66.9764L106.74 72.1922L109.222 72.6036L110.087 67.3877L112.066 67.7157L111.084 73.636L113.65 74.0612L115.176 64.8538L103.437 62.9082L101.874 72.3336L104.44 72.7589L105.458 66.6206Z" fill="black"/>
<path d="M98.2208 80.784L96.5786 84.3421L104.761 82.4702L107.515 89.1081L109.071 85.7356L106.504 79.4655L111.006 81.5432L112.406 78.5111L101.577 73.5131L100.177 76.5452L102.884 77.7947L103.578 79.5036L98.2208 80.784Z" fill="black"/>
<path d="M96.0079 84.369L94.022 87.0954L103.661 94.1164L105.647 91.39L96.0079 84.369Z" fill="black"/>
<path d="M90.7887 90.2779C88.6448 92.365 88.567 94.5759 90.7252 96.7929L95.9665 102.177L101.302 96.9832L99.4876 95.1194L96.5397 97.9891L92.9704 94.3226C92.1759 93.5064 92.1385 92.7125 92.8328 92.0365C93.381 91.5029 94.1525 91.345 95.1724 91.4909L94.9701 88.651C93.5178 88.4752 92.0312 89.0684 90.7887 90.2779Z" fill="black"/>
<path d="M79.6155 98.8638L76.2529 100.858L84.0349 103.95L82.5412 110.962L85.7284 109.072L87.1674 102.468L89.6904 106.722L92.5559 105.023L86.4869 94.7889L83.6214 96.4882L85.1387 99.0467L84.7417 100.843L79.6155 98.8638Z" fill="black"/>
<path d="M73.3762 103.996L73.9445 106.097L68.841 107.478L69.4982 109.906L74.6016 108.525L75.1256 110.462L69.3329 112.029L70.0122 114.54L79.0212 112.102L75.9132 100.615L66.6908 103.111L67.3702 105.621L73.3762 103.996Z" fill="black"/>
<path d="M57.3446 115.143L57.4475 108.803L62.5969 115.228L65.3675 115.273L65.5607 103.375L62.2631 103.321L62.1602 109.662L57.0108 103.236L54.2402 103.191L54.047 115.09L57.3446 115.143Z" fill="black"/>
</svg>
