<svg width="121" height="121" viewBox="0 0 121 121" fill="none" xmlns="http://www.w3.org/2000/svg">
<path d="M8.60773 41.9094L15.5449 46.0207L7.5397 46.6875L6.86477 49.707L13.7319 53.8201L5.79303 54.5017L5.03651 57.8861L17.4917 56.716L18.2779 53.1988L11.7295 49.2963L19.294 48.653L20.0802 45.1358L9.30863 38.7738L8.60773 41.9094Z" fill="black"/>
<path d="M26.4298 34.2185L28.3264 31.2745L15.4685 29.2602L13.6732 32.047L20.8323 42.9076L22.692 40.0208L21.2547 37.9827L23.9799 33.7525L26.4298 34.2185ZM19.7022 35.8096L17.3296 32.4611L21.3594 33.2372L19.7022 35.8096Z" fill="black"/>
<path d="M30.2953 29.9955L32.7525 27.7066L26.4754 20.968L29.1311 18.4942L27.3162 16.5458L19.5351 23.7939L21.3501 25.7423L24.0182 23.2569L30.2953 29.9955Z" fill="black"/>
<path d="M39.79 22.338L45.0373 20.3059C48.7151 18.8816 50.4069 15.7653 49.0869 12.357C47.767 8.94863 44.4176 7.78467 40.7398 9.20899L35.4925 11.2411L39.79 22.338ZM41.9589 18.6177L39.6014 12.5302L41.5829 11.7628C43.4694 11.0323 45.1735 11.6667 45.9164 13.5848C46.6592 15.503 45.8269 17.1197 43.9404 17.8503L41.9589 18.6177Z" fill="black"/>
<path d="M58.2329 17.6603C62.0345 17.4404 64.6837 14.6648 64.4776 11.1008C64.2714 7.53671 61.32 5.08504 57.5183 5.3049C53.7167 5.52477 51.0675 8.30036 51.2736 11.8644C51.4798 15.4284 54.4312 17.8801 58.2329 17.6603ZM58.0719 14.8769C56.2729 14.981 54.7867 13.7217 54.668 11.6681C54.5492 9.61453 55.8803 8.1923 57.6793 8.08825C59.4783 7.98421 60.9645 9.2435 61.0832 11.2971C61.202 13.3506 59.8709 14.7729 58.0719 14.8769Z" fill="black"/>
<path d="M69.7098 15.5208L70.1885 13.3883L75.3698 14.5515L75.9233 12.0858L70.7421 10.9227L71.1834 8.95679L77.0644 10.277L77.6366 7.72803L68.4902 5.67477L65.8722 17.3368L75.2352 19.4386L75.8074 16.8897L69.7098 15.5208Z" fill="black"/>
<path d="M78.5138 21.2043L81.5096 22.719L85.6635 14.5034L88.9013 16.1405L90.1024 13.7651L80.6159 8.96853L79.4148 11.3439L82.6678 12.9887L78.5138 21.2043Z" fill="black"/>
<path d="M103.896 55.7971L103.731 61.4216C103.616 65.3639 105.83 68.1331 109.484 68.2402C113.137 68.3474 115.511 65.7128 115.626 61.7705L115.791 56.1459L103.896 55.7971ZM106.482 59.2404L113.008 59.4317L112.945 61.5558C112.886 63.578 111.64 64.902 109.584 64.8417C107.527 64.7814 106.361 63.3866 106.42 61.3644L106.482 59.2404Z" fill="black"/>
<path d="M101.285 74.1917C100.159 77.5348 101.385 80.1416 104.76 81.2785L111.027 83.3892L112.087 80.24L105.918 78.1619C103.98 77.5091 103.477 76.4405 103.923 75.1162C104.374 73.7757 105.422 73.2294 107.36 73.8822L113.529 75.9602L114.606 72.7625L108.34 70.6518C104.964 69.5149 102.411 70.8487 101.285 74.1917Z" fill="black"/>
<path d="M94.6614 86.9625L92.571 89.9178L97.1267 89.982C96.8544 91.6089 97.4208 93.0553 98.8566 94.0709C101.087 95.6485 103.65 94.9518 105.534 92.2893L108.689 87.8285L98.9307 80.9265L96.9785 83.6866L99.5713 85.5206L98.5064 87.0261L94.6614 86.9625ZM100.829 91.2829C99.9365 90.6518 99.811 89.7056 100.62 88.5625L101.704 87.0291L104.562 89.0504L103.477 90.5838C102.669 91.7269 101.735 91.9238 100.829 91.2829Z" fill="black"/>
<path d="M90.6589 103.544L92.3398 105.529L99.462 99.4977L91.7715 90.4166L89.2029 92.5919L91.8396 95.7054L87.8309 99.1002L89.5118 101.085L93.5205 97.6903L95.2124 99.6882L90.6589 103.544Z" fill="black"/>
<path d="M76.9151 103.068L75.5567 105.805C74.525 107.872 74.5985 108.972 75.0102 110.052C75.7971 112.117 78.0629 112.764 80.6205 111.789C82.8127 110.954 84.0343 109.433 84.3435 107.714L81.5119 107.302C81.3395 108.186 80.748 108.83 79.9378 109.138C78.9847 109.502 78.3447 109.254 78.0723 108.54C77.8967 108.079 77.8301 107.522 78.4049 106.357L81.0839 100.879L80.3333 98.9092L71.6755 102.208L72.6259 104.702L76.9151 103.068Z" fill="black"/>
<path d="M66.1238 102.696C63.1281 103.059 61.2115 105.562 61.6827 109.45C62.154 113.338 64.6132 115.311 67.6089 114.948C70.6215 114.583 72.5381 112.079 72.0668 108.191C71.5956 104.304 69.1364 102.33 66.1238 102.696ZM66.4543 105.422C67.5314 105.291 68.4178 106.123 68.7177 108.597C69.0176 111.071 68.3556 112.091 67.2785 112.221C66.2182 112.35 65.3318 111.518 65.0319 109.044C64.732 106.57 65.394 105.551 66.4543 105.422Z" fill="black"/>
<path d="M53.7492 109.905L51.0172 112.26L50.7853 114.347L59.3013 115.293L59.5874 112.718L54.9423 112.202L57.2985 110.164L57.5322 108.06L56.1354 107.905C54.8563 107.762 54.3832 107.267 54.4617 106.56C54.5496 105.769 55.3387 105.414 56.4663 105.539C57.5771 105.662 58.7515 106.134 59.6229 106.878L61.1133 104.505C59.9857 103.613 58.2971 103.016 56.6646 102.835C53.1134 102.44 51.3182 104.183 51.0957 106.186C50.9087 107.869 51.81 109.264 53.7492 109.905Z" fill="black"/>
<path d="M46.1327 100.541C43.2888 99.5075 40.4393 100.877 39.0975 104.568C37.7556 108.259 39.06 111.139 41.9039 112.173C44.7638 113.212 47.6133 111.843 48.9551 108.152C50.297 104.461 48.9925 101.581 46.1327 100.541ZM45.1917 103.13C46.2142 103.501 46.6296 104.647 45.7758 106.996C44.9219 109.345 43.8675 109.956 42.8449 109.584C41.8384 109.218 41.423 108.072 42.2768 105.724C43.1307 103.375 44.1851 102.764 45.1917 103.13Z" fill="black"/>
</svg>
