<svg width="30" height="28" viewBox="0 0 30 28" fill="none" xmlns="http://www.w3.org/2000/svg">
<path d="M14.657 0C12.7376 0 10.837 0.362105 9.06375 1.06564C7.29048 1.76917 5.67925 2.80036 4.32206 4.10032C1.58107 6.72572 0.0411965 10.2865 0.0411965 13.9994C0.0284192 17.232 1.197 20.3671 3.34436 22.861L0.421206 25.6609C0.218402 25.8577 0.0810188 26.1077 0.0263937 26.3793C-0.0282315 26.6509 0.0023486 26.9319 0.114275 27.1868C0.235671 27.4387 0.432467 27.6503 0.679682 27.7949C0.926896 27.9395 1.21338 28.0104 1.50277 27.9988H14.657C18.5333 27.9988 22.2509 26.5238 24.9919 23.8984C27.7329 21.273 29.2727 17.7122 29.2727 13.9994C29.2727 10.2865 27.7329 6.72572 24.9919 4.10032C22.2509 1.47493 18.5333 0 14.657 0V0ZM14.657 25.1989H5.02517L6.38444 23.8969C6.65666 23.6346 6.80945 23.2798 6.80945 22.91C6.80945 22.5401 6.65666 22.1853 6.38444 21.923C4.47063 20.092 3.27884 17.682 3.01213 15.1036C2.74542 12.5253 3.42028 9.93817 4.92173 7.78299C6.42319 5.6278 8.65835 4.03792 11.2464 3.28422C13.8344 2.53051 16.6153 2.65961 19.1151 3.64952C21.6149 4.63943 23.6791 6.4289 24.9559 8.71306C26.2327 10.9972 26.6432 13.6348 26.1174 16.1763C25.5916 18.7178 24.162 21.0061 22.0723 22.6513C19.9826 24.2965 17.362 25.1968 14.657 25.1989V25.1989ZM17.5801 12.5994H16.1185V11.1995C16.1185 10.8282 15.9646 10.4721 15.6905 10.2096C15.4164 9.94706 15.0446 9.79957 14.657 9.79957C14.2693 9.79957 13.8976 9.94706 13.6235 10.2096C13.3494 10.4721 13.1954 10.8282 13.1954 11.1995V12.5994H11.7338C11.3462 12.5994 10.9744 12.7469 10.7003 13.0095C10.4262 13.272 10.2722 13.6281 10.2722 13.9994C10.2722 14.3707 10.4262 14.7267 10.7003 14.9893C10.9744 15.2518 11.3462 15.3993 11.7338 15.3993H13.1954V16.7993C13.1954 17.1705 13.3494 17.5266 13.6235 17.7892C13.8976 18.0517 14.2693 18.1992 14.657 18.1992C15.0446 18.1992 15.4164 18.0517 15.6905 17.7892C15.9646 17.5266 16.1185 17.1705 16.1185 16.7993V15.3993H17.5801C17.9678 15.3993 18.3395 15.2518 18.6136 14.9893C18.8877 14.7267 19.0417 14.3707 19.0417 13.9994C19.0417 13.6281 18.8877 13.272 18.6136 13.0095C18.3395 12.7469 17.9678 12.5994 17.5801 12.5994Z" fill="#091422"/>
</svg>
