<svg width="124" height="119" viewBox="0 0 124 119" fill="none" xmlns="http://www.w3.org/2000/svg">
<path d="M21.3502 83.7194L27.5764 70.7633C28.1268 69.6179 28.1997 68.3008 27.779 67.1017C27.3583 65.9025 26.4785 64.9196 25.3331 64.3692L21.0144 62.2938C18.7236 61.1929 16.964 59.2272 16.1226 56.8289C15.2812 54.4307 15.427 51.7964 16.5278 49.5056C17.6287 47.2149 19.5945 45.4552 21.9927 44.6138C24.391 43.7724 27.0252 43.9182 29.316 45.0191L33.6347 47.0945C34.7801 47.6449 36.0972 47.7178 37.2963 47.2971C38.4955 46.8764 39.4783 45.9966 40.0288 44.8512L46.255 31.8951C46.8054 30.7497 47.7883 29.8699 48.9874 29.4492C50.1866 29.0285 51.5037 29.1014 52.6491 29.6518L65.6051 35.878C66.7505 36.4285 68.0677 36.5013 69.2668 36.0806C70.4659 35.6599 71.4488 34.7801 71.9992 33.6347L74.0746 29.316C75.1755 27.0253 77.1413 25.2656 79.5395 24.4242C81.9378 23.5828 84.572 23.7286 86.8628 24.8295C89.1536 25.9303 90.9132 27.8961 91.7546 30.2944C92.596 32.6926 92.4502 35.3269 91.3494 37.6177L89.274 41.9363C88.7236 43.0817 88.6507 44.3989 89.0714 45.598C89.4921 46.7971 90.3719 47.78 91.5173 48.3304L104.473 54.5566C105.619 55.1071 106.499 56.09 106.919 57.2891C107.34 58.4882 107.267 59.8053 106.717 60.9507L100.49 73.9068C99.94 75.0522 98.9571 75.932 97.758 76.3527C96.5589 76.7734 95.2417 76.7005 94.0963 76.1501L89.7776 74.0747C87.4869 72.9738 84.8526 72.8281 82.4543 73.6695C80.0561 74.5108 78.0903 76.2705 76.9895 78.5613C75.8886 80.852 75.7428 83.4863 76.5842 85.8845C77.4256 88.2828 79.1853 90.2486 81.476 91.3494L85.7947 93.4248C86.9401 93.9753 87.8199 94.9582 88.2406 96.1573C88.6613 97.3564 88.5884 98.6735 88.038 99.8189L81.8118 112.775C81.2614 113.92 80.2785 114.8 79.0794 115.221C77.8802 115.642 76.5631 115.569 75.4177 115.018L62.4616 108.792C61.3163 108.242 60.4364 107.259 60.0157 106.06C59.595 104.861 59.6679 103.543 60.2184 102.398L62.2938 98.0793C63.3946 95.7885 63.5404 93.1543 62.699 90.756C61.8576 88.3578 60.098 86.392 57.8072 85.2911C55.5164 84.1903 52.8821 84.0445 50.4839 84.8859C48.0856 85.7273 46.1199 87.4869 45.019 89.7777L42.9436 94.0964C42.3932 95.2418 41.4103 96.1216 40.2112 96.5423C39.012 96.963 37.6949 96.8901 36.5495 96.3397L23.5934 90.1135C22.4481 89.563 21.5682 88.5801 21.1475 87.381C20.7268 86.1819 20.7997 84.8648 21.3502 83.7194" fill="#F5E027"/>
<path d="M21.3502 83.7194L27.5764 70.7633C28.1268 69.6179 28.1997 68.3008 27.779 67.1017C27.3583 65.9025 26.4785 64.9196 25.3331 64.3692L21.0144 62.2938C18.7236 61.1929 16.964 59.2272 16.1226 56.8289C15.2812 54.4307 15.427 51.7964 16.5278 49.5056C17.6287 47.2149 19.5945 45.4552 21.9927 44.6138C24.391 43.7724 27.0252 43.9182 29.316 45.0191L33.6347 47.0945C34.7801 47.6449 36.0972 47.7178 37.2963 47.2971C38.4955 46.8764 39.4783 45.9966 40.0288 44.8512L46.255 31.8951C46.8054 30.7497 47.7883 29.8699 48.9874 29.4492C50.1866 29.0285 51.5037 29.1014 52.6491 29.6518L65.6051 35.878C66.7505 36.4285 68.0677 36.5013 69.2668 36.0806C70.4659 35.6599 71.4488 34.7801 71.9992 33.6347L74.0746 29.316C75.1755 27.0253 77.1413 25.2656 79.5395 24.4242C81.9378 23.5828 84.572 23.7286 86.8628 24.8295C89.1536 25.9303 90.9132 27.8961 91.7546 30.2944C92.596 32.6926 92.4502 35.3269 91.3494 37.6177L89.274 41.9363C88.7236 43.0817 88.6507 44.3989 89.0714 45.598C89.4921 46.7971 90.3719 47.78 91.5173 48.3304L104.473 54.5566C105.619 55.1071 106.499 56.09 106.919 57.2891C107.34 58.4882 107.267 59.8053 106.717 60.9507L100.49 73.9068C99.94 75.0522 98.9571 75.932 97.758 76.3527C96.5589 76.7734 95.2417 76.7005 94.0963 76.1501L89.7776 74.0747C87.4869 72.9738 84.8526 72.8281 82.4543 73.6695C80.0561 74.5108 78.0903 76.2705 76.9895 78.5613C75.8886 80.852 75.7428 83.4863 76.5842 85.8845C77.4256 88.2828 79.1853 90.2486 81.476 91.3494L85.7947 93.4248C86.9401 93.9753 87.8199 94.9582 88.2406 96.1573C88.6613 97.3564 88.5884 98.6735 88.038 99.8189L81.8118 112.775C81.2614 113.92 80.2785 114.8 79.0794 115.221C77.8802 115.642 76.5631 115.569 75.4177 115.018L62.4616 108.792C61.3163 108.242 60.4364 107.259 60.0157 106.06C59.595 104.861 59.6679 103.543 60.2184 102.398L62.2938 98.0793C63.3946 95.7885 63.5404 93.1543 62.699 90.756C61.8576 88.3578 60.098 86.392 57.8072 85.2911C55.5164 84.1903 52.8821 84.0445 50.4839 84.8859C48.0856 85.7273 46.1199 87.4869 45.019 89.7777L42.9436 94.0964C42.3932 95.2418 41.4103 96.1216 40.2112 96.5423C39.012 96.963 37.6949 96.8901 36.5495 96.3397L23.5934 90.1135C22.4481 89.563 21.5682 88.5801 21.1475 87.381C20.7268 86.1819 20.7997 84.8648 21.3502 83.7194" stroke="#091422" stroke-width="2" stroke-linecap="round" stroke-linejoin="round"/>
<path d="M27.7679 83.0475L33.9111 70.2642C34.4542 69.1341 34.5261 67.8345 34.111 66.6513C33.696 65.4682 32.8279 64.4984 31.6978 63.9553L27.4366 61.9076C25.1764 60.8214 23.4402 58.8818 22.6101 56.5156C21.7799 54.1493 21.9237 51.5502 23.0099 49.2899C24.0961 47.0297 26.0356 45.2935 28.4019 44.4634C30.7682 43.6332 33.3673 43.777 35.6276 44.8632L39.8887 46.9109C41.0188 47.454 42.3184 47.5259 43.5015 47.1108C44.6846 46.6957 45.6544 45.8276 46.1975 44.6975L52.3407 31.9142C52.8838 30.7841 53.8536 29.916 55.0367 29.5009C56.2198 29.0858 57.5194 29.1577 58.6495 29.7008L71.4328 35.844C72.563 36.3871 73.8625 36.459 75.0457 36.0439C76.2288 35.6289 77.1986 34.7608 77.7417 33.6307L79.7894 29.3695C80.8756 27.1093 82.8152 25.3731 85.1814 24.543C87.5477 23.7128 90.1469 23.8566 92.4071 24.9428C94.6673 26.029 96.4035 27.9685 97.2337 30.3348C98.0638 32.7011 97.92 35.3002 96.8338 37.5605L94.7861 41.8216C94.243 42.9517 94.1711 44.2513 94.5862 45.4344C95.0013 46.6175 95.8694 47.5873 96.9995 48.1304L109.783 54.2736C110.913 54.8167 111.781 55.7865 112.196 56.9696C112.611 58.1527 112.539 59.4523 111.996 60.5824L105.853 73.3658C105.31 74.4959 104.34 75.364 103.157 75.779C101.974 76.1941 100.674 76.1222 99.5442 75.5791L95.2831 73.5314C93.0228 72.4452 90.4237 72.3014 88.0574 73.1316C85.6911 73.9617 83.7516 75.6979 82.6654 77.9582C81.5792 80.2184 81.4354 82.8175 82.2656 85.1838C83.0957 87.5501 84.8319 89.4896 87.0921 90.5758L91.3532 92.6236C92.4834 93.1666 93.3514 94.1364 93.7665 95.3196C94.1816 96.5027 94.1097 97.8023 93.5666 98.9324L87.4234 111.716C86.8803 112.846 85.9105 113.714 84.7274 114.129C83.5443 114.544 82.2447 114.472 81.1146 113.929L68.3313 107.786C67.2012 107.243 66.3331 106.273 65.918 105.09C65.5029 103.907 65.5748 102.607 66.1179 101.477L68.1656 97.216C69.2518 94.9557 69.3956 92.3566 68.5654 89.9903C67.7353 87.624 65.9991 85.6845 63.7389 84.5983C61.4786 83.5121 58.8795 83.3683 56.5132 84.1985C54.147 85.0286 52.2074 86.7648 51.1212 89.025L49.0735 93.2861C48.5304 94.4163 47.5606 95.2843 46.3775 95.6994C45.1943 96.1145 43.8947 96.0426 42.7646 95.4995L29.9813 89.3563C28.8512 88.8132 27.9831 87.8434 27.568 86.6603C27.1529 85.4772 27.2248 84.1776 27.7679 83.0475" fill="#F5E027"/>
<path d="M27.7679 83.0475L33.9111 70.2642C34.4542 69.1341 34.5261 67.8345 34.111 66.6513C33.696 65.4682 32.8279 64.4984 31.6978 63.9553L27.4366 61.9076C25.1764 60.8214 23.4402 58.8818 22.6101 56.5156C21.7799 54.1493 21.9237 51.5502 23.0099 49.2899C24.0961 47.0297 26.0356 45.2935 28.4019 44.4634C30.7682 43.6332 33.3673 43.777 35.6276 44.8632L39.8887 46.9109C41.0188 47.454 42.3184 47.5259 43.5015 47.1108C44.6846 46.6957 45.6544 45.8276 46.1975 44.6975L52.3407 31.9142C52.8838 30.7841 53.8536 29.916 55.0367 29.5009C56.2198 29.0858 57.5194 29.1577 58.6495 29.7008L71.4328 35.844C72.563 36.3871 73.8625 36.459 75.0457 36.0439C76.2288 35.6289 77.1986 34.7608 77.7417 33.6307L79.7894 29.3695C80.8756 27.1093 82.8152 25.3731 85.1814 24.543C87.5477 23.7128 90.1469 23.8566 92.4071 24.9428C94.6673 26.029 96.4035 27.9685 97.2337 30.3348C98.0638 32.7011 97.92 35.3002 96.8338 37.5605L94.7861 41.8216C94.243 42.9517 94.1711 44.2513 94.5862 45.4344C95.0013 46.6175 95.8694 47.5873 96.9995 48.1304L109.783 54.2736C110.913 54.8167 111.781 55.7865 112.196 56.9696C112.611 58.1527 112.539 59.4523 111.996 60.5824L105.853 73.3658C105.31 74.4959 104.34 75.364 103.157 75.779C101.974 76.1941 100.674 76.1222 99.5442 75.5791L95.2831 73.5314C93.0228 72.4452 90.4237 72.3014 88.0574 73.1316C85.6911 73.9617 83.7516 75.6979 82.6654 77.9582C81.5792 80.2184 81.4354 82.8175 82.2656 85.1838C83.0957 87.5501 84.8319 89.4896 87.0921 90.5758L91.3532 92.6236C92.4834 93.1666 93.3514 94.1364 93.7665 95.3196C94.1816 96.5027 94.1097 97.8023 93.5666 98.9324L87.4234 111.716C86.8803 112.846 85.9105 113.714 84.7274 114.129C83.5443 114.544 82.2447 114.472 81.1146 113.929L68.3313 107.786C67.2012 107.243 66.3331 106.273 65.918 105.09C65.5029 103.907 65.5748 102.607 66.1179 101.477L68.1656 97.216C69.2518 94.9557 69.3956 92.3566 68.5654 89.9903C67.7353 87.624 65.9991 85.6845 63.7389 84.5983C61.4786 83.5121 58.8795 83.3683 56.5132 84.1985C54.147 85.0286 52.2074 86.7648 51.1212 89.025L49.0735 93.2861C48.5304 94.4163 47.5606 95.2843 46.3775 95.6994C45.1943 96.1145 43.8947 96.0426 42.7646 95.4995L29.9813 89.3563C28.8512 88.8132 27.9831 87.8434 27.568 86.6603C27.1529 85.4772 27.2248 84.1776 27.7679 83.0475" stroke="#091422" stroke-width="2" stroke-linecap="round" stroke-linejoin="round"/>
</svg>
