<svg width="81" height="79" viewBox="0 0 81 79" fill="none" xmlns="http://www.w3.org/2000/svg">
<path d="M17.6667 73.8333L17.6667 61.3333C17.6667 60.2283 17.2277 59.1685 16.4463 58.3871C15.6649 57.6057 14.6051 57.1667 13.5 57.1667L9.33333 57.1667C7.1232 57.1667 5.00358 56.2887 3.44078 54.7259C1.87797 53.1631 1 51.0435 1 48.8333C1 46.6232 1.87797 44.5036 3.44078 42.9408C5.00358 41.378 7.1232 40.5 9.33333 40.5L13.5 40.5C14.6051 40.5 15.6649 40.061 16.4463 39.2796C17.2277 38.4982 17.6667 37.4384 17.6667 36.3333L17.6667 23.8333C17.6667 22.7283 18.1057 21.6685 18.8871 20.8871C19.6685 20.1057 20.7283 19.6667 21.8333 19.6667L34.3333 19.6667C35.4384 19.6667 36.4982 19.2277 37.2796 18.4463C38.061 17.6649 38.5 16.6051 38.5 15.5L38.5 11.3333C38.5 9.1232 39.378 7.00359 40.9408 5.44078C42.5036 3.87798 44.6232 3 46.8333 3C49.0435 3 51.1631 3.87798 52.7259 5.44078C54.2887 7.00359 55.1667 9.1232 55.1667 11.3333L55.1667 15.5C55.1667 16.6051 55.6056 17.6649 56.3871 18.4463C57.1685 19.2277 58.2283 19.6667 59.3333 19.6667L71.8333 19.6667C72.9384 19.6667 73.9982 20.1057 74.7796 20.8871C75.561 21.6685 76 22.7283 76 23.8333L76 36.3333C76 37.4384 75.561 38.4982 74.7796 39.2796C73.9982 40.061 72.9384 40.5 71.8333 40.5L67.6667 40.5C65.4565 40.5 63.3369 41.378 61.7741 42.9408C60.2113 44.5036 59.3333 46.6232 59.3333 48.8333C59.3333 51.0435 60.2113 53.1631 61.7741 54.7259C63.3369 56.2887 65.4565 57.1667 67.6667 57.1667L71.8333 57.1667C72.9384 57.1667 73.9982 57.6057 74.7796 58.3871C75.561 59.1685 76 60.2283 76 61.3333L76 73.8333C76 74.9384 75.561 75.9982 74.7796 76.7796C73.9982 77.561 72.9384 78 71.8333 78L59.3333 78C58.2283 78 57.1685 77.561 56.3871 76.7796C55.6056 75.9982 55.1667 74.9384 55.1667 73.8333L55.1667 69.6667C55.1667 67.4565 54.2887 65.3369 52.7259 63.7741C51.1631 62.2113 49.0435 61.3333 46.8333 61.3333C44.6232 61.3333 42.5036 62.2113 40.9408 63.7741C39.378 65.3369 38.5 67.4565 38.5 69.6667L38.5 73.8333C38.5 74.9384 38.061 75.9982 37.2796 76.7796C36.4982 77.561 35.4384 78 34.3333 78L21.8333 78C20.7283 78 19.6685 77.561 18.8871 76.7796C18.1057 75.9982 17.6667 74.9384 17.6667 73.8333Z" fill="#FE4F51"/>
<path d="M17.6667 73.8333L17.6667 61.3333C17.6667 60.2283 17.2277 59.1685 16.4463 58.3871C15.6649 57.6057 14.6051 57.1667 13.5 57.1667L9.33333 57.1667C7.1232 57.1667 5.00358 56.2887 3.44078 54.7259C1.87797 53.1631 1 51.0435 1 48.8333C1 46.6232 1.87797 44.5036 3.44078 42.9408C5.00358 41.378 7.1232 40.5 9.33333 40.5L13.5 40.5C14.6051 40.5 15.6649 40.061 16.4463 39.2796C17.2277 38.4982 17.6667 37.4384 17.6667 36.3333L17.6667 23.8333C17.6667 22.7283 18.1057 21.6685 18.8871 20.8871C19.6685 20.1057 20.7283 19.6667 21.8333 19.6667L34.3333 19.6667C35.4384 19.6667 36.4982 19.2277 37.2796 18.4463C38.061 17.6649 38.5 16.6051 38.5 15.5L38.5 11.3333C38.5 9.1232 39.378 7.00358 40.9408 5.44078C42.5036 3.87798 44.6232 3 46.8333 3C49.0435 3 51.1631 3.87798 52.7259 5.44078C54.2887 7.00358 55.1667 9.1232 55.1667 11.3333L55.1667 15.5C55.1667 16.6051 55.6056 17.6649 56.3871 18.4463C57.1685 19.2277 58.2283 19.6667 59.3333 19.6667L71.8333 19.6667C72.9384 19.6667 73.9982 20.1057 74.7796 20.8871C75.561 21.6685 76 22.7283 76 23.8333L76 36.3333C76 37.4384 75.561 38.4982 74.7796 39.2796C73.9982 40.061 72.9384 40.5 71.8333 40.5L67.6667 40.5C65.4565 40.5 63.3369 41.378 61.7741 42.9408C60.2113 44.5036 59.3333 46.6232 59.3333 48.8333C59.3333 51.0435 60.2113 53.1631 61.7741 54.7259C63.3369 56.2887 65.4565 57.1667 67.6667 57.1667L71.8333 57.1667C72.9384 57.1667 73.9982 57.6057 74.7796 58.3871C75.561 59.1685 76 60.2283 76 61.3333L76 73.8333C76 74.9384 75.561 75.9982 74.7796 76.7796C73.9982 77.561 72.9384 78 71.8333 78L59.3333 78C58.2283 78 57.1685 77.561 56.3871 76.7796C55.6056 75.9982 55.1667 74.9384 55.1667 73.8333L55.1667 69.6667C55.1667 67.4565 54.2887 65.3369 52.7259 63.7741C51.1631 62.2113 49.0435 61.3333 46.8333 61.3333C44.6232 61.3333 42.5036 62.2113 40.9408 63.7741C39.378 65.3369 38.5 67.4565 38.5 69.6667L38.5 73.8333C38.5 74.9384 38.061 75.9982 37.2796 76.7796C36.4982 77.561 35.4384 78 34.3333 78L21.8333 78C20.7283 78 19.6685 77.561 18.8871 76.7796C18.1057 75.9982 17.6667 74.9384 17.6667 73.8333" stroke="#091422" stroke-width="2" stroke-linecap="round" stroke-linejoin="round"/>
<path d="M22.4444 70.8889L22.4444 58.5556C22.4444 57.4652 22.0113 56.4195 21.2403 55.6486C20.4693 54.8776 19.4237 54.4444 18.3333 54.4444L14.2222 54.4444C12.0416 54.4444 9.9502 53.5782 8.40823 52.0362C6.86627 50.4942 6 48.4029 6 46.2222C6 44.0416 6.86627 41.9502 8.40823 40.4082C9.9502 38.8663 12.0416 38 14.2222 38L18.3333 38C19.4237 38 20.4693 37.5669 21.2403 36.7959C22.0113 36.0249 22.4444 34.9792 22.4444 33.8889L22.4444 21.5556C22.4444 20.4652 22.8776 19.4195 23.6486 18.6486C24.4195 17.8776 25.4652 17.4445 26.5556 17.4445L38.8889 17.4445C39.9792 17.4445 41.0249 17.0113 41.7959 16.2403C42.5669 15.4693 43 14.4237 43 13.3333L43 9.22223C43 7.04156 43.8663 4.9502 45.4082 3.40824C46.9502 1.86627 49.0416 1 51.2222 1C53.4029 1 55.4942 1.86627 57.0362 3.40824C58.5782 4.9502 59.4444 7.04156 59.4444 9.22223L59.4444 13.3333C59.4444 14.4237 59.8776 15.4693 60.6486 16.2403C61.4195 17.0113 62.4652 17.4445 63.5556 17.4445L75.8889 17.4445C76.9792 17.4445 78.0249 17.8776 78.7959 18.6486C79.5669 19.4195 80 20.4652 80 21.5556L80 33.8889C80 34.9792 79.5669 36.0249 78.7959 36.7959C78.0249 37.5669 76.9792 38 75.8889 38L71.7778 38C69.5971 38 67.5058 38.8663 65.9638 40.4082C64.4218 41.9502 63.5555 44.0416 63.5555 46.2222C63.5555 48.4029 64.4218 50.4942 65.9638 52.0362C67.5058 53.5782 69.5971 54.4444 71.7778 54.4444L75.8889 54.4444C76.9792 54.4444 78.0249 54.8776 78.7959 55.6486C79.5669 56.4195 80 57.4652 80 58.5556L80 70.8889C80 71.9792 79.5669 73.0249 78.7959 73.7959C78.0249 74.5669 76.9792 75 75.8889 75L63.5555 75C62.4652 75 61.4195 74.5669 60.6486 73.7959C59.8776 73.0249 59.4444 71.9792 59.4444 70.8889L59.4444 66.7778C59.4444 64.5971 58.5782 62.5058 57.0362 60.9638C55.4942 59.4218 53.4029 58.5556 51.2222 58.5556C49.0415 58.5556 46.9502 59.4218 45.4082 60.9638C43.8663 62.5058 43 64.5971 43 66.7778L43 70.8889C43 71.9792 42.5669 73.0249 41.7959 73.7959C41.0249 74.5669 39.9792 75 38.8889 75L26.5556 75C25.4652 75 24.4195 74.5669 23.6486 73.7959C22.8776 73.0249 22.4444 71.9792 22.4444 70.8889Z" fill="#FE4F51"/>
<path d="M22.4444 70.8889L22.4444 58.5556C22.4444 57.4652 22.0113 56.4195 21.2403 55.6486C20.4693 54.8776 19.4237 54.4444 18.3333 54.4444L14.2222 54.4444C12.0416 54.4444 9.9502 53.5782 8.40823 52.0362C6.86627 50.4942 6 48.4029 6 46.2222C6 44.0416 6.86627 41.9502 8.40823 40.4082C9.9502 38.8663 12.0416 38 14.2222 38L18.3333 38C19.4237 38 20.4693 37.5669 21.2403 36.7959C22.0113 36.0249 22.4444 34.9792 22.4444 33.8889L22.4444 21.5556C22.4444 20.4652 22.8776 19.4195 23.6486 18.6486C24.4195 17.8776 25.4652 17.4445 26.5556 17.4445L38.8889 17.4445C39.9792 17.4445 41.0249 17.0113 41.7959 16.2403C42.5669 15.4694 43 14.4237 43 13.3333L43 9.22223C43 7.04156 43.8663 4.9502 45.4082 3.40824C46.9502 1.86627 49.0416 1 51.2222 1C53.4029 1 55.4942 1.86627 57.0362 3.40824C58.5782 4.9502 59.4444 7.04156 59.4444 9.22223L59.4444 13.3333C59.4444 14.4237 59.8776 15.4694 60.6486 16.2403C61.4195 17.0113 62.4652 17.4445 63.5556 17.4445L75.8889 17.4445C76.9792 17.4445 78.0249 17.8776 78.7959 18.6486C79.5669 19.4195 80 20.4652 80 21.5556L80 33.8889C80 34.9792 79.5669 36.0249 78.7959 36.7959C78.0249 37.5669 76.9792 38 75.8889 38L71.7778 38C69.5971 38 67.5058 38.8663 65.9638 40.4082C64.4218 41.9502 63.5555 44.0416 63.5555 46.2222C63.5555 48.4029 64.4218 50.4942 65.9638 52.0362C67.5058 53.5782 69.5971 54.4444 71.7778 54.4444L75.8889 54.4444C76.9792 54.4444 78.0249 54.8776 78.7959 55.6486C79.5669 56.4195 80 57.4652 80 58.5556L80 70.8889C80 71.9792 79.5669 73.0249 78.7959 73.7959C78.0249 74.5669 76.9792 75 75.8889 75L63.5555 75C62.4652 75 61.4195 74.5669 60.6486 73.7959C59.8776 73.0249 59.4444 71.9792 59.4444 70.8889L59.4444 66.7778C59.4444 64.5971 58.5782 62.5058 57.0362 60.9638C55.4942 59.4218 53.4029 58.5556 51.2222 58.5556C49.0416 58.5556 46.9502 59.4218 45.4082 60.9638C43.8663 62.5058 43 64.5971 43 66.7778L43 70.8889C43 71.9792 42.5669 73.0249 41.7959 73.7959C41.0249 74.5669 39.9792 75 38.8889 75L26.5556 75C25.4652 75 24.4195 74.5669 23.6486 73.7959C22.8776 73.0249 22.4444 71.9792 22.4444 70.8889" stroke="#091422" stroke-width="2" stroke-linecap="round" stroke-linejoin="round"/>
</svg>
