<svg width="20" height="19" viewBox="0 0 20 19" fill="none" xmlns="http://www.w3.org/2000/svg">
<path d="M17.2105 0.348279L19.6402 2.64988C19.6402 2.64991 19.6402 2.64993 19.6403 2.64995C19.8073 2.80916 19.9 3.02333 19.9 3.24536C19.9 3.46739 19.8073 3.68156 19.6403 3.84077C19.6402 3.84079 19.6402 3.84081 19.6402 3.84083L14.0604 9.12646C14.0604 9.12648 14.0604 9.12651 14.0604 9.12653C13.9765 9.20531 13.8767 9.2679 13.7667 9.31048C13.6566 9.35307 13.5386 9.37471 13.4194 9.37406H13.4189H10.9987C10.7583 9.37406 10.5288 9.28354 10.3604 9.12399C10.1921 8.96462 10.0987 8.74965 10.0987 8.52673L10.0987 6.23419L10.0987 6.23358C10.098 6.12284 10.1204 6.01293 10.1648 5.9101C10.2091 5.80726 10.2746 5.71337 10.3577 5.63394C10.3577 5.63393 10.3578 5.63391 10.3578 5.6339L15.9376 0.348279C15.9376 0.348219 15.9377 0.348159 15.9377 0.348098C16.106 0.189747 16.3347 0.1 16.574 0.1C16.8135 0.1 17.0422 0.1898 17.2105 0.348241C17.2105 0.348254 17.2105 0.348266 17.2105 0.348279ZM12.9988 7.6794H13.0387L13.0676 7.652L17.6479 3.31322L17.7245 3.24062L17.6479 3.16802L16.6478 2.22069L16.579 2.15555L16.5103 2.22069L11.93 6.55947L11.8988 6.58905V6.63207V7.5794V7.6794H11.9988H12.9988ZM3.34016 16.9796L3.15449 17.1527H3.40836H8.99864C10.8801 17.1527 12.6855 16.4448 14.0174 15.183C15.3495 13.9211 16.099 12.2084 16.099 10.4214C16.099 10.1985 16.1924 9.9835 16.3607 9.82412C16.5291 9.66458 16.7586 9.57406 16.9991 9.57406C17.2395 9.57406 17.469 9.66458 17.6374 9.82412C17.8057 9.9835 17.8991 10.1985 17.8991 10.4214C17.8991 11.5271 17.6692 12.6222 17.2224 13.6441C16.7755 14.666 16.1204 15.5949 15.2942 16.3776C14.4679 17.1603 13.4867 17.7814 12.4064 18.2053C11.3262 18.6291 10.1682 18.8474 8.99864 18.8474L0.99871 18.8474C0.998581 18.8474 0.998453 18.8474 0.998324 18.8474C0.819602 18.8464 0.645568 18.7955 0.498156 18.7013C0.350688 18.6072 0.236781 18.4744 0.169938 18.3202L0.16959 18.3194C0.101378 18.1658 0.0828474 17.9968 0.116053 17.8335C0.149208 17.6705 0.23265 17.5196 0.356783 17.4002C0.357007 17.4 0.357231 17.3998 0.357455 17.3996L2.0662 15.8188L2.13633 15.7539L2.07471 15.6809C1.03004 14.4431 0.375469 12.9519 0.185413 11.3787C-0.00463924 9.80554 0.277405 8.21326 0.999549 6.78452C1.72173 5.35572 2.85499 4.148 4.26997 3.30059C5.68493 2.45319 7.32392 2.00066 8.99876 1.99541C9.23912 1.99544 9.46862 2.08595 9.63702 2.24548C9.80526 2.40485 9.8987 2.61982 9.8987 2.84274C9.8987 3.06567 9.80526 3.28063 9.63702 3.44001C9.46859 3.59956 9.23905 3.69007 8.99865 3.69007C7.59543 3.68998 6.22328 4.08405 5.05571 4.823C3.88809 5.56198 2.97719 6.61293 2.43906 7.84357C1.9009 9.07428 1.76 10.4289 2.03446 11.7358C2.3089 13.0426 2.98615 14.2423 3.97963 15.1833L3.97992 15.1836C4.06405 15.2626 4.13051 15.3563 4.17576 15.4592C4.221 15.5621 4.24421 15.6722 4.24421 15.7833C4.24421 15.8944 4.221 16.0045 4.17576 16.1073C4.13054 16.2102 4.06413 16.3038 3.98008 16.3829C3.98003 16.3829 3.97997 16.383 3.97992 16.383L3.34016 16.9796Z" fill="#091422" stroke="#4FC8B1" stroke-width="0.2"/>
</svg>
