<svg width="20" height="20" viewBox="0 0 20 20" fill="none" xmlns="http://www.w3.org/2000/svg">
<path d="M19.6666 13.0533L15.1561 8.71754C15.2505 8.27471 15.2973 7.8237 15.2958 7.37163C15.2955 6.13211 14.9708 4.91267 14.3517 3.82603C13.7327 2.73939 12.8393 1.82063 11.7542 1.15466C10.669 0.488694 9.42709 0.0970168 8.14321 0.0158337C6.85933 -0.0653495 5.57493 0.166582 4.40872 0.690189C4.26097 0.755213 4.13193 0.854003 4.0328 0.977979C3.93368 1.10196 3.86747 1.24737 3.83992 1.40159C3.81248 1.55386 3.82355 1.71026 3.87219 1.85753C3.92083 2.00479 4.0056 2.1386 4.11933 2.24759L8.46019 6.41989L6.66398 8.15034L2.33309 3.96842C2.219 3.86056 2.07968 3.78068 1.92686 3.73551C1.77404 3.69034 1.61219 3.6812 1.45494 3.70886C1.29585 3.73442 1.14557 3.79676 1.01697 3.89052C0.888359 3.98428 0.785258 4.10667 0.716492 4.24722C0.171165 5.37442 -0.0693725 6.61618 0.0172556 7.85699C0.103884 9.0978 0.514863 10.2974 1.21196 11.344C1.90906 12.3907 2.86963 13.2506 4.00432 13.8436C5.139 14.4366 6.41093 14.7434 7.70179 14.7356C8.17104 14.7371 8.63919 14.692 9.09885 14.6011L13.5994 18.9464C13.6921 19.0365 13.8025 19.108 13.9241 19.1568C14.0457 19.2056 14.1762 19.2308 14.3079 19.2308C14.4396 19.2308 14.5701 19.2056 14.6917 19.1568C14.8133 19.108 14.9236 19.0365 15.0164 18.9464C15.1099 18.857 15.1842 18.7507 15.2348 18.6336C15.2855 18.5164 15.3116 18.3907 15.3116 18.2638C15.3116 18.1369 15.2855 18.0113 15.2348 17.8941C15.1842 17.777 15.1099 17.6706 15.0164 17.5813L10.1267 12.8706C10.0045 12.7537 9.85297 12.6692 9.68684 12.6254C9.52072 12.5816 9.34566 12.58 9.17868 12.6207C8.69687 12.745 8.20057 12.8096 7.70179 12.8129C6.95541 12.8193 6.2151 12.6833 5.52352 12.4128C4.83193 12.1423 4.20273 11.7427 3.67216 11.2369C3.1416 10.7311 2.72015 10.1292 2.4321 9.46581C2.14405 8.80244 1.99509 8.09071 1.9938 7.37163C1.99251 7.0496 2.01921 6.72802 2.07364 6.41028L5.9854 10.1884C6.07817 10.2785 6.18854 10.35 6.31014 10.3989C6.43175 10.4477 6.56218 10.4728 6.69391 10.4728C6.82565 10.4728 6.95608 10.4477 7.07768 10.3989C7.19928 10.35 7.30965 10.2785 7.40242 10.1884L10.5757 7.10245C10.7556 6.92319 10.8561 6.68363 10.8561 6.43431C10.8561 6.18499 10.7556 5.94543 10.5757 5.76616L6.69391 1.99764C7.0238 1.94574 7.35755 1.92001 7.69181 1.92073C9.1907 1.92328 10.6273 2.49869 11.6862 3.52066C12.7452 4.54262 13.3399 5.92763 13.3399 7.37163C13.3364 7.85215 13.2694 8.33028 13.1403 8.79445C13.0981 8.95531 13.0998 9.12396 13.1453 9.284C13.1907 9.44404 13.2784 9.59002 13.3998 9.70774L18.2895 14.4184C18.4774 14.5994 18.7323 14.7011 18.998 14.7011C19.2638 14.7011 19.5186 14.5994 19.7065 14.4184C19.8944 14.2374 20 13.9918 20 13.7358C20 13.4798 19.8944 13.2343 19.7065 13.0533H19.6666Z" fill="#FDECD2"/>
</svg>
