<svg width="28" height="27" viewBox="0 0 28 27" fill="none" xmlns="http://www.w3.org/2000/svg">
<path d="M27.5333 18.2746L21.2185 12.2046C21.3507 11.5846 21.4162 10.9532 21.4141 10.3203C21.4136 8.58495 20.9591 6.87774 20.0924 5.35644C19.2258 3.83515 17.9751 2.54888 16.4558 1.61653C14.9366 0.684172 13.1979 0.135824 11.4005 0.0221671C9.60307 -0.0914893 7.8049 0.233214 6.17221 0.966264C5.96536 1.0573 5.7847 1.1956 5.64592 1.36917C5.50715 1.54274 5.41445 1.74632 5.37589 1.96223C5.33747 2.17541 5.35297 2.39436 5.42106 2.60054C5.48916 2.80671 5.60784 2.99404 5.76706 3.14663L11.8443 8.98785L9.32957 11.4105L3.26633 5.55579C3.1066 5.40479 2.91155 5.29296 2.6976 5.22972C2.48365 5.16648 2.25707 5.15368 2.03691 5.1924C1.8142 5.22819 1.6038 5.31546 1.42375 5.44672C1.2437 5.57799 1.09936 5.74934 1.00309 5.94611C0.239631 7.52418 -0.0971216 9.26265 0.0241578 10.9998C0.145437 12.7369 0.720808 14.4163 1.69675 15.8817C2.67269 17.347 4.01748 18.5508 5.60604 19.381C7.1946 20.2112 8.97531 20.6408 10.7825 20.6299C11.4395 20.6319 12.0949 20.5688 12.7384 20.4415L19.0391 26.525C19.169 26.6511 19.3235 26.7512 19.4938 26.8196C19.664 26.8879 19.8466 26.9231 20.031 26.9231C20.2155 26.9231 20.3981 26.8879 20.5683 26.8196C20.7386 26.7512 20.8931 26.6511 21.023 26.525C21.1539 26.3998 21.2578 26.251 21.3288 26.087C21.3997 25.923 21.4362 25.747 21.4362 25.5694C21.4362 25.3917 21.3997 25.2158 21.3288 25.0518C21.2578 24.8878 21.1539 24.7389 21.023 24.6138L14.1774 18.0189C14.0063 17.8551 13.7942 17.7369 13.5616 17.6756C13.329 17.6142 13.0839 17.6119 12.8502 17.6689C12.1756 17.8429 11.4808 17.9334 10.7825 17.9381C9.73758 17.947 8.70115 17.7566 7.73292 17.3779C6.7647 16.9992 5.88382 16.4397 5.14103 15.7316C4.39823 15.0235 3.80821 14.1809 3.40494 13.2521C3.00167 12.3234 2.79313 11.327 2.79133 10.3203C2.78952 9.86944 2.8269 9.41923 2.90309 8.97439L8.37956 14.2638C8.50944 14.3899 8.66396 14.4901 8.8342 14.5584C9.00445 14.6267 9.18705 14.6619 9.37148 14.6619C9.55591 14.6619 9.73851 14.6267 9.90875 14.5584C10.079 14.4901 10.2335 14.3899 10.3634 14.2638L14.806 9.94344C15.0578 9.69247 15.1986 9.35708 15.1986 9.00803C15.1986 8.65899 15.0578 8.3236 14.806 8.07263L9.37148 2.79669C9.83332 2.72403 10.3006 2.68802 10.7685 2.68902C12.867 2.69259 14.8782 3.49817 16.3607 4.92892C17.8433 6.35967 18.6759 8.29868 18.6759 10.3203C18.671 10.993 18.5771 11.6624 18.3965 12.3122C18.3373 12.5374 18.3397 12.7735 18.4034 12.9976C18.467 13.2217 18.5898 13.426 18.7597 13.5908L25.6053 20.1858C25.8684 20.4392 26.2252 20.5816 26.5972 20.5816C26.9693 20.5816 27.3261 20.4392 27.5891 20.1858C27.8522 19.9323 28 19.5886 28 19.2302C28 18.8718 27.8522 18.528 27.5891 18.2746H27.5333Z" fill="#FDECD2"/>
</svg>
