<svg width="81" height="81" viewBox="0 0 81 81" fill="none" xmlns="http://www.w3.org/2000/svg">
<path d="M5.11111 21.6667H17.4444C18.5348 21.6667 19.5805 21.2277 20.3514 20.4463C21.1224 19.6649 21.5556 18.6051 21.5556 17.5V13.3333C21.5556 11.1232 22.4218 9.00358 23.9638 7.44078C25.5058 5.87797 27.5971 5 29.7778 5C31.9584 5 34.0498 5.87797 35.5918 7.44078C37.1337 9.00358 38 11.1232 38 13.3333V17.5C38 18.6051 38.4331 19.6649 39.2041 20.4463C39.9751 21.2277 41.0208 21.6667 42.1111 21.6667H54.4444C55.5348 21.6667 56.5805 22.1057 57.3514 22.8871C58.1224 23.6685 58.5556 24.7283 58.5556 25.8333V38.3333C58.5556 39.4384 58.9887 40.4982 59.7597 41.2796C60.5307 42.061 61.5763 42.5 62.6667 42.5H66.7778C68.9585 42.5 71.0498 43.378 72.5918 44.9408C74.1337 46.5036 75 48.6232 75 50.8333C75 53.0435 74.1337 55.1631 72.5918 56.7259C71.0498 58.2887 68.9585 59.1667 66.7778 59.1667H62.6667C61.5763 59.1667 60.5307 59.6056 59.7597 60.3871C58.9887 61.1685 58.5556 62.2283 58.5556 63.3333V75.8333C58.5556 76.9384 58.1224 77.9982 57.3514 78.7796C56.5805 79.561 55.5348 80 54.4444 80H42.1111C41.0208 80 39.9751 79.561 39.2041 78.7796C38.4331 77.9982 38 76.9384 38 75.8333V71.6667C38 69.4565 37.1337 67.3369 35.5918 65.7741C34.0498 64.2113 31.9584 63.3333 29.7778 63.3333C27.5971 63.3333 25.5058 64.2113 23.9638 65.7741C22.4218 67.3369 21.5556 69.4565 21.5556 71.6667V75.8333C21.5556 76.9384 21.1224 77.9982 20.3514 78.7796C19.5805 79.561 18.5348 80 17.4444 80H5.11111C4.02078 80 2.9751 79.561 2.20412 78.7796C1.43313 77.9982 1 76.9384 1 75.8333V63.3333C1 62.2283 1.43313 61.1685 2.20412 60.3871C2.9751 59.6056 4.02078 59.1667 5.11111 59.1667H9.22222C11.4029 59.1667 13.4942 58.2887 15.0362 56.7259C16.5782 55.1631 17.4444 53.0435 17.4444 50.8333C17.4444 48.6232 16.5782 46.5036 15.0362 44.9408C13.4942 43.378 11.4029 42.5 9.22222 42.5H5.11111C4.02078 42.5 2.9751 42.061 2.20412 41.2796C1.43313 40.4982 1 39.4384 1 38.3333V25.8333C1 24.7283 1.43313 23.6685 2.20412 22.8871C2.9751 22.1057 4.02078 21.6667 5.11111 21.6667Z" fill="#4FC8B1"/>
<path d="M5.11111 21.6667H17.4444C18.5348 21.6667 19.5805 21.2277 20.3514 20.4463C21.1224 19.6649 21.5556 18.6051 21.5556 17.5V13.3333C21.5556 11.1232 22.4218 9.00358 23.9638 7.44078C25.5058 5.87797 27.5971 5 29.7778 5C31.9584 5 34.0498 5.87797 35.5918 7.44078C37.1337 9.00358 38 11.1232 38 13.3333V17.5C38 18.6051 38.4331 19.6649 39.2041 20.4463C39.9751 21.2277 41.0208 21.6667 42.1111 21.6667H54.4444C55.5348 21.6667 56.5805 22.1057 57.3514 22.8871C58.1224 23.6685 58.5556 24.7283 58.5556 25.8333V38.3333C58.5556 39.4384 58.9887 40.4982 59.7597 41.2796C60.5307 42.061 61.5763 42.5 62.6667 42.5H66.7778C68.9584 42.5 71.0498 43.378 72.5918 44.9408C74.1337 46.5036 75 48.6232 75 50.8333C75 53.0435 74.1337 55.1631 72.5918 56.7259C71.0498 58.2887 68.9584 59.1667 66.7778 59.1667H62.6667C61.5763 59.1667 60.5307 59.6056 59.7597 60.387C58.9887 61.1685 58.5556 62.2283 58.5556 63.3333V75.8333C58.5556 76.9384 58.1224 77.9982 57.3514 78.7796C56.5805 79.561 55.5348 80 54.4444 80H42.1111C41.0208 80 39.9751 79.561 39.2041 78.7796C38.4331 77.9982 38 76.9384 38 75.8333V71.6667C38 69.4565 37.1337 67.3369 35.5918 65.7741C34.0498 64.2113 31.9584 63.3333 29.7778 63.3333C27.5971 63.3333 25.5058 64.2113 23.9638 65.7741C22.4218 67.3369 21.5556 69.4565 21.5556 71.6667V75.8333C21.5556 76.9384 21.1224 77.9982 20.3514 78.7796C19.5805 79.561 18.5348 80 17.4444 80H5.11111C4.02078 80 2.9751 79.561 2.20412 78.7796C1.43313 77.9982 1 76.9384 1 75.8333V63.3333C1 62.2283 1.43313 61.1685 2.20412 60.387C2.9751 59.6056 4.02078 59.1667 5.11111 59.1667H9.22222C11.4029 59.1667 13.4942 58.2887 15.0362 56.7259C16.5782 55.1631 17.4444 53.0435 17.4444 50.8333C17.4444 48.6232 16.5782 46.5036 15.0362 44.9408C13.4942 43.378 11.4029 42.5 9.22222 42.5H5.11111C4.02078 42.5 2.9751 42.061 2.20412 41.2796C1.43313 40.4982 1 39.4384 1 38.3333V25.8333C1 24.7283 1.43313 23.6685 2.20412 22.8871C2.9751 22.1057 4.02078 21.6667 5.11111 21.6667" stroke="#091422" stroke-width="2" stroke-linecap="round" stroke-linejoin="round"/>
<path d="M9.16667 17.4444H21.6667C22.7717 17.4444 23.8315 17.0113 24.6129 16.2403C25.3943 15.4693 25.8333 14.4237 25.8333 13.3333V9.22222C25.8333 7.04155 26.7113 4.9502 28.2741 3.40823C29.8369 1.86627 31.9565 1 34.1667 1C36.3768 1 38.4964 1.86627 40.0592 3.40823C41.622 4.9502 42.5 7.04155 42.5 9.22222V13.3333C42.5 14.4237 42.939 15.4693 43.7204 16.2403C44.5018 17.0113 45.5616 17.4444 46.6667 17.4444H59.1667C60.2717 17.4444 61.3315 17.8776 62.1129 18.6486C62.8943 19.4195 63.3333 20.4652 63.3333 21.5556V33.8889C63.3333 34.9792 63.7723 36.0249 64.5537 36.7959C65.3351 37.5669 66.3949 38 67.5 38H71.6667C73.8768 38 75.9964 38.8663 77.5592 40.4082C79.122 41.9502 80 44.0416 80 46.2222C80 48.4029 79.122 50.4942 77.5592 52.0362C75.9964 53.5782 73.8768 54.4444 71.6667 54.4444H67.5C66.3949 54.4444 65.3351 54.8776 64.5537 55.6486C63.7723 56.4195 63.3333 57.4652 63.3333 58.5556V70.8889C63.3333 71.9792 62.8943 73.0249 62.1129 73.7959C61.3315 74.5669 60.2717 75 59.1667 75H46.6667C45.5616 75 44.5018 74.5669 43.7204 73.7959C42.939 73.0249 42.5 71.9792 42.5 70.8889V66.7778C42.5 64.5971 41.622 62.5058 40.0592 60.9638C38.4964 59.4218 36.3768 58.5556 34.1667 58.5556C31.9565 58.5556 29.8369 59.4218 28.2741 60.9638C26.7113 62.5058 25.8333 64.5971 25.8333 66.7778V70.8889C25.8333 71.9792 25.3943 73.0249 24.6129 73.7959C23.8315 74.5669 22.7717 75 21.6667 75H9.16667C8.0616 75 7.00179 74.5669 6.22039 73.7959C5.43899 73.0249 5 71.9792 5 70.8889V58.5556C5 57.4652 5.43899 56.4195 6.22039 55.6486C7.00179 54.8776 8.0616 54.4444 9.16667 54.4444H13.3333C15.5435 54.4444 17.6631 53.5782 19.2259 52.0362C20.7887 50.4942 21.6667 48.4029 21.6667 46.2222C21.6667 44.0416 20.7887 41.9502 19.2259 40.4082C17.6631 38.8663 15.5435 38 13.3333 38H9.16667C8.0616 38 7.00179 37.5669 6.22039 36.7959C5.43899 36.0249 5 34.9792 5 33.8889V21.5556C5 20.4652 5.43899 19.4195 6.22039 18.6486C7.00179 17.8776 8.0616 17.4444 9.16667 17.4444Z" fill="#4FC8B1"/>
<path d="M9.16667 17.4444H21.6667C22.7717 17.4444 23.8315 17.0113 24.6129 16.2403C25.3943 15.4693 25.8333 14.4237 25.8333 13.3333V9.22222C25.8333 7.04155 26.7113 4.9502 28.2741 3.40823C29.8369 1.86627 31.9565 1 34.1667 1C36.3768 1 38.4964 1.86627 40.0592 3.40823C41.622 4.9502 42.5 7.04155 42.5 9.22222V13.3333C42.5 14.4237 42.939 15.4693 43.7204 16.2403C44.5018 17.0113 45.5616 17.4444 46.6667 17.4444H59.1667C60.2717 17.4444 61.3315 17.8776 62.1129 18.6486C62.8943 19.4195 63.3333 20.4652 63.3333 21.5556V33.8889C63.3333 34.9792 63.7723 36.0249 64.5537 36.7959C65.3351 37.5669 66.3949 38 67.5 38H71.6667C73.8768 38 75.9964 38.8663 77.5592 40.4082C79.122 41.9502 80 44.0416 80 46.2222C80 48.4029 79.122 50.4942 77.5592 52.0362C75.9964 53.5782 73.8768 54.4444 71.6667 54.4444H67.5C66.3949 54.4444 65.3351 54.8776 64.5537 55.6486C63.7723 56.4195 63.3333 57.4652 63.3333 58.5556V70.8889C63.3333 71.9792 62.8943 73.0249 62.1129 73.7959C61.3315 74.5669 60.2717 75 59.1667 75H46.6667C45.5616 75 44.5018 74.5669 43.7204 73.7959C42.939 73.0249 42.5 71.9792 42.5 70.8889V66.7778C42.5 64.5971 41.622 62.5058 40.0592 60.9638C38.4964 59.4218 36.3768 58.5556 34.1667 58.5556C31.9565 58.5556 29.8369 59.4218 28.2741 60.9638C26.7113 62.5058 25.8333 64.5971 25.8333 66.7778V70.8889C25.8333 71.9792 25.3943 73.0249 24.6129 73.7959C23.8315 74.5669 22.7717 75 21.6667 75H9.16667C8.0616 75 7.00179 74.5669 6.22039 73.7959C5.43899 73.0249 5 71.9792 5 70.8889V58.5556C5 57.4652 5.43899 56.4195 6.22039 55.6486C7.00179 54.8776 8.0616 54.4444 9.16667 54.4444H13.3333C15.5435 54.4444 17.6631 53.5782 19.2259 52.0362C20.7887 50.4942 21.6667 48.4029 21.6667 46.2222C21.6667 44.0416 20.7887 41.9502 19.2259 40.4082C17.6631 38.8663 15.5435 38 13.3333 38H9.16667C8.0616 38 7.00179 37.5669 6.22039 36.7959C5.43899 36.0249 5 34.9792 5 33.8889V21.5556C5 20.4652 5.43899 19.4195 6.22039 18.6486C7.00179 17.8776 8.0616 17.4444 9.16667 17.4444" stroke="#091422" stroke-width="2" stroke-linecap="round" stroke-linejoin="round"/>
</svg>
