<svg width="20" height="19" viewBox="0 0 20 19" fill="none" xmlns="http://www.w3.org/2000/svg">
<path d="M0.128147 9.47366V9.47327C0.128147 6.98907 1.16834 4.60549 3.02178 2.8472C3.93955 1.97655 5.02939 1.28564 6.2292 0.814182C7.42901 0.342718 8.71513 0.1 10.0141 0.1C12.6376 0.1 15.1528 1.08875 17.0064 2.8472C18.8598 4.60549 19.9 6.98907 19.9 9.47327C19.9 11.9575 18.8598 14.341 17.0064 16.0993C15.1528 17.8578 12.6376 18.8465 10.0141 18.8465H1.02674V18.8465L1.02275 18.8466C0.843692 18.8538 0.666761 18.8102 0.514498 18.7221C0.362813 18.6342 0.242798 18.5062 0.168775 18.3549C0.101248 18.2017 0.0829864 18.0333 0.116032 17.8706C0.149179 17.7073 0.232648 17.5563 0.3568 17.4369C0.356896 17.4368 0.356991 17.4367 0.357087 17.4366L2.35379 15.5424L2.42325 15.4765L2.36043 15.4042C0.908815 13.7345 0.119515 11.6363 0.128147 9.47366ZM3.36452 16.9793L3.18264 17.1519H3.43335H10.0141V17.0519L10.0141 17.1519C11.8841 17.1505 13.6963 16.5341 15.142 15.4068C16.5878 14.2795 17.5778 12.7106 17.9421 10.9668C18.3063 9.22297 18.0218 7.41346 17.1377 5.84691C16.2536 4.28049 14.8251 3.05446 13.0965 2.3765C11.368 1.69857 9.44547 1.61021 7.65616 2.12632C5.8668 2.64244 4.32028 3.73148 3.28088 5.20915C2.24139 6.68695 1.77374 8.4617 1.95852 10.2309C2.14328 11.9999 2.96877 13.6525 4.293 14.9075C4.45982 15.0667 4.55242 15.2809 4.55242 15.503C4.55242 15.7251 4.45982 15.9393 4.293 16.0985L3.36452 16.9793ZM10.9127 8.52594V8.62594H11.0127H12.0113C12.2512 8.62594 12.4804 8.71642 12.6485 8.87595C12.8165 9.03531 12.9099 9.25029 12.9099 9.47327C12.9099 9.69624 12.8165 9.91122 12.6485 10.0706C12.4804 10.2301 12.2512 10.3206 12.0113 10.3206H11.0127H10.9127V10.4206V11.3679C10.9127 11.5909 10.8193 11.8059 10.6514 11.9652C10.4832 12.1248 10.254 12.2152 10.0141 12.2152C9.7741 12.2152 9.54495 12.1248 9.37679 11.9652C9.2088 11.8059 9.11548 11.5909 9.11548 11.3679V10.4206V10.3206H9.01548H8.01689C7.77692 10.3206 7.54776 10.2301 7.3796 10.0706C7.21162 9.91122 7.1183 9.69624 7.1183 9.47327C7.1183 9.25029 7.21162 9.03531 7.3796 8.87595C7.54776 8.71642 7.77692 8.62594 8.01689 8.62594H9.01548H9.11548V8.52594V7.57861C9.11548 7.35564 9.2088 7.14066 9.37679 6.9813C9.54495 6.82177 9.7741 6.73129 10.0141 6.73129C10.254 6.73129 10.4832 6.82177 10.6514 6.9813C10.8193 7.14066 10.9127 7.35564 10.9127 7.57861V8.52594Z" fill="#091422" stroke="#F5E027" stroke-width="0.2"/>
</svg>
