<svg width="28" height="28" viewBox="0 0 28 28" fill="none" xmlns="http://www.w3.org/2000/svg">
<path d="M27.5929 3.80896L24.1907 0.407094C23.9284 0.146353 23.5735 0 23.2036 0C22.8338 0 22.4789 0.146353 22.2166 0.407094L14.4042 8.21878C14.2744 8.34959 14.1718 8.50473 14.1021 8.6753C14.0324 8.84586 13.9971 9.0285 13.9982 9.21274V12.6006C13.9982 12.9719 14.1457 13.328 14.4082 13.5905C14.6708 13.8531 15.0269 14.0006 15.3982 14.0006H18.7864C18.9707 14.0016 19.1533 13.9663 19.3239 13.8966C19.4945 13.827 19.6496 13.7243 19.7805 13.5946L27.5929 5.78288C27.8536 5.52058 28 5.16577 28 4.79592C28 4.42607 27.8536 4.07126 27.5929 3.80896V3.80896ZM18.1984 11.2007H16.7983V9.80072L23.2106 3.38898L24.6107 4.78892L18.1984 11.2007ZM23.7987 14.0006C23.4274 14.0006 23.0712 14.148 22.8087 14.4106C22.5461 14.6731 22.3986 15.0292 22.3986 15.4005C22.3986 17.9995 21.3661 20.4921 19.5281 22.3299C17.6902 24.1677 15.1974 25.2001 12.5981 25.2001H4.7717L5.66775 24.3181C5.79898 24.188 5.90313 24.0332 5.97421 23.8626C6.04529 23.692 6.08189 23.509 6.08189 23.3242C6.08189 23.1394 6.04529 22.9564 5.97421 22.7858C5.90313 22.6152 5.79898 22.4604 5.66775 22.3302C4.29698 20.9597 3.36346 19.2135 2.98525 17.3125C2.60704 15.4115 2.80112 13.441 3.54295 11.6503C4.28479 9.85952 5.54105 8.32898 7.15287 7.25219C8.76468 6.17541 10.6596 5.60075 12.5981 5.60089C12.9694 5.60089 13.3255 5.45339 13.5881 5.19085C13.8507 4.92831 13.9982 4.57223 13.9982 4.20094C13.9982 3.82965 13.8507 3.47357 13.5881 3.21103C13.3255 2.94849 12.9694 2.801 12.5981 2.801C10.2284 2.80879 7.90899 3.48456 5.90602 4.75075C3.90306 6.01695 2.29777 7.82222 1.27442 9.95936C0.251078 12.0965 -0.148835 14.4788 0.120589 16.8329C0.390014 19.1871 1.31786 21.4175 2.7976 23.2682L0.403481 25.6061C0.209211 25.803 0.0776094 26.053 0.025283 26.3245C-0.0270435 26.5961 0.00224977 26.8771 0.109466 27.132C0.2145 27.3877 0.392866 27.6065 0.622086 27.761C0.851306 27.9155 1.12112 27.9986 1.39753 28H12.5981C14.2528 28 15.8914 27.6741 17.4202 27.0409C18.9489 26.4077 20.338 25.4797 21.5081 24.3097C22.6782 23.1397 23.6063 21.7508 24.2396 20.2221C24.8728 18.6935 25.1987 17.0551 25.1987 15.4005C25.1987 15.0292 25.0512 14.6731 24.7887 14.4106C24.5261 14.148 24.17 14.0006 23.7987 14.0006Z" fill="#091422"/>
</svg>
