<svg width="25" height="24" viewBox="0 0 25 24" fill="none" xmlns="http://www.w3.org/2000/svg">
<path d="M0.135183 11.9999V11.9995C0.135183 8.84484 1.43876 5.81857 3.7605 3.58665C4.91014 2.48149 6.27518 1.60462 7.77777 1.00631C9.28037 0.407995 10.891 0.1 12.5176 0.1C15.8029 0.1 18.9528 1.35461 21.2747 3.58665C23.5964 5.81857 24.9 8.84484 24.9 11.9995C24.9 15.1541 23.5964 18.1804 21.2747 20.4123C18.9528 22.6443 15.8029 23.8989 12.5176 23.8989H1.28342V23.8989L1.27938 23.899C1.05117 23.9083 0.825506 23.8521 0.63109 23.738C0.437234 23.6242 0.283436 23.4581 0.188508 23.2613C0.10167 23.0619 0.0781023 22.8425 0.120591 22.6305C0.163186 22.4179 0.270389 22.2217 0.429332 22.0668C0.42939 22.0668 0.429449 22.0667 0.429508 22.0667L2.92551 19.6672L2.99363 19.6017L2.9321 19.53C1.11354 17.4103 0.124367 14.7462 0.135183 11.9999ZM4.22238 21.527L4.04336 21.699H4.29168H12.5176V21.5997L12.5177 21.699C14.85 21.6973 17.11 20.9182 18.9126 19.4939C20.7153 18.0695 21.9492 16.0877 22.4031 13.8856C22.8571 11.6835 22.5026 9.3983 21.4006 7.41968C20.2987 5.44116 18.5177 3.892 16.3619 3.03523C14.2062 2.17848 11.8084 2.06679 9.57679 2.71906C7.34511 3.37134 5.41687 4.74753 4.12119 6.61411C2.82545 8.48078 2.24273 10.7221 2.473 12.9562C2.70326 15.1903 3.73212 17.2778 5.38329 18.8633C5.59657 19.0697 5.71553 19.3479 5.71553 19.6371C5.71553 19.9264 5.59649 20.2048 5.38306 20.4112C5.38305 20.4112 5.38304 20.4112 5.38303 20.4112L4.22238 21.527ZM6.27639 8.49963H18.7588C19.0646 8.49963 19.3571 8.61644 19.5721 8.82318C19.7871 9.02979 19.907 9.30915 19.907 9.59958C19.907 9.89 19.7871 10.1694 19.5721 10.376C19.3571 10.5827 19.0646 10.6995 18.7588 10.6995H6.27639C5.97061 10.6995 5.67811 10.5827 5.46305 10.376C5.24812 10.1694 5.12815 9.89 5.12815 9.59958C5.12815 9.30915 5.24812 9.02979 5.46305 8.82318C5.67811 8.61644 5.97061 8.49963 6.27639 8.49963ZM6.27639 13.2994H13.7658C14.0716 13.2994 14.3641 13.4162 14.5792 13.623C14.7941 13.8296 14.9141 14.1089 14.9141 14.3994C14.9141 14.6898 14.7941 14.9691 14.5792 15.1758C14.3641 15.3825 14.0716 15.4993 13.7658 15.4993H6.27639C5.97061 15.4993 5.67811 15.3825 5.46305 15.1758C5.24812 14.9691 5.12815 14.6898 5.12815 14.3994C5.12815 14.1089 5.24812 13.8296 5.46305 13.623C5.67811 13.4162 5.97061 13.2994 6.27639 13.2994Z" fill="#091422" stroke="#FE4F51" stroke-width="0.2"/>
</svg>
