<svg width="80" height="81" viewBox="0 0 80 81" fill="none" xmlns="http://www.w3.org/2000/svg">
<path d="M70.8889 63.3333L58.5556 63.3333C57.4652 63.3333 56.4195 63.7723 55.6486 64.5537C54.8776 65.3351 54.4444 66.3949 54.4444 67.5L54.4444 71.6667C54.4444 73.8768 53.5782 75.9964 52.0362 77.5592C50.4942 79.122 48.4029 80 46.2222 80C44.0415 80 41.9502 79.122 40.4082 77.5592C38.8663 75.9964 38 73.8768 38 71.6667L38 67.5C38 66.3949 37.5669 65.3351 36.7959 64.5537C36.0249 63.7723 34.9792 63.3333 33.8889 63.3333L21.5556 63.3333C20.4652 63.3333 19.4195 62.8943 18.6486 62.1129C17.8776 61.3315 17.4444 60.2717 17.4444 59.1667L17.4444 46.6667C17.4444 45.5616 17.0113 44.5018 16.2403 43.7204C15.4693 42.939 14.4237 42.5 13.3333 42.5L9.22222 42.5C7.04155 42.5 4.95019 41.622 3.40823 40.0592C1.86626 38.4964 0.999996 36.3768 0.999996 34.1667C0.999997 31.9565 1.86626 29.8369 3.40823 28.2741C4.95019 26.7113 7.04155 25.8333 9.22222 25.8333L13.3333 25.8333C14.4237 25.8333 15.4693 25.3944 16.2403 24.613C17.0113 23.8315 17.4444 22.7717 17.4444 21.6667L17.4444 9.16667C17.4444 8.0616 17.8776 7.0018 18.6486 6.22039C19.4195 5.43899 20.4652 5.00001 21.5556 5.00001L33.8889 5.00001C34.9792 5.00001 36.0249 5.43899 36.7959 6.22039C37.5669 7.0018 38 8.0616 38 9.16668L38 13.3333C38 15.5435 38.8663 17.6631 40.4082 19.2259C41.9502 20.7887 44.0416 21.6667 46.2222 21.6667C48.4029 21.6667 50.4942 20.7887 52.0362 19.2259C53.5782 17.6631 54.4444 15.5435 54.4444 13.3333L54.4444 9.16668C54.4444 8.06161 54.8776 7.0018 55.6486 6.2204C56.4195 5.43899 57.4652 5.00001 58.5556 5.00001L70.8889 5.00001C71.9792 5.00001 73.0249 5.439 73.7959 6.2204C74.5669 7.0018 75 8.06161 75 9.16668L75 21.6667C75 22.7717 74.5669 23.8316 73.7959 24.613C73.0249 25.3944 71.9792 25.8333 70.8889 25.8333L66.7778 25.8333C64.5971 25.8333 62.5058 26.7113 60.9638 28.2741C59.4218 29.8369 58.5556 31.9565 58.5556 34.1667C58.5556 36.3768 59.4218 38.4964 60.9638 40.0592C62.5058 41.622 64.5971 42.5 66.7778 42.5L70.8889 42.5C71.9792 42.5 73.0249 42.939 73.7959 43.7204C74.5669 44.5018 75 45.5616 75 46.6667L75 59.1667C75 60.2717 74.5669 61.3315 73.7959 62.1129C73.0249 62.8943 71.9792 63.3333 70.8889 63.3333Z" fill="#F5E027"/>
<path d="M70.8889 63.3333L58.5556 63.3333C57.4652 63.3333 56.4195 63.7723 55.6486 64.5537C54.8776 65.3351 54.4444 66.3949 54.4444 67.5L54.4444 71.6667C54.4444 73.8768 53.5782 75.9964 52.0362 77.5592C50.4942 79.122 48.4029 80 46.2222 80C44.0415 80 41.9502 79.122 40.4082 77.5592C38.8663 75.9964 38 73.8768 38 71.6667L38 67.5C38 66.3949 37.5669 65.3351 36.7959 64.5537C36.0249 63.7723 34.9792 63.3333 33.8889 63.3333L21.5556 63.3333C20.4652 63.3333 19.4195 62.8943 18.6486 62.1129C17.8776 61.3315 17.4444 60.2717 17.4444 59.1667L17.4444 46.6667C17.4444 45.5616 17.0113 44.5018 16.2403 43.7204C15.4693 42.939 14.4237 42.5 13.3333 42.5L9.22222 42.5C7.04155 42.5 4.95019 41.622 3.40823 40.0592C1.86626 38.4964 0.999994 36.3768 0.999994 34.1667C0.999995 31.9565 1.86626 29.8369 3.40823 28.2741C4.9502 26.7113 7.04155 25.8333 9.22222 25.8333L13.3333 25.8333C14.4237 25.8333 15.4693 25.3944 16.2403 24.613C17.0113 23.8316 17.4444 22.7717 17.4444 21.6667L17.4444 9.16667C17.4444 8.0616 17.8776 7.00179 18.6486 6.22039C19.4195 5.43899 20.4652 5.00001 21.5556 5.00001L33.8889 5.00001C34.9792 5.00001 36.0249 5.43899 36.7959 6.22039C37.5669 7.00179 38 8.06161 38 9.16667L38 13.3333C38 15.5435 38.8663 17.6631 40.4082 19.2259C41.9502 20.7887 44.0416 21.6667 46.2222 21.6667C48.4029 21.6667 50.4942 20.7887 52.0362 19.2259C53.5782 17.6631 54.4444 15.5435 54.4444 13.3333L54.4444 9.16668C54.4444 8.06161 54.8776 7.0018 55.6486 6.22039C56.4195 5.43899 57.4652 5.00001 58.5556 5.00001L70.8889 5.00001C71.9792 5.00001 73.0249 5.43899 73.7959 6.2204C74.5669 7.0018 75 8.06161 75 9.16668L75 21.6667C75 22.7717 74.5669 23.8316 73.7959 24.613C73.0249 25.3944 71.9792 25.8333 70.8889 25.8333L66.7778 25.8333C64.5971 25.8333 62.5058 26.7113 60.9638 28.2741C59.4218 29.8369 58.5556 31.9565 58.5556 34.1667C58.5556 36.3768 59.4218 38.4964 60.9638 40.0592C62.5058 41.622 64.5971 42.5 66.7778 42.5L70.8889 42.5C71.9792 42.5 73.0249 42.939 73.7959 43.7204C74.5669 44.5018 75 45.5616 75 46.6667L75 59.1667C75 60.2717 74.5669 61.3315 73.7959 62.1129C73.0249 62.8943 71.9792 63.3333 70.8889 63.3333" stroke="#091422" stroke-width="2" stroke-linecap="round" stroke-linejoin="round"/>
<path d="M74.8889 58.5556L62.5556 58.5556C61.4652 58.5556 60.4195 58.9887 59.6486 59.7597C58.8776 60.5307 58.4444 61.5763 58.4444 62.6667L58.4444 66.7778C58.4444 68.9584 57.5782 71.0498 56.0362 72.5918C54.4942 74.1337 52.4029 75 50.2222 75C48.0415 75 45.9502 74.1337 44.4082 72.5918C42.8663 71.0498 42 68.9584 42 66.7778L42 62.6667C42 61.5763 41.5669 60.5307 40.7959 59.7597C40.0249 58.9887 38.9792 58.5556 37.8889 58.5556L25.5556 58.5556C24.4652 58.5556 23.4195 58.1224 22.6486 57.3514C21.8776 56.5805 21.4444 55.5348 21.4444 54.4444L21.4444 42.1111C21.4444 41.0208 21.0113 39.9751 20.2403 39.2041C19.4693 38.4331 18.4237 38 17.3333 38L13.2222 38C11.0415 38 8.95019 37.1337 7.40823 35.5918C5.86626 34.0498 5 31.9584 5 29.7778C5 27.5971 5.86626 25.5058 7.40823 23.9638C8.95019 22.4218 11.0415 21.5556 13.2222 21.5556L17.3333 21.5556C18.4237 21.5556 19.4693 21.1224 20.2403 20.3514C21.0113 19.5805 21.4444 18.5348 21.4444 17.4444L21.4444 5.11111C21.4444 4.02078 21.8776 2.9751 22.6486 2.20412C23.4195 1.43313 24.4652 1 25.5556 1L37.8889 1C38.9792 1 40.0249 1.43313 40.7959 2.20412C41.5669 2.9751 42 4.02078 42 5.11111L42 9.22223C42 11.4029 42.8663 13.4942 44.4082 15.0362C45.9502 16.5782 48.0416 17.4444 50.2222 17.4444C52.4029 17.4444 54.4942 16.5782 56.0362 15.0362C57.5782 13.4942 58.4444 11.4029 58.4444 9.22223L58.4444 5.11111C58.4444 4.02078 58.8776 2.9751 59.6486 2.20412C60.4195 1.43313 61.4652 1.00001 62.5556 1.00001L74.8889 1.00001C75.9792 1.00001 77.0249 1.43314 77.7959 2.20412C78.5669 2.97511 79 4.02078 79 5.11111L79 17.4445C79 18.5348 78.5669 19.5805 77.7959 20.3514C77.0249 21.1224 75.9792 21.5556 74.8889 21.5556L70.7778 21.5556C68.5971 21.5556 66.5058 22.4218 64.9638 23.9638C63.4218 25.5058 62.5556 27.5971 62.5556 29.7778C62.5556 31.9584 63.4218 34.0498 64.9638 35.5918C66.5058 37.1337 68.5971 38 70.7778 38L74.8889 38C75.9792 38 77.0249 38.4331 77.7959 39.2041C78.5669 39.9751 79 41.0208 79 42.1111L79 54.4444C79 55.5348 78.5669 56.5805 77.7959 57.3514C77.0249 58.1224 75.9792 58.5556 74.8889 58.5556Z" fill="#F5E027"/>
<path d="M74.8889 58.5556L62.5556 58.5556C61.4652 58.5556 60.4195 58.9887 59.6486 59.7597C58.8776 60.5307 58.4444 61.5763 58.4444 62.6667L58.4444 66.7778C58.4444 68.9584 57.5782 71.0498 56.0362 72.5918C54.4942 74.1337 52.4029 75 50.2222 75C48.0415 75 45.9502 74.1337 44.4082 72.5918C42.8663 71.0498 42 68.9584 42 66.7778L42 62.6667C42 61.5763 41.5669 60.5307 40.7959 59.7597C40.0249 58.9887 38.9792 58.5556 37.8889 58.5556L25.5556 58.5556C24.4652 58.5556 23.4195 58.1224 22.6486 57.3514C21.8776 56.5805 21.4444 55.5348 21.4444 54.4444L21.4444 42.1111C21.4444 41.0208 21.0113 39.9751 20.2403 39.2041C19.4693 38.4331 18.4237 38 17.3333 38L13.2222 38C11.0415 38 8.95019 37.1337 7.40823 35.5918C5.86626 34.0498 4.99999 31.9584 4.99999 29.7778C4.99999 27.5971 5.86626 25.5058 7.40823 23.9638C8.9502 22.4218 11.0415 21.5556 13.2222 21.5556L17.3333 21.5556C18.4237 21.5556 19.4693 21.1224 20.2403 20.3514C21.0113 19.5805 21.4444 18.5348 21.4444 17.4444L21.4444 5.11111C21.4444 4.02078 21.8776 2.9751 22.6486 2.20412C23.4195 1.43313 24.4652 1 25.5556 1L37.8889 1C38.9792 1 40.0249 1.43313 40.7959 2.20412C41.5669 2.9751 42 4.02078 42 5.11112L42 9.22223C42 11.4029 42.8663 13.4942 44.4082 15.0362C45.9502 16.5782 48.0416 17.4444 50.2222 17.4444C52.4029 17.4444 54.4942 16.5782 56.0362 15.0362C57.5782 13.4942 58.4444 11.4029 58.4444 9.22223L58.4444 5.11112C58.4444 4.02078 58.8776 2.9751 59.6486 2.20412C60.4195 1.43314 61.4652 1.00001 62.5556 1.00001L74.8889 1.00001C75.9792 1.00001 77.0249 1.43314 77.7959 2.20412C78.5669 2.9751 79 4.02078 79 5.11112L79 17.4445C79 18.5348 78.5669 19.5805 77.7959 20.3514C77.0249 21.1224 75.9792 21.5556 74.8889 21.5556L70.7778 21.5556C68.5971 21.5556 66.5058 22.4218 64.9638 23.9638C63.4218 25.5058 62.5556 27.5971 62.5556 29.7778C62.5556 31.9584 63.4218 34.0498 64.9638 35.5918C66.5058 37.1337 68.5971 38 70.7778 38L74.8889 38C75.9792 38 77.0249 38.4331 77.7959 39.2041C78.5669 39.9751 79 41.0208 79 42.1111L79 54.4444C79 55.5348 78.5669 56.5805 77.7959 57.3514C77.0249 58.1224 75.9792 58.5556 74.8889 58.5556" stroke="#091422" stroke-width="2" stroke-linecap="round" stroke-linejoin="round"/>
</svg>
