<svg width="28" height="26" viewBox="0 0 28 26" fill="none" xmlns="http://www.w3.org/2000/svg">
<path d="M14.0982 8.55407L14.0982 8.55469L14.0982 11.7006C14.0982 12.0163 14.2332 12.3208 14.4763 12.5465C14.7196 12.7724 15.0511 12.9005 15.3982 12.9005H18.7864H18.787C18.959 12.9014 19.1295 12.8708 19.2885 12.8105C19.4473 12.7503 19.5913 12.6617 19.7124 12.5502L14.0982 8.55407ZM14.0982 8.55407C14.0972 8.39722 14.1296 8.24155 14.1936 8.0959C14.2577 7.95029 14.3523 7.81734 14.4724 7.70488C14.4724 7.70483 14.4725 7.70478 14.4725 7.70473L22.2844 0.451499C22.2844 0.451478 22.2845 0.451456 22.2845 0.451434C22.5276 0.227075 22.8579 0.1 23.2036 0.1C23.5494 0.1 23.8797 0.227077 24.1228 0.451439C24.1228 0.451459 24.1229 0.451479 24.1229 0.451499L27.5246 3.60997C27.5246 3.60999 27.5246 3.61 27.5247 3.61002C27.766 3.8355 27.9 4.13885 27.9 4.45335C27.9 4.76786 27.766 5.07121 27.5247 5.29669C27.5246 5.2967 27.5246 5.29672 27.5246 5.29674L19.7127 12.55L14.0982 8.55407ZM4.51407 23.5001L4.70424 23.3263L5.60001 22.5076L4.51407 23.5001ZM4.51407 23.5001H4.7717M4.51407 23.5001H4.7717M4.7717 23.5001H12.5981C15.2216 23.5001 17.739 22.5325 19.5961 20.8082C21.4536 19.0836 22.4986 16.7429 22.4986 14.3005C22.4986 13.9847 22.6336 13.6802 22.8767 13.4545C23.1201 13.2286 23.4516 13.1005 23.7987 13.1005C24.1458 13.1005 24.4773 13.2286 24.7206 13.4545C24.9637 13.6802 25.0987 13.9847 25.0987 14.3005C25.0987 15.8227 24.7758 17.3302 24.1483 18.7369C23.5207 20.1437 22.6005 21.4225 21.4401 22.5C20.2796 23.5775 18.9015 24.4326 17.3843 25.0161C15.8671 25.5996 14.2407 25.9 12.5981 25.9L1.398 25.9C1.39786 25.9 1.39773 25.9 1.3976 25.9C1.13949 25.8987 0.888105 25.8266 0.67513 25.6933C0.462106 25.56 0.297514 25.3719 0.200919 25.1536L0.20056 25.1528C0.101992 24.9351 0.0752139 24.6958 0.123197 24.4645C0.171135 24.2335 0.291818 24.0197 0.471327 23.8506C0.471554 23.8503 0.471782 23.8501 0.47201 23.8499L2.86478 21.6803L2.93698 21.6148L2.87338 21.5409C1.40612 19.8369 0.486772 17.7841 0.219838 15.6184C-0.0470906 13.4527 0.349038 11.2607 1.3633 9.29381C2.37761 7.32684 3.96931 5.66423 5.95665 4.49766C7.94398 3.33108 10.246 2.70813 12.5982 2.70093C12.9453 2.70096 13.2768 2.82905 13.5201 3.05496C13.7631 3.28066 13.8982 3.58512 13.8982 3.90088C13.8982 4.21663 13.7631 4.52109 13.5201 4.7468C13.2767 4.97273 12.9452 5.10082 12.5981 5.10082C10.6415 5.10069 8.72816 5.63929 7.10015 6.6492C5.47208 7.65916 4.20197 9.09546 3.45163 10.7774C2.70124 12.4594 2.50477 14.3107 2.88747 16.0968C3.27015 17.8829 4.21447 19.5224 5.59971 20.8085L5.60001 20.8088M4.7717 23.5001L5.60001 20.8088M5.60001 20.8088C5.72156 20.9207 5.81759 21.0535 5.88298 21.1992C5.94835 21.3449 5.98189 21.5008 5.98189 21.6582C5.98189 21.8155 5.94835 21.9715 5.88298 22.1172C5.81764 22.2628 5.7217 22.3954 5.60029 22.5073L5.60001 20.8088ZM18.1984 10.5006H18.2377L18.2664 10.4739L24.6788 4.52014L24.7577 4.44685L24.6788 4.37357L23.2787 3.07362L23.2106 3.01045L23.1426 3.07362L16.7303 9.02739L16.6983 9.05706V9.10067V10.4006V10.5006H16.7983H18.1984Z" fill="#091422" stroke="#4FC8B1" stroke-width="0.2"/>
</svg>
