<svg width="20" height="19" viewBox="0 0 20 19" fill="none" xmlns="http://www.w3.org/2000/svg">
<path d="M0.128147 9.47366V9.47327C0.128147 6.98907 1.16834 4.60549 3.02178 2.8472C3.93955 1.97655 5.02939 1.28564 6.2292 0.814182C7.42901 0.342718 8.71513 0.1 10.0141 0.1C12.6376 0.1 15.1528 1.08875 17.0064 2.8472C18.8598 4.60549 19.9 6.98907 19.9 9.47327C19.9 11.9575 18.8598 14.341 17.0064 16.0993C15.1528 17.8578 12.6376 18.8465 10.0141 18.8465H1.02674V18.8465L1.02275 18.8466C0.843692 18.8538 0.666761 18.8102 0.514498 18.7221C0.362813 18.6342 0.242798 18.5062 0.168775 18.3549C0.101248 18.2017 0.0829864 18.0333 0.116032 17.8706C0.149179 17.7073 0.232648 17.5563 0.3568 17.4369C0.356896 17.4368 0.356991 17.4367 0.357087 17.4366L2.35379 15.5424L2.42325 15.4765L2.36043 15.4042C0.908815 13.7345 0.119515 11.6363 0.128147 9.47366ZM3.36452 16.9793L3.18264 17.1519H3.43335H10.0141V17.0519L10.0141 17.1519C11.8841 17.1505 13.6963 16.5341 15.142 15.4068C16.5878 14.2795 17.5778 12.7106 17.9421 10.9668C18.3063 9.22297 18.0218 7.41346 17.1377 5.84691C16.2536 4.28049 14.8251 3.05446 13.0965 2.3765C11.368 1.69857 9.44547 1.61021 7.65616 2.12632C5.8668 2.64244 4.32028 3.73148 3.28088 5.20915C2.24139 6.68695 1.77374 8.4617 1.95852 10.2309C2.14328 11.9999 2.96877 13.6525 4.293 14.9075C4.45982 15.0667 4.55242 15.2809 4.55242 15.503C4.55242 15.7251 4.45982 15.9393 4.293 16.0985L3.36452 16.9793ZM5.02111 6.73129H15.007C15.247 6.73129 15.4762 6.82177 15.6443 6.9813C15.8123 7.14066 15.9056 7.35564 15.9056 7.57861C15.9056 7.80159 15.8123 8.01656 15.6443 8.17592C15.4762 8.33545 15.247 8.42594 15.007 8.42594H5.02111C4.78114 8.42594 4.55199 8.33545 4.38382 8.17592C4.21584 8.01656 4.12252 7.80159 4.12252 7.57861C4.12252 7.35564 4.21584 7.14066 4.38382 6.9813C4.55199 6.82177 4.78114 6.73129 5.02111 6.73129ZM5.02111 10.5206H11.0127C11.2526 10.5206 11.4818 10.6111 11.65 10.7706C11.8179 10.93 11.9113 11.1449 11.9113 11.3679C11.9113 11.5909 11.8179 11.8059 11.65 11.9652C11.4818 12.1248 11.2526 12.2152 11.0127 12.2152H5.02111C4.78114 12.2152 4.55199 12.1248 4.38382 11.9652C4.21584 11.8059 4.12252 11.5909 4.12252 11.3679C4.12252 11.1449 4.21584 10.93 4.38382 10.7706C4.55199 10.6111 4.78114 10.5206 5.02111 10.5206Z" fill="#091422" stroke="#FE4F51" stroke-width="0.2"/>
</svg>
