<svg width="26" height="25" viewBox="0 0 26 25" fill="none" xmlns="http://www.w3.org/2000/svg">
<path d="M25.5666 16.9692L19.7029 11.3328C19.8257 10.7571 19.8865 10.1708 19.8846 9.58313C19.8841 7.97174 19.462 6.38647 18.6573 4.97384C17.8525 3.56121 16.6911 2.36682 15.2804 1.50106C13.8697 0.635303 12.2552 0.126122 10.5862 0.0205838C8.91713 -0.0849543 7.24741 0.216556 5.73134 0.897245C5.53926 0.981777 5.37151 1.1102 5.24264 1.27137C5.11378 1.43254 5.02771 1.62158 4.99189 1.82207C4.95622 2.02002 4.97061 2.22333 5.03384 2.41478C5.09707 2.60623 5.20728 2.78018 5.35513 2.92187L10.9983 8.34586L8.66317 10.5954L3.03302 5.15895C2.8847 5.01873 2.70358 4.91489 2.50492 4.85617C2.30625 4.79744 2.09585 4.78556 1.89142 4.82151C1.68461 4.85475 1.48925 4.93578 1.32206 5.05767C1.15487 5.17956 1.02084 5.33867 0.93144 5.52138C0.222514 6.98674 -0.0901843 8.60103 0.0224322 10.2141C0.135049 11.8271 0.669322 13.3866 1.57555 14.7473C2.48178 16.108 3.73052 17.2257 5.20561 17.9966C6.6807 18.7675 8.33421 19.1665 10.0123 19.1563C10.6224 19.1582 11.231 19.0996 11.8285 18.9814L17.6792 24.6303C17.7998 24.7475 17.9433 24.8404 18.1014 24.9039C18.2594 24.9673 18.429 25 18.6003 25C18.7715 25 18.9411 24.9673 19.0992 24.9039C19.2572 24.8404 19.4007 24.7475 19.5213 24.6303C19.6429 24.5141 19.7394 24.3759 19.8053 24.2236C19.8711 24.0713 19.905 23.908 19.905 23.743C19.905 23.578 19.8711 23.4146 19.8053 23.2624C19.7394 23.1101 19.6429 22.9718 19.5213 22.8557L13.1647 16.7318C13.0058 16.5798 12.8089 16.47 12.5929 16.413C12.3769 16.3561 12.1494 16.354 11.9323 16.4069C11.3059 16.5684 10.6607 16.6524 10.0123 16.6568C9.04203 16.6651 8.07963 16.4883 7.18057 16.1366C6.28151 15.785 5.46355 15.2654 4.77381 14.6079C4.08407 13.9504 3.53619 13.1679 3.16173 12.3056C2.78727 11.4432 2.59362 10.5179 2.59195 9.58313C2.59026 9.16448 2.62498 8.74643 2.69573 8.33336L7.78102 13.2449C7.90162 13.3621 8.0451 13.4551 8.20319 13.5185C8.36127 13.582 8.53083 13.6146 8.70209 13.6146C8.87334 13.6146 9.0429 13.582 9.20099 13.5185C9.35907 13.4551 9.50255 13.3621 9.62315 13.2449L13.7485 9.23319C13.9823 9.00015 14.113 8.68871 14.113 8.3646C14.113 8.04049 13.9823 7.72905 13.7485 7.49601L8.70209 2.59693C9.13094 2.52946 9.56482 2.49602 9.99936 2.49695C11.9479 2.50026 13.8155 3.2483 15.1921 4.57685C16.5687 5.90541 17.3419 7.70592 17.3419 9.58313C17.3374 10.2078 17.2502 10.8294 17.0824 11.4328C17.0275 11.6419 17.0297 11.8611 17.0888 12.0692C17.1479 12.2773 17.2619 12.467 17.4197 12.6201L23.7764 18.7439C24.0206 18.9793 24.352 19.1115 24.6974 19.1115C25.0429 19.1115 25.3742 18.9793 25.6185 18.7439C25.8628 18.5086 26 18.1894 26 17.8566C26 17.5238 25.8628 17.2046 25.6185 16.9692H25.5666Z" fill="#FDECD2"/>
</svg>
