<svg width="124" height="119" viewBox="0 0 124 119" fill="none" xmlns="http://www.w3.org/2000/svg">
<path d="M21.3502 83.7152L27.5764 70.7592C28.1268 69.6138 28.1997 68.2966 27.779 67.0975C27.3583 65.8984 26.4785 64.9155 25.3331 64.3651L21.0144 62.2897C18.7236 61.1888 16.964 59.223 16.1226 56.8248C15.2812 54.4265 15.427 51.7923 16.5278 49.5015C17.6287 47.2107 19.5945 45.4511 21.9927 44.6097C24.391 43.7683 27.0252 43.914 29.316 45.0149L33.6347 47.0903C34.7801 47.6407 36.0972 47.7136 37.2963 47.2929C38.4955 46.8722 39.4783 45.9924 40.0288 44.847L46.255 31.891C46.8054 30.7456 47.7883 29.8657 48.9874 29.445C50.1866 29.0243 51.5037 29.0972 52.6491 29.6477L65.6051 35.8739C66.7505 36.4243 68.0677 36.4972 69.2668 36.0765C70.4659 35.6558 71.4488 34.776 71.9992 33.6306L74.0746 29.3119C75.1755 27.0211 77.1413 25.2615 79.5395 24.4201C81.9378 23.5787 84.572 23.7245 86.8628 24.8253C89.1536 25.9262 90.9132 27.892 91.7546 30.2902C92.596 32.6885 92.4502 35.3227 91.3494 37.6135L89.274 41.9322C88.7236 43.0776 88.6507 44.3947 89.0714 45.5938C89.4921 46.793 90.3719 47.7759 91.5173 48.3263L104.473 54.5525C105.619 55.1029 106.499 56.0858 106.919 57.2849C107.34 58.4841 107.267 59.8012 106.717 60.9466L100.49 73.9027C99.94 75.048 98.9571 75.9279 97.758 76.3486C96.5589 76.7693 95.2417 76.6964 94.0963 76.1459L89.7776 74.0705C87.4869 72.9697 84.8526 72.8239 82.4543 73.6653C80.0561 74.5067 78.0903 76.2663 76.9895 78.5571C75.8886 80.8479 75.7428 83.4821 76.5842 85.8804C77.4256 88.2786 79.1853 90.2444 81.476 91.3453L85.7947 93.4207C86.9401 93.9711 87.8199 94.954 88.2406 96.1531C88.6613 97.3523 88.5884 98.6694 88.038 99.8148L81.8118 112.771C81.2614 113.916 80.2785 114.796 79.0794 115.217C77.8802 115.637 76.5631 115.565 75.4177 115.014L62.4616 108.788C61.3163 108.237 60.4364 107.255 60.0157 106.055C59.595 104.856 59.6679 103.539 60.2184 102.394L62.2938 98.0751C63.3946 95.7844 63.5404 93.1501 62.699 90.7519C61.8576 88.3536 60.098 86.3878 57.8072 85.287C55.5164 84.1861 52.8821 84.0403 50.4839 84.8817C48.0856 85.7231 46.1199 87.4828 45.019 89.7735L42.9436 94.0922C42.3932 95.2376 41.4103 96.1174 40.2112 96.5381C39.012 96.9588 37.6949 96.8859 36.5495 96.3355L23.5934 90.1093C22.4481 89.5589 21.5682 88.576 21.1475 87.3769C20.7268 86.1777 20.7997 84.8606 21.3502 83.7152" fill="#4FC8B1"/>
<path d="M21.3502 83.7152L27.5764 70.7592C28.1268 69.6138 28.1997 68.2966 27.779 67.0975C27.3583 65.8984 26.4785 64.9155 25.3331 64.3651L21.0144 62.2897C18.7236 61.1888 16.964 59.223 16.1226 56.8248C15.2812 54.4265 15.427 51.7923 16.5278 49.5015C17.6287 47.2107 19.5945 45.4511 21.9927 44.6097C24.391 43.7683 27.0252 43.914 29.316 45.0149L33.6347 47.0903C34.7801 47.6407 36.0972 47.7136 37.2963 47.2929C38.4955 46.8722 39.4783 45.9924 40.0288 44.847L46.255 31.891C46.8054 30.7456 47.7883 29.8657 48.9874 29.445C50.1866 29.0243 51.5037 29.0972 52.6491 29.6477L65.6051 35.8739C66.7505 36.4243 68.0677 36.4972 69.2668 36.0765C70.4659 35.6558 71.4488 34.776 71.9992 33.6306L74.0746 29.3119C75.1755 27.0211 77.1413 25.2615 79.5395 24.4201C81.9378 23.5787 84.572 23.7245 86.8628 24.8253C89.1536 25.9262 90.9132 27.892 91.7546 30.2902C92.596 32.6885 92.4502 35.3227 91.3494 37.6135L89.274 41.9322C88.7236 43.0776 88.6507 44.3947 89.0714 45.5938C89.4921 46.793 90.3719 47.7759 91.5173 48.3263L104.473 54.5525C105.619 55.1029 106.499 56.0858 106.919 57.2849C107.34 58.4841 107.267 59.8012 106.717 60.9466L100.49 73.9027C99.94 75.048 98.9571 75.9279 97.758 76.3486C96.5589 76.7693 95.2417 76.6964 94.0963 76.1459L89.7776 74.0705C87.4869 72.9697 84.8526 72.8239 82.4543 73.6653C80.0561 74.5067 78.0903 76.2663 76.9895 78.5571C75.8886 80.8479 75.7428 83.4821 76.5842 85.8804C77.4256 88.2786 79.1853 90.2444 81.476 91.3453L85.7947 93.4207C86.9401 93.9711 87.8199 94.954 88.2406 96.1531C88.6613 97.3523 88.5884 98.6694 88.038 99.8148L81.8118 112.771C81.2614 113.916 80.2785 114.796 79.0794 115.217C77.8802 115.637 76.5631 115.565 75.4177 115.014L62.4616 108.788C61.3163 108.237 60.4364 107.255 60.0157 106.055C59.595 104.856 59.6679 103.539 60.2184 102.394L62.2938 98.0751C63.3946 95.7844 63.5404 93.1501 62.699 90.7519C61.8576 88.3536 60.098 86.3878 57.8072 85.287C55.5164 84.1861 52.8821 84.0403 50.4839 84.8817C48.0856 85.7231 46.1199 87.4828 45.019 89.7735L42.9436 94.0922C42.3932 95.2376 41.4103 96.1174 40.2112 96.5381C39.012 96.9588 37.6949 96.8859 36.5495 96.3355L23.5934 90.1093C22.4481 89.5589 21.5682 88.576 21.1475 87.3769C20.7268 86.1777 20.7997 84.8606 21.3502 83.7152" stroke="#091422" stroke-width="2" stroke-linecap="round" stroke-linejoin="round"/>
<path d="M27.7679 83.0432L33.9111 70.2599C34.4542 69.1298 34.5261 67.8302 34.111 66.6471C33.696 65.4639 32.8279 64.4942 31.6978 63.9511L27.4366 61.9033C25.1764 60.8171 23.4402 58.8776 22.6101 56.5113C21.7799 54.145 21.9237 51.5459 23.0099 49.2857C24.0961 47.0254 26.0356 45.2893 28.4019 44.4591C30.7682 43.6289 33.3673 43.7727 35.6276 44.8589L39.8887 46.9066C41.0188 47.4497 42.3184 47.5216 43.5015 47.1066C44.6846 46.6915 45.6544 45.8234 46.1975 44.6933L52.3407 31.9099C52.8838 30.7798 53.8536 29.9117 55.0367 29.4966C56.2198 29.0816 57.5194 29.1535 58.6495 29.6966L71.4328 35.8398C72.563 36.3829 73.8625 36.4548 75.0457 36.0397C76.2288 35.6246 77.1986 34.7565 77.7417 33.6264L79.7894 29.3653C80.8756 27.105 82.8152 25.3689 85.1814 24.5387C87.5477 23.7085 90.1469 23.8523 92.4071 24.9385C94.6673 26.0247 96.4035 27.9643 97.2337 30.3305C98.0638 32.6968 97.92 35.296 96.8338 37.5562L94.7861 41.8173C94.243 42.9474 94.1711 44.247 94.5862 45.4301C95.0013 46.6133 95.8694 47.583 96.9995 48.1261L109.783 54.2693C110.913 54.8124 111.781 55.7822 112.196 56.9653C112.611 58.1485 112.539 59.448 111.996 60.5782L105.853 73.3615C105.31 74.4916 104.34 75.3597 103.157 75.7748C101.974 76.1899 100.674 76.1179 99.5442 75.5749L95.2831 73.5271C93.0228 72.4409 90.4237 72.2971 88.0574 73.1273C85.6911 73.9575 83.7516 75.6936 82.6654 77.9539C81.5792 80.2141 81.4354 82.8133 82.2656 85.1795C83.0957 87.5458 84.8319 89.4854 87.0921 90.5716L91.3532 92.6193C92.4834 93.1624 93.3514 94.1322 93.7665 95.3153C94.1816 96.4984 94.1097 97.798 93.5666 98.9281L87.4234 111.711C86.8803 112.842 85.9105 113.71 84.7274 114.125C83.5443 114.54 82.2447 114.468 81.1146 113.925L68.3313 107.782C67.2012 107.239 66.3331 106.269 65.918 105.086C65.5029 103.902 65.5748 102.603 66.1179 101.473L68.1656 97.2117C69.2518 94.9514 69.3956 92.3523 68.5654 89.986C67.7353 87.6198 65.9991 85.6802 63.7389 84.594C61.4786 83.5078 58.8795 83.364 56.5132 84.1942C54.147 85.0244 52.2074 86.7605 51.1212 89.0208L49.0735 93.2819C48.5304 94.412 47.5606 95.2801 46.3775 95.6952C45.1943 96.1102 43.8947 96.0383 42.7646 95.4952L29.9813 89.3521C28.8512 88.809 27.9831 87.8392 27.568 86.656C27.1529 85.4729 27.2248 84.1733 27.7679 83.0432" fill="#4FC8B1"/>
<path d="M27.7679 83.0432L33.9111 70.2599C34.4542 69.1298 34.5261 67.8302 34.111 66.6471C33.696 65.4639 32.8279 64.4942 31.6978 63.9511L27.4366 61.9033C25.1764 60.8171 23.4402 58.8776 22.6101 56.5113C21.7799 54.145 21.9237 51.5459 23.0099 49.2857C24.0961 47.0254 26.0356 45.2893 28.4019 44.4591C30.7682 43.6289 33.3673 43.7727 35.6276 44.8589L39.8887 46.9066C41.0188 47.4497 42.3184 47.5216 43.5015 47.1066C44.6846 46.6915 45.6544 45.8234 46.1975 44.6933L52.3407 31.9099C52.8838 30.7798 53.8536 29.9117 55.0367 29.4966C56.2198 29.0816 57.5194 29.1535 58.6495 29.6966L71.4328 35.8398C72.563 36.3829 73.8625 36.4548 75.0457 36.0397C76.2288 35.6246 77.1986 34.7565 77.7417 33.6264L79.7894 29.3653C80.8756 27.105 82.8152 25.3689 85.1814 24.5387C87.5477 23.7085 90.1469 23.8523 92.4071 24.9385C94.6673 26.0247 96.4035 27.9643 97.2337 30.3305C98.0638 32.6968 97.92 35.296 96.8338 37.5562L94.7861 41.8173C94.243 42.9474 94.1711 44.247 94.5862 45.4301C95.0013 46.6133 95.8694 47.583 96.9995 48.1261L109.783 54.2693C110.913 54.8124 111.781 55.7822 112.196 56.9653C112.611 58.1485 112.539 59.448 111.996 60.5782L105.853 73.3615C105.31 74.4916 104.34 75.3597 103.157 75.7748C101.974 76.1899 100.674 76.1179 99.5442 75.5749L95.2831 73.5271C93.0228 72.4409 90.4237 72.2971 88.0574 73.1273C85.6911 73.9575 83.7516 75.6936 82.6654 77.9539C81.5792 80.2141 81.4354 82.8133 82.2656 85.1795C83.0957 87.5458 84.8319 89.4854 87.0921 90.5716L91.3532 92.6193C92.4834 93.1624 93.3514 94.1322 93.7665 95.3153C94.1816 96.4984 94.1097 97.798 93.5666 98.9281L87.4234 111.711C86.8803 112.842 85.9105 113.71 84.7274 114.125C83.5443 114.54 82.2447 114.468 81.1146 113.925L68.3313 107.782C67.2012 107.239 66.3331 106.269 65.918 105.086C65.5029 103.902 65.5748 102.603 66.1179 101.473L68.1656 97.2117C69.2518 94.9514 69.3956 92.3523 68.5654 89.986C67.7353 87.6198 65.9991 85.6802 63.7389 84.594C61.4786 83.5078 58.8795 83.364 56.5132 84.1942C54.147 85.0244 52.2074 86.7605 51.1212 89.0208L49.0735 93.2819C48.5304 94.412 47.5606 95.2801 46.3775 95.6952C45.1943 96.1102 43.8947 96.0383 42.7646 95.4952L29.9813 89.3521C28.8512 88.809 27.9831 87.8392 27.568 86.656C27.1529 85.4729 27.2248 84.1733 27.7679 83.0432" stroke="#091422" stroke-width="2" stroke-linecap="round" stroke-linejoin="round"/>
</svg>
