<svg width="28" height="28" viewBox="0 0 28 28" fill="none" xmlns="http://www.w3.org/2000/svg">
<path d="M21.0099 9.79957H7.02955C6.65877 9.79957 6.30318 9.94706 6.041 10.2096C5.77882 10.4721 5.63152 10.8282 5.63152 11.1995C5.63152 11.5708 5.77882 11.9269 6.041 12.1894C6.30318 12.4519 6.65877 12.5994 7.02955 12.5994H21.0099C21.3806 12.5994 21.7362 12.4519 21.9984 12.1894C22.2606 11.9269 22.4079 11.5708 22.4079 11.1995C22.4079 10.8282 22.2606 10.4721 21.9984 10.2096C21.7362 9.94706 21.3806 9.79957 21.0099 9.79957ZM15.4177 15.3993H7.02955C6.65877 15.3993 6.30318 15.5468 6.041 15.8094C5.77882 16.0719 5.63152 16.428 5.63152 16.7993C5.63152 17.1705 5.77882 17.5266 6.041 17.7892C6.30318 18.0517 6.65877 18.1992 7.02955 18.1992H15.4177C15.7885 18.1992 16.1441 18.0517 16.4063 17.7892C16.6685 17.5266 16.8158 17.1705 16.8158 16.7993C16.8158 16.428 16.6685 16.0719 16.4063 15.8094C16.1441 15.5468 15.7885 15.3993 15.4177 15.3993ZM14.0197 0C12.1838 0 10.3658 0.362105 8.66967 1.06564C6.97351 1.76917 5.43233 2.80036 4.13414 4.10032C1.51233 6.72572 0.0394054 10.2865 0.0394054 13.9994C0.0271836 17.232 1.14496 20.3671 3.19895 22.861L0.402893 25.6609C0.208906 25.8577 0.0774962 26.1077 0.0252461 26.3793C-0.027004 26.6509 0.00224649 26.9319 0.109307 27.1868C0.225424 27.4387 0.413664 27.6503 0.65013 27.7949C0.886597 27.9395 1.16063 28.0104 1.43743 27.9988H14.0197C17.7275 27.9988 21.2835 26.5238 23.9053 23.8984C26.5271 21.273 28 17.7122 28 13.9994C28 10.2865 26.5271 6.72572 23.9053 4.10032C21.2835 1.47493 17.7275 0 14.0197 0V0ZM14.0197 25.1989H4.80669L6.10685 23.8969C6.36724 23.6346 6.51339 23.2798 6.51339 22.91C6.51339 22.5401 6.36724 22.1853 6.10685 21.923C4.27625 20.092 3.13628 17.682 2.88117 15.1036C2.62605 12.5253 3.27157 9.93817 4.70774 7.78299C6.14392 5.6278 8.2819 4.03792 10.7574 3.28422C13.2329 2.53051 15.8929 2.65961 18.284 3.64952C20.6751 4.63943 22.6495 6.4289 23.8708 8.71306C25.0921 10.9972 25.4848 13.6348 24.9818 16.1763C24.4789 18.7178 23.1115 21.0061 21.1127 22.6513C19.1138 24.2965 16.6071 25.1968 14.0197 25.1989V25.1989Z" fill="#091422"/>
</svg>
