<svg width="38" height="45" viewBox="0 0 38 45" fill="none" xmlns="http://www.w3.org/2000/svg">
<path d="M37.2134 11.412L37.2747 11.451H37.3474H37.3645L37.4941 11.5667C37.4944 11.567 37.4947 11.5673 37.495 11.5676C37.5512 11.6189 37.6001 11.6778 37.6404 11.7426L37.75 12.0181V12.1511C37.7404 12.2106 37.7392 12.2712 37.7466 12.331C37.7377 12.3969 37.7384 12.4639 37.7489 12.5297C37.7467 12.5495 37.7416 12.5804 37.7334 12.6175C37.7286 12.6393 37.7237 12.6589 37.72 12.673L37.7158 12.6891L37.7147 12.693L37.7145 12.6936L37.7145 12.6936L37.7145 12.6937L37.7145 12.6937L37.7145 12.6938L37.705 12.7271V12.762V32.5117V32.5122C37.7057 32.8544 37.6196 33.1911 37.455 33.4904C37.2904 33.7896 37.0529 34.0415 36.7649 34.2226C36.7648 34.2227 36.7646 34.2228 36.7644 34.2229L20.0427 44.5493L19.7699 44.659H19.6383H19.5994L19.5623 44.6708C19.231 44.7764 18.8754 44.7764 18.5441 44.6708L18.507 44.659H18.4681H18.3365L18.0641 44.5494L1.207 34.0646C1.20685 34.0645 1.20669 34.0644 1.20654 34.0643C0.918523 33.8832 0.680979 33.6312 0.516434 33.3321C0.351796 33.0327 0.265711 32.696 0.266392 32.3538V32.3533V12.6036V12.5855L0.263781 12.5675C0.245406 12.4414 0.245406 12.3133 0.263781 12.1872L0.266392 12.1693V12.1511V11.8597L0.369091 11.6016L0.435092 11.522L0.632818 11.3828L0.644695 11.3744L0.655524 11.3648L0.851924 11.1893L1.03768 11.044L17.8331 0.532946C18.0326 0.415009 18.2486 0.328169 18.4738 0.275313H18.6707H18.6915L18.712 0.271866C18.8858 0.242711 19.0631 0.242711 19.2368 0.271866L19.2574 0.275313H19.2782H19.421C19.6146 0.336589 19.7956 0.43307 19.9549 0.560112L19.9664 0.569245L19.9788 0.576979L28.3475 5.77891L28.3496 5.78022L37.2134 11.412ZM19.0276 4.72211L18.8957 4.64015L18.7638 4.7221L6.16257 12.5496L5.81977 12.7625L6.16309 12.9746L10.191 15.4631L10.3228 15.5446L10.4545 15.4627L23.0331 7.63523L23.3745 7.4228L23.033 7.21062L19.0276 4.72211ZM16.5146 39.0817L16.8955 39.3156V38.8687V24.5032V24.3642L16.7774 24.2909L4.40126 16.5991L4.0193 16.3617V16.8114V31.2674V31.4072L4.13846 31.4804L16.5146 39.0817ZM18.7662 20.7354L18.8968 20.8145L19.0268 20.7345L31.628 12.9748L31.9716 12.7632L31.6291 12.5498L27.3087 9.85766L27.1764 9.77521L27.0441 9.85775L14.4654 17.7079L14.1204 17.9232L14.4683 18.1338L18.7662 20.7354ZM33.6546 31.4115L33.7721 31.3381V31.1995V16.8114V16.3617L33.3901 16.5991L21.0139 24.2909L20.8959 24.3642V24.5032V38.9365V39.3877L21.2784 39.1485L33.6546 31.4115Z" fill="#091422" stroke="#FDECD2" stroke-width="0.5"/>
</svg>
