<svg width="41" height="25" viewBox="0 0 41 25" fill="none" xmlns="http://www.w3.org/2000/svg">
<path d="M9.31818 10.7143C8.94959 10.7143 8.58927 10.819 8.2828 11.0152C7.97633 11.2114 7.73746 11.4903 7.59641 11.8166C7.45535 12.1429 7.41845 12.502 7.49035 12.8484C7.56226 13.1948 7.73976 13.513 8.00039 13.7627C8.26103 14.0124 8.59309 14.1825 8.9546 14.2514C9.31611 14.3203 9.69083 14.2849 10.0314 14.1498C10.3719 14.0146 10.663 13.7857 10.8677 13.4921C11.0725 13.1984 11.1818 12.8532 11.1818 12.5C11.1818 12.0264 10.9855 11.5722 10.636 11.2373C10.2865 10.9024 9.81245 10.7143 9.31818 10.7143ZM31.6818 10.7143C31.3132 10.7143 30.9529 10.819 30.6464 11.0152C30.34 11.2114 30.1011 11.4903 29.96 11.8166C29.819 12.1429 29.7821 12.502 29.854 12.8484C29.9259 13.1948 30.1034 13.513 30.364 13.7627C30.6247 14.0124 30.9567 14.1825 31.3182 14.2514C31.6797 14.3203 32.0545 14.2849 32.395 14.1498C32.7355 14.0146 33.0266 13.7857 33.2314 13.4921C33.4362 13.1984 33.5455 12.8532 33.5455 12.5C33.5455 12.0264 33.3491 11.5722 32.9996 11.2373C32.6501 10.9024 32.1761 10.7143 31.6818 10.7143ZM35.4091 0H5.59091C4.10811 0 2.68604 0.564412 1.63754 1.56907C0.58904 2.57373 0 3.93634 0 5.35714V19.6429C0 21.0637 0.58904 22.4263 1.63754 23.4309C2.68604 24.4356 4.10811 25 5.59091 25H35.4091C36.8919 25 38.314 24.4356 39.3625 23.4309C40.411 22.4263 41 21.0637 41 19.6429V5.35714C41 3.93634 40.411 2.57373 39.3625 1.56907C38.314 0.564412 36.8919 0 35.4091 0ZM37.2727 19.6429C37.2727 20.1165 37.0764 20.5707 36.7269 20.9055C36.3774 21.2404 35.9034 21.4286 35.4091 21.4286H5.59091C5.09664 21.4286 4.62262 21.2404 4.27312 20.9055C3.92362 20.5707 3.72727 20.1165 3.72727 19.6429V5.35714C3.72727 4.88354 3.92362 4.42934 4.27312 4.09445C4.62262 3.75957 5.09664 3.57143 5.59091 3.57143H35.4091C35.9034 3.57143 36.3774 3.75957 36.7269 4.09445C37.0764 4.42934 37.2727 4.88354 37.2727 5.35714V19.6429ZM20.5 7.14286C19.3942 7.14286 18.3133 7.45705 17.3939 8.0457C16.4744 8.63435 15.7578 9.47102 15.3347 10.4499C14.9115 11.4288 14.8008 12.5059 15.0165 13.5451C15.2322 14.5843 15.7647 15.5389 16.5466 16.2881C17.3285 17.0373 18.3247 17.5475 19.4093 17.7542C20.4938 17.9609 21.6179 17.8548 22.6395 17.4494C23.6612 17.0439 24.5343 16.3572 25.1487 15.4763C25.763 14.5953 26.0909 13.5595 26.0909 12.5C26.0909 11.0792 25.5019 9.71659 24.4534 8.71193C23.4049 7.70727 21.9828 7.14286 20.5 7.14286ZM20.5 14.2857C20.1314 14.2857 19.7711 14.181 19.4646 13.9848C19.1581 13.7886 18.9193 13.5097 18.7782 13.1834C18.6372 12.8571 18.6003 12.498 18.6722 12.1516C18.7441 11.8052 18.9216 11.487 19.1822 11.2373C19.4428 10.9876 19.7749 10.8175 20.1364 10.7486C20.4979 10.6797 20.8726 10.7151 21.2132 10.8502C21.5537 10.9854 21.8448 11.2143 22.0496 11.5079C22.2543 11.8016 22.3636 12.1468 22.3636 12.5C22.3636 12.9736 22.1673 13.4278 21.8178 13.7627C21.4683 14.0976 20.9943 14.2857 20.5 14.2857Z" fill="#091422"/>
</svg>
