<svg width="31" height="31" viewBox="0 0 31 31" fill="none" xmlns="http://www.w3.org/2000/svg">
<path d="M17.6439 7.15226C17.4832 7.3121 17.3556 7.50226 17.2685 7.71178C17.1815 7.92131 17.1367 8.14604 17.1367 8.37302C17.1367 8.59999 17.1815 8.82473 17.2685 9.03425C17.3556 9.24377 17.4832 9.43393 17.6439 9.59377L20.936 12.895C21.0954 13.0561 21.2851 13.184 21.494 13.2713C21.703 13.3586 21.9271 13.4036 22.1534 13.4036C22.3798 13.4036 22.6039 13.3586 22.8128 13.2713C23.0218 13.184 23.2114 13.0561 23.3708 12.895L30.3666 5.87992C30.5541 5.72715 30.7073 5.53637 30.8162 5.32009C30.925 5.10381 30.987 4.86691 30.9982 4.62491C31.0093 4.38292 30.9694 4.14129 30.8809 3.91586C30.7924 3.69044 30.6574 3.48631 30.4848 3.31685C30.3121 3.14739 30.1057 3.01642 29.8791 2.93253C29.6524 2.84865 29.4107 2.81373 29.1696 2.83008C28.9286 2.84643 28.6937 2.91367 28.4804 3.02739C28.2671 3.14112 28.0801 3.29876 27.9318 3.48999L22.1534 9.2499L20.0787 7.15226C19.9193 6.99111 19.7296 6.86319 19.5207 6.7759C19.3117 6.68861 19.0876 6.64367 18.8613 6.64367C18.6349 6.64367 18.4108 6.68861 18.2019 6.7759C17.9929 6.86319 17.8033 6.99111 17.6439 7.15226V7.15226ZM28.9949 13.1873C28.5427 13.2266 28.1245 13.4442 27.832 13.7923C27.5395 14.1404 27.3966 14.5906 27.4346 15.0442C27.4431 15.2046 27.4431 15.3653 27.4346 15.5256C27.4346 18.7177 26.17 21.779 23.9191 24.0361C21.6682 26.2932 18.6152 27.5612 15.432 27.5612H5.847L6.94438 26.478C7.26374 26.1559 7.44299 25.7201 7.44299 25.2659C7.44299 24.8116 7.26374 24.3759 6.94438 24.0537C5.41089 22.5243 4.318 20.6079 3.78128 18.5069C3.24456 16.406 3.28394 14.1987 3.89526 12.1183C4.50659 10.038 5.66713 8.16192 7.25421 6.68851C8.84128 5.21511 10.7959 4.19909 12.9114 3.7479C14.4961 3.43016 16.1278 3.43016 17.7125 3.7479C17.9376 3.79305 18.1695 3.7933 18.3947 3.74861C18.62 3.70393 18.8343 3.61519 19.0253 3.48746C19.2164 3.35973 19.3805 3.19552 19.5083 3.0042C19.6361 2.81287 19.725 2.59819 19.77 2.3724C19.8151 2.1466 19.8153 1.91413 19.7708 1.68824C19.7262 1.46236 19.6377 1.24749 19.5103 1.05589C19.3829 0.864304 19.2192 0.699747 19.0284 0.57162C18.8376 0.443492 18.6235 0.354303 18.3983 0.309145C16.3555 -0.103048 14.2512 -0.103048 12.2084 0.309145C8.74682 1.06682 5.64805 2.98952 3.42711 5.75769C1.20617 8.52586 -0.0031998 11.9728 6.35852e-06 15.5256C0.0144104 19.0438 1.22399 22.4521 3.42933 25.1885L0.497258 28.0599C0.259336 28.3017 0.098164 28.6087 0.03408 28.9422C-0.0300039 29.2758 0.00587135 29.6209 0.137179 29.934C0.265813 30.248 0.484257 30.5168 0.764982 30.7065C1.04571 30.8962 1.37615 30.9983 1.71467 31H15.432C19.5248 31 23.4499 29.3697 26.344 26.4677C29.238 23.5656 30.8639 19.6297 30.8639 15.5256V14.7691C30.8467 14.5415 30.7844 14.3195 30.6807 14.1163C30.5771 13.9131 30.4341 13.7325 30.2601 13.5853C30.0861 13.438 29.8847 13.327 29.6674 13.2587C29.4502 13.1903 29.2216 13.1661 28.9949 13.1873Z" fill="#091422"/>
</svg>
