<svg width="38" height="41" viewBox="0 0 38 41" fill="none" xmlns="http://www.w3.org/2000/svg">
<path d="M37.6988 31.5708L31.983 21.7207C33.1526 19.5771 33.762 17.1738 33.7547 14.733C33.7547 10.8256 32.1992 7.07819 29.4304 4.31521C26.6616 1.55223 22.9063 0 18.9907 0C15.075 0 11.3197 1.55223 8.55096 4.31521C5.78217 7.07819 4.22668 10.8256 4.22668 14.733C4.21942 17.1738 4.82874 19.5771 5.99836 21.7207L0.282582 31.5708C0.0971061 31.8914 -0.000365441 32.2551 1.02958e-06 32.6253C0.0003675 32.9954 0.0985586 33.359 0.284669 33.6792C0.470779 33.9994 0.738224 34.2649 1.06002 34.4491C1.38182 34.6332 1.74659 34.7294 2.11754 34.7279H8.17078L11.2501 39.9055C11.3539 40.0771 11.4818 40.233 11.6298 40.3686C12.0208 40.7446 12.542 40.9557 13.0851 40.9579H13.3804C13.6988 40.9144 14.003 40.7989 14.2699 40.6201C14.5367 40.4414 14.7591 40.2042 14.92 39.9266L18.9907 32.9389L23.0613 39.9897C23.2246 40.2634 23.4481 40.4965 23.7148 40.6715C23.9815 40.8465 24.2845 40.9588 24.601 41H24.8963C25.4466 41.0033 25.9765 40.7918 26.3727 40.4106C26.5145 40.2828 26.6355 40.1337 26.7312 39.9687L29.8106 34.791H35.8638C36.2355 34.7925 36.6009 34.696 36.9232 34.5112C37.2454 34.3264 37.513 34.0599 37.6988 33.7387C37.8959 33.4113 38 33.0366 38 32.6547C38 32.2729 37.8959 31.8982 37.6988 31.5708V31.5708ZM13.064 34.791L11.1869 31.655C11.002 31.3439 10.7399 31.0855 10.4259 30.9049C10.1119 30.7242 9.75653 30.6274 9.39408 30.6237H5.74526L8.76134 25.404C10.8383 27.4011 13.4559 28.7474 16.291 29.2767L13.064 34.791ZM18.9907 25.2567C16.9049 25.2567 14.866 24.6395 13.1318 23.4831C11.3976 22.3268 10.0459 20.6832 9.24771 18.7603C8.44953 16.8373 8.24069 14.7214 8.6476 12.68C9.05451 10.6386 10.0589 8.76349 11.5337 7.29173C13.0086 5.81998 14.8877 4.81771 16.9333 4.41165C18.979 4.00559 21.0994 4.214 23.0264 5.0105C24.9533 5.80701 26.6004 7.15585 27.7591 8.88645C28.9179 10.617 29.5364 12.6517 29.5364 14.733C29.5364 17.5241 28.4253 20.2008 26.4476 22.1744C24.4699 24.1479 21.7876 25.2567 18.9907 25.2567V25.2567ZM28.5873 30.6237C28.2248 30.6274 27.8695 30.7242 27.5555 30.9049C27.2414 31.0855 26.9794 31.3439 26.7945 31.655L24.9174 34.791L21.7115 29.2135C24.5366 28.6735 27.1446 27.3284 29.22 25.3408L32.2361 30.5606L28.5873 30.6237Z" fill="black"/>
</svg>
